<svg xmlns="http://www.w3.org/2000/svg" xmlns:xlink="http://www.w3.org/1999/xlink" width="85" height="85" viewBox="0 0 85 85">
  <defs>
    <clipPath id="clip-path">
      <rect id="Rect치ngulo_34019" data-name="Rect치ngulo 34019" width="65" height="65" transform="translate(190 4713)" fill="#fff" stroke="#707070" stroke-width="1"/>
    </clipPath>
  </defs>
  <g id="Grupo_83551" data-name="Grupo 83551" transform="translate(-180 -4703)">
    <rect id="Rect치ngulo_33792" data-name="Rect치ngulo 33792" width="85" height="85" rx="5" transform="translate(180 4703)" fill="#465fc4"/>
    <g id="Grupo_80313" data-name="Grupo 80313" transform="translate(187.443 4717.179)">
      <g id="Grupo_80111" data-name="Grupo 80111" transform="translate(31.991)">
        <path id="Trazado_113526" data-name="Trazado 113526" d="M294.882,1043.023l-22.411-22.412a1.119,1.119,0,0,1,0-1.583h0a1.12,1.12,0,0,1,1.584,0l22.411,22.411a1.119,1.119,0,0,1,0,1.584h0A1.12,1.12,0,0,1,294.882,1043.023Z" transform="translate(-272.143 -1018.7)" fill="#ffc721"/>
      </g>
      <g id="Grupo_80112" data-name="Grupo 80112" transform="translate(42.988 3)">
        <path id="Trazado_113527" data-name="Trazado 113527" d="M345.734,1046.715l-8.414-8.414a1.12,1.12,0,0,1,0-1.583h0a1.119,1.119,0,0,1,1.584,0l8.413,8.413a1.119,1.119,0,0,1,0,1.584h0A1.119,1.119,0,0,1,345.734,1046.715Z" transform="translate(-336.993 -1036.39)" fill="#ffc721"/>
      </g>
      <g id="Grupo_80113" data-name="Grupo 80113" transform="translate(23.994)">
        <path id="Trazado_113528" data-name="Trazado 113528" d="M255.724,1051.018l-30.407-30.407a1.118,1.118,0,0,1,0-1.583h0a1.119,1.119,0,0,1,1.583,0l30.407,30.407a1.119,1.119,0,0,1,0,1.583h0A1.119,1.119,0,0,1,255.724,1051.018Z" transform="translate(-224.989 -1018.7)" fill="#ffc721"/>
      </g>
      <g id="Grupo_80114" data-name="Grupo 80114" transform="translate(17.667 1.668)">
        <path id="Trazado_113529" data-name="Trazado 113529" d="M223.07,1065.515,188,1030.449a1.119,1.119,0,0,1,0-1.583h0a1.118,1.118,0,0,1,1.583,0l35.067,35.067a1.12,1.12,0,0,1,0,1.583h0A1.119,1.119,0,0,1,223.07,1065.515Z" transform="translate(-187.675 -1028.537)" fill="#ffc721"/>
      </g>
      <g id="Grupo_80115" data-name="Grupo 80115" transform="translate(12.407 4.405)">
        <path id="Trazado_113530" data-name="Trazado 113530" d="M194.58,1084.177l-37.589-37.589a1.12,1.12,0,0,1,0-1.584h0a1.12,1.12,0,0,1,1.583,0l37.589,37.59a1.12,1.12,0,0,1,0,1.583h0A1.119,1.119,0,0,1,194.58,1084.177Z" transform="translate(-156.663 -1044.677)" fill="#ffc721"/>
      </g>
      <g id="Grupo_80116" data-name="Grupo 80116" transform="translate(8.002 8.002)">
        <path id="Trazado_113531" data-name="Trazado 113531" d="M169.412,1106.195l-38.4-38.4a1.121,1.121,0,0,1,0-1.584h0a1.12,1.12,0,0,1,1.584,0l38.4,38.4a1.121,1.121,0,0,1,0,1.584h0A1.121,1.121,0,0,1,169.412,1106.195Z" transform="translate(-130.686 -1065.885)" fill="#ffc721"/>
      </g>
      <g id="Grupo_80117" data-name="Grupo 80117" transform="translate(4.406 12.407)">
        <path id="Trazado_113532" data-name="Trazado 113532" d="M147.4,1131.364l-37.589-37.589a1.12,1.12,0,0,1,0-1.583h0a1.119,1.119,0,0,1,1.584,0l37.589,37.589a1.119,1.119,0,0,1,0,1.584h0A1.12,1.12,0,0,1,147.4,1131.364Z" transform="translate(-109.478 -1091.863)" fill="#ffc721"/>
      </g>
      <g id="Grupo_80118" data-name="Grupo 80118" transform="translate(1.668 17.666)">
        <path id="Trazado_113533" data-name="Trazado 113533" d="M128.731,1159.854l-35.067-35.067a1.119,1.119,0,0,1,0-1.583h0a1.118,1.118,0,0,1,1.583,0l35.067,35.066a1.12,1.12,0,0,1,0,1.584h0A1.118,1.118,0,0,1,128.731,1159.854Z" transform="translate(-93.336 -1122.875)" fill="#ffc721"/>
      </g>
      <g id="Grupo_80119" data-name="Grupo 80119" transform="translate(0 23.994)">
        <path id="Trazado_113534" data-name="Trazado 113534" d="M114.235,1192.508,83.827,1162.1a1.119,1.119,0,0,1,0-1.583h0a1.118,1.118,0,0,1,1.583,0l30.408,30.408a1.119,1.119,0,0,1,0,1.583h0A1.119,1.119,0,0,1,114.235,1192.508Z" transform="translate(-83.499 -1160.189)" fill="#ffc721"/>
      </g>
      <g id="Grupo_80120" data-name="Grupo 80120" transform="translate(0 31.991)">
        <path id="Trazado_113535" data-name="Trazado 113535" d="M106.238,1231.665l-22.411-22.411a1.119,1.119,0,0,1,0-1.584h0a1.119,1.119,0,0,1,1.583,0l22.411,22.411a1.12,1.12,0,0,1,0,1.583h0A1.12,1.12,0,0,1,106.238,1231.665Z" transform="translate(-83.499 -1207.343)" fill="#ffc721"/>
      </g>
      <g id="Grupo_80121" data-name="Grupo 80121" transform="translate(3 42.988)">
        <path id="Trazado_113536" data-name="Trazado 113536" d="M109.932,1282.517l-8.413-8.413a1.12,1.12,0,0,1,0-1.584h0a1.12,1.12,0,0,1,1.583,0l8.414,8.414a1.12,1.12,0,0,1,0,1.583h0A1.119,1.119,0,0,1,109.932,1282.517Z" transform="translate(-101.191 -1272.193)" fill="#ffc721"/>
      </g>
    </g>
    <g id="Enmascarar_grupo_68" data-name="Enmascarar grupo 68" clip-path="url(#clip-path)">
      <g id="prevencion" transform="translate(188.952 4711.952)">
        <g id="Grupo_83555" data-name="Grupo 83555">
          <g id="Grupo_83553" data-name="Grupo 83553">
            <path id="Trazado_114883" data-name="Trazado 114883" d="M33.548,2.1l26.1,11.284v21.29A30.659,30.659,0,0,1,34.5,64.833l-.95.167-.95-.167A30.659,30.659,0,0,1,7.445,34.671V13.381Z" fill="#8ac9fe" fill-rule="evenodd"/>
            <path id="Trazado_114884" data-name="Trazado 114884" d="M57.03,12.248l2.621,1.133v21.29A30.659,30.659,0,0,1,34.5,64.833l-.95.167-.95-.167c-.121-.021-.24-.045-.361-.068A30.663,30.663,0,0,0,57.03,34.671V12.248Z" fill="#60b7ff" fill-rule="evenodd"/>
            <path id="Trazado_114885" data-name="Trazado 114885" d="M33.6,7.894l20.861,9.018V34.758a25.416,25.416,0,0,1-20.819,25l-.042.007-.042-.007a25.416,25.416,0,0,1-20.819-25V16.912Z" fill="#60b7ff" fill-rule="evenodd"/>
            <path id="Trazado_114886" data-name="Trazado 114886" d="M33.6,7.894l20.861,9.018V34.758a25.416,25.416,0,0,1-20.819,25l-.042.007-.042-.007c-.205-.036-.409-.075-.613-.116A25.429,25.429,0,0,0,53.149,34.758V16.912L32.943,8.178Z" fill="#41a8fc" fill-rule="evenodd"/>
          </g>
          <g id="Grupo_83554" data-name="Grupo 83554">
            <path id="Trazado_114887" data-name="Trazado 114887" d="M25.994,33.609V19.45a2.518,2.518,0,0,1,5.036,0V17.258a2.518,2.518,0,1,1,5.036,0v1.631a2.227,2.227,0,1,1,4.454,0V21.98a2.047,2.047,0,1,1,4.095,0c0,7.03,0,11.409,0,18.44a5.763,5.763,0,0,1-.773,2.95,2.076,2.076,0,0,0-.261,1.024V47.5h-17.1V44.394a1.87,1.87,0,0,0-1.033-1.8c-3.417-1.464-3.618-3.024-4.181-5.282-.348-2.643-1.055-4.015-4.714-6.6,3.66-4.544,7.707-.279,9.443,2.891Z" fill="#eceff1" fill-rule="evenodd"/>
            <path id="Trazado_114888" data-name="Trazado 114888" d="M42.044,20a2.031,2.031,0,0,1,.524-.069,2.053,2.053,0,0,1,2.048,2.047c0,7.03,0,11.409,0,18.44a5.763,5.763,0,0,1-.773,2.95,2.076,2.076,0,0,0-.261,1.024V47.5H42.534V44.394a2.076,2.076,0,0,1,.261-1.024,5.763,5.763,0,0,0,.773-2.95c0-7.03,0-11.409,0-18.44A2.055,2.055,0,0,0,42.044,20ZM19.5,28.776c2.735-.486,5.345,2.73,6.5,4.832V35.04c-1.109-2.024-4.207-5.924-6.5-6.264Zm9.015-11.845a2.526,2.526,0,0,1,2.518,2.518V32.909a.524.524,0,0,1-1.048,0V19.45a2.529,2.529,0,0,0-1.994-2.463,2.518,2.518,0,0,1,.524-.055ZM40.521,32.909a.524.524,0,1,1-1.048,0V18.889a2.236,2.236,0,0,0-1.7-2.164,2.21,2.21,0,0,1,.524-.063,2.234,2.234,0,0,1,2.227,2.227Q40.521,25.9,40.521,32.909ZM33.024,14.8a2.517,2.517,0,0,1,3.042,2.463v15.65a.524.524,0,1,1-1.048,0V17.258A2.527,2.527,0,0,0,33.024,14.8Z" fill="#d1d1d6" fill-rule="evenodd"/>
          </g>
        </g>
        <path id="Trazado_114889" data-name="Trazado 114889" d="M35.016,17.258V32.384a1.049,1.049,0,0,0,2.1,0V18.889a1.178,1.178,0,1,1,2.356,0V32.384a1.049,1.049,0,0,0,2.1,0V21.98a1,1,0,0,1,2,0v18.44a4.754,4.754,0,0,1-.635,2.437,3.135,3.135,0,0,0-.395,1.538v2.06H27.528v-2.06a2.9,2.9,0,0,0-1.672-2.762c-2.109-.9-2.751-1.748-3.152-2.976a14.363,14.363,0,0,1-.432-1.688,14.676,14.676,0,0,0-.339-1.627c-.487-1.647-1.468-2.989-3.806-4.767a2.8,2.8,0,0,1,2.109-.78c1.795.159,3.726,2.283,4.836,4.318a1.049,1.049,0,0,0,1.968-.5V19.45a1.471,1.471,0,0,1,2.942,0V32.384a1.049,1.049,0,0,0,2.1,0V17.258a1.468,1.468,0,1,1,2.936,0Zm-4.9-.991a3.565,3.565,0,0,0-5.175,3.182V30.333a7.327,7.327,0,0,0-4.521-2.627c-1.191-.105-2.967.217-4.688,2.354a1.022,1.022,0,0,0-.222.8,1.044,1.044,0,0,0,.432.712c3.337,2.352,3.929,3.515,4.231,5.539a16.313,16.313,0,0,0,.481,2.024c.506,1.664,1.375,3.135,4.373,4.421a.877.877,0,0,1,.4.834V47.5a1.048,1.048,0,0,0,1.049,1.049h17.1A1.048,1.048,0,0,0,44.633,47.5V44.394a1,1,0,0,1,.123-.51,6.821,6.821,0,0,0,.907-3.465V21.98a3.1,3.1,0,0,0-4.1-2.931v-.16a3.275,3.275,0,0,0-4.706-2.947,3.567,3.567,0,0,0-6.742.325Zm23.242,1.247L33.548,8.95,13.736,17.514V34.671A24.521,24.521,0,0,0,33.548,58.612,24.521,24.521,0,0,0,53.361,34.671ZM33.135,6.845,12.268,15.863a1.048,1.048,0,0,0-.629.962V34.671a26.6,26.6,0,0,0,6.138,16.946A26.1,26.1,0,0,0,33.327,60.7l.043.007a.981.981,0,0,0,.179.015,1.018,1.018,0,0,0,.179-.015l.043-.008a26.117,26.117,0,0,0,15.55-9.085,26.6,26.6,0,0,0,6.137-16.946V16.825a1.044,1.044,0,0,0-.635-.962L33.962,6.845a1.036,1.036,0,0,0-.827,0ZM58.6,34.671V14.07L33.548,3.239,8.493,14.07v20.6A29.449,29.449,0,0,0,32.777,63.8l.771.135.765-.135A29.449,29.449,0,0,0,58.6,34.671Zm1.462-22.253L33.962,1.134a1.035,1.035,0,0,0-.827,0L7.031,12.418a1.045,1.045,0,0,0-.635.963v21.29a31.851,31.851,0,0,0,7.4,20.356A31.405,31.405,0,0,0,32.42,65.865l.95.167a1.008,1.008,0,0,0,.358,0l.95-.167A31.405,31.405,0,0,0,53.305,55.027a31.851,31.851,0,0,0,7.4-20.356V13.381a1.054,1.054,0,0,0-.635-.963Z" fill-rule="evenodd"/>
      </g>
    </g>
    <g id="Elipse_4731" data-name="Elipse 4731" transform="translate(190 4765.238)" fill="none" stroke="#f9931f" stroke-width="4">
      <ellipse cx="8.583" cy="8.583" rx="8.583" ry="8.583" stroke="none"/>
      <ellipse cx="8.583" cy="8.583" rx="6.583" ry="6.583" fill="none"/>
    </g>
  </g>
</svg>
