<svg xmlns="http://www.w3.org/2000/svg" xmlns:xlink="http://www.w3.org/1999/xlink" width="85" height="85" viewBox="0 0 85 85">
  <defs>
    <clipPath id="clip-path">
      <rect id="Rect치ngulo_34019" data-name="Rect치ngulo 34019" width="65" height="65" transform="translate(190 4713)" fill="#fff" stroke="#707070" stroke-width="1"/>
    </clipPath>
  </defs>
  <g id="Grupo_83560" data-name="Grupo 83560" transform="translate(-180 -4703)">
    <rect id="Rect치ngulo_33792" data-name="Rect치ngulo 33792" width="85" height="85" rx="5" transform="translate(180 4703)" fill="#465fc4"/>
    <g id="Grupo_80313" data-name="Grupo 80313" transform="translate(187.443 4717.179)">
      <g id="Grupo_80111" data-name="Grupo 80111" transform="translate(31.991)">
        <path id="Trazado_113526" data-name="Trazado 113526" d="M294.882,1043.023l-22.411-22.412a1.119,1.119,0,0,1,0-1.583h0a1.12,1.12,0,0,1,1.584,0l22.411,22.411a1.119,1.119,0,0,1,0,1.584h0A1.12,1.12,0,0,1,294.882,1043.023Z" transform="translate(-272.143 -1018.7)" fill="#ffc721"/>
      </g>
      <g id="Grupo_80112" data-name="Grupo 80112" transform="translate(42.988 3)">
        <path id="Trazado_113527" data-name="Trazado 113527" d="M345.734,1046.715l-8.414-8.414a1.12,1.12,0,0,1,0-1.583h0a1.119,1.119,0,0,1,1.584,0l8.413,8.413a1.119,1.119,0,0,1,0,1.584h0A1.119,1.119,0,0,1,345.734,1046.715Z" transform="translate(-336.993 -1036.39)" fill="#ffc721"/>
      </g>
      <g id="Grupo_80113" data-name="Grupo 80113" transform="translate(23.994)">
        <path id="Trazado_113528" data-name="Trazado 113528" d="M255.724,1051.018l-30.407-30.407a1.118,1.118,0,0,1,0-1.583h0a1.119,1.119,0,0,1,1.583,0l30.407,30.407a1.119,1.119,0,0,1,0,1.583h0A1.119,1.119,0,0,1,255.724,1051.018Z" transform="translate(-224.989 -1018.7)" fill="#ffc721"/>
      </g>
      <g id="Grupo_80114" data-name="Grupo 80114" transform="translate(17.667 1.668)">
        <path id="Trazado_113529" data-name="Trazado 113529" d="M223.07,1065.515,188,1030.449a1.119,1.119,0,0,1,0-1.583h0a1.118,1.118,0,0,1,1.583,0l35.067,35.067a1.12,1.12,0,0,1,0,1.583h0A1.119,1.119,0,0,1,223.07,1065.515Z" transform="translate(-187.675 -1028.537)" fill="#ffc721"/>
      </g>
      <g id="Grupo_80115" data-name="Grupo 80115" transform="translate(12.407 4.405)">
        <path id="Trazado_113530" data-name="Trazado 113530" d="M194.58,1084.177l-37.589-37.589a1.12,1.12,0,0,1,0-1.584h0a1.12,1.12,0,0,1,1.583,0l37.589,37.59a1.12,1.12,0,0,1,0,1.583h0A1.119,1.119,0,0,1,194.58,1084.177Z" transform="translate(-156.663 -1044.677)" fill="#ffc721"/>
      </g>
      <g id="Grupo_80116" data-name="Grupo 80116" transform="translate(8.002 8.002)">
        <path id="Trazado_113531" data-name="Trazado 113531" d="M169.412,1106.195l-38.4-38.4a1.121,1.121,0,0,1,0-1.584h0a1.12,1.12,0,0,1,1.584,0l38.4,38.4a1.121,1.121,0,0,1,0,1.584h0A1.121,1.121,0,0,1,169.412,1106.195Z" transform="translate(-130.686 -1065.885)" fill="#ffc721"/>
      </g>
      <g id="Grupo_80117" data-name="Grupo 80117" transform="translate(4.406 12.407)">
        <path id="Trazado_113532" data-name="Trazado 113532" d="M147.4,1131.364l-37.589-37.589a1.12,1.12,0,0,1,0-1.583h0a1.119,1.119,0,0,1,1.584,0l37.589,37.589a1.119,1.119,0,0,1,0,1.584h0A1.12,1.12,0,0,1,147.4,1131.364Z" transform="translate(-109.478 -1091.863)" fill="#ffc721"/>
      </g>
      <g id="Grupo_80118" data-name="Grupo 80118" transform="translate(1.668 17.666)">
        <path id="Trazado_113533" data-name="Trazado 113533" d="M128.731,1159.854l-35.067-35.067a1.119,1.119,0,0,1,0-1.583h0a1.118,1.118,0,0,1,1.583,0l35.067,35.066a1.12,1.12,0,0,1,0,1.584h0A1.118,1.118,0,0,1,128.731,1159.854Z" transform="translate(-93.336 -1122.875)" fill="#ffc721"/>
      </g>
      <g id="Grupo_80119" data-name="Grupo 80119" transform="translate(0 23.994)">
        <path id="Trazado_113534" data-name="Trazado 113534" d="M114.235,1192.508,83.827,1162.1a1.119,1.119,0,0,1,0-1.583h0a1.118,1.118,0,0,1,1.583,0l30.408,30.408a1.119,1.119,0,0,1,0,1.583h0A1.119,1.119,0,0,1,114.235,1192.508Z" transform="translate(-83.499 -1160.189)" fill="#ffc721"/>
      </g>
      <g id="Grupo_80120" data-name="Grupo 80120" transform="translate(0 31.991)">
        <path id="Trazado_113535" data-name="Trazado 113535" d="M106.238,1231.665l-22.411-22.411a1.119,1.119,0,0,1,0-1.584h0a1.119,1.119,0,0,1,1.583,0l22.411,22.411a1.12,1.12,0,0,1,0,1.583h0A1.12,1.12,0,0,1,106.238,1231.665Z" transform="translate(-83.499 -1207.343)" fill="#ffc721"/>
      </g>
      <g id="Grupo_80121" data-name="Grupo 80121" transform="translate(3 42.988)">
        <path id="Trazado_113536" data-name="Trazado 113536" d="M109.932,1282.517l-8.413-8.413a1.12,1.12,0,0,1,0-1.584h0a1.12,1.12,0,0,1,1.583,0l8.414,8.414a1.12,1.12,0,0,1,0,1.583h0A1.119,1.119,0,0,1,109.932,1282.517Z" transform="translate(-101.191 -1272.193)" fill="#ffc721"/>
      </g>
    </g>
    <g id="Enmascarar_grupo_70" data-name="Enmascarar grupo 70" clip-path="url(#clip-path)">
      <g id="objetivo" transform="translate(193.252 4713)">
        <path id="Trazado_114890" data-name="Trazado 114890" d="M16.567,64.047H4.192V59.682a2.3,2.3,0,0,1,2.3-2.3h7.775a2.3,2.3,0,0,1,2.3,2.3Zm0,0" fill="#a7c7d3"/>
        <path id="Trazado_114891" data-name="Trazado 114891" d="M28.942,64.047H16.567V53.974a2.3,2.3,0,0,1,2.3-2.3h7.776a2.3,2.3,0,0,1,2.3,2.3Zm0,0" fill="#89b4c9"/>
        <path id="Trazado_114892" data-name="Trazado 114892" d="M41.317,64.047H28.942V47.842a2.3,2.3,0,0,1,2.3-2.3h7.776a2.3,2.3,0,0,1,2.3,2.3Zm0,0" fill="#6c96b3"/>
        <path id="Trazado_114893" data-name="Trazado 114893" d="M53.691,64.047H41.317V38.54a2.3,2.3,0,0,1,2.3-2.3h7.775a2.3,2.3,0,0,1,2.3,2.3Zm0,0" fill="#618aaa"/>
        <path id="Trazado_114894" data-name="Trazado 114894" d="M44.676,10.186H57.122a.418.418,0,0,0,.276-.732L54.165,6.607a.419.419,0,0,1,0-.628L57.4,3.132a.418.418,0,0,0-.276-.732H44.676Zm0,0" fill="#fdb659"/>
        <path id="Trazado_114895" data-name="Trazado 114895" d="M45.667,13.829,32.184,21.151c-1.2.653-1.532,1.8-1.952,3.281L27.55,33.913l6.571-2.692,2.55-7.709,6.786-4.123a4.966,4.966,0,0,0,2.21-5.56Zm0,0" fill="#83d9ff"/>
        <path id="Trazado_114896" data-name="Trazado 114896" d="M45.667,13.829l-1.556.845a4.964,4.964,0,0,1-2.295,3.291l-6.183,3.756a1.919,1.919,0,0,0-.825,1.036l-.883,2.669a10.006,10.006,0,0,1-5.706,6.116l-.67,2.371,6.571-2.693,2.55-7.709,6.786-4.123a4.967,4.967,0,0,0,2.21-5.561Zm0,0" fill="#5fc9ed"/>
        <path id="Trazado_114897" data-name="Trazado 114897" d="M34.121,31.221,38,35.81c.643.852,1.2,1.451,1.087,2.388l-.909,7.34H35.814l-.619-6.31a1.054,1.054,0,0,0-.632-.864L27.55,33.914Zm0,0" fill="#38627c"/>
        <path id="Trazado_114898" data-name="Trazado 114898" d="M27.55,33.914l-.379,6.957a3.057,3.057,0,0,1-.169,1.4l-4.472,9.407h2.514l6.723-8.93a3.635,3.635,0,0,0,.571-1.65l1.783-9.873Zm0,0" fill="#4f7693"/>
        <path id="Trazado_114899" data-name="Trazado 114899" d="M33.639,15.331l1.1,2.152a2.058,2.058,0,0,1-.894,2.77L33,20.689a2.058,2.058,0,0,1-2.77-.894l-1.1-2.152a2.058,2.058,0,0,1,.894-2.77l.852-.436a2.058,2.058,0,0,1,2.77.894Zm0,0" fill="#fecbaa"/>
        <path id="Trazado_114900" data-name="Trazado 114900" d="M58.029,8.738,55.251,6.292l2.778-2.445a1.371,1.371,0,0,0-.906-2.4H45.628V.953a.953.953,0,0,0-1.905,0V13.8L35.9,18.049a3.014,3.014,0,0,0-.309-1l-1.1-2.152a3.014,3.014,0,0,0-4.052-1.307l-.852.436a3.01,3.01,0,0,0-1.307,4.052l1.1,2.153a2.992,2.992,0,0,0,1.085,1.179,8.345,8.345,0,0,0-1.149,2.764l-.205.727a.952.952,0,0,0,.658,1.176.938.938,0,0,0,.259.036.953.953,0,0,0,.916-.694l.205-.726c.418-1.472.674-2.261,1.49-2.7l1.463-.795.181-.092c.06-.031.116-.065.173-.1l10.43-5.664a4.032,4.032,0,0,1-1.923,3.237L36.18,22.7l-.023.014-2.111,1.282a.953.953,0,0,0,.91,1.671l-1.6,4.842-1.171.48L29,32.29l.917-3.243a.953.953,0,0,0-1.834-.519l-1.45,5.126a.914.914,0,0,0-.034.207L26.22,40.83a3.188,3.188,0,0,1-.078,1.028l-4.213,8.864H18.867a3.256,3.256,0,0,0-3.253,3.252v2.75a3.227,3.227,0,0,0-1.347-.293H6.492A3.256,3.256,0,0,0,3.24,59.683v3.412H.953A.953.953,0,1,0,.953,65H57.122a.953.953,0,0,0,0-1.905H54.644V38.54a3.256,3.256,0,0,0-3.252-3.252H45.628V18.668a5.941,5.941,0,0,0,.957-5.092.953.953,0,0,0-.957-.7V11.138H57.122a1.371,1.371,0,0,0,.907-2.4ZM29.9,16.366a1.1,1.1,0,0,1,.548-.645l.852-.436a1.105,1.105,0,0,1,1.487.48l1.1,2.153a1.107,1.107,0,0,1-.367,1.42l-.31.168-.655.336a1.106,1.106,0,0,1-1.487-.48l-1.1-2.152a1.1,1.1,0,0,1-.068-.843ZM27.989,51.015a3.234,3.234,0,0,0-1.046-.279l1.046-1.389Zm4.523-7.676a3.59,3.59,0,0,0,.687-1.707c.026-.123.5-2.691.5-2.691s.445.277.491.3a.1.1,0,0,1,.059.083l.518,5.268H31.571Zm5.634-5.258-.8,6.5h-.664l-.536-5.45a2.007,2.007,0,0,0-1.122-1.611l-.958-.607.638-3.537s2.689,3.194,2.751,3.275c.556.724.747,1.013.7,1.426Zm-10.29,4.61a5.165,5.165,0,0,0,.267-1.768l.346-6.356,4.406-1.806-.8,4.436c0,.012,0,.024-.006.036L31.405,40.9a3.629,3.629,0,0,1-.4,1.269l-6.437,8.551h-.531ZM5.145,59.682a1.348,1.348,0,0,1,1.347-1.346h7.775a1.348,1.348,0,0,1,1.347,1.346v3.412H5.145Zm12.374,0V53.974a1.349,1.349,0,0,1,1.347-1.347h7.775a1.348,1.348,0,0,1,1.347,1.347v9.121H17.52V59.682ZM52.739,38.54V63.095H42.269V57.383a.953.953,0,0,0-1.906,0v5.712H29.895V47.841a1.348,1.348,0,0,1,1.347-1.346h7.775a1.348,1.348,0,0,1,1.347,1.346v4.776a.953.953,0,1,0,1.905,0V38.54a1.349,1.349,0,0,1,1.347-1.347h7.775a1.349,1.349,0,0,1,1.347,1.347Zm-9.122-3.252a3.256,3.256,0,0,0-3.252,3.252v6.343a3.225,3.225,0,0,0-1.1-.283l.777-6.284a3.679,3.679,0,0,0-1.076-2.822c-.064-.083-3.767-4.48-3.767-4.48l2.272-6.868,6.257-3.8V35.288ZM45.628,9.232V3.352H55.707L53.536,5.264a1.371,1.371,0,0,0,0,2.058l2.171,1.911H45.628Zm0,0"/>
      </g>
    </g>
    <g id="Elipse_4731" data-name="Elipse 4731" transform="translate(190 4765.238)" fill="none" stroke="#f9931f" stroke-width="4">
      <ellipse cx="8.583" cy="8.583" rx="8.583" ry="8.583" stroke="none"/>
      <ellipse cx="8.583" cy="8.583" rx="6.583" ry="6.583" fill="none"/>
    </g>
  </g>
</svg>
