<svg xmlns="http://www.w3.org/2000/svg" xmlns:xlink="http://www.w3.org/1999/xlink" width="85" height="85" viewBox="0 0 85 85">
  <defs>
    <clipPath id="clip-path">
      <rect id="Rect치ngulo_34019" data-name="Rect치ngulo 34019" width="65" height="65" transform="translate(190 4713)" fill="#fff" stroke="#707070" stroke-width="1"/>
    </clipPath>
  </defs>
  <g id="Grupo_83559" data-name="Grupo 83559" transform="translate(-180 -4703)">
    <rect id="Rect치ngulo_33792" data-name="Rect치ngulo 33792" width="85" height="85" rx="5" transform="translate(180 4703)" fill="#465fc4"/>
    <g id="Grupo_80313" data-name="Grupo 80313" transform="translate(187.443 4717.179)">
      <g id="Grupo_80111" data-name="Grupo 80111" transform="translate(31.991)">
        <path id="Trazado_113526" data-name="Trazado 113526" d="M294.882,1043.023l-22.411-22.412a1.119,1.119,0,0,1,0-1.583h0a1.12,1.12,0,0,1,1.584,0l22.411,22.411a1.119,1.119,0,0,1,0,1.584h0A1.12,1.12,0,0,1,294.882,1043.023Z" transform="translate(-272.143 -1018.7)" fill="#ffc721"/>
      </g>
      <g id="Grupo_80112" data-name="Grupo 80112" transform="translate(42.988 3)">
        <path id="Trazado_113527" data-name="Trazado 113527" d="M345.734,1046.715l-8.414-8.414a1.12,1.12,0,0,1,0-1.583h0a1.119,1.119,0,0,1,1.584,0l8.413,8.413a1.119,1.119,0,0,1,0,1.584h0A1.119,1.119,0,0,1,345.734,1046.715Z" transform="translate(-336.993 -1036.39)" fill="#ffc721"/>
      </g>
      <g id="Grupo_80113" data-name="Grupo 80113" transform="translate(23.994)">
        <path id="Trazado_113528" data-name="Trazado 113528" d="M255.724,1051.018l-30.407-30.407a1.118,1.118,0,0,1,0-1.583h0a1.119,1.119,0,0,1,1.583,0l30.407,30.407a1.119,1.119,0,0,1,0,1.583h0A1.119,1.119,0,0,1,255.724,1051.018Z" transform="translate(-224.989 -1018.7)" fill="#ffc721"/>
      </g>
      <g id="Grupo_80114" data-name="Grupo 80114" transform="translate(17.667 1.668)">
        <path id="Trazado_113529" data-name="Trazado 113529" d="M223.07,1065.515,188,1030.449a1.119,1.119,0,0,1,0-1.583h0a1.118,1.118,0,0,1,1.583,0l35.067,35.067a1.12,1.12,0,0,1,0,1.583h0A1.119,1.119,0,0,1,223.07,1065.515Z" transform="translate(-187.675 -1028.537)" fill="#ffc721"/>
      </g>
      <g id="Grupo_80115" data-name="Grupo 80115" transform="translate(12.407 4.405)">
        <path id="Trazado_113530" data-name="Trazado 113530" d="M194.58,1084.177l-37.589-37.589a1.12,1.12,0,0,1,0-1.584h0a1.12,1.12,0,0,1,1.583,0l37.589,37.59a1.12,1.12,0,0,1,0,1.583h0A1.119,1.119,0,0,1,194.58,1084.177Z" transform="translate(-156.663 -1044.677)" fill="#ffc721"/>
      </g>
      <g id="Grupo_80116" data-name="Grupo 80116" transform="translate(8.002 8.002)">
        <path id="Trazado_113531" data-name="Trazado 113531" d="M169.412,1106.195l-38.4-38.4a1.121,1.121,0,0,1,0-1.584h0a1.12,1.12,0,0,1,1.584,0l38.4,38.4a1.121,1.121,0,0,1,0,1.584h0A1.121,1.121,0,0,1,169.412,1106.195Z" transform="translate(-130.686 -1065.885)" fill="#ffc721"/>
      </g>
      <g id="Grupo_80117" data-name="Grupo 80117" transform="translate(4.406 12.407)">
        <path id="Trazado_113532" data-name="Trazado 113532" d="M147.4,1131.364l-37.589-37.589a1.12,1.12,0,0,1,0-1.583h0a1.119,1.119,0,0,1,1.584,0l37.589,37.589a1.119,1.119,0,0,1,0,1.584h0A1.12,1.12,0,0,1,147.4,1131.364Z" transform="translate(-109.478 -1091.863)" fill="#ffc721"/>
      </g>
      <g id="Grupo_80118" data-name="Grupo 80118" transform="translate(1.668 17.666)">
        <path id="Trazado_113533" data-name="Trazado 113533" d="M128.731,1159.854l-35.067-35.067a1.119,1.119,0,0,1,0-1.583h0a1.118,1.118,0,0,1,1.583,0l35.067,35.066a1.12,1.12,0,0,1,0,1.584h0A1.118,1.118,0,0,1,128.731,1159.854Z" transform="translate(-93.336 -1122.875)" fill="#ffc721"/>
      </g>
      <g id="Grupo_80119" data-name="Grupo 80119" transform="translate(0 23.994)">
        <path id="Trazado_113534" data-name="Trazado 113534" d="M114.235,1192.508,83.827,1162.1a1.119,1.119,0,0,1,0-1.583h0a1.118,1.118,0,0,1,1.583,0l30.408,30.408a1.119,1.119,0,0,1,0,1.583h0A1.119,1.119,0,0,1,114.235,1192.508Z" transform="translate(-83.499 -1160.189)" fill="#ffc721"/>
      </g>
      <g id="Grupo_80120" data-name="Grupo 80120" transform="translate(0 31.991)">
        <path id="Trazado_113535" data-name="Trazado 113535" d="M106.238,1231.665l-22.411-22.411a1.119,1.119,0,0,1,0-1.584h0a1.119,1.119,0,0,1,1.583,0l22.411,22.411a1.12,1.12,0,0,1,0,1.583h0A1.12,1.12,0,0,1,106.238,1231.665Z" transform="translate(-83.499 -1207.343)" fill="#ffc721"/>
      </g>
      <g id="Grupo_80121" data-name="Grupo 80121" transform="translate(3 42.988)">
        <path id="Trazado_113536" data-name="Trazado 113536" d="M109.932,1282.517l-8.413-8.413a1.12,1.12,0,0,1,0-1.584h0a1.12,1.12,0,0,1,1.583,0l8.414,8.414a1.12,1.12,0,0,1,0,1.583h0A1.119,1.119,0,0,1,109.932,1282.517Z" transform="translate(-101.191 -1272.193)" fill="#ffc721"/>
      </g>
    </g>
    <g id="Enmascarar_grupo_74" data-name="Enmascarar grupo 74" clip-path="url(#clip-path)">
      <g id="ingeniero" transform="translate(190 4713)">
        <g id="Grupo_83576" data-name="Grupo 83576">
          <path id="Trazado_114928" data-name="Trazado 114928" d="M56.991,59.376l-1.978-8.5a7.617,7.617,0,0,0-5.181-5.555L38.559,41.854H26.441L15.169,45.318a7.617,7.617,0,0,0-5.181,5.555l-1.978,8.5a3.809,3.809,0,0,0,3.709,4.671H27.735L32.5,61.872l4.766,2.176H53.282A3.809,3.809,0,0,0,56.991,59.376Z" fill="#e8e6e8"/>
        </g>
        <g id="Grupo_83577" data-name="Grupo 83577">
          <path id="Trazado_114929" data-name="Trazado 114929" d="M26.441,41.854,15.169,45.318a7.617,7.617,0,0,0-5.181,5.555l-1.978,8.5a3.808,3.808,0,0,0,3.709,4.672H27.735L32.5,61.872l4.766,2.176h9.08C34.844,64.048,26.441,53.2,26.441,41.854Z" fill="#dedede"/>
        </g>
        <g id="Grupo_83578" data-name="Grupo 83578">
          <path id="Trazado_114930" data-name="Trazado 114930" d="M48.6,56.829l-2.256,7.219h6.935l-2.256-7.219A1.27,1.27,0,0,0,48.6,56.829Z" fill="#dedede"/>
        </g>
        <g id="Grupo_83579" data-name="Grupo 83579">
          <path id="Trazado_114931" data-name="Trazado 114931" d="M16.4,56.829l2.256,7.219H11.718l2.256-7.219A1.27,1.27,0,0,1,16.4,56.829Z" fill="#d1d1d1"/>
        </g>
        <g id="Grupo_83581" data-name="Grupo 83581">
          <g id="Grupo_83580" data-name="Grupo 83580">
            <path id="Trazado_114932" data-name="Trazado 114932" d="M46.013,23.95a19.383,19.383,0,0,0,.45-4.168c0-9.115-6.252-16.5-13.965-16.5s-13.965,7.389-13.965,16.5a19.375,19.375,0,0,0,.45,4.168Z" fill="#7c6a7a"/>
          </g>
        </g>
        <g id="Grupo_83582" data-name="Grupo 83582">
          <path id="Trazado_114933" data-name="Trazado 114933" d="M39.9,32.854H25.1c1.733,3.708,1.344,9,1.344,9s.935,3.02,6.059,3.02,6.059-3.02,6.059-3.02S38.17,36.563,39.9,32.854Z" fill="#d58058"/>
        </g>
        <g id="Grupo_83583" data-name="Grupo 83583">
          <ellipse id="Elipse_4767" data-name="Elipse 4767" cx="3.808" cy="4.761" rx="3.808" ry="4.761" transform="translate(16.162 20.55) rotate(-14.999)" fill="#cb7847"/>
        </g>
        <g id="Grupo_83584" data-name="Grupo 83584">
          <ellipse id="Elipse_4768" data-name="Elipse 4768" cx="4.761" cy="3.808" rx="4.761" ry="3.808" transform="translate(39.013 27.777) rotate(-75.001)" fill="#da9274"/>
        </g>
        <g id="Grupo_83585" data-name="Grupo 83585">
          <path id="Trazado_114934" data-name="Trazado 114934" d="M26.214,14.191a14.02,14.02,0,0,0-3.871,9.972c0,7.011,4.547,12.7,10.156,12.7s10.156-5.684,10.156-12.7a15.61,15.61,0,0,0-.495-3.922A25.756,25.756,0,0,1,26.214,14.191Z" fill="#e1a685"/>
        </g>
        <g id="Grupo_83586" data-name="Grupo 83586">
          <path id="Trazado_114935" data-name="Trazado 114935" d="M28.057,24.163a14.878,14.878,0,0,1,1.889-7.372,26.838,26.838,0,0,1-3.731-2.6,14.02,14.02,0,0,0-3.871,9.972c0,7.011,4.547,12.7,10.156,12.7a8.288,8.288,0,0,0,2.856-.51C31.138,34.806,28.057,29.935,28.057,24.163Z" fill="#da9274"/>
        </g>
        <g id="Grupo_83587" data-name="Grupo 83587">
          <path id="Trazado_114936" data-name="Trazado 114936" d="M33.624,49.374H31.377L27.735,64.048h9.532Z" fill="#9a9ddd"/>
        </g>
        <g id="Grupo_83588" data-name="Grupo 83588">
          <path id="Trazado_114937" data-name="Trazado 114937" d="M32.5,55.5a3.424,3.424,0,0,1,3.179,2.153l-2.056-8.281H31.377l-2.056,8.281A3.424,3.424,0,0,1,32.5,55.5Z" fill="#898ed1"/>
        </g>
        <g id="Grupo_83589" data-name="Grupo 83589">
          <path id="Trazado_114938" data-name="Trazado 114938" d="M29.315,44.874v4s1.053,3.479,3.185,3.479,3.186-3.479,3.186-3.479v-4H29.315Z" fill="#9a9ddd"/>
        </g>
        <g id="Grupo_83590" data-name="Grupo 83590">
          <path id="Trazado_114939" data-name="Trazado 114939" d="M26.461,39.562,32.5,44.874l-2.144,3.41a1.27,1.27,0,0,1-2.038.152A20.839,20.839,0,0,1,26.761,46.4a6.618,6.618,0,0,1-.3-6.837Z" fill="#f2f0f1"/>
        </g>
        <g id="Grupo_83591" data-name="Grupo 83591">
          <path id="Trazado_114940" data-name="Trazado 114940" d="M38.539,39.562,32.5,44.874l2.144,3.41a1.27,1.27,0,0,0,2.038.152A20.839,20.839,0,0,0,38.239,46.4a6.618,6.618,0,0,0,.3-6.837Z" fill="#f2f0f1"/>
        </g>
        <g id="Grupo_83592" data-name="Grupo 83592">
          <path id="Trazado_114941" data-name="Trazado 114941" d="M32.5,12.116c7.058,0,11.745,1.914,14.7,3.889-.326-3.05-2.352-13.783-14.7-13.783S18.118,12.963,17.792,16.008C20.75,14.032,25.438,12.116,32.5,12.116Z" fill="#f7dd5a"/>
        </g>
        <g id="Grupo_83593" data-name="Grupo 83593">
          <path id="Trazado_114942" data-name="Trazado 114942" d="M25.316,12.874A8.638,8.638,0,0,1,26.466,3.28c-7.036,2.783-8.411,10.267-8.674,12.728A22.33,22.33,0,0,1,25.316,12.874Z" fill="#f5c85d"/>
        </g>
        <g id="Grupo_83594" data-name="Grupo 83594">
          <path id="Trazado_114943" data-name="Trazado 114943" d="M34.4,12.131H30.6L28.409,2.5A1.27,1.27,0,0,1,29.647.952h5.706A1.27,1.27,0,0,1,36.591,2.5Z" fill="#f5c85d"/>
        </g>
        <g id="Grupo_83595" data-name="Grupo 83595">
          <path id="Trazado_114944" data-name="Trazado 114944" d="M16.355,16.864a1.3,1.3,0,0,1,.177-.656C17.4,14.719,21.649,8.6,32.5,8.6s15.1,6.115,15.968,7.6a1.3,1.3,0,0,1,.177.656h0a1.3,1.3,0,0,1-2.146.993c-2.283-1.925-6.609-4.32-14-4.32s-11.716,2.4-14,4.32a1.3,1.3,0,0,1-2.146-.993Z" fill="#ffe380"/>
        </g>
        <g id="Grupo_83596" data-name="Grupo 83596">
          <path id="Trazado_114945" data-name="Trazado 114945" d="M16.532,16.208a1.3,1.3,0,0,0-.177.656h0a1.3,1.3,0,0,0,2.146.993A18.023,18.023,0,0,1,26.224,14.2v0a7.8,7.8,0,0,1-1.788-4.236A15.342,15.342,0,0,0,16.532,16.208Z" fill="#f7dd5a"/>
        </g>
        <g id="Grupo_83597" data-name="Grupo 83597">
          <path id="Trazado_114946" data-name="Trazado 114946" d="M57.919,59.16l-1.978-8.5a8.6,8.6,0,0,0-5.829-6.249.952.952,0,0,0-.559,1.82,6.686,6.686,0,0,1,4.534,4.861l1.978,8.5a2.856,2.856,0,0,1-2.782,3.5h-5.64l1.869-5.983a.952.952,0,0,0-1.818-.568L45.647,63.1H38.012l-2.8-11.282a8.421,8.421,0,0,0,1.181-2.088,2.214,2.214,0,0,0,1.011-.668,21.651,21.651,0,0,0,1.629-2.131,7.549,7.549,0,0,0,1.244-3.55l1.994.613a.952.952,0,1,0,.559-1.82l-2.654-.816a7.6,7.6,0,0,0-.674-2.006,17,17,0,0,1,1.248-6.056,14.319,14.319,0,0,0,1.893-3.566,4,4,0,0,0,.843.091A5.591,5.591,0,0,0,48.525,25.4a6.341,6.341,0,0,0-.254-4.169,4.958,4.958,0,0,0-.857-1.341c0-.034,0-.069,0-.1,0-.221,0-.443-.012-.664a2.269,2.269,0,0,0,.892-.21,2.255,2.255,0,0,0,1-3.181,12.986,12.986,0,0,0-1.506-2.032c-.813-3.639-3.21-9.728-10.226-11.754A2.221,2.221,0,0,0,35.353,0H29.647a2.221,2.221,0,0,0-2.2,1.941,14.566,14.566,0,0,0-1.949.715.952.952,0,1,0,.784,1.735,12.578,12.578,0,0,1,1.459-.547l.926,4.075a19.817,19.817,0,0,0-8.423,3.141q-.141.1-.276.192a15.112,15.112,0,0,1,1.068-2.137A.952.952,0,1,0,19.4,8.126,18.438,18.438,0,0,0,17.215,13.7a12.984,12.984,0,0,0-1.5,2.03,2.258,2.258,0,0,0,1.881,3.393c-.007.221-.012.442-.012.663,0,.036,0,.072,0,.109a4.96,4.96,0,0,0-.852,1.336,6.341,6.341,0,0,0-.254,4.169,5.591,5.591,0,0,0,5.039,4.423,4.014,4.014,0,0,0,.843-.091,14.325,14.325,0,0,0,1.893,3.566A17.007,17.007,0,0,1,25.5,39.349a7.6,7.6,0,0,0-.674,2.006l-9.936,3.053A8.6,8.6,0,0,0,9.06,50.658l-.415,1.783a.952.952,0,1,0,1.855.432l.415-1.783a6.686,6.686,0,0,1,4.534-4.861l9.276-2.851a7.549,7.549,0,0,0,1.244,3.55A21.635,21.635,0,0,0,27.6,49.059a2.213,2.213,0,0,0,1.011.668,8.32,8.32,0,0,0,1.179,2.1L26.99,63.1H19.353l-2.047-6.551a.952.952,0,0,0-1.818.568L17.358,63.1h-5.64a2.856,2.856,0,0,1-2.782-3.5l.7-3.009a.952.952,0,1,0-1.855-.432l-.7,3.009A4.76,4.76,0,0,0,11.718,65H53.282a4.761,4.761,0,0,0,4.637-5.84ZM30.556,49.43a2.226,2.226,0,0,0,.606-.639L32.5,46.662l1.338,2.129a2.226,2.226,0,0,0,.608.641c-.452.97-1.171,1.972-1.947,1.972C31.689,51.4,30.984,50.35,30.556,49.43ZM19.55,18.234A15.991,15.991,0,0,1,23.6,15.985a14.581,14.581,0,0,0-1.329,2.843,4.171,4.171,0,0,0-2.674-.183l-.077.023Q19.532,18.45,19.55,18.234Zm3.822,7.434,0-.025q-.072-.727-.073-1.48A13.3,13.3,0,0,1,26.3,15.488,26.626,26.626,0,0,0,41.4,21.18a14.769,14.769,0,0,1,.3,2.983q0,.752-.073,1.48c0,.009,0,.017,0,.025-.581,5.767-4.453,10.238-9.129,10.238S23.952,31.435,23.371,25.668Zm4.024,13.448a24.289,24.289,0,0,0-.344-3.064,9.321,9.321,0,0,0,10.9,0,24.275,24.275,0,0,0-.345,3.064L32.5,43.606Zm10.053,6.756a19.753,19.753,0,0,1-1.486,1.942.315.315,0,0,1-.267.111.31.31,0,0,1-.244-.147l-1.712-2.724,4.434-3.9A5.643,5.643,0,0,1,37.447,45.872ZM46.685,24.9c-.514,1.919-2.045,3.2-3.5,2.989a16.317,16.317,0,0,0,.339-2.063v.007c.01-.127.151-1.255,1.864-1.637a.952.952,0,0,0-.415-1.859,5.249,5.249,0,0,0-1.418.525,16.5,16.5,0,0,0-.314-2.18,2.352,2.352,0,0,1,1.669-.2,2.518,2.518,0,0,1,1.615,1.506A4.434,4.434,0,0,1,46.685,24.9ZM45.027,11.245q-.131-.093-.267-.185a19.819,19.819,0,0,0-8.423-3.141l.925-4.074A12.253,12.253,0,0,1,45.027,11.245ZM29.337,2.292a.317.317,0,0,1,.31-.388h5.706a.317.317,0,0,1,.31.388L34.43,7.718c-.631-.043-1.274-.066-1.93-.066s-1.3.023-1.93.066ZM17.308,16.864a.345.345,0,0,1,.046-.175,13.163,13.163,0,0,1,3.955-4.054A19.558,19.558,0,0,1,32.5,9.556a19.557,19.557,0,0,1,11.191,3.079,13.162,13.162,0,0,1,3.955,4.054.345.345,0,0,1,.046.175.334.334,0,0,1-.2.317.34.34,0,0,1-.379-.052,19.1,19.1,0,0,0-8.258-3.888.952.952,0,1,0-.413,1.859,17.588,17.588,0,0,1,7,3.131q.018.217.031.436l-.071-.021a4.323,4.323,0,0,0-3.536.639,24.226,24.226,0,0,1-13.355-4.533,29.3,29.3,0,0,1,3.987-.262c.772,0,1.535.027,2.269.081a.952.952,0,0,0,.14-1.9c-.781-.057-1.591-.086-2.409-.086-7.623,0-12.154,2.471-14.613,4.544a.34.34,0,0,1-.379.052A.334.334,0,0,1,17.308,16.864ZM18.315,24.9a4.433,4.433,0,0,1,.159-2.912,2.518,2.518,0,0,1,1.615-1.506,2.353,2.353,0,0,1,1.666.2,16.535,16.535,0,0,0-.312,2.18,5.247,5.247,0,0,0-1.417-.525.952.952,0,0,0-.415,1.859c1.713.382,1.854,1.51,1.864,1.637V25.83a16.288,16.288,0,0,0,.339,2.062C20.361,28.1,18.829,26.822,18.315,24.9Zm9.238,20.969a5.643,5.643,0,0,1-.725-4.718l4.434,3.9-1.712,2.724a.31.31,0,0,1-.244.147.315.315,0,0,1-.267-.111A19.736,19.736,0,0,1,27.553,45.872Zm3.879,7.236a2.923,2.923,0,0,0,1.068.2,2.885,2.885,0,0,0,1.069-.205L36.049,63.1h-7.1Z"/>
          <path id="Trazado_114947" data-name="Trazado 114947" d="M29.692,28.658a3.722,3.722,0,0,0,5.616,0,.952.952,0,0,0-1.436-1.251,1.818,1.818,0,0,1-2.745,0,.952.952,0,1,0-1.435,1.251Z"/>
          <path id="Trazado_114948" data-name="Trazado 114948" d="M36.743,24.648A.952.952,0,0,0,37.7,23.7v-1.27a.952.952,0,0,0-1.9,0V23.7A.952.952,0,0,0,36.743,24.648Z"/>
          <path id="Trazado_114949" data-name="Trazado 114949" d="M28.257,21.475a.952.952,0,0,0-.952.952V23.7a.952.952,0,0,0,1.9,0v-1.27A.952.952,0,0,0,28.257,21.475Z"/>
          <path id="Trazado_114950" data-name="Trazado 114950" d="M27.622,20.117h1.27a.952.952,0,0,0,0-1.9h-1.27a.952.952,0,0,0,0,1.9Z"/>
          <path id="Trazado_114951" data-name="Trazado 114951" d="M40.378,55.877a.952.952,0,0,0,0,1.9h3.809a.952.952,0,0,0,0-1.9Z"/>
          <circle id="Elipse_4769" data-name="Elipse 4769" cx="0.952" cy="0.952" r="0.952" transform="translate(31.548 3.831)"/>
          <path id="Trazado_114952" data-name="Trazado 114952" d="M22.644,6.6a.952.952,0,0,0,0-1.9h0a.952.952,0,0,0,0,1.9Z"/>
          <path id="Trazado_114953" data-name="Trazado 114953" d="M46.193,43.247h0a.952.952,0,1,0,.953.952A.952.952,0,0,0,46.192,43.247Z"/>
        </g>
      </g>
    </g>
    <g id="Elipse_4731" data-name="Elipse 4731" transform="translate(190 4765.238)" fill="none" stroke="#f9931f" stroke-width="4">
      <ellipse cx="8.583" cy="8.583" rx="8.583" ry="8.583" stroke="none"/>
      <ellipse cx="8.583" cy="8.583" rx="6.583" ry="6.583" fill="none"/>
    </g>
  </g>
</svg>
