<svg xmlns="http://www.w3.org/2000/svg" width="139" height="105.825" viewBox="0 0 139 105.825">
  <g id="megafono" transform="translate(-0.001 -61.1)">
    <g id="Grupo_83544" data-name="Grupo 83544" transform="translate(2.037 63.136)">
      <path id="Trazado_114860" data-name="Trazado 114860" d="M69.345,196.143H21.406a6.97,6.97,0,0,1,0-13.94H69.345a6.97,6.97,0,0,1,0,13.94Z" transform="translate(-12.553 -151.361)" fill="#eaac9d"/>
      <path id="Trazado_114861" data-name="Trazado 114861" d="M74.247,156.377a20.18,20.18,0,0,1-20.18-20.18V117.079a20.18,20.18,0,1,1,40.36,0V136.2A20.18,20.18,0,0,1,74.247,156.377Z" transform="translate(-41.424 -89.216)" fill="#ffddce"/>
      <path id="Trazado_114862" data-name="Trazado 114862" d="M79.428,155.71A20.2,20.2,0,0,1,54.068,136.2V117.083a20.2,20.2,0,0,1,25.36-19.511,20.19,20.19,0,0,0-15,19.511V136.2A20.19,20.19,0,0,0,79.428,155.71Z" transform="translate(-41.425 -89.218)" fill="#ffcbbe"/>
      <path id="Trazado_114863" data-name="Trazado 114863" d="M38.569,82.309h1.773a9.737,9.737,0,0,1,9.737,9.737v.075a9.737,9.737,0,0,1-9.737,9.737H38.569a9.737,9.737,0,0,1-9.737-9.737v-.075A9.737,9.737,0,0,1,38.569,82.309Z" transform="translate(-23.04 -78.587)" fill="#be694f"/>
      <path id="Trazado_114864" data-name="Trazado 114864" d="M42.942,101.5a9.578,9.578,0,0,1-2.6.355H38.571a9.737,9.737,0,0,1-9.739-9.736V92.05a9.737,9.737,0,0,1,9.739-9.736h1.771a9.577,9.577,0,0,1,2.6.355A9.729,9.729,0,0,0,35.8,92.05v.074A9.729,9.729,0,0,0,42.942,101.5Z" transform="translate(-23.04 -78.591)" fill="#aa593d"/>
      <path id="Trazado_114865" data-name="Trazado 114865" d="M100.831,79.223a14,14,0,0,0,14,14A22.764,22.764,0,0,0,137.59,70.455V68.6H110.945a10.125,10.125,0,0,0-10.113,10.623Z" transform="translate(-75.484 -68.6)" fill="#be694f"/>
      <path id="Trazado_114866" data-name="Trazado 114866" d="M119.37,92.77a22.853,22.853,0,0,1-4.543.453,13.993,13.993,0,0,1-13.995-13.995,10.125,10.125,0,0,1,10.114-10.621h8.093a10.125,10.125,0,0,0-10.114,10.621A14,14,0,0,0,119.37,92.77Z" transform="translate(-75.484 -68.605)" fill="#aa593d"/>
      <path id="Trazado_114867" data-name="Trazado 114867" d="M240.143,161.43v53.545l-51.971-17.82v-17.9Z" transform="translate(-139.122 -136.228)" fill="#ffe07d"/>
      <path id="Trazado_114868" data-name="Trazado 114868" d="M240.143,278.628v16.411l-51.971-17.82V271.33Z" transform="translate(-139.122 -216.292)" fill="#ffd064"/>
      <path id="Trazado_114869" data-name="Trazado 114869" d="M70.661,339.413a40.7,40.7,0,0,1-48.018.909A40.4,40.4,0,0,1,7.92,321.2a6.788,6.788,0,0,1,12.735-4.7,27.058,27.058,0,0,0,40.639,12.939Z" transform="translate(-7.499 -245.962)" fill="#cbe2ff"/>
      <path id="Trazado_114870" data-name="Trazado 114870" d="M62.652,344.16a40.933,40.933,0,0,1-16.68,3.554A40.6,40.6,0,0,1,7.92,321.2a6.79,6.79,0,0,1,6.8-9.125,6.781,6.781,0,0,0-1.651,7.23,40.6,40.6,0,0,0,38.052,26.516A41.034,41.034,0,0,0,62.652,344.16Z" transform="translate(-7.499 -245.963)" fill="#bed8fb"/>
      <path id="Trazado_114871" data-name="Trazado 114871" d="M223.619,351.226a40.448,40.448,0,0,1-8.593,8.929l-9.364-9.98a26.884,26.884,0,0,0,6.855-6.763,6.788,6.788,0,1,1,11.1,7.813Z" transform="translate(-151.864 -266.705)" fill="#ffddce"/>
      <g id="Grupo_83543" data-name="Grupo 83543" transform="translate(112.861 21.435)">
        <path id="Trazado_114872" data-name="Trazado 114872" d="M428.9,328.887l.3-.553a4.213,4.213,0,0,1,5.445-1.849l6.209,2.8a4.213,4.213,0,0,1,1.98,5.831l-.738,1.375a4.213,4.213,0,0,1-5.953,1.576l-5.769-3.624A4.213,4.213,0,0,1,428.9,328.887Z" transform="translate(-426.992 -277.635)" fill="#e28086"/>
        <path id="Trazado_114873" data-name="Trazado 114873" d="M448.338,246.468l-.02-.628a4.213,4.213,0,0,1,3.791-4.323l6.778-.678a4.213,4.213,0,0,1,4.63,4.06l.049,1.56A4.213,4.213,0,0,1,459.2,250.8l-6.808-.254a4.213,4.213,0,0,1-4.054-4.078Z" transform="translate(-441.501 -215.498)" fill="#e28086"/>
        <path id="Trazado_114874" data-name="Trazado 114874" d="M424.178,158.5l-.331-.534a4.213,4.213,0,0,1,1.121-5.64l5.531-3.977a4.213,4.213,0,0,1,6.04,1.2l.822,1.326a4.213,4.213,0,0,1-1.612,5.943L429.727,160A4.212,4.212,0,0,1,424.178,158.5Z" transform="translate(-423.215 -147.554)" fill="#e28086"/>
      </g>
      <path id="Trazado_114875" data-name="Trazado 114875" d="M121.187,214.621h4.04A3.577,3.577,0,0,1,128.8,218.2v7.076a5.6,5.6,0,1,1-11.2,0V218.2A3.578,3.578,0,0,1,121.187,214.621Z" transform="translate(-87.715 -174.978)" fill="#2b4d66"/>
    </g>
    <g id="Grupo_83545" data-name="Grupo 83545" transform="translate(0.001 61.1)">
      <path id="Trazado_114876" data-name="Trazado 114876" d="M113.541,181.079a2.036,2.036,0,0,0,2.036-2.036v-4.077a2.036,2.036,0,0,0-4.072,0v4.077A2.036,2.036,0,0,0,113.541,181.079Z" transform="translate(-81.233 -142.57)"/>
      <path id="Trazado_114877" data-name="Trazado 114877" d="M152.331,181.079a2.036,2.036,0,0,0,2.036-2.036v-4.077a2.036,2.036,0,0,0-4.072,0v4.077A2.036,2.036,0,0,0,152.331,181.079Z" transform="translate(-109.492 -142.57)"/>
      <path id="Trazado_114878" data-name="Trazado 114878" d="M104.243,86.681a2.035,2.035,0,0,0-1.844-.269l-7.873,2.7a2.036,2.036,0,1,0,1.32,3.852l5.177-1.774v47.844l-47.9-16.424v-15L88.313,95.547a2.036,2.036,0,1,0-1.321-3.852l-19.528,6.7a9.023,9.023,0,0,0-8.635-6.448H57.078V84.175a24.761,24.761,0,0,0,9.1-19.184V63.136A2.036,2.036,0,0,0,64.144,61.1H37.5a12.052,12.052,0,0,0-8.808,3.776,12.255,12.255,0,0,0-1.9,2.6,11.713,11.713,0,0,0-7.454-2.656H17.564A11.785,11.785,0,0,0,5.792,76.6v.074a11.785,11.785,0,0,0,6.849,10.689v4.585H10.891a9,9,0,1,0,0,18.01h1.75v.162A22.211,22.211,0,0,0,50.407,125.98l.019.008,7.08,2.428-.979,2.373a10.313,10.313,0,0,0,1.98,10.923,25.022,25.022,0,0,1-41.4-8.746,8.824,8.824,0,1,0-16.556,6.11A42.6,42.6,0,0,0,5.9,149.166,2.036,2.036,0,0,0,9.21,146.79a38.519,38.519,0,0,1-4.842-9.125,4.751,4.751,0,1,1,8.915-3.289A29.092,29.092,0,0,0,55.5,149.233l6.607,7.04a38.764,38.764,0,0,1-21.6,6.58,38.288,38.288,0,0,1-22.156-7.023,38.868,38.868,0,0,1-4.023-3.247,2.036,2.036,0,1,0-2.764,2.99,42.912,42.912,0,0,0,4.445,3.587A42.694,42.694,0,0,0,75.456,148.83q.249-.353.46-.724a10.252,10.252,0,0,0,8.78-6.328l1.46-3.538,16.245,5.57a2.036,2.036,0,0,0,2.7-1.926V88.338a2.042,2.042,0,0,0-.854-1.657ZM58.829,96.014a4.94,4.94,0,0,1,4.773,3.7l-6.524,2.237V96.014Zm-27.19-28.33A8.017,8.017,0,0,1,37.5,65.173H62.107A20.752,20.752,0,0,1,41.38,85.719,11.973,11.973,0,0,1,29.42,73.759c0-.033,0-.067,0-.1a8.016,8.016,0,0,1,2.221-5.975ZM9.864,76.669V76.6a7.708,7.708,0,0,1,7.7-7.7h1.775a7.65,7.65,0,0,1,6.075,2.977,12.4,12.4,0,0,0-.065,1.936,15.937,15.937,0,0,0,1.109,5.8,7.656,7.656,0,0,1-7.119,4.762H17.563A7.708,7.708,0,0,1,9.864,76.669Zm1.026,29.211a4.933,4.933,0,1,1,0-9.865H12.64v9.865Zm23.966,22.383a18.167,18.167,0,0,1-18.143-18.149V88.407c.281.02.564.034.851.034h1.775A11.716,11.716,0,0,0,28.8,83.684,16.007,16.007,0,0,0,41.38,89.791a24.645,24.645,0,0,0,11.626-2.9v16.456l-2.58.884a2.036,2.036,0,0,0-1.376,1.926v15.267a17.98,17.98,0,0,1-14.194,6.839Zm37.269,18.222a38.339,38.339,0,0,1-6.74,7.325l-6.505-6.931a29,29,0,0,0,5.474-5.863,4.751,4.751,0,1,1,7.771,5.469Zm8.8-6.262a6.191,6.191,0,0,1-3.866,3.546,8.925,8.925,0,0,0-.13-1.53,8.822,8.822,0,0,0-15.8-3.719,6.218,6.218,0,0,1-.847-6.177l1.075-2.6,20.93,7.177Z" transform="translate(-0.001 -61.1)"/>
      <path id="Trazado_114879" data-name="Trazado 114879" d="M436.24,321.977l-6.21-2.8a6.268,6.268,0,0,0-8.076,2.742l-.3.554h0a6.268,6.268,0,0,0,2.183,8.245l5.769,3.624A6.249,6.249,0,0,0,438.439,332l.738-1.375a6.249,6.249,0,0,0-2.937-8.65Zm-.652,6.725-.738,1.375a2.177,2.177,0,0,1-3.076.814l-5.769-3.624a2.183,2.183,0,0,1-.76-2.872l.3-.553a2.183,2.183,0,0,1,2.813-.955l6.21,2.8a2.177,2.177,0,0,1,1.023,3.013Z" transform="translate(-306.645 -248.711)"/>
      <path id="Trazado_114880" data-name="Trazado 114880" d="M460.137,240.934l-.049-1.559a6.249,6.249,0,0,0-6.868-6.023l-6.778.678a6.268,6.268,0,0,0-5.624,6.413l.02.628a6.267,6.267,0,0,0,6.013,6.049l6.808.254c.077,0,.153,0,.23,0a6.249,6.249,0,0,0,6.249-6.445Zm-4.711,1.739a2.152,2.152,0,0,1-1.615.631L447,243.05a2.183,2.183,0,0,1-2.095-2.107l-.02-.628a2.183,2.183,0,0,1,1.959-2.234l6.778-.678a2.177,2.177,0,0,1,2.393,2.1l.049,1.56A2.158,2.158,0,0,1,455.426,242.673Z" transform="translate(-321.14 -186.565)"/>
      <path id="Trazado_114881" data-name="Trazado 114881" d="M422.327,157.062a6.2,6.2,0,0,0,2.9-.72l6.022-3.184a6.249,6.249,0,0,0,2.391-8.816l-.822-1.326a6.249,6.249,0,0,0-8.959-1.781l-5.531,3.976a6.267,6.267,0,0,0-1.664,8.366l.331.533A6.264,6.264,0,0,0,422.327,157.062Zm-1.618-8.546,5.531-3.977a2.152,2.152,0,0,1,1.263-.41,2.206,2.206,0,0,1,.432.043,2.155,2.155,0,0,1,1.426.988l.822,1.326a2.176,2.176,0,0,1-.833,3.071l-6.022,3.184a2.184,2.184,0,0,1-2.867-.778h0l-.331-.533A2.183,2.183,0,0,1,420.709,148.517Z" transform="translate(-302.87 -118.623)"/>
      <path id="Trazado_114882" data-name="Trazado 114882" d="M119.764,207.121h-4.04a5.62,5.62,0,0,0-5.614,5.614v7.076a7.634,7.634,0,0,0,15.267,0v-7.076A5.619,5.619,0,0,0,119.764,207.121Zm1.541,12.689a3.561,3.561,0,0,1-7.122,0v-7.076a1.543,1.543,0,0,1,1.541-1.541h4.04a1.543,1.543,0,0,1,1.541,1.541v7.076Z" transform="translate(-80.217 -167.478)"/>
    </g>
  </g>
</svg>
