<svg xmlns="http://www.w3.org/2000/svg" xmlns:xlink="http://www.w3.org/1999/xlink" width="255" height="279" viewBox="0 0 255 279">
  <defs>
    <clipPath id="clip-path">
      <rect id="Rectángulo_33789" data-name="Rectángulo 33789" width="255" height="279" transform="translate(1060 5069)" fill="#fff" stroke="#707070" stroke-width="1"/>
    </clipPath>
  </defs>
  <g id="Grupo_84216" data-name="Grupo 84216" transform="translate(-1060 -5069)">
    <g id="Enmascarar_grupo_54" data-name="Enmascarar grupo 54" clip-path="url(#clip-path)">
      <g id="Grupo_80308" data-name="Grupo 80308" transform="translate(955.979 4621.116)">
        <g id="Grupo_80252" data-name="Grupo 80252" transform="translate(190.049 476.194)">
          <path id="Trazado_113631" data-name="Trazado 113631" d="M259.452,485.484s-20.538,1.388-22.021,17.576,3.295,49.648,3.295,49.648h39.96l-10.719-56.442Z" transform="translate(-237.145 -485.484)"/>
        </g>
        <g id="Grupo_80253" data-name="Grupo 80253" transform="translate(231.876 853.603)">
          <path id="Trazado_113632" data-name="Trazado 113632" d="M328.281,1143.537s19.1,15.249,18.737,17.6,8.832,32.782,8.832,32.782l-45.775-12.4v-37.984Z" transform="translate(-310.075 -1143.537)" fill="#ffdd7a"/>
        </g>
        <g id="Grupo_80254" data-name="Grupo 80254" transform="translate(201.912 859.418)">
          <path id="Trazado_113633" data-name="Trazado 113633" d="M257.829,1155.078v22.2l43.57-2.388v-21.21Z" transform="translate(-257.829 -1153.675)" fill="#ff9583"/>
        </g>
        <g id="Grupo_80255" data-name="Grupo 80255" transform="translate(190.334 619.209)">
          <path id="Trazado_113634" data-name="Trazado 113634" d="M326.373,740.469S369.149,816.682,369.5,846.73s-61.633,129.726-61.633,129.726-16.847,6.9-41.593,6.11-28.634-3.624-28.634-3.624,4.242-213.8,14.14-233.811S326.373,740.469,326.373,740.469Z" transform="translate(-237.643 -734.845)" fill="#f9931f"/>
        </g>
        <g id="Grupo_80256" data-name="Grupo 80256" transform="translate(259.843 662.714)">
          <path id="Trazado_113635" data-name="Trazado 113635" d="M359.557,1009.523a.727.727,0,0,1-.717-.758c4.072-69.878,2.631-183.329,2.616-184.466a.717.717,0,0,1,.352-.627L383.542,810.8a.717.717,0,0,1,.73,1.234L362.9,824.693c.093,7.624,1.327,116.364-2.623,184.156A.715.715,0,0,1,359.557,1009.523Z" transform="translate(-358.839 -810.7)" fill="#ffb255"/>
        </g>
        <g id="Grupo_80257" data-name="Grupo 80257" transform="translate(262.66 733.276)">
          <path id="Trazado_113636" data-name="Trazado 113636" d="M364.468,951a.716.716,0,0,1-.574-1.145c.471-.629,11.624-15.411,18.965-16.094a4.487,4.487,0,0,1,3.627,1.149,3,3,0,0,1,1.063,2.948c-1.237,5.781-20.646,12.374-22.855,13.106A.686.686,0,0,1,364.468,951Zm18.93-15.832a3.923,3.923,0,0,0-.406.02c-5.235.488-13.157,9.572-16.442,13.614,6.757-2.442,18.8-7.5,19.6-11.245a1.568,1.568,0,0,0-.628-1.591A3,3,0,0,0,383.4,935.171Z" transform="translate(-363.751 -933.734)" fill="#ffb255"/>
        </g>
        <g id="Grupo_80258" data-name="Grupo 80258" transform="translate(205.914 641.951)">
          <path id="Trazado_113637" data-name="Trazado 113637" d="M265.524,792.224a.717.717,0,0,1-.141-1.42c10.711-2.163,16.395-15.725,16.45-15.862a.717.717,0,0,1,1.326.544c-.241.587-6.024,14.406-17.492,16.721A.686.686,0,0,1,265.524,792.224Z" transform="translate(-264.808 -774.498)" fill="#ffb255"/>
        </g>
        <g id="Grupo_80259" data-name="Grupo 80259" transform="translate(196.609 872.011)">
          <path id="Trazado_113638" data-name="Trazado 113638" d="M249.969,1176.868s48.9-2.174,49.255-.754,1.414,11.1,1.414,11.1l47.371,26.144s16.261,4.794,16.614,12.943-12.726,9.22-16.968,10.452-87.167.128-95.565-1.271C245.727,1234.42,249.969,1176.868,249.969,1176.868Z" transform="translate(-248.584 -1175.633)" fill="#ffe9a6"/>
        </g>
        <g id="Grupo_80260" data-name="Grupo 80260" transform="translate(244.491 889.334)">
          <path id="Trazado_113639" data-name="Trazado 113639" d="M347.174,1221.206a.716.716,0,0,1-.414-1.3l7.1-5.039-21.015,1.684a.7.7,0,0,1-.721-.442.716.716,0,0,1,.2-.821l11.056-9.283a.716.716,0,1,1,.922,1.1l-9.339,7.841,21.375-1.712a.716.716,0,0,1,.472,1.3l-7.225,5.127,21.495-1.032a.717.717,0,1,1,.068,1.431l-23.942,1.149Z" transform="translate(-332.072 -1205.837)" fill="#507849"/>
        </g>
        <g id="Grupo_80261" data-name="Grupo 80261" transform="translate(129.632 620.877)">
          <path id="Trazado_113640" data-name="Trazado 113640" d="M175.682,763.729c-.63,2.931-5.908,8.239-5.908,8.239s-3,10.414-6.266,10.752-6.058-5-6.058-5-6.874,2.073-9.291,1.255-14.1-3.357-16.149-9.816,11.774-31.4,11.774-31.4l26.312,1.039S176.313,760.8,175.682,763.729Z" transform="translate(-131.802 -737.753)" fill="#ff9583"/>
        </g>
        <g id="Grupo_80262" data-name="Grupo 80262" transform="translate(154.564 652.484)">
          <path id="Trazado_113641" data-name="Trazado 113641" d="M175.991,801.933a.733.733,0,0,1-.711-.812l1.038-7.638a.716.716,0,0,1,1.419.194l-1.037,7.638A.715.715,0,0,1,175.991,801.933Z" transform="translate(-175.274 -792.863)"/>
        </g>
        <g id="Grupo_80263" data-name="Grupo 80263" transform="translate(166.888 636.995)">
          <path id="Trazado_113642" data-name="Trazado 113642" d="M197.479,784.67a.728.728,0,0,1-.715-.777l1.49-17.378a.708.708,0,0,1,.775-.653.716.716,0,0,1,.652.774l-1.49,17.378A.715.715,0,0,1,197.479,784.67Z" transform="translate(-196.761 -765.858)"/>
        </g>
        <g id="Grupo_80264" data-name="Grupo 80264" transform="translate(216.035 522.577)">
          <path id="Trazado_113643" data-name="Trazado 113643" d="M291.752,566.72l22.2-.363,16.844,17,10.864,33.384v63.865s-21.353,4.5-38.077,2.867-21.125-4.083-21.125-4.083Z" transform="translate(-282.454 -566.357)" fill="#465fc4"/>
        </g>
        <g id="Grupo_80265" data-name="Grupo 80265" transform="translate(247.528 522.577)">
          <path id="Trazado_113644" data-name="Trazado 113644" d="M337.366,566.357c.24.718,2.259,2.1,2.364,2.688,0,0,14.681,15.933,19.2,56.453,2.926,26.236,4.436,49.926,5.382,60.682l11.636-3.662s-7-96.357-12.022-104.3C360.142,572.214,342.849,567.541,337.366,566.357Z" transform="translate(-337.366 -566.357)" fill="#ffc721"/>
        </g>
        <g id="Grupo_80266" data-name="Grupo 80266" transform="translate(126.714 522.577)">
          <path id="Trazado_113645" data-name="Trazado 113645" d="M126.714,667.034l50.929,5.289s3.1-19.092,8.766-27.893a20.188,20.188,0,0,1,13.058-9.064v51.448H233.06l-6.452-112.879-.551-7.512c-17.694-.574-42.282,2.393-64.35,20.624C127.09,615.657,126.714,667.034,126.714,667.034Z" transform="translate(-126.714 -566.358)" fill="#ffc721"/>
        </g>
        <g id="Grupo_80267" data-name="Grupo 80267" transform="translate(174.514 589.579)">
          <path id="Trazado_113646" data-name="Trazado 113646" d="M221.953,694.968a.707.707,0,0,1-.314-.072c-1.9-.922-11.378-5.7-11.578-9.2A2.159,2.159,0,0,1,211.2,683.7a3.2,3.2,0,0,1,2.721-.363c4.228,1.228,8.5,10.232,8.678,10.615a.716.716,0,0,1-.648,1.021Zm-9.026-10.349a1.736,1.736,0,0,0-.954.286c-.5.319-.488.6-.481.713.1,1.676,4.714,4.78,8.807,6.98-1.622-2.949-4.4-7.2-6.776-7.89A2.148,2.148,0,0,0,212.927,684.619Z" transform="translate(-210.058 -683.182)" fill="#fff"/>
        </g>
        <g id="Grupo_80269" data-name="Grupo 80269" transform="translate(225.337 473.774)">
          <g id="Grupo_80268" data-name="Grupo 80268" transform="translate(0 0)">
            <path id="Trazado_113647" data-name="Trazado 113647" d="M355.7,510.012s-14.706-16.465-26.854-23.147-17.784-6.208-19.026-4.545,5.428,7.542,5.428,7.542S303.659,483.9,301,487.59s6.934,10.062,6.934,10.062-9.155-2.553-9.258,1.455,18.486,14.207,18.486,14.207-10.782-1.975-10.9,1.123,12.973,11.583,18.993,12.193,17.388,2.037,17.388,2.037Z" transform="translate(-298.674 -481.264)" fill="#f98575"/>
          </g>
        </g>
        <g id="Grupo_80270" data-name="Grupo 80270" transform="translate(255.518 489.828)">
          <path id="Trazado_113648" data-name="Trazado 113648" d="M365.082,523.286a.738.738,0,0,1-.133-.013c-14.975-2.806-13.629-13.3-13.613-13.4a.709.709,0,0,1,.809-.606.719.719,0,0,1,.609.81c-.053.376-1.12,9.246,12.459,11.791a.717.717,0,0,1-.131,1.422Z" transform="translate(-351.298 -509.256)"/>
        </g>
        <g id="Grupo_80271" data-name="Grupo 80271" transform="translate(260.561 496.125)">
          <path id="Trazado_113649" data-name="Trazado 113649" d="M362.292,548.188l22.148-27.952s61,32.882,51,66.336-63.179,27.9-63.179,27.9l-12.175-57.4Z" transform="translate(-360.09 -520.236)" fill="#ffc721"/>
        </g>
        <g id="Grupo_80272" data-name="Grupo 80272" transform="translate(263.655 529.214)">
          <path id="Trazado_113650" data-name="Trazado 113650" d="M381.024,622.395a.716.716,0,0,1-.711-.634c-3.086-26.642-14.573-42.532-14.689-42.69a.717.717,0,1,1,1.156-.849c.117.16,11.824,16.33,14.957,43.373a.716.716,0,0,1-.629.794A.7.7,0,0,1,381.024,622.395Z" transform="translate(-365.486 -577.929)" fill="#fff"/>
        </g>
        <g id="Grupo_80273" data-name="Grupo 80273" transform="translate(276.963 560.983)">
          <path id="Trazado_113651" data-name="Trazado 113651" d="M400.249,646.563a3.355,3.355,0,0,1-.594-.054c-4.527-.823-10.24-10.97-10.876-12.124a.716.716,0,0,1,.933-.994c1.308.615,12.8,6.13,13.352,10.247a2.393,2.393,0,0,1-.9,2.209A2.9,2.9,0,0,1,400.249,646.563Zm-9-10.811c2.2,3.551,6,8.863,8.666,9.346a1.483,1.483,0,0,0,1.326-.341.961.961,0,0,0,.406-.928C401.353,641.668,395.773,638.108,391.245,635.752Z" transform="translate(-388.689 -633.322)" fill="#fff"/>
        </g>
        <g id="Grupo_80274" data-name="Grupo 80274" transform="translate(209.436 463.702)">
          <path id="Trazado_113652" data-name="Trazado 113652" d="M270.949,482.639s1.136-18.562,20.24-18.934,21.039,33.771,21.039,33.771l-34.064,1.48Z" transform="translate(-270.949 -463.702)"/>
        </g>
        <g id="Grupo_80279" data-name="Grupo 80279" transform="translate(225.269 511.451)">
          <g id="Grupo_80278" data-name="Grupo 80278">
            <g id="Grupo_80277" data-name="Grupo 80277">
              <g id="Grupo_80276" data-name="Grupo 80276">
                <g id="Grupo_80275" data-name="Grupo 80275">
                  <path id="Trazado_113653" data-name="Trazado 113653" d="M321.151,564.395s-.807,2.175-7.051,2.349c-9.612.26-13.168-3.614-13.168-3.614l-2.377-16.172,2.971.22,17.62,1.26.98,7.909Z" transform="translate(-298.555 -546.958)" fill="#ff9583"/>
                </g>
              </g>
            </g>
          </g>
        </g>
        <g id="Grupo_80284" data-name="Grupo 80284" transform="translate(228.24 511.671)">
          <g id="Grupo_80283" data-name="Grupo 80283" transform="translate(0 0)">
            <g id="Grupo_80282" data-name="Grupo 80282">
              <g id="Grupo_80281" data-name="Grupo 80281">
                <g id="Grupo_80280" data-name="Grupo 80280">
                  <path id="Trazado_113654" data-name="Trazado 113654" d="M322.335,556.511c-4.58.089-13.486-.746-17.9-7.693a5.145,5.145,0,0,1-.7-1.476l17.62,1.26Z" transform="translate(-303.736 -547.342)"/>
                </g>
              </g>
            </g>
          </g>
        </g>
        <g id="Grupo_80289" data-name="Grupo 80289" transform="translate(212.356 470.847)">
          <g id="Grupo_80288" data-name="Grupo 80288">
            <g id="Grupo_80287" data-name="Grupo 80287">
              <g id="Grupo_80286" data-name="Grupo 80286">
                <g id="Grupo_80285" data-name="Grupo 80285">
                  <path id="Trazado_113655" data-name="Trazado 113655" d="M307.781,480.875s11.439,19.034,9.736,30.783-12.264,11.307-18.729,9.919a20.625,20.625,0,0,1-9.826-4.806,8.785,8.785,0,0,1-10.077-2.159c-4.559-4.866-2.983-11.34.13-13.181s7.342.029,7.342.029L282.523,496S291.575,464.513,307.781,480.875Z" transform="translate(-276.039 -476.161)" fill="#ff9583"/>
                </g>
              </g>
            </g>
          </g>
        </g>
        <g id="Grupo_80290" data-name="Grupo 80290" transform="translate(247.31 485.176)">
          <path id="Trazado_113656" data-name="Trazado 113656" d="M338.707,508.214a.718.718,0,0,1-.692-.528l-1-3.688a.718.718,0,0,1,.095-.586l1.3-1.949a.717.717,0,0,1,1.194.794l-1.115,1.677.918,3.373a.717.717,0,0,1-.5.88A.724.724,0,0,1,338.707,508.214Z" transform="translate(-336.986 -501.145)"/>
        </g>
        <g id="Grupo_80291" data-name="Grupo 80291" transform="translate(232.873 484.147)">
          <path id="Trazado_113657" data-name="Trazado 113657" d="M312.53,502.895a.694.694,0,0,1-.25-.045.715.715,0,0,1-.422-.92c1.067-2.875,4.576-2.575,4.723-2.567a.716.716,0,0,1,.646.778.731.731,0,0,1-.777.649c-.1-.011-2.566-.2-3.25,1.637A.715.715,0,0,1,312.53,502.895Z" transform="translate(-311.813 -499.35)"/>
        </g>
        <g id="Grupo_80292" data-name="Grupo 80292" transform="translate(243.504 481.27)">
          <path id="Trazado_113658" data-name="Trazado 113658" d="M331.067,497.118a.717.717,0,0,1-.634-1.048,2.814,2.814,0,0,1,2.1-1.722,3.306,3.306,0,0,1,2.568,1.162.717.717,0,0,1-1.079.943,1.97,1.97,0,0,0-1.323-.682c-.438.055-.783.553-1,.962A.717.717,0,0,1,331.067,497.118Z" transform="translate(-330.351 -494.334)"/>
        </g>
        <g id="Grupo_80297" data-name="Grupo 80297" transform="translate(216.874 467.259)">
          <g id="Grupo_80296" data-name="Grupo 80296" transform="translate(0 0)">
            <g id="Grupo_80295" data-name="Grupo 80295">
              <g id="Grupo_80294" data-name="Grupo 80294">
                <g id="Grupo_80293" data-name="Grupo 80293">
                  <path id="Trazado_113659" data-name="Trazado 113659" d="M289.717,498.793s8.9.709,13.771-9.685,3.841-14.3,3.841-14.3l7.213,9.258s.512-7.082-2.786-11.161-6.062-2.819-6.062-2.819l-18.58,7.089-3.2,15.961Z" transform="translate(-283.917 -469.905)"/>
                </g>
              </g>
            </g>
          </g>
        </g>
        <g id="Grupo_80298" data-name="Grupo 80298" transform="translate(236.315 487.241)">
          <path id="Trazado_113660" data-name="Trazado 113660" d="M319.463,511.991a.717.717,0,0,1-.694-.543l-.932-3.707a.714.714,0,0,1,.139-.627l1.717-2.1a.716.716,0,0,1,1.111.905l-1.49,1.827.845,3.358a.719.719,0,0,1-.7.891Z" transform="translate(-317.815 -504.745)"/>
        </g>
        <g id="Grupo_80299" data-name="Grupo 80299" transform="translate(243.596 489.431)">
          <path id="Trazado_113661" data-name="Trazado 113661" d="M334.816,519.058a.718.718,0,0,1-.71-.621c-.525-3.909-3.46-8.735-3.489-8.783a.716.716,0,0,1,1.222-.748c.127.208,3.122,5.134,3.689,9.339a.719.719,0,0,1-.615.807A.774.774,0,0,1,334.816,519.058Z" transform="translate(-330.511 -508.564)"/>
        </g>
        <g id="Grupo_80300" data-name="Grupo 80300" transform="translate(215.935 498.241)">
          <path id="Trazado_113662" data-name="Trazado 113662" d="M289.215,530.382a.716.716,0,0,1-.451-.16l-6.218-5.026a.717.717,0,0,1,.9-1.115l6.219,5.026a.717.717,0,0,1-.451,1.274Z" transform="translate(-282.28 -523.924)"/>
        </g>
        <g id="Grupo_80301" data-name="Grupo 80301" transform="translate(215.512 501.729)">
          <path id="Trazado_113663" data-name="Trazado 113663" d="M282.261,533.775a.717.717,0,0,1-.318-1.36l4.74-2.335a.717.717,0,1,1,.633,1.286l-4.74,2.335A.728.728,0,0,1,282.261,533.775Z" transform="translate(-281.543 -530.006)"/>
        </g>
        <g id="Grupo_80302" data-name="Grupo 80302" transform="translate(241.799 503.18)">
          <path id="Trazado_113664" data-name="Trazado 113664" d="M332.491,535.8a.715.715,0,0,1-.6-.332c-1.455-2.276-3.22-1.292-3.416-1.173a.716.716,0,0,1-.762-1.213c1.072-.681,3.578-1.217,5.387,1.616a.716.716,0,0,1-.219.989A.7.7,0,0,1,332.491,535.8Z" transform="translate(-327.376 -532.536)"/>
        </g>
        <g id="Grupo_80303" data-name="Grupo 80303" transform="translate(209.43 466.972)">
          <path id="Trazado_113665" data-name="Trazado 113665" d="M272.471,478.785a27.655,27.655,0,0,0-1.527,9.539c.119,5.272,2.919,7.877,2.919,7.877A136.309,136.309,0,0,1,295.1,484.14a123.175,123.175,0,0,1,13.939-5.355s-1.411-6.881-6.44-9.094S272.471,478.785,272.471,478.785Z" transform="translate(-270.938 -469.404)" fill="#e0dfe5"/>
        </g>
        <g id="Grupo_80304" data-name="Grupo 80304" transform="translate(214.371 473.058)">
          <path id="Trazado_113666" data-name="Trazado 113666" d="M282.055,498.167a.716.716,0,0,1-.641-.4c-.052-.106-5.206-10.67,1.867-17.553a.717.717,0,1,1,1,1.028c-6.318,6.146-1.632,15.787-1.585,15.884a.716.716,0,0,1-.322.961A.707.707,0,0,1,282.055,498.167Z" transform="translate(-279.553 -480.015)" fill="#bdb2c2"/>
        </g>
        <g id="Grupo_80305" data-name="Grupo 80305" transform="translate(220.054 471.469)">
          <path id="Trazado_113667" data-name="Trazado 113667" d="M297.65,490.772a7.97,7.97,0,0,1-6.089-2.934c-2.963-3.778-1.933-9.753-1.888-10a.732.732,0,0,1,.832-.58.719.719,0,0,1,.58.832c-.01.056-.959,5.6,1.608,8.873a6.572,6.572,0,0,0,5,2.382.716.716,0,0,1-.045,1.432Z" transform="translate(-289.463 -477.245)" fill="#bdb2c2"/>
        </g>
        <g id="Grupo_80306" data-name="Grupo 80306" transform="translate(227.523 468.554)">
          <path id="Trazado_113668" data-name="Trazado 113668" d="M310.545,485.171a.7.7,0,0,1-.245-.042.717.717,0,0,1-.43-.917c.012-.036,1.25-3.565-.422-6.508-1.108-1.949-3.255-3.247-6.383-3.856a.717.717,0,0,1,.021-1.411c.357-.058,8.759-1.378,13.591,2.332a8.261,8.261,0,0,1,3.219,5.985.716.716,0,0,1-1.425.141,6.886,6.886,0,0,0-2.663-4.989c-2.459-1.889-6.118-2.3-8.841-2.3a8.451,8.451,0,0,1,3.735,3.4,10.026,10.026,0,0,1,.515,7.692A.714.714,0,0,1,310.545,485.171Z" transform="translate(-302.486 -472.162)" fill="#bdb2c2"/>
        </g>
        <g id="Grupo_80307" data-name="Grupo 80307" transform="translate(225.413 526.852)">
          <path id="Trazado_113669" data-name="Trazado 113669" d="M312.511,579.734a23.709,23.709,0,0,1-13.44-4.651.717.717,0,0,1,.9-1.114c.1.084,10.49,8.3,21.311,1.876a.716.716,0,0,1,.732,1.232A18.359,18.359,0,0,1,312.511,579.734Z" transform="translate(-298.806 -573.81)" fill="#fff"/>
        </g>
      </g>
    </g>
    <g id="Elipse_4729" data-name="Elipse 4729" transform="translate(1077 5130)" fill="none" stroke="#fff" stroke-width="10">
      <circle cx="36.5" cy="36.5" r="36.5" stroke="none"/>
      <circle cx="36.5" cy="36.5" r="31.5" fill="none"/>
    </g>
  </g>
</svg>
