<svg xmlns="http://www.w3.org/2000/svg" xmlns:xlink="http://www.w3.org/1999/xlink" width="85" height="85" viewBox="0 0 85 85">
  <defs>
    <clipPath id="clip-path">
      <rect id="Rectángulo_33809" data-name="Rectángulo 33809" width="85" height="85" transform="translate(1335 10259)" fill="#f9931f" stroke="#707070" stroke-width="1"/>
    </clipPath>
  </defs>
  <g id="Enmascarar_grupo_62" data-name="Enmascarar grupo 62" transform="translate(-1335 -10259)" clip-path="url(#clip-path)">
    <g id="lesiones" transform="translate(1333.841 10258.312)">
      <g id="Grupo_80390" data-name="Grupo 80390">
        <path id="Trazado_113951" data-name="Trazado 113951" d="M67.733,29.8a3.021,3.021,0,0,0-3.03-2.569H38.72a7.879,7.879,0,0,0-7.489,5.43L26.338,47.624l-7.213,3.548L8.461,46.6A3.94,3.94,0,0,0,5.355,53.84l12.329,5.288a3.94,3.94,0,0,0,3.292-.085L32.8,53.228l.629,8.371L20.435,78.5a3.939,3.939,0,1,0,6.248,4.8l13.907-18.1a3.938,3.938,0,0,0,.8-2.7l-.625-8.317,6.889-21.056H64.8a2.956,2.956,0,0,0,2.93-3.34Z" fill="#465fc4"/>
      </g>
      <g id="Grupo_80395" data-name="Grupo 80395">
        <g id="Grupo_80392" data-name="Grupo 80392">
          <path id="Trazado_113953" data-name="Trazado 113953" d="M84.37,11.567,76.56,27.73a.513.513,0,0,1-.685.239l-19.243-9.3a.513.513,0,0,1-.239-.685L64.2,1.822a.513.513,0,0,1,.685-.239l19.243,9.3a.513.513,0,0,1,.239.685Z" fill="#9aeccd"/>
        </g>
        <g id="Grupo_80394" data-name="Grupo 80394">
          <path id="Trazado_113955" data-name="Trazado 113955" d="M77.509,7.682l-2.777,5.747a.513.513,0,0,1-.929-.011L72.64,10.852a.513.513,0,0,0-.591-.286l-2.733.682a.513.513,0,0,1-.586-.721l2.777-5.747Z" fill="#ffc721"/>
        </g>
      </g>
      <g id="Grupo_80399" data-name="Grupo 80399">
        <g id="Grupo_80396" data-name="Grupo 80396">
          <path id="Trazado_113956" data-name="Trazado 113956" d="M78,36.442,83.91,53.394a.513.513,0,0,1-.315.653L63.413,61.078a.513.513,0,0,1-.653-.315L56.854,43.811a.513.513,0,0,1,.315-.653l20.182-7.032A.513.513,0,0,1,78,36.442Z" fill="#9aeccd"/>
        </g>
        <g id="Grupo_80398" data-name="Grupo 80398">
          <path id="Trazado_113958" data-name="Trazado 113958" d="M70.406,38.546l2.1,6.027a.513.513,0,0,1-.665.649L69.2,44.232a.513.513,0,0,0-.62.216l-1.45,2.415a.513.513,0,0,1-.924-.1l-2.1-6.027Z" fill="#ffc721"/>
        </g>
      </g>
      <g id="Grupo_80400" data-name="Grupo 80400">
        <circle id="Elipse_4745" data-name="Elipse 4745" cx="5.812" cy="5.812" r="5.812" transform="translate(39.646 12.441)" fill="#ffb69f"/>
      </g>
      <g id="Grupo_80401" data-name="Grupo 80401">
        <path id="Trazado_113959" data-name="Trazado 113959" d="M14.018,1.756l3.21,3.372,4.654-.115-.115,4.654,3.372,3.21-3.372,3.209,5.242,9.781-9.78-5.242L14.018,24l-3.209-3.372-4.654.115.115-4.654L2.9,12.876l3.372-3.21L6.154,5.013l4.654.115Z" fill="#f9931f"/>
      </g>
      <g id="Grupo_80402" data-name="Grupo 80402">
        <path id="Trazado_113960" data-name="Trazado 113960" d="M84.5,10.122,65.255.823h0a1.359,1.359,0,0,0-1.809.631L60.727,7.082a.845.845,0,0,0,.391,1.127.866.866,0,0,0,1.127-.395l2.574-5.328,5.56,2.686L67.97,10.16a1.356,1.356,0,0,0,1.55,1.906l2.466-.615,1.05,2.314a1.357,1.357,0,0,0,2.457.03L77.9,8.807,83.468,11.5,75.944,27.064,57.3,18.055l2.011-4.164a.843.843,0,0,0-.391-1.127.862.862,0,0,0-1.127.395l-2.153,4.457a1.359,1.359,0,0,0,.628,1.812l19.246,9.3A1.359,1.359,0,0,0,77.32,28.1l7.808-16.162a1.357,1.357,0,0,0-.631-1.812Zm-10.217,2.3L73.408,10.5a1.356,1.356,0,0,0-1.564-.755l-2.048.511,2.1-4.352,4.484,2.167Z"/>
      </g>
      <g id="Grupo_80403" data-name="Grupo 80403">
        <path id="Trazado_113961" data-name="Trazado 113961" d="M59.65,11.246a.843.843,0,1,0,.732-1.518.862.862,0,0,0-1.127.391A.848.848,0,0,0,59.65,11.246Z"/>
      </g>
      <g id="Grupo_80404" data-name="Grupo 80404">
        <path id="Trazado_113962" data-name="Trazado 113962" d="M84.706,53.115,78.8,36.163a1.358,1.358,0,0,0-1.731-.833L56.89,42.362a1.355,1.355,0,0,0-.833,1.728l2.055,5.9a.859.859,0,0,0,1.076.516.847.847,0,0,0,.52-1.073l-1.95-5.587,5.833-2.033,1.823,5.231a1.357,1.357,0,0,0,2.444.252l1.308-2.179,2.379.894A1.357,1.357,0,0,0,73.3,44.3L71.48,39.064l5.837-2.034,5.689,16.327-19.56,6.816-1.522-4.366a.855.855,0,0,0-1.073-.52.842.842,0,0,0-.52,1.073l1.63,4.68a1.366,1.366,0,0,0,1.728.833l20.184-7.032a1.357,1.357,0,0,0,.833-1.727ZM69.5,43.442a1.356,1.356,0,0,0-1.639.572l-1.087,1.81-1.59-4.564,4.7-1.638,1.59,4.564Z"/>
      </g>
      <g id="Grupo_80405" data-name="Grupo 80405">
        <path id="Trazado_113963" data-name="Trazado 113963" d="M60.3,53.7a.845.845,0,0,0,.516-1.076.86.86,0,0,0-1.073-.52.845.845,0,1,0,.557,1.6Z"/>
      </g>
      <g id="Grupo_80406" data-name="Grupo 80406">
        <path id="Trazado_113964" data-name="Trazado 113964" d="M28.784,40.141a.845.845,0,0,0,.526-1.606.858.858,0,0,0-1.066.54A.847.847,0,0,0,28.784,40.141Z"/>
      </g>
      <g id="Grupo_80407" data-name="Grupo 80407">
        <path id="Trazado_113965" data-name="Trazado 113965" d="M5.024,54.616,17.353,59.9a4.833,4.833,0,0,0,3.992-.1l10.7-5.264.513,6.806L19.765,77.992a4.782,4.782,0,0,0,7.585,5.827l13.908-18.1a4.831,4.831,0,0,0,.978-3.273L41.623,54.3,48.27,33.98H64.8a3.806,3.806,0,0,0,3.769-4.288,3.873,3.873,0,0,0-3.87-3.307H38.721a8.709,8.709,0,0,0-8.29,6.009L29.294,35.87a.842.842,0,0,0,.54,1.063.856.856,0,0,0,1.063-.54l1.137-3.472a7.016,7.016,0,0,1,6.687-4.848H64.7A2.183,2.183,0,0,1,66.9,29.9a2.121,2.121,0,0,1-2.1,2.392H43.258a.844.844,0,0,0,0,1.687h3.236L39.966,53.931a.807.807,0,0,0-.037.324l.624,8.317a3.114,3.114,0,0,1-.634,2.119l-13.9,18.1A3.1,3.1,0,1,1,21.1,79.017l12.987-16.9a.831.831,0,0,0,.172-.577l-.628-8.371a.847.847,0,0,0-1.215-.7L20.6,58.283a3.127,3.127,0,0,1-2.585.067L5.685,53.063a3.1,3.1,0,0,1,2.443-5.692L18.79,51.947a.857.857,0,0,0,.705-.017l7.214-3.55a.849.849,0,0,0,.432-.5l1.66-5.078a.846.846,0,0,0-.54-1.063.854.854,0,0,0-1.063.536,0,0,0,0,0,0,0l-1.549,4.741L19.1,50.243,8.793,45.823a4.783,4.783,0,0,0-3.769,8.793Z"/>
      </g>
      <g id="Grupo_80408" data-name="Grupo 80408">
        <path id="Trazado_113966" data-name="Trazado 113966" d="M45.458,11.6a6.655,6.655,0,1,0,6.655,6.655A6.663,6.663,0,0,0,45.458,11.6Zm0,11.623a4.968,4.968,0,1,1,4.968-4.968A4.974,4.974,0,0,1,45.458,23.22Z"/>
      </g>
      <g id="Grupo_80409" data-name="Grupo 80409">
        <path id="Trazado_113967" data-name="Trazado 113967" d="M50.976,73.846a.843.843,0,0,0-1.124-.4l-2.047.973.181-2.259a.844.844,0,1,0-1.682-.134l-.181,2.259L44.258,73a.844.844,0,1,0-.958,1.389l1.866,1.286L33.287,81.319a.844.844,0,1,0,.724,1.524L45.891,77.2l-.181,2.259a.843.843,0,1,0,1.682.134l.181-2.259,1.866,1.286a.844.844,0,1,0,.958-1.389L48.53,75.942l2.047-.973A.843.843,0,0,0,50.976,73.846Z"/>
      </g>
      <g id="Grupo_80410" data-name="Grupo 80410">
        <path id="Trazado_113968" data-name="Trazado 113968" d="M2.316,13.487l3.1,2.952-.106,4.28a.844.844,0,0,0,.864.864l4.28-.106,2.952,3.1a.869.869,0,0,0,1.222,0L17.4,21.672,26.61,26.61a.844.844,0,0,0,1.142-1.142l-4.939-9.214,2.907-2.767a.844.844,0,0,0,0-1.222l-3.1-2.952.106-4.28a.843.843,0,0,0-.864-.864l-4.28.106-2.952-3.1a.844.844,0,0,0-1.222,0l-2.952,3.1-4.28-.106a.844.844,0,0,0-.864.864l.106,4.28-3.1,2.952a.844.844,0,0,0,0,1.222Zm4.535-3.209a.843.843,0,0,0,.261-.632L7.019,5.878l3.768.093a.809.809,0,0,0,.632-.261l2.6-2.73,2.6,2.73a.814.814,0,0,0,.632.261l3.768-.093-.093,3.768a.843.843,0,0,0,.261.632l2.73,2.6-2.73,2.6a.843.843,0,0,0-.162,1.009l3.923,7.32-7.32-3.923a.843.843,0,0,0-1.01.162l-2.6,2.73-2.6-2.73a.84.84,0,0,0-.632-.261l-3.768.093.093-3.768a.843.843,0,0,0-.261-.632l-2.73-2.6Z"/>
      </g>
      <g id="Grupo_80411" data-name="Grupo 80411">
        <path id="Trazado_113969" data-name="Trazado 113969" d="M11.1,17.979a.843.843,0,0,0,.844-.844v-.841a.844.844,0,1,0-1.687,0v.841A.844.844,0,0,0,11.1,17.979Z"/>
      </g>
      <g id="Grupo_80412" data-name="Grupo 80412">
        <path id="Trazado_113970" data-name="Trazado 113970" d="M11.1,14.192a.843.843,0,0,0,.844-.844V8.616a.844.844,0,1,0-1.687,0v4.732a.844.844,0,0,0,.844.844Z"/>
      </g>
      <g id="Grupo_80413" data-name="Grupo 80413">
        <path id="Trazado_113971" data-name="Trazado 113971" d="M14.018,17.979a.843.843,0,0,0,.844-.844v-.841a.844.844,0,1,0-1.687,0v.841A.844.844,0,0,0,14.018,17.979Z"/>
      </g>
      <g id="Grupo_80414" data-name="Grupo 80414">
        <path id="Trazado_113972" data-name="Trazado 113972" d="M14.018,14.192a.843.843,0,0,0,.844-.844V8.616a.844.844,0,1,0-1.687,0v4.732a.844.844,0,0,0,.844.844Z"/>
      </g>
      <g id="Grupo_80415" data-name="Grupo 80415">
        <path id="Trazado_113973" data-name="Trazado 113973" d="M16.935,17.979a.843.843,0,0,0,.844-.844v-.841a.844.844,0,1,0-1.687,0v.841A.844.844,0,0,0,16.935,17.979Z"/>
      </g>
      <g id="Grupo_80416" data-name="Grupo 80416">
        <path id="Trazado_113974" data-name="Trazado 113974" d="M16.935,14.192a.843.843,0,0,0,.844-.844V8.616a.844.844,0,1,0-1.687,0v4.732a.844.844,0,0,0,.844.844Z"/>
      </g>
    </g>
  </g>
</svg>
