<svg xmlns="http://www.w3.org/2000/svg" width="230" height="201.244" viewBox="0 0 230 201.244">
  <g id="Grupo_80209" data-name="Grupo 80209" transform="translate(-458.362 -221.853)">
    <g id="Grupo_80197" data-name="Grupo 80197" transform="translate(458.362 221.853)">
      <g id="Grupo_80155" data-name="Grupo 80155" transform="translate(80.556 99.074)">
        <path id="Trazado_113553" data-name="Trazado 113553" d="M520.893,321.827s9.971,3.635,17.55,1.17,18.026-10.888,18.026-10.888l-5.341-13.35-29.974,10.274Z" transform="translate(-520.893 -298.758)" fill="#f9931f"/>
      </g>
      <g id="Grupo_80156" data-name="Grupo 80156" transform="translate(15.314 64.379)">
        <path id="Trazado_113554" data-name="Trazado 113554" d="M482.476,273.346l-6.065-1.52-6.162,9.526,3.745,6.959,4.9,1.572Z" transform="translate(-470.249 -271.826)" fill="#f98875"/>
      </g>
      <g id="Grupo_80157" data-name="Grupo 80157" transform="translate(19.731 59.754)">
        <path id="Trazado_113555" data-name="Trazado 113555" d="M572.08,312.853s-23.288-19.713-42.586-29.661-49.158-14.956-49.158-14.956l-6.658,26.975,47.68,20.056,28.5,17.329Z" transform="translate(-473.678 -268.236)" fill="#f9931f"/>
      </g>
      <g id="Grupo_80159" data-name="Grupo 80159" transform="translate(0 37.871)">
        <g id="Grupo_80158" data-name="Grupo 80158">
          <path id="Trazado_113556" data-name="Trazado 113556" d="M459.006,296.8c-.93-.544-.024-7.04-.17-7.609s3.6-2.139,3.048-3.205-2.293-2.385-3.083-3.96c-.745-1.471-.451-25.536.207-30.186a.707.707,0,0,1,.846-.576,25.883,25.883,0,0,1,4.394,1.183,11.25,11.25,0,0,1,5.126,3.4c2.77,3.753,3.829,11.574,5.67,14.425s6.325,6.07,5.457,7.761-4.805,4.858-4.278,9.478,1.628,6.757.505,8c-.761.836-8.178,1.38-13.182,1.47A19.887,19.887,0,0,1,459.006,296.8Z" transform="translate(-458.362 -251.25)" fill="#9aeccd"/>
        </g>
      </g>
      <g id="Grupo_80160" data-name="Grupo 80160" transform="translate(0 37.871)">
        <path id="Trazado_113557" data-name="Trazado 113557" d="M459.006,296.8c-.93-.544-.024-7.04-.17-7.609s3.6-2.139,3.048-3.205-2.293-2.385-3.083-3.96c-.745-1.471-.451-25.536.207-30.186a.707.707,0,0,1,.846-.576,25.883,25.883,0,0,1,4.394,1.183l-.7,44.53A19.887,19.887,0,0,1,459.006,296.8Z" transform="translate(-458.362 -251.25)" fill="#fff"/>
      </g>
      <g id="Grupo_80161" data-name="Grupo 80161" transform="translate(41.001 156.273)">
        <path id="Trazado_113558" data-name="Trazado 113558" d="M490.189,343.158l1.433,9.511,11.164,2.021,4.981-6.135-.433-5.123Z" transform="translate(-490.189 -343.158)" fill="#f98875"/>
      </g>
      <g id="Grupo_80163" data-name="Grupo 80163" transform="translate(25.057 161.722)">
        <g id="Grupo_80162" data-name="Grupo 80162">
          <path id="Trazado_113559" data-name="Trazado 113559" d="M520.781,363.349c-.143,1.067-6.488,2.732-6.957,3.085s-3.359-2.5-4.131-1.581-1.318,3.035-2.468,4.37c-1.072,1.253-23.4,10.246-27.94,11.427a.709.709,0,0,1-.858-.56,25.958,25.958,0,0,1-.6-4.51,11.258,11.258,0,0,1,1.166-6.039c2.4-4,9.209-7.989,11.132-10.785s3.168-8.175,5.062-8.025,6.334,2.566,10.4.3,5.609-4.1,7.186-3.544c1.064.38,4.42,7.016,6.43,11.6A19.855,19.855,0,0,1,520.781,363.349Z" transform="translate(-477.813 -347.387)" fill="#9aeccd"/>
        </g>
      </g>
      <g id="Grupo_80164" data-name="Grupo 80164" transform="translate(25.072 173.423)">
        <path id="Trazado_113560" data-name="Trazado 113560" d="M520.778,360.73c-.143,1.067-6.488,2.732-6.957,3.085s-3.359-2.5-4.131-1.581-1.318,3.035-2.468,4.37c-1.072,1.253-23.4,10.246-27.94,11.427a.709.709,0,0,1-.858-.56,25.958,25.958,0,0,1-.6-4.51l41.37-16.491A19.855,19.855,0,0,1,520.778,360.73Z" transform="translate(-477.824 -356.47)" fill="#fff"/>
      </g>
      <g id="Grupo_80165" data-name="Grupo 80165" transform="translate(106.236 108.09)">
        <path id="Trazado_113561" data-name="Trazado 113561" d="M541.418,315.641a.261.261,0,0,1-.254-.2c-1.114-4.256.876-9.309.962-9.523a.263.263,0,0,1,.488.2c-.021.05-2.012,5.107-.943,9.194a.26.26,0,0,1-.187.321A.248.248,0,0,1,541.418,315.641Z" transform="translate(-540.827 -305.756)" fill="#fff"/>
      </g>
      <g id="Grupo_80166" data-name="Grupo 80166" transform="translate(138.071 39.49)">
        <path id="Trazado_113562" data-name="Trazado 113562" d="M566.5,262.052s-2.894-6.975,1.344-9.1,7.364,4.13,7.364,4.13a4.478,4.478,0,0,1,4.952,2.235c1.9,3.121.086,7.176.086,7.176s2.868,1.493,1.134,5.028-7.132,4.563-7.132,4.563Z" transform="translate(-565.537 -252.507)"/>
      </g>
      <g id="Grupo_80167" data-name="Grupo 80167" transform="translate(125.227 101.785)">
        <path id="Trazado_113563" data-name="Trazado 113563" d="M582.593,301.062a34.477,34.477,0,0,1-3.18,12.051c-3.758,8.528-14.332,17.948-14.332,17.948L555.568,324s10.078-18.207,7.481-21.119S582.593,301.062,582.593,301.062Z" transform="translate(-555.568 -300.862)" fill="#f98875"/>
      </g>
      <g id="Grupo_80168" data-name="Grupo 80168" transform="translate(99.534 19.422)">
        <path id="Trazado_113564" data-name="Trazado 113564" d="M543.141,240.581s-9.006,15.056-7.3,30.052c1.216,10.693,9.625,11.3,9.625,11.3l12.263-11.575s-2.865-9.16-2.949-14.554c-.1-6.267,1.1-18.88,1.1-18.88Z" transform="translate(-535.624 -236.929)" fill="#f98875"/>
      </g>
      <g id="Grupo_80169" data-name="Grupo 80169" transform="translate(91.526 47.435)">
        <path id="Trazado_113565" data-name="Trazado 113565" d="M558.76,258.674l-24.951,3.888s.951,8.952,3.5,14.421c2.891,6.2,3.274,7.024,3.274,7.024L529.408,295.56l24.606,28.1s27.8-25.339,30.849-29.062-9.953-17.888-9.953-17.888S561.93,267.941,558.76,258.674Z" transform="translate(-529.408 -258.674)" fill="#ffc721"/>
      </g>
      <g id="Grupo_80171" data-name="Grupo 80171" transform="translate(129.484 60.834)">
        <g id="Grupo_80170" data-name="Grupo 80170">
          <path id="Trazado_113566" data-name="Trazado 113566" d="M572.325,271.659l-3.548,6.6s-2.211,1.257-6.242-.5c-3-1.313-3.664-2.507-3.664-2.507l2.2-3.128,2.149-3.048,7.8,2.215Z" transform="translate(-558.872 -269.075)" fill="#f98875"/>
        </g>
      </g>
      <g id="Grupo_80173" data-name="Grupo 80173" transform="translate(131.681 60.834)">
        <g id="Grupo_80172" data-name="Grupo 80172">
          <path id="Trazado_113567" data-name="Trazado 113567" d="M570.525,271.29a2.473,2.473,0,0,1-.533.533c-3.25,2.5-7.672,1.045-9.413.3l2.149-3.048Z" transform="translate(-560.578 -269.075)"/>
        </g>
      </g>
      <g id="Grupo_80175" data-name="Grupo 80175" transform="translate(131.259 44.147)">
        <g id="Grupo_80174" data-name="Grupo 80174">
          <path id="Trazado_113568" data-name="Trazado 113568" d="M569.438,256.97s-7.915,6.414-9.02,11.748,3.517,6.8,6.521,7.211a9.464,9.464,0,0,0,4.991-.532,4.029,4.029,0,0,0,4.683.647c2.729-1.384,3.062-4.421,2.008-5.7a4.192,4.192,0,0,0-3.17-1.138l2.51-1.756S578.989,252.453,569.438,256.97Z" transform="translate(-560.25 -256.122)" fill="#f98875"/>
        </g>
      </g>
      <g id="Grupo_80176" data-name="Grupo 80176" transform="translate(144.666 59.854)">
        <path id="Trazado_113569" data-name="Trazado 113569" d="M570.92,269.383a.263.263,0,0,1-.034-.524l4.124-.54a.258.258,0,0,1,.295.227.264.264,0,0,1-.227.3l-4.124.54A.157.157,0,0,1,570.92,269.383Z" transform="translate(-570.657 -268.314)"/>
      </g>
      <g id="Grupo_80177" data-name="Grupo 80177" transform="translate(145.708 60.259)">
        <path id="Trazado_113570" data-name="Trazado 113570" d="M573.418,270.712a.263.263,0,0,1-.178-.07l-1.689-1.557a.263.263,0,1,1,.357-.386l1.689,1.557a.264.264,0,0,1,.016.372A.268.268,0,0,1,573.418,270.712Z" transform="translate(-571.466 -268.629)"/>
      </g>
      <g id="Grupo_80178" data-name="Grupo 80178" transform="translate(142.046 49.105)">
        <path id="Trazado_113571" data-name="Trazado 113571" d="M570.823,262.315a.26.26,0,0,1-.259-.22,1.758,1.758,0,0,0-1.679-1.6.263.263,0,1,1,0-.526,2.3,2.3,0,0,1,2.2,2.039.261.261,0,0,1-.216.3A.237.237,0,0,1,570.823,262.315Z" transform="translate(-568.623 -259.97)"/>
      </g>
      <g id="Grupo_80179" data-name="Grupo 80179" transform="translate(137.23 47.098)">
        <path id="Trazado_113572" data-name="Trazado 113572" d="M565.149,259.347a.263.263,0,0,1-.192-.444,1.769,1.769,0,0,1,2.378-.042.263.263,0,0,1-.321.417c-.039-.031-.986-.737-1.675-.013A.266.266,0,0,1,565.149,259.347Z" transform="translate(-564.885 -258.413)"/>
      </g>
      <g id="Grupo_80180" data-name="Grupo 80180" transform="translate(135.397 51.328)">
        <path id="Trazado_113573" data-name="Trazado 113573" d="M563.725,266.288c-.195-.036-.287-.174-.258-.316a6.141,6.141,0,0,1,3.115-4.253.263.263,0,0,1,.223.477,5.714,5.714,0,0,0-2.823,3.882A.264.264,0,0,1,563.725,266.288Z" transform="translate(-563.462 -261.695)"/>
      </g>
      <g id="Grupo_80181" data-name="Grupo 80181" transform="translate(136.071 49.067)">
        <path id="Trazado_113574" data-name="Trazado 113574" d="M564.248,261.759a.263.263,0,0,1-.191-.444l1.226-1.292a.263.263,0,0,1,.383.362l-1.226,1.292A.267.267,0,0,1,564.248,261.759Z" transform="translate(-563.985 -259.941)"/>
      </g>
      <g id="Grupo_80182" data-name="Grupo 80182" transform="translate(140.205 51.394)">
        <path id="Trazado_113575" data-name="Trazado 113575" d="M567.457,263.565a.262.262,0,0,1-.191-.443l1.228-1.293a.264.264,0,0,1,.383.363l-1.228,1.292A.267.267,0,0,1,567.457,263.565Z" transform="translate(-567.194 -261.747)"/>
      </g>
      <g id="Grupo_80183" data-name="Grupo 80183" transform="translate(138.749 41.719)">
        <path id="Trazado_113576" data-name="Trazado 113576" d="M566.064,259a3.161,3.161,0,0,1,3.083-.068,4.043,4.043,0,0,1,1.992,2.551s-2.213,2.385-.765,5.062a6.21,6.21,0,0,0,3.4,3.2l1.936.294,2.467-1.733-1.978-7.591-4.356-6.479-4.612,1.148Z" transform="translate(-566.064 -254.237)"/>
      </g>
      <g id="Grupo_80184" data-name="Grupo 80184" transform="translate(128.096 74.695)">
        <path id="Trazado_113577" data-name="Trazado 113577" d="M574,279.834s5.885,8.858,7.6,16.469a58.654,58.654,0,0,1,1.494,13.536l-23.461.171-1.833-6.726Z" transform="translate(-557.795 -279.834)" fill="#ffc721"/>
      </g>
      <g id="Grupo_80185" data-name="Grupo 80185" transform="translate(102.438 66.36)">
        <path id="Trazado_113578" data-name="Trazado 113578" d="M538.142,280.035a.259.259,0,0,1-.2-.089.262.262,0,0,1,.023-.371L545,273.428a.263.263,0,0,1,.348.4l-7.029,6.145A.264.264,0,0,1,538.142,280.035Z" transform="translate(-537.879 -273.364)" fill="#ffa63b"/>
      </g>
      <g id="Grupo_80186" data-name="Grupo 80186" transform="translate(128.673 95.291)">
        <path id="Trazado_113579" data-name="Trazado 113579" d="M558.506,302.023a.272.272,0,0,1-.085-.014.263.263,0,0,1-.178-.26c.009-.2.244-4.857,2.571-5.819.393-.164.678-.14.842.068.58.727-1.591,4.017-2.936,5.914A.267.267,0,0,1,558.506,302.023Zm2.74-5.686c-.017.012-.089.021-.231.079-1.42.587-1.953,2.973-2.145,4.354C560.195,298.808,561.356,296.761,561.246,296.336Z" transform="translate(-558.243 -295.822)" fill="#ffa63b"/>
      </g>
      <g id="Grupo_80187" data-name="Grupo 80187" transform="translate(97.359)">
        <path id="Trazado_113580" data-name="Trazado 113580" d="M546.788,250.554s-4.818-4.6-6.682-6.874c-4.273-5.223-7.347-12.67-5.734-14.979.654-.937,2.933,2.16,2.933,2.16s-2.264-6.423-.942-6.868,3.456,2.716,3.456,2.716-1.516-4.45.265-4.846,8.126,11.279,9.068,11.144-.115-4.539,1.825-4.223,7.485,10.748,4.707,14.06S546.788,250.554,546.788,250.554Z" transform="translate(-533.936 -221.853)" fill="#f98875"/>
      </g>
      <g id="Grupo_80188" data-name="Grupo 80188" transform="translate(104.471 10.418)">
        <path id="Trazado_113581" data-name="Trazado 113581" d="M539.72,237.4a.262.262,0,0,1-.191-.443l6.561-6.939a.268.268,0,0,1,.372-.01.264.264,0,0,1,.01.372l-6.562,6.939A.263.263,0,0,1,539.72,237.4Z" transform="translate(-539.456 -229.94)"/>
      </g>
      <g id="Grupo_80189" data-name="Grupo 80189" transform="translate(111.718 10.89)">
        <path id="Trazado_113582" data-name="Trazado 113582" d="M547.788,241.7a.262.262,0,0,1-.21-.106,12.01,12.01,0,0,1-1.881-11.127.263.263,0,1,1,.487.2A11.483,11.483,0,0,0,548,241.283a.263.263,0,0,1-.211.42Z" transform="translate(-545.081 -230.306)"/>
      </g>
      <g id="Grupo_80190" data-name="Grupo 80190" transform="translate(120.027 122.603)">
        <path id="Trazado_113583" data-name="Trazado 113583" d="M566.529,320.357s2.9,5.993,3.852,8.778c2.173,6.389,2.445,14.442.126,16.039-.94.648-1.99-3.051-1.99-3.051s-.129,6.809-1.523,6.762-2.287-3.754-2.287-3.754-.138,4.7-1.947,4.447-4.554-16.952-5.484-17.156-3.669,3.616-5.376,2.642,2.856-15.379,6.617-17.51S566.529,320.357,566.529,320.357Z" transform="translate(-551.532 -317.022)" fill="#f98875"/>
      </g>
      <g id="Grupo_80191" data-name="Grupo 80191" transform="translate(131.201 142.403)">
        <path id="Trazado_113584" data-name="Trazado 113584" d="M562.207,340.964a.264.264,0,0,1-.258-.207l-1.738-8.043a.262.262,0,0,1,.2-.313.251.251,0,0,1,.312.2l1.739,8.043a.262.262,0,0,1-.2.312A.214.214,0,0,1,562.207,340.964Z" transform="translate(-560.205 -332.391)"/>
      </g>
      <g id="Grupo_80192" data-name="Grupo 80192" transform="translate(135.063 139.942)">
        <path id="Trazado_113585" data-name="Trazado 113585" d="M565.152,338.507a.262.262,0,0,1-.259-.22,61.572,61.572,0,0,0-1.675-7.454.264.264,0,0,1,.158-.338.269.269,0,0,1,.336.158,60.154,60.154,0,0,1,1.7,7.548.263.263,0,0,1-.216.3A.251.251,0,0,1,565.152,338.507Z" transform="translate(-563.203 -330.481)"/>
      </g>
      <g id="Grupo_80193" data-name="Grupo 80193" transform="translate(135.864 57.27)">
        <path id="Trazado_113586" data-name="Trazado 113586" d="M565.558,268.225a2.686,2.686,0,0,1-1.628-.55.259.259,0,0,1-.1-.185.266.266,0,0,1,.067-.2,2.78,2.78,0,0,1,2.843-.827c.487.193.575.495.584.656a.962.962,0,0,1-.616.837A2.466,2.466,0,0,1,565.558,268.225Zm-1.042-.8a2.117,2.117,0,0,0,1.941.061c.253-.135.341-.282.338-.344,0-.045-.071-.125-.254-.2A2.06,2.06,0,0,0,564.516,267.429Z" transform="translate(-563.825 -266.308)"/>
      </g>
      <g id="Grupo_80194" data-name="Grupo 80194" transform="translate(29.31 92.651)">
        <path id="Trazado_113587" data-name="Trazado 113587" d="M524.972,293.772s-28.768,9.5-34.12,20.263c-3.078,6.189-9.738,49.235-9.738,49.235l35.087-2.538s5.214-31.711,7.183-32.47,30.049-12.285,30.049-12.285Z" transform="translate(-481.114 -293.772)" fill="#f9931f"/>
      </g>
      <g id="Grupo_80195" data-name="Grupo 80195" transform="translate(57.587 93.93)">
        <path id="Trazado_113588" data-name="Trazado 113588" d="M528.127,322.643a.269.269,0,0,1-.117-.027C523.7,320.439,504,304.483,503.162,303.8a.283.283,0,0,1-.089-.137.263.263,0,0,1-.009-.084c.291-2.03,1.333-8.57,2.69-8.808.317-.055.587.139.821.573,1.369,2.577-2.055,7.168-2.877,8.213,2.149,1.737,20.524,16.552,24.548,18.586a.262.262,0,0,1-.119.5Zm-22.278-27.35c-.618.107-1.525,3.715-2.106,7.329,1.147-1.578,3.4-5.085,2.367-7.029C505.991,295.369,505.892,295.293,505.849,295.293Z" transform="translate(-503.064 -294.765)" fill="#fff"/>
      </g>
      <g id="Grupo_80196" data-name="Grupo 80196" transform="translate(66.102 120.642)">
        <path id="Trazado_113589" data-name="Trazado 113589" d="M515.152,322.262a.263.263,0,0,1-.157-.053c-.575-.428-5.6-4.238-5.31-5.921a.908.908,0,0,1,.7-.714,1.686,1.686,0,0,1,1.326.146c2.077,1.087,3.624,5.992,3.69,6.2a.266.266,0,0,1-.1.294A.275.275,0,0,1,515.152,322.262Zm-4.282-6.238a1.118,1.118,0,0,0-.323.05c-.308.1-.334.247-.343.3-.157.92,2.392,3.281,4.412,4.877-.53-1.439-1.74-4.332-3.147-5.068A1.279,1.279,0,0,0,510.87,316.025Z" transform="translate(-509.673 -315.499)" fill="#fff"/>
      </g>
    </g>
    <g id="Grupo_80206" data-name="Grupo 80206" transform="translate(603.271 330.855)">
      <g id="Grupo_80198" data-name="Grupo 80198" transform="translate(13.341)">
        <path id="Trazado_113590" data-name="Trazado 113590" d="M643.988,306.464H590.165L581.2,397.706h5.488a17.046,17.046,0,1,1,34.093,0h32.169ZM615.613,316.9a2.491,2.491,0,0,1-1.782.741H593.639a2.524,2.524,0,1,1,0-5.047h20.192a2.52,2.52,0,0,1,2.524,2.524A2.5,2.5,0,0,1,615.613,316.9Z" transform="translate(-581.201 -306.464)" fill="#f9931f"/>
      </g>
      <g id="Grupo_80199" data-name="Grupo 80199">
        <path id="Trazado_113591" data-name="Trazado 113591" d="M633.633,306.464H579.809l-8.964,91.242h18.829a17.046,17.046,0,1,1,34.093,0H642.6ZM618.6,316.9a2.491,2.491,0,0,1-1.782.741H596.625a2.524,2.524,0,1,1,0-5.047h20.192a2.52,2.52,0,0,1,2.524,2.524A2.5,2.5,0,0,1,618.6,316.9Z" transform="translate(-570.845 -306.464)" fill="#ffc721"/>
      </g>
      <g id="Grupo_80200" data-name="Grupo 80200" transform="translate(37.816 23.098)">
        <circle id="Elipse_4719" data-name="Elipse 4719" cx="3.976" cy="3.976" r="3.976"/>
      </g>
      <g id="Grupo_80201" data-name="Grupo 80201" transform="translate(30.819 22.853)">
        <path id="Trazado_113592" data-name="Trazado 113592" d="M611.138,341.313a1,1,0,0,1-.948-.682l-.933-2.77-7.837-2.866a1,1,0,0,1-.341-.211l-5.994-5.63a1,1,0,0,1-.317-.73V325.2a1,1,0,0,1,2,0v2.788l5.529,5.192,8.1,2.962a1,1,0,0,1,.6.621l1.087,3.226a1,1,0,0,1-.629,1.268A.968.968,0,0,1,611.138,341.313Z" transform="translate(-594.768 -324.203)"/>
      </g>
      <g id="Grupo_80202" data-name="Grupo 80202" transform="translate(18.145 27.971)">
        <path id="Trazado_113593" data-name="Trazado 113593" d="M585.931,342.087a1,1,0,0,1-.64-1.771l4.953-4.117a1.006,1.006,0,0,1,1.047-.144l7.485,3.338,5.008-7.062,2.763-3.746a1,1,0,0,1,1.613,1.19l-2.753,3.73-5.473,7.717a1,1,0,0,1-1.224.335l-7.665-3.418-4.474,3.718A1,1,0,0,1,585.931,342.087Z" transform="translate(-584.93 -328.176)"/>
      </g>
      <g id="Grupo_80203" data-name="Grupo 80203" transform="translate(24.878 39.434)">
        <path id="Trazado_113594" data-name="Trazado 113594" d="M592.381,352.207a1,1,0,0,1-.982-.805l-1.224-6.121a1,1,0,0,1,.245-.873l6.454-7.011a1,1,0,1,1,1.474,1.357l-6.109,6.635,1.125,5.622a1,1,0,0,1-.786,1.179A1.154,1.154,0,0,1,592.381,352.207Z" transform="translate(-590.156 -337.074)"/>
      </g>
      <g id="Grupo_80204" data-name="Grupo 80204" transform="translate(30.819 52.565)">
        <path id="Trazado_113595" data-name="Trazado 113595" d="M608.969,349.269h-13.2a1,1,0,1,1,0-2h13.2a1,1,0,0,1,0,2Z" transform="translate(-594.768 -347.267)"/>
      </g>
      <g id="Grupo_80205" data-name="Grupo 80205" transform="translate(40.091 55.459)">
        <path id="Trazado_113596" data-name="Trazado 113596" d="M616.164,351.515h-13.2a1,1,0,0,1,0-2h13.2a1,1,0,1,1,0,2Z" transform="translate(-601.965 -349.513)"/>
      </g>
    </g>
    <g id="Grupo_80207" data-name="Grupo 80207" transform="translate(525.388 416.801)">
      <path id="Trazado_113597" data-name="Trazado 113597" d="M557.788,375.18h-46.4a1,1,0,1,1,0-2h46.4a1,1,0,1,1,0,2Z" transform="translate(-510.39 -373.178)" fill="#2a44aa"/>
    </g>
    <g id="Grupo_80208" data-name="Grupo 80208" transform="translate(538.898 421.096)">
      <path id="Trazado_113598" data-name="Trazado 113598" d="M568.275,378.514h-46.4a1,1,0,0,1,0-2h46.4a1,1,0,0,1,0,2Z" transform="translate(-520.877 -376.512)" fill="#2a44aa"/>
    </g>
  </g>
</svg>
