<svg xmlns="http://www.w3.org/2000/svg" xmlns:xlink="http://www.w3.org/1999/xlink" width="210" height="179.307" viewBox="0 0 210 179.307">
  <defs>
    <clipPath id="clip-path">
      <rect id="Imagen_14" data-name="Imagen 14" width="210" height="157.307" rx="19" transform="translate(915 3288.309)" fill="#ffdd7a"/>
    </clipPath>
  </defs>
  <g id="Grupo_81663" data-name="Grupo 81663" transform="translate(-915 -3266.309)">
    <rect id="Imagen_6" data-name="Imagen 6" width="210" height="112.307" rx="19" transform="translate(915 3333.309)" fill="#ffdd7a"/>
    <g id="City" transform="translate(915 3266.309)">
      <path id="City-2" data-name="City" d="M227.462,157.178V44.725l-4.641-2.68L213.538,47.4V67.082L207.35,63.51V56.364l-4.641-2.68V42.966l-9.283-5.359-7.735,4.466v25.01L179.5,63.51V49.218l-4.641-2.68V32.247l-10.83-6.253-9.282,5.359V59.937L147.013,64.4V46.538l-7.736-4.466-6.188,3.573v8.932L126.9,58.15V36.713l-6.188-3.573-6.189,3.573V29.577L108.335,26,94.576,33.947V64.861L89.85,67.589V44.725l-4.641-2.68L75.926,47.4V67.083L69.738,63.51V56.364L65.1,53.684V42.965l-9.283-5.359-7.735,4.466v25.01L41.89,63.51v-5.4l-4.641-2.68V41.138l-10.83-6.253-8.956,5.171V157.178Z" transform="translate(-17.463 -25.994)" fill="#ffdd7a"/>
    </g>
    <g id="Enmascarar_grupo_63" data-name="Enmascarar grupo 63" clip-path="url(#clip-path)">
      <g id="Character" transform="translate(677.262 3245.549)">
        <g id="Bottom" transform="translate(309.612 161.79)">
          <g id="Grupo_81753" data-name="Grupo 81753" transform="translate(0 117.736)">
            <path id="Trazado_114411" data-name="Trazado 114411" d="M368.141,379.681l1.72-15.313L352.42,362.8s.738,11.8.632,17.217c-.05,2.552-1.853,7.352-1.853,7.352s7.3,3.789,11.089,2.239,6.3-7.522,6.2-8.616S368.141,379.681,368.141,379.681Z" transform="translate(-330.638 -362.797)" fill="#ffbda7"/>
            <path id="Trazado_114412" data-name="Trazado 114412" d="M323.522,414.624c-.241,0-.421,2.224.907,3.312a17.21,17.21,0,0,0,12.242,2.81c5.84-.847,8.976-2.685,11.283-4.656s5.539-4.751,8.176-5.372a19,19,0,0,0,6.52-3.359c.774-.762.6-4.089.6-4.089Z" transform="translate(-323.176 -373.643)" fill="#263238"/>
            <path id="Trazado_114413" data-name="Trazado 114413" d="M360.647,385.825a.938.938,0,0,1,.9.764c.2.914.441,3.578.857,5.077a26.526,26.526,0,0,1,.725,8.077c-.291,1.711-4.925,3.842-7.47,4.847a32.651,32.651,0,0,0-8.205,5.306c-2.709,2.281-8.452,4.7-12.268,4.743-4.515.045-9.624-1.306-10.827-3.347-1.488-2.525-2.594-5.47,4.043-8.64,1.256-.6,5.658-3.271,7.158-4.237,4.056-2.615,6.9-5,8.7-9.533a2.51,2.51,0,0,1,.936-1.393,2.165,2.165,0,0,1,1.3-.138,44.644,44.644,0,0,1,6.6,1.121c.906.407,2.19.875,2.192,2.009a3.752,3.752,0,0,1-.231,1.156c-.076.233-.133.541.075.674s.451-.026.623-.182a17.146,17.146,0,0,0,1.764-2.164,19.144,19.144,0,0,1,1.687-1.957,11.507,11.507,0,0,0,1.132-.751C360.745,386.85,360.638,386.356,360.647,385.825Z" transform="translate(-323.142 -368.968)" fill="#455a64"/>
            <path id="Trazado_114414" data-name="Trazado 114414" d="M347.424,415.8c1.15-.968,2.373-1.906,3.6-2.747v-.006s-7.784,4.848-11,2.764c-2.075-1.343-1.132-3.034-1.092-3.57s-7.265-4.187-9.259-4.386h0c-.549.311-1,.578-1.3.7-5.188,2.147-5.834,4.813-4.9,8.134,1.2,2.041,5.776,4.091,11.611,3.99C338.893,420.615,344.715,418.081,347.424,415.8Z" transform="translate(-323.111 -374.871)" fill="#37474f"/>
            <path id="Trazado_114415" data-name="Trazado 114415" d="M344.486,404.769c-4.132,1.711-2.342,2.445-1.173,2.589s8.1-4.006,12.311-7.409c4.392-3.549,7.778-8.27,9.41-9.574.608-.485,1.262-1.081,1.843-1.637-.126-.9-.23-1.72-.323-2.151a.938.938,0,0,0-.9-.764c-.01.531.1,1.025-.3,1.431a11.507,11.507,0,0,1-1.132.751,19.144,19.144,0,0,0-1.687,1.957,17.087,17.087,0,0,1-1.764,2.163C357.216,396.733,348.618,403.058,344.486,404.769Z" transform="translate(-328.147 -368.968)" fill="#37474f"/>
            <g id="Grupo_81752" data-name="Grupo 81752" transform="translate(5.51 23.494)">
              <g id="Grupo_81747" data-name="Grupo 81747" transform="translate(0 9.312)">
                <path id="Trazado_114416" data-name="Trazado 114416" d="M340.578,412.589a.414.414,0,0,0,.259-.1.4.4,0,0,0,.048-.572c-1.2-1.4-6.831-4.661-9.888-4.277a.406.406,0,1,0,.1.8c2.854-.351,8.2,2.891,9.156,4A.415.415,0,0,0,340.578,412.589Z" transform="translate(-330.637 -407.613)" fill="#263238"/>
              </g>
              <g id="Grupo_81748" data-name="Grupo 81748" transform="translate(3.59 7.051)">
                <path id="Trazado_114417" data-name="Trazado 114417" d="M345.482,409.5a.416.416,0,0,0,.259-.1.4.4,0,0,0,.047-.572c-1.2-1.4-6.828-4.658-9.887-4.276a.406.406,0,1,0,.1.8c2.855-.348,8.2,2.889,9.156,4A.409.409,0,0,0,345.482,409.5Z" transform="translate(-335.541 -404.524)" fill="#263238"/>
              </g>
              <g id="Grupo_81749" data-name="Grupo 81749" transform="translate(7.182 4.904)">
                <path id="Trazado_114418" data-name="Trazado 114418" d="M350.39,406.566a.416.416,0,0,0,.259-.1.4.4,0,0,0,.047-.572c-1.2-1.4-6.831-4.664-9.887-4.277a.406.406,0,1,0,.1.805c2.855-.352,8.2,2.889,9.156,4A.408.408,0,0,0,350.39,406.566Z" transform="translate(-340.448 -401.59)" fill="#263238"/>
              </g>
              <g id="Grupo_81750" data-name="Grupo 81750" transform="translate(10.502 2.466)">
                <path id="Trazado_114419" data-name="Trazado 114419" d="M354.926,403.235a.406.406,0,0,0,.306-.668c-1.2-1.4-6.842-4.659-9.887-4.276a.406.406,0,1,0,.1.805c2.851-.35,8.2,2.889,9.156,4A.407.407,0,0,0,354.926,403.235Z" transform="translate(-344.984 -398.26)" fill="#263238"/>
              </g>
              <g id="Grupo_81751" data-name="Grupo 81751" transform="translate(13.057)">
                <path id="Trazado_114420" data-name="Trazado 114420" d="M359.113,399.9a.412.412,0,0,0,.254-.092.4.4,0,0,0,.056-.57c-1.652-1.98-7.535-4.688-10.59-4.305a.405.405,0,0,0-.357.452.412.412,0,0,0,.46.352c2.751-.343,8.385,2.26,9.851,4.015A.412.412,0,0,0,359.113,399.9Z" transform="translate(-348.473 -394.891)" fill="#263238"/>
              </g>
            </g>
          </g>
          <g id="Grupo_81760" data-name="Grupo 81760" transform="translate(62.257 120.589)">
            <path id="Trazado_114421" data-name="Trazado 114421" d="M412.306,387.914l-4.148-18.39,18.141-2.83.291,18.154s1.386,4.882.364,6.561-11.921,3.444-12.92,2.326S412.306,387.914,412.306,387.914Z" transform="translate(-408.158 -366.694)" fill="#ffbda7"/>
            <path id="Trazado_114422" data-name="Trazado 114422" d="M416.3,432.864c.477,4.125,1.342,6.793,3.127,9.027s4.965,2.616,8.112,1.512,7.129-3.512,7.865-7.21.431-6.134-.48-9.9Z" transform="translate(-410.339 -382.664)" fill="#263238"/>
            <path id="Trazado_114423" data-name="Trazado 114423" d="M427.974,391.494c1.315-.069.96,3.178,1.58,8.74.671,6.017,3.384,10.733,4.349,15.557,1.1,5.511.893,8.06-1.161,11.726s-9.75,7.957-13.862,3.571c-3.352-3.576-3.7-7.954-3.686-13.594a126.229,126.229,0,0,0-.408-14.3c-.462-4.171-2.212-8.025-1.1-8.631.118.606,1.236,4.831,1.971,4.763a7.711,7.711,0,0,0-.063-1.586,1.8,1.8,0,0,1,.293-1.4,6.1,6.1,0,0,1,2.116-1.075c1.28-.384,3.565-.862,4.871-1.128.65-.132,1.3-.24,1.96-.313a5.735,5.735,0,0,1,1.672.007,1.021,1.021,0,0,1,.738.483,1.589,1.589,0,0,1,.1.632,4,4,0,0,0,.221,1.132c.056.16.2.346.381.283a.353.353,0,0,0,.2-.365C428.118,395.316,428.02,391.849,427.974,391.494Z" transform="translate(-409.543 -373.339)" fill="#455a64"/>
            <path id="Trazado_114424" data-name="Trazado 114424" d="M434.213,422.553c.167.795,1.2,6.06-.4,7.228-1.733,1.264-2.918-2.83-2.918-2.83s-4.24-.623-10.214,2.484c.355.831-.444,3.814-2.144,3.413s-2.646-6.468-2.659-6.546c.01,5.4.43,9.636,3.684,13.108,4.112,4.386,11.809.1,13.862-3.571s2.264-6.214,1.161-11.726C434.478,423.562,434.35,423.047,434.213,422.553Z" transform="translate(-410.228 -381.663)" fill="#37474f"/>
            <path id="Trazado_114425" data-name="Trazado 114425" d="M435.115,419.046c.127,2.026,2.354,1.064,2.312-1.813s-1.551-9.863-2.123-14.568c-.381-6.768-.651-11.24-1.967-11.171.009.068.01.138.018.206,0,0,.135,3.856.154,4.294.236,4.134.29,12.167.878,15.9A57.944,57.944,0,0,1,435.115,419.046Z" transform="translate(-414.905 -373.339)" fill="#37474f"/>
            <path id="Trazado_114426" data-name="Trazado 114426" d="M420.693,422.091a57.02,57.02,0,0,1-1.6-6.966c-.637-3.7-2.849-11.095-3.945-15.073-.355-.653-1.468-4.37-1.468-4.37-.911.257,0,3.8.426,5.461s.946,3.437,1.479,5.817c1.362,4.69,1.491,11.732,2.368,14.431S421.221,424.031,420.693,422.091Z" transform="translate(-409.534 -374.462)" fill="#37474f"/>
            <g id="Grupo_81759" data-name="Grupo 81759" transform="translate(6.423 27.662)">
              <g id="Grupo_81754" data-name="Grupo 81754" transform="translate(3.356 17.1)">
                <path id="Trazado_114427" data-name="Trazado 114427" d="M422.073,431.032a.632.632,0,0,0,.175-.068A18,18,0,0,1,432.3,428.8a.539.539,0,0,0,.58-.378.4.4,0,0,0-.371-.484,18.841,18.841,0,0,0-10.752,2.319.427.427,0,0,0-.176.605A.47.47,0,0,0,422.073,431.032Z" transform="translate(-421.517 -427.842)" fill="#263238"/>
              </g>
              <g id="Grupo_81755" data-name="Grupo 81755" transform="translate(2.044 12.615)">
                <path id="Trazado_114428" data-name="Trazado 114428" d="M420.282,425.121a.58.58,0,0,0,.16-.06,22.3,22.3,0,0,1,11.259-2.418.54.54,0,0,0,.567-.4.4.4,0,0,0-.39-.472,23.077,23.077,0,0,0-11.894,2.559.435.435,0,0,0-.2.6A.469.469,0,0,0,420.282,425.121Z" transform="translate(-419.726 -421.716)" fill="#263238"/>
              </g>
              <g id="Grupo_81756" data-name="Grupo 81756" transform="translate(1.437 8.347)">
                <path id="Trazado_114429" data-name="Trazado 114429" d="M430.955,416.935a.531.531,0,0,0,.4-.34.394.394,0,0,0-.331-.51c-5.965-1.044-11.643,2.314-11.883,2.459a.427.427,0,0,0-.176.605.508.508,0,0,0,.665.1c.054-.031,5.571-3.288,11.121-2.31A.544.544,0,0,0,430.955,416.935Z" transform="translate(-418.896 -415.885)" fill="#263238"/>
              </g>
              <g id="Grupo_81757" data-name="Grupo 81757" transform="translate(0.7 4.377)">
                <path id="Trazado_114430" data-name="Trazado 114430" d="M430.154,411.579a.53.53,0,0,0,.395-.333.391.391,0,0,0-.319-.515,17.446,17.446,0,0,0-12.125,2.456.42.42,0,0,0-.134.611.51.51,0,0,0,.675.063,16.6,16.6,0,0,1,11.294-2.279A.555.555,0,0,0,430.154,411.579Z" transform="translate(-417.888 -410.462)" fill="#263238"/>
              </g>
              <g id="Grupo_81758" data-name="Grupo 81758">
                <path id="Trazado_114431" data-name="Trazado 114431" d="M429.282,405.594a.534.534,0,0,0,.393-.327.391.391,0,0,0-.311-.52c-6.158-1.268-11.962,2.426-12.205,2.586a.422.422,0,0,0-.149.609.5.5,0,0,0,.671.078c.057-.037,5.664-3.6,11.382-2.425A.545.545,0,0,0,429.282,405.594Z" transform="translate(-416.933 -404.483)" fill="#263238"/>
              </g>
            </g>
          </g>
          <g id="Grupo_81761" data-name="Grupo 81761" transform="translate(17.715)">
            <path id="Trazado_114432" data-name="Trazado 114432" d="M403.32,201.962c2.5,32.633,3.594,81.321,3.594,81.321.223,2.478,1.634,5.947,2.784,18.171,1.213,12.9,1.168,31.306,1.168,31.306s-10.9,4.654-17.676,2.25c0,0-7.281-27.617-10.8-42.8-3.334-14.373-5.79-36.849-5.79-36.849l-3.957,21.653s.5,9.3.264,15.814c-.271,7.573-4.359,36.565-4.359,36.565s-10.128,6.066-17.176.284c0,0-3.43-42.554-3.659-51.662-.449-17.865-.96-53,1.151-76.048Z" transform="translate(-347.31 -201.962)" fill="#37474f"/>
            <path id="Trazado_114433" data-name="Trazado 114433" d="M381.466,264.461,377.9,241.249S369.7,240,365.481,235.94c0,0,2.73,5.378,10.472,7.454l3.537,21.128-1.982,21.592Z" transform="translate(-352.179 -211.067)" fill="#263238"/>
          </g>
          <path id="Trazado_114434" data-name="Trazado 114434" d="M427.358,379.5c-3.045,2.387-11.91,4.422-17.978,2.228l-1.222-5.124c4.58,1.543,14.016.564,19.1-2.57Z" transform="translate(-345.901 -248.072)" fill="#455a64"/>
          <path id="Trazado_114435" data-name="Trazado 114435" d="M369.87,374.981c-2.055,2.083-11.576,3.808-17.2.512l-.416-5.142c4.264,2.375,14.061,1.97,18.239-.469Z" transform="translate(-330.92 -246.959)" fill="#455a64"/>
          <g id="Grupo_81762" data-name="Grupo 81762" transform="translate(63.137 50.974)">
            <path id="Trazado_114436" data-name="Trazado 114436" d="M422.833,271.6s.945,22.965.88,24.637-12.548,4.979-12.872,3.916c-.539-1.77-.4-5.717-1.482-24.74C419.708,274.07,422.833,271.6,422.833,271.6Z" transform="translate(-409.359 -271.595)" fill="#455a64"/>
            <path id="Trazado_114437" data-name="Trazado 114437" d="M412,284.78a4.017,4.017,0,0,1,1.178-.1c.458-.012.915-.031,1.372-.07a21.346,21.346,0,0,0,2.875-.441,22.755,22.755,0,0,0,3.152-.957c.836-.321,1.628-.753,2.465-1.067.078-.03.092.122.04.16a12.083,12.083,0,0,1-2.637,1.34,19.792,19.792,0,0,1-2.606.84,21.285,21.285,0,0,1-2.867.509q-.724.078-1.452.105a3.166,3.166,0,0,1-1.528-.109C411.928,284.958,411.92,284.806,412,284.78Z" transform="translate(-410.051 -274.422)" fill="#37474f"/>
            <path id="Trazado_114438" data-name="Trazado 114438" d="M419.249,281.8a.621.621,0,0,0,.217.524.856.856,0,0,0,.893.015.867.867,0,0,0,.447-.864.757.757,0,0,0-.31-.52.9.9,0,0,0-.628-.16c-.269.031-.362.179-.481.415A1.294,1.294,0,0,0,419.249,281.8Zm.517-.523a.486.486,0,0,1,.349-.091c.39.041.455.659.137.843a.448.448,0,1,1-.486-.752Z" transform="translate(-412.009 -274.059)" fill="#37474f"/>
          </g>
        </g>
        <g id="Top" transform="translate(272.738 52.048)">
          <g id="Grupo_81764" data-name="Grupo 81764" transform="translate(0 43.497)">
            <g id="Grupo_81763" data-name="Grupo 81763">
              <path id="Trazado_114439" data-name="Trazado 114439" d="M285.676,138.293c1.837,1.905,3.626,4.729,6.739,8.1s7.743,9.154,12.435,12.884c4.711,3.748,7.043,5.309,14.314-.4,9.232-7.249,18.782-17.886,18.782-17.886l6.849-23.274c-6.878.132-10.048,2.17-15.227,7.41-8.853,8.959-18.464,18.691-18.464,18.691s-13.8-10.92-15.559-12.59a8.09,8.09,0,0,1-2.471-4.716,37.741,37.741,0,0,0-.93-4.476c-.4-1.564-.552-2.156-.995-4.11s-.529-5.149-.654-5.87c-.324-.841-1.494-.938-2.754.824a7.606,7.606,0,0,0-.975,3.694c-.1,1.146.042,2.576-.329,2.711s-1.87-.924-3.441-1.544-2.906-1.526-4.785-1.247a2.153,2.153,0,0,0-1.88,2.607,2.786,2.786,0,0,0,.8,1.228,2.31,2.31,0,0,0-1.81.285,2.513,2.513,0,0,0-.5,3.146,1.427,1.427,0,0,0-1.559,1.043c-.346,1.037-.384,2.111.624,2.684,0,0-.911.079-1.041.586a2.555,2.555,0,0,0,.487,2.465,8.31,8.31,0,0,0,2.947,1.163s.1.406,1.045,1.078a25.89,25.89,0,0,0,3.129,2.321C281.722,135.821,284.213,136.776,285.676,138.293Z" transform="translate(-272.738 -111.469)" fill="#ffbda7"/>
              <path id="Trazado_114440" data-name="Trazado 114440" d="M279.961,132.137a.924.924,0,0,1-.329.745,7.287,7.287,0,0,1-.873.646,4.288,4.288,0,0,1-.459.287,1.813,1.813,0,0,1-.482.168l-1.107.231a4.493,4.493,0,0,0,1.152.076,1.462,1.462,0,0,0,.6-.145,4.493,4.493,0,0,0,.52-.281,4.811,4.811,0,0,0,.882-.777,1.239,1.239,0,0,0,.249-.572.779.779,0,0,0-.074-.384,5.179,5.179,0,0,0,.9-.2,2.853,2.853,0,0,0,1.309-.654,2.158,2.158,0,0,0,.346-.665.838.838,0,0,0,.037-.237l.4-.432a6.317,6.317,0,0,0,1.147,2.777,7.573,7.573,0,0,0,2.744,2.431,6.7,6.7,0,0,1-2.283-2.938,6.773,6.773,0,0,1,.367-5.543.524.524,0,0,0,.081-.014,1.025,1.025,0,0,0,.4-.371,1.379,1.379,0,0,0,.184-.995,2.817,2.817,0,0,0-.328-.893,5.325,5.325,0,0,0-2.8-2.2,2.573,2.573,0,0,0-.349-.714,4.008,4.008,0,0,0-.537-.632,5.033,5.033,0,0,1,.459.68,2.373,2.373,0,0,1,.282.742l.007.045.045.021a5.509,5.509,0,0,1,2.587,2.231,1.514,1.514,0,0,1,.137,1.5c-.174.236-.282.294-.554.213s-.553-.18-.843-.264c-.588-.174-1.177-.269-1.739-.424a6.987,6.987,0,0,1-1.6-.674c-.508-.291-.988-.641-1.475-.982a12.154,12.154,0,0,1-1.4-1.1,14.351,14.351,0,0,0,2.728,2.324,5.978,5.978,0,0,0,1.654.769c.583.172,1.173.277,1.723.452.114.034.224.075.336.114a1.1,1.1,0,0,1,.281.742,1.216,1.216,0,0,1-.774,1.079,7.307,7.307,0,0,1-1.391.544,4.1,4.1,0,0,1-1.446.123,10.274,10.274,0,0,1-2.7-1.281c-.9-.495-1.8-.986-2.723-1.436.837.6,1.7,1.154,2.561,1.707.429.28.868.542,1.316.8a3.02,3.02,0,0,0,2.468.55,1.454,1.454,0,0,1,.717.621.672.672,0,0,1,.041.578,1.935,1.935,0,0,1-.333.54,3.054,3.054,0,0,1-1.184.51,2.861,2.861,0,0,1-1.279.142,5.068,5.068,0,0,1-1.207-.564,8.414,8.414,0,0,0-1.329-.487c-.894-.263-1.793-.494-2.708-.676.867.341,1.744.647,2.61.968a13.5,13.5,0,0,1,1.263.523,5.074,5.074,0,0,0,1.293.63A1.963,1.963,0,0,0,279.961,132.137Zm4.236-5.552c-.007-.009-.011-.019-.018-.028h0C284.185,126.567,284.193,126.576,284.2,126.585Z" transform="translate(-273.161 -113.982)" fill="#f0997a"/>
            </g>
            <path id="Trazado_114441" data-name="Trazado 114441" d="M350.358,119.494c-5.974.285-8.358,1.58-14.257,6.895s-18.67,19.159-18.67,19.159l-12.368-9.391s.867,1.922-2.1,6.037a8.373,8.373,0,0,1-7.056,3.756s7.691,8.94,11.218,12.34,7.653,6.783,9.859,7,3.942-.492,8.792-4.028,24.577-21.369,24.577-21.369Z" transform="translate(-278.947 -113.619)" fill="#465fc4"/>
          </g>
          <path id="Trazado_114442" data-name="Trazado 114442" d="M413.118,131.937c3.46-1.7,6.715-1.548,7.825-5.889.865-3.38-1.182-6.9-1.517-10.09-.375-3.572,1.531-7.667-.659-10.514-1.489-1.936-4.337-2.38-5.9-4.259-2.14-2.575-.988-6.6-2.447-9.61a6.132,6.132,0,0,0-6.737-3.191c-3.038.728-5.722.585-8.568,1.87s-5.342,3.8-5.729,6.9c-.43,3.441,1.751,6.817,1.3,10.256-.272,2.093-1.482,3.923-2.334,5.853s-1.321,4.3-.168,6.064,3.493,2.31,5.039,3.745c2.489,2.311,2.374,6.286,4.083,9.221a8.462,8.462,0,0,0,11.021,3.007C410.037,134.343,411.366,132.8,413.118,131.937Z" transform="translate(-303.491 -61.745)" fill="#263238"/>
          <g id="Chest" transform="translate(56.063 49.161)">
            <path id="Trazado_114443" data-name="Trazado 114443" d="M373.175,119.206s18.9,1.048,23.609,3.195c2.156.983,6.875,6.59,5.9,20.069-.393,5.424-2.581,16.5-2.627,20.557-.065,5.75,5.017,24.418,5.017,24.418-17.734,10.9-49.089,7.554-55.444,1.716,0,0,2.156-24.124,2.831-36.525,0,0-3.4-5.724-3.121-9.577.408-5.653,1.583-7.661,6.758-13.983a106.167,106.167,0,0,1,8.846-9.656Z" transform="translate(-349.323 -119.206)" fill="#465fc4"/>
          </g>
          <g id="Grupo_81772" data-name="Grupo 81772" transform="translate(64.211 1.182)">
            <path id="Trazado_114444" data-name="Trazado 114444" d="M393.147,62.707c6.1.676,7.571,10.641,6.123,16.262-2.792,10.843-10.109,12.111-10.392,16.742l-10.957-6.427-8.524-5a23.22,23.22,0,0,1-6.561-5.03,11.122,11.122,0,0,1-1.424-2.109,10.179,10.179,0,0,1-.931-5.208c.365-5.638,3.856-10.572,8.263-13.919,3.449-2.62,8.687-5.122,13.162-4.135C386.689,54.938,391.692,57.691,393.147,62.707Z" transform="translate(-360.455 -53.663)" fill="#263238"/>
            <g id="Grupo_81771" data-name="Grupo 81771" transform="translate(1.516 11.356)">
              <path id="Trazado_114445" data-name="Trazado 114445" d="M389.174,104.209l.607-10.054a4.392,4.392,0,0,0,5.4-1.077c3-3.115,3.3-6.512,1.662-8.691-1.812-2.408-5.816-1.5-7.55,1.439-2.614.625-3.675-3.111-1.69-6.942,0,0-12.663.864-18.534-8.765a3.174,3.174,0,0,0-5.112.8c-.619,1.427-1.433,3.815-.847,8.648.218,1.795-.648,3.937-.58,6.361.266,9.562,2.445,12.641,5.063,14.254a14.629,14.629,0,0,0,7.148,1.61l-.212,2.575h0c-.057,1.4-.387,1.444-1.6,1.511-.96.053-1.814.105-1.814.105L374.867,118c4.034-5.181,12.1-6.384,20.349-10.328,0,0-.809-.136-3.026-.464S389.359,106.087,389.174,104.209Z" transform="translate(-362.526 -69.177)" fill="#ffbda7"/>
              <g id="Grupo_81770" data-name="Grupo 81770" transform="translate(2.196 5.784)">
                <g id="Grupo_81765" data-name="Grupo 81765" transform="translate(7.73 15.711)">
                  <path id="Trazado_114446" data-name="Trazado 114446" d="M381.279,98.54l-5.194,1.679a2.683,2.683,0,0,0,3.389,1.853A2.858,2.858,0,0,0,381.279,98.54Z" transform="translate(-376.085 -98.54)" fill="#b16668"/>
                  <path id="Trazado_114447" data-name="Trazado 114447" d="M381.64,100.184a3,3,0,0,0-2.994,2.353,2.6,2.6,0,0,0,1.515-.024,2.807,2.807,0,0,0,1.882-2.279A3.04,3.04,0,0,0,381.64,100.184Z" transform="translate(-376.771 -98.98)" fill="#f28f8f"/>
                </g>
                <g id="Grupo_81766" data-name="Grupo 81766">
                  <path id="Trazado_114448" data-name="Trazado 114448" d="M365.666,79.769l3.441-1.536a1.809,1.809,0,0,0-2.43-.995A1.98,1.98,0,0,0,365.666,79.769Z" transform="translate(-365.526 -77.078)" fill="#263238"/>
                  <path id="Trazado_114449" data-name="Trazado 114449" d="M369.752,84.231a1.617,1.617,0,0,1-1.441,1.719,1.515,1.515,0,0,1-1.69-1.381,1.615,1.615,0,0,1,1.44-1.718A1.514,1.514,0,0,1,369.752,84.231Z" transform="translate(-365.818 -78.622)" fill="#263238"/>
                </g>
                <g id="Grupo_81767" data-name="Grupo 81767" transform="translate(12.689 1.218)">
                  <path id="Trazado_114450" data-name="Trazado 114450" d="M386.983,81.6l-3.353-1.823a1.831,1.831,0,0,1,2.531-.813A2,2,0,0,1,386.983,81.6Z" transform="translate(-383.066 -78.742)" fill="#263238"/>
                  <path id="Trazado_114451" data-name="Trazado 114451" d="M385.994,84.69a1.616,1.616,0,0,1-1.44,1.718,1.515,1.515,0,0,1-1.69-1.381,1.615,1.615,0,0,1,1.44-1.717A1.514,1.514,0,0,1,385.994,84.69Z" transform="translate(-382.859 -79.964)" fill="#263238"/>
                </g>
                <g id="Grupo_81768" data-name="Grupo 81768" transform="translate(3.487 2.774)">
                  <path id="Trazado_114452" data-name="Trazado 114452" d="M376.645,80.868l-1.118,10.744-5.238-2.772Z" transform="translate(-370.289 -80.868)" fill="#f0997a"/>
                </g>
                <g id="Grupo_81769" data-name="Grupo 81769" transform="translate(9.843 20.232)">
                  <path id="Trazado_114453" data-name="Trazado 114453" d="M379.148,111.314c6.927.113,11.314-2.422,13.187-6.6,0,0-.6,3.918-3.407,6.033-3.148,2.369-9.956,2.46-9.956,2.46Z" transform="translate(-378.972 -104.716)" fill="#f0997a"/>
                </g>
              </g>
            </g>
          </g>
          <g id="Grupo_81776" data-name="Grupo 81776" transform="translate(50.921 49.146)">
            <g id="Grupo_81774" data-name="Grupo 81774" transform="translate(0 0.092)">
              <path id="Trazado_114454" data-name="Trazado 114454" d="M367.51,119.311a53.108,53.108,0,0,0-15.125,31.569c-1.007,10.4-1.283,53.408-1.283,53.408s-6.017.014-8.8-2.013c1.629-23.849,3.3-47.206,4.463-59.152a24.452,24.452,0,0,1,4.1-10.778,49.1,49.1,0,0,1,11.929-12.9Z" transform="translate(-342.299 -119.311)" fill="#f9931f"/>
              <g id="Grupo_81773" data-name="Grupo 81773" transform="translate(0.972 52.518)">
                <path id="Trazado_114455" data-name="Trazado 114455" d="M344.853,194.773a70.564,70.564,0,0,0,7.273,1.55c.023-1.229.047-2.46.072-3.682a67.014,67.014,0,0,1-7.076-1.587Q344.989,192.888,344.853,194.773Z" transform="translate(-343.956 -191.054)" fill="#fafafa"/>
                <path id="Trazado_114456" data-name="Trazado 114456" d="M351.65,210.133a67.3,67.3,0,0,1-7.762-1.81q-.131,1.849-.261,3.726a70.369,70.369,0,0,0,7.974,1.772C351.616,212.631,351.632,211.4,351.65,210.133Z" transform="translate(-343.627 -195.682)" fill="#fafafa"/>
              </g>
            </g>
            <g id="Grupo_81775" data-name="Grupo 81775" transform="translate(38.483)">
              <path id="Trazado_114457" data-name="Trazado 114457" d="M398.234,119.185c-.558,8.959-3.241,20.326-3.358,29.994-.21,17.531,5.229,56.411,5.229,56.411s12.614-.188,20.51-5.733c.048-4.212-3.531-19.023-5.3-25.169s-2.454-13.94-.157-23.689.647-21.887-3.889-28.7Z" transform="translate(-394.87 -119.185)" fill="#f9931f"/>
              <path id="Trazado_114458" data-name="Trazado 114458" d="M399.526,215.986c10.333-.809,16.875-3.512,20.058-5.227-.256-1.132-.5-2.242-.791-3.394-4.148,2.138-12.7,4.44-19.695,5.058C399.244,213.652,399.387,214.846,399.526,215.986Z" transform="translate(-396.003 -142.815)" fill="#fafafa"/>
              <path id="Trazado_114459" data-name="Trazado 114459" d="M415.9,193.965c-.263-.911-.5-1.862-.706-2.845a67.149,67.149,0,0,1-18.137,3.225q.18,1.83.371,3.643A70.764,70.764,0,0,0,416.1,194.67C416.032,194.425,415.964,194.188,415.9,193.965Z" transform="translate(-395.456 -138.461)" fill="#fafafa"/>
            </g>
          </g>
          <path id="Trazado_114460" data-name="Trazado 114460" d="M395.284,119.617a19.215,19.215,0,0,1-2.194-1.329c-1.348-.919-1.744-1.969-3.181-1.969-.811,3.749-5.511,7.386-9.132,8.875-3.473,1.427-5.207,5.443-5.207,5.443s4.213-3.911,7-2.719,8.113,4.3,8.113,4.3a35.316,35.316,0,0,0,3.768-7.3A15.037,15.037,0,0,0,395.284,119.617Zm-21.417,4.266c-.331-1.178.724-5.49.724-5.49s.584.011.638-1.165c0-.072.029-.608.028-.688a4.5,4.5,0,0,0-1.012.65,15.843,15.843,0,0,1-2.961,1.4s-4.738,4.613-6.134,9.329c2.619-1.891,5.118-2.261,7.229-.96a6.952,6.952,0,0,1,3.192,3.68C375.757,128.387,374.2,125.059,373.867,123.882Z" transform="translate(-297.501 -69.271)" fill="#9aeccd"/>
          <g id="Grupo_81780" data-name="Grupo 81780" transform="translate(30.247 52.132)">
            <g id="Grupo_81778" data-name="Grupo 81778" transform="translate(0 27.428)">
              <g id="Trazado_114461" data-name="Trazado 114461" transform="translate(-314.058 -161.682)" fill="#ebebeb" stroke-miterlimit="10">
                <path d="M 372.0812072753906 217.2026214599609 L 334.0574951171875 211.0079803466797 L 314.8549194335938 164.8922882080078 L 354.7353515625 170.3645629882812 L 372.0812072753906 217.2026214599609 Z" stroke="none"/>
                <path d="M 315.6522216796875 165.5063781738281 L 334.4122314453125 210.5591735839844 L 371.3141174316406 216.571044921875 L 354.3705139160156 170.8191986083984 L 315.6522216796875 165.5063781738281 M 314.0575866699219 164.2781982421875 L 355.1001586914062 169.9099426269531 L 372.8482666015625 217.8341674804688 L 333.7027587890625 211.456787109375 L 314.0575866699219 164.2781982421875 Z" stroke="none" fill="#e0e0e0"/>
              </g>
              <path id="Trazado_114462" data-name="Trazado 114462" d="M363.169,211.482c.335,1.294,2.187,5.665,6.943,6.632a38.31,38.31,0,0,0,11.4.228l-2.034-5.492Z" transform="translate(-327.218 -174.331)" opacity="0.15"/>
              <path id="Trazado_114463" data-name="Trazado 114463" d="M330.955,171.234l-.513-1.477c-.283-.815,2.047-1.135,5.2-.715l6.044.807c3.157.421,5.946,1.423,6.229,2.239l.512,1.477Z" transform="translate(-318.442 -162.909)" opacity="0.15"/>
              <g id="Grupo_81777" data-name="Grupo 81777" transform="translate(9.038)">
                <path id="Trazado_114464" data-name="Trazado 114464" d="M326.426,163.671c-.179-.509.75-.762,2.074-.564l2.4.358s-1.091-3.2,4.2-2.676,6.867,4.107,6.867,4.107l2.562.4c1.416.222,2.746.808,2.971,1.31l.408.908-21.142-2.9S326.6,164.181,326.426,163.671Z" transform="translate(-326.404 -160.732)" fill="#9aeccd"/>
                <path id="Trazado_114465" data-name="Trazado 114465" d="M326.426,163.671c-.179-.509.75-.762,2.074-.564l2.4.358s-1.091-3.2,4.2-2.676,6.867,4.107,6.867,4.107l2.562.4c1.416.222,2.746.808,2.971,1.31l.408.908-21.142-2.9S326.6,164.181,326.426,163.671Z" transform="translate(-326.404 -160.732)" opacity="0.3"/>
                <path id="Trazado_114466" data-name="Trazado 114466" d="M347.478,171.43c-.235-.678-2.209-1.48-4.678-1.976-.029-.084-.059-.17-.08-.237-.228-.711.027-1.187,1.516-.981l.052-.593-14.647-1.886.673.555c1.933.225,2.742.379,3.18,1.636.037.1.061.187.1.287-2.287-.13-3.817.2-3.585.865.284.816.513,1.477.513,1.477l17.475,2.331Z" transform="translate(-327.271 -162.078)" fill="#9aeccd"/>
                <path id="Trazado_114467" data-name="Trazado 114467" d="M347.478,171.43c-.235-.678-2.209-1.48-4.678-1.976-.029-.084-.059-.17-.08-.237-.228-.711.027-1.187,1.516-.981l.052-.593-14.647-1.886.673.555c1.933.225,2.742.379,3.18,1.636.037.1.061.187.1.287-2.287-.13-3.817.2-3.585.865.284.816.513,1.477.513,1.477l17.475,2.331Z" transform="translate(-327.271 -162.078)" opacity="0.4"/>
              </g>
            </g>
            <g id="Grupo_81779" data-name="Grupo 81779" transform="translate(32.909)">
              <path id="Trazado_114468" data-name="Trazado 114468" d="M428.371,184.449a58.108,58.108,0,0,0-2.752-11.137l-16.6,7.312s-3.528,1.843-11.615,5.706c-4.383,2.094-8.311,3.655-12.141,2.878-1.131-.23-4.992-.769-6.145-.867-1.25-.106-2.5.034-3.755.005-.8-.019-2.385-.27-2.385-.27l1.616,4.362.332.133c1.023.411.329,1.149-.389,1.445a16.542,16.542,0,0,1-6.554,1.127,37.657,37.657,0,0,1-6.637-.815,4.046,4.046,0,0,0-1.154-.115,1.343,1.343,0,0,0-1,.523,1.386,1.386,0,0,0,.062,1.457,5,5,0,0,0,1.064,1.1,2.977,2.977,0,0,1,.936,1.2c.244.711-.01,1.545.335,2.214.4.78,1.409.985,2.094,1.531a9.667,9.667,0,0,1,1.4,1.807,6.5,6.5,0,0,0,2.924,2.009c3.176,1.176,6.385.841,9.672.414,6.854-.89,12.035-3.531,15.33-4.544s7.472-1.758,17.307-4.471a107.373,107.373,0,0,0,13.118-4.17C426.939,191.9,429.06,189.974,428.371,184.449Z" transform="translate(-359.013 -136.675)" fill="#ffbda7"/>
              <path id="Trazado_114469" data-name="Trazado 114469" d="M440.94,165.4c-1.951-6.308-4.6-14.379-7.552-22.219a102.651,102.651,0,0,0-4.753-11.558c-2.557-5.293-8.237-6.536-14.278-8.356a28.791,28.791,0,0,0-1.783,22c2.109,6.651,9.158,21.612,9.158,21.612l-13.275,6.869a17.067,17.067,0,0,1,4.28,5.605c1.813,3.7-.436,8.129-.436,8.129s13.365-3.747,18.426-4.943,9.71-3.939,11.024-5.962S442.891,171.705,440.94,165.4Z" transform="translate(-372.262 -123.264)" fill="#465fc4"/>
            </g>
          </g>
          <g id="Grupo_81781" data-name="Grupo 81781" transform="translate(58.9)">
            <path id="Trazado_114470" data-name="Trazado 114470" d="M400.574,76.024a20.142,20.142,0,0,1-1.814,5.5,20.805,20.805,0,0,0-1.264-1.663,33.88,33.88,0,0,0-9.239-7.512l-.017,0c-8.093-4.6-18.281-6.75-26.706-5.125a19.378,19.378,0,0,1,1.91-4.595,20.026,20.026,0,0,1,37.13,13.395Z" transform="translate(-355.433 -52.166)" fill="#f9931f"/>
            <path id="Trazado_114471" data-name="Trazado 114471" d="M396.038,55.355c-.962-.564-5.872-2.472-6.264-2.627-2.544-1-6.734-1.285-11.322,1.909a20.35,20.35,0,0,0-7.6,10.336l5.211,2.105,1.694.3c.944-3.876,6.808-11.934,14.11-11.668a6.974,6.974,0,0,1,1.028.1,9.494,9.494,0,0,1,2.771.8A27.345,27.345,0,0,1,398.3,59.1,4.478,4.478,0,0,0,396.038,55.355Z" transform="translate(-357.929 -52.048)" fill="#f9931f"/>
            <path id="Trazado_114472" data-name="Trazado 114472" d="M396.038,55.355c-.962-.564-5.872-2.472-6.264-2.627-2.544-1-6.734-1.285-11.322,1.909a20.35,20.35,0,0,0-7.6,10.336l5.211,2.105,1.694.3c.944-3.876,6.808-11.934,14.11-11.668a6.974,6.974,0,0,1,1.028.1,9.494,9.494,0,0,1,2.771.8A27.345,27.345,0,0,1,398.3,59.1,4.478,4.478,0,0,0,396.038,55.355Z" transform="translate(-357.928 -52.048)" fill="#fff" opacity="0.45"/>
            <path id="Trazado_114473" data-name="Trazado 114473" d="M379.661,68.156c1.11-4.511,8.949-14.783,17.906-10.783a27.3,27.3,0,0,1,2.654,2.49,4.515,4.515,0,0,0-2.274-3.738c-2.31-1.341-7.073-2.3-12.379,1.4a20.3,20.3,0,0,0-7.594,10.332Z" transform="translate(-359.838 -52.821)" fill="#f9931f"/>
            <path id="Trazado_114474" data-name="Trazado 114474" d="M379.661,68.156c1.11-4.511,8.949-14.783,17.906-10.783a27.3,27.3,0,0,1,2.654,2.49,4.515,4.515,0,0,0-2.274-3.738c-2.31-1.341-7.073-2.3-12.379,1.4a20.3,20.3,0,0,0-7.594,10.332Z" transform="translate(-359.838 -52.821)" opacity="0.3"/>
            <path id="Trazado_114475" data-name="Trazado 114475" d="M386.284,73.016a22.429,22.429,0,0,0-8.257-8.609c-3.924-2.515-12.314-3.3-16.085-3.536-6.6-.42-8.292.857-8.452,1.822-.038.229-.215,1.289-.265,1.528a.94.94,0,0,0,.088.636c.869,1.575,5.989,4.591,5.989,4.591,8.425-1.625,18.613.523,26.706,5.125Z" transform="translate(-353.2 -54.39)" fill="#f9931f"/>
            <path id="Trazado_114476" data-name="Trazado 114476" d="M386.284,73.016a22.429,22.429,0,0,0-8.257-8.609c-3.924-2.515-12.314-3.3-16.085-3.536-6.6-.42-8.292.857-8.452,1.822-.038.229-.215,1.289-.265,1.528a.94.94,0,0,0,.088.636c.869,1.575,5.989,4.591,5.989,4.591,8.425-1.625,18.613.523,26.706,5.125Z" transform="translate(-353.2 -54.39)" opacity="0.15"/>
            <path id="Trazado_114477" data-name="Trazado 114477" d="M386.007,75.144c-8.093-4.6-18.281-6.75-26.706-5.125,0,0-5.121-3.016-5.989-4.591-.463-.87.183-2.948,8.352-2.428,3.772.239,12.162,1.021,16.086,3.536A22.435,22.435,0,0,1,386.007,75.144Z" transform="translate(-353.199 -54.961)" fill="#f9931f"/>
            <path id="Trazado_114478" data-name="Trazado 114478" d="M386.007,75.144c-8.093-4.6-18.281-6.75-26.706-5.125,0,0-5.121-3.016-5.989-4.591-.463-.87.183-2.948,8.352-2.428,3.772.239,12.162,1.021,16.086,3.536A22.435,22.435,0,0,1,386.007,75.144Z" transform="translate(-353.199 -54.961)" opacity="0.3"/>
          </g>
        </g>
      </g>
    </g>
    <g id="Grupo_81659" data-name="Grupo 81659" transform="translate(923 3391.333)">
      <g id="Grupo_80111" data-name="Grupo 80111" transform="translate(25.366)">
        <path id="Trazado_113526" data-name="Trazado 113526" d="M290.173,1037.985l-17.77-17.77a.888.888,0,0,1,0-1.255h0a.888.888,0,0,1,1.256,0l17.77,17.77a.888.888,0,0,1,0,1.256h0A.888.888,0,0,1,290.173,1037.985Z" transform="translate(-272.143 -1018.7)" fill="#465fc4"/>
      </g>
      <g id="Grupo_80112" data-name="Grupo 80112" transform="translate(34.086 2.379)">
        <path id="Trazado_113527" data-name="Trazado 113527" d="M343.924,1044.577l-6.671-6.671a.888.888,0,0,1,0-1.255h0a.887.887,0,0,1,1.256,0l6.671,6.671a.888.888,0,0,1,0,1.256h0A.887.887,0,0,1,343.924,1044.577Z" transform="translate(-336.993 -1036.39)" fill="#465fc4"/>
      </g>
      <g id="Grupo_80113" data-name="Grupo 80113" transform="translate(19.025)">
        <path id="Trazado_113528" data-name="Trazado 113528" d="M249.36,1044.326l-24.11-24.11a.887.887,0,0,1,0-1.255h0a.887.887,0,0,1,1.255,0l24.111,24.11a.887.887,0,0,1,0,1.255h0A.887.887,0,0,1,249.36,1044.326Z" transform="translate(-224.989 -1018.7)" fill="#465fc4"/>
      </g>
      <g id="Grupo_80114" data-name="Grupo 80114" transform="translate(14.008 1.323)">
        <path id="Trazado_113529" data-name="Trazado 113529" d="M215.74,1057.857l-27.8-27.8a.888.888,0,0,1,0-1.256h0a.887.887,0,0,1,1.255,0L217,1056.6a.888.888,0,0,1,0,1.255h0A.887.887,0,0,1,215.74,1057.857Z" transform="translate(-187.675 -1028.537)" fill="#465fc4"/>
      </g>
      <g id="Grupo_80115" data-name="Grupo 80115" transform="translate(9.838 3.493)">
        <path id="Trazado_113530" data-name="Trazado 113530" d="M186.728,1076l-29.8-29.8a.888.888,0,0,1,0-1.256h0a.888.888,0,0,1,1.255,0l29.805,29.805a.888.888,0,0,1,0,1.255h0A.888.888,0,0,1,186.728,1076Z" transform="translate(-156.663 -1044.677)" fill="#465fc4"/>
      </g>
      <g id="Grupo_80116" data-name="Grupo 80116" transform="translate(6.345 6.345)">
        <path id="Trazado_113531" data-name="Trazado 113531" d="M161.392,1097.847,130.946,1067.4a.888.888,0,0,1,0-1.256h0a.888.888,0,0,1,1.256,0l30.446,30.446a.889.889,0,0,1,0,1.256h0A.889.889,0,0,1,161.392,1097.847Z" transform="translate(-130.686 -1065.885)" fill="#465fc4"/>
      </g>
      <g id="Grupo_80117" data-name="Grupo 80117" transform="translate(3.493 9.838)">
        <path id="Trazado_113532" data-name="Trazado 113532" d="M139.543,1123.183l-29.805-29.8a.888.888,0,0,1,0-1.255h0a.888.888,0,0,1,1.256,0l29.8,29.8a.887.887,0,0,1,0,1.255h0A.888.888,0,0,1,139.543,1123.183Z" transform="translate(-109.478 -1091.863)" fill="#465fc4"/>
      </g>
      <g id="Grupo_80118" data-name="Grupo 80118" transform="translate(1.323 14.008)">
        <path id="Trazado_113533" data-name="Trazado 113533" d="M121.4,1152.2,93.6,1124.39a.887.887,0,0,1,0-1.255h0a.887.887,0,0,1,1.255,0l27.805,27.8a.888.888,0,0,1,0,1.256h0A.887.887,0,0,1,121.4,1152.2Z" transform="translate(-93.336 -1122.875)" fill="#465fc4"/>
      </g>
      <g id="Grupo_80119" data-name="Grupo 80119" transform="translate(0 19.025)">
        <path id="Trazado_113534" data-name="Trazado 113534" d="M107.87,1185.815,83.759,1161.7a.887.887,0,0,1,0-1.255h0a.887.887,0,0,1,1.255,0l24.111,24.11a.887.887,0,0,1,0,1.255h0A.887.887,0,0,1,107.87,1185.815Z" transform="translate(-83.499 -1160.189)" fill="#465fc4"/>
      </g>
      <g id="Grupo_80120" data-name="Grupo 80120" transform="translate(0 25.366)">
        <path id="Trazado_113535" data-name="Trazado 113535" d="M101.529,1226.628l-17.77-17.77a.888.888,0,0,1,0-1.256h0a.888.888,0,0,1,1.255,0l17.77,17.77a.888.888,0,0,1,0,1.255h0A.888.888,0,0,1,101.529,1226.628Z" transform="translate(-83.499 -1207.343)" fill="#465fc4"/>
      </g>
      <g id="Grupo_80121" data-name="Grupo 80121" transform="translate(2.379 34.086)">
        <path id="Trazado_113536" data-name="Trazado 113536" d="M108.122,1280.379l-6.671-6.671a.888.888,0,0,1,0-1.256h0a.888.888,0,0,1,1.255,0l6.671,6.671a.888.888,0,0,1,0,1.255h0A.888.888,0,0,1,108.122,1280.379Z" transform="translate(-101.191 -1272.193)" fill="#465fc4"/>
      </g>
    </g>
    <g id="Elipse_4746" data-name="Elipse 4746" transform="translate(952 3414)" fill="none" stroke="#f9931f" stroke-width="6">
      <ellipse cx="13" cy="13.5" rx="13" ry="13.5" stroke="none"/>
      <ellipse cx="13" cy="13.5" rx="10" ry="10.5" fill="none"/>
    </g>
    <g id="Elipse_4747" data-name="Elipse 4747" transform="translate(1087 3311)" fill="none" stroke="#465fc4" stroke-width="6">
      <ellipse cx="13" cy="13.5" rx="13" ry="13.5" stroke="none"/>
      <ellipse cx="13" cy="13.5" rx="10" ry="10.5" fill="none"/>
    </g>
  </g>
</svg>
