<svg xmlns="http://www.w3.org/2000/svg" xmlns:xlink="http://www.w3.org/1999/xlink" width="85" height="85" viewBox="0 0 85 85">
  <defs>
    <clipPath id="clip-path">
      <rect id="Rectángulo_33842" data-name="Rectángulo 33842" width="85" height="85" transform="translate(200 4931)" fill="#fff"/>
    </clipPath>
  </defs>
  <g id="Enmascarar_grupo_64" data-name="Enmascarar grupo 64" transform="translate(-200 -4931)" clip-path="url(#clip-path)">
    <g id="advertencia" transform="translate(200.006 4931)">
      <path id="Trazado_114481" data-name="Trazado 114481" d="M26.917,17V8.5a1.417,1.417,0,0,1,1.417-1.417H51A1.417,1.417,0,0,1,52.416,8.5V17h5.667V8.5A7.092,7.092,0,0,0,51,1.417H28.333A7.092,7.092,0,0,0,21.25,8.5V17Z" fill="#685652"/>
      <path id="Trazado_114482" data-name="Trazado 114482" d="M77.916,34V66.682L43.109,72.25H5.667A4.25,4.25,0,0,1,1.417,68V34Z" fill="#775043"/>
      <path id="Trazado_114483" data-name="Trazado 114483" d="M77.916,18.417V34a7.083,7.083,0,0,1-7.083,7.083H8.5A7.083,7.083,0,0,1,1.417,34V18.417a4.25,4.25,0,0,1,4.25-4.25h68A4.25,4.25,0,0,1,77.916,18.417Z" fill="#8f6454"/>
      <path id="Trazado_114484" data-name="Trazado 114484" d="M46.75,41.083v8.5a2.833,2.833,0,0,1-2.833,2.833h-8.5a2.833,2.833,0,0,1-2.833-2.833v-8.5Z" fill="#e5c952"/>
      <path id="Trazado_114485" data-name="Trazado 114485" d="M67.7,51.064,82.539,73.753a6.362,6.362,0,0,1-5.371,9.83H47.5a6.362,6.362,0,0,1-5.371-9.83L56.963,51.064a6.426,6.426,0,0,1,10.741,0Z" fill="#ffc721"/>
      <g id="Grupo_81786" data-name="Grupo 81786">
        <path id="Trazado_114486" data-name="Trazado 114486" d="M5.667,73.666H40.553a7.619,7.619,0,0,0,.057,7.239A7.717,7.717,0,0,0,47.5,85H77.17a7.792,7.792,0,0,0,7.367-10.4,1.417,1.417,0,1,0-2.662.972,4.958,4.958,0,0,1-4.7,6.6H47.5A4.92,4.92,0,0,1,43.1,79.558a4.854,4.854,0,0,1,.21-5.032L58.15,51.838a5.008,5.008,0,0,1,8.367,0l12,18.353a1.417,1.417,0,0,0,2.373-1.55l-1.558-2.38V18.417a5.667,5.667,0,0,0-5.667-5.667H59.5V8.5A8.508,8.508,0,0,0,51,0H28.333a8.508,8.508,0,0,0-8.5,8.5v4.25H5.667A5.667,5.667,0,0,0,0,18.417V68a5.667,5.667,0,0,0,5.667,5.667ZM68.888,50.291a7.84,7.84,0,0,0-13.11,0L42.344,70.833H5.667A2.833,2.833,0,0,1,2.833,68V40.318A8.456,8.456,0,0,0,8.5,42.5H31.167v7.083a4.25,4.25,0,0,0,4.25,4.25h8.5a4.25,4.25,0,0,0,4.25-4.25V42.5H70.833A8.456,8.456,0,0,0,76.5,40.318V61.929ZM34,42.5H45.333v7.083A1.417,1.417,0,0,1,43.916,51h-8.5A1.417,1.417,0,0,1,34,49.583ZM22.667,8.5a5.667,5.667,0,0,1,5.667-5.667H51A5.667,5.667,0,0,1,56.666,8.5v4.25H53.833V8.5A2.833,2.833,0,0,0,51,5.667H28.333A2.833,2.833,0,0,0,25.5,8.5v4.25H22.667ZM51,12.75H28.333V8.5H51ZM2.833,18.417a2.833,2.833,0,0,1,2.833-2.833h68A2.833,2.833,0,0,1,76.5,18.417V34a5.667,5.667,0,0,1-5.667,5.667H8.5A5.667,5.667,0,0,1,2.833,34Z"/>
        <path id="Trazado_114487" data-name="Trazado 114487" d="M63.75,55.25a1.417,1.417,0,0,0-2.833,0V69.416a1.417,1.417,0,1,0,2.833,0Z"/>
        <path id="Trazado_114488" data-name="Trazado 114488" d="M62.333,73.666a1.417,1.417,0,0,0-1.417,1.417V76.5a1.417,1.417,0,1,0,2.833,0V75.083A1.417,1.417,0,0,0,62.333,73.666Z"/>
      </g>
    </g>
  </g>
</svg>
