<svg xmlns="http://www.w3.org/2000/svg" xmlns:xlink="http://www.w3.org/1999/xlink" width="85" height="85" viewBox="0 0 85 85">
  <defs>
    <clipPath id="clip-path">
      <rect id="Rectángulo_33844" data-name="Rectángulo 33844" width="85" height="85" transform="translate(830 4862)" fill="#fff"/>
    </clipPath>
  </defs>
  <g id="Enmascarar_grupo_66" data-name="Enmascarar grupo 66" transform="translate(-830 -4862)" clip-path="url(#clip-path)">
    <g id="lugar-de-trabajo" transform="translate(830.011 4862.021)">
      <path id="Trazado_114529" data-name="Trazado 114529" d="M83.563,38.24V66.567A2.841,2.841,0,0,1,80.73,69.4H45.322L30.281,45.322Z" fill="#91674b"/>
      <path id="Trazado_114530" data-name="Trazado 114530" d="M83.563,31.159V38.24a7.082,7.082,0,0,1-7.082,7.082h-46.2l-6.2-9.914V28.326H80.73a2.841,2.841,0,0,1,2.833,2.833Z" fill="#a87a5b"/>
      <path id="Trazado_114531" data-name="Trazado 114531" d="M52.4,45.322h8.5v5.665a2.833,2.833,0,0,1-2.833,2.833H55.236A2.833,2.833,0,0,1,52.4,50.987Z" fill="#ffc721"/>
      <circle id="Elipse_4751" data-name="Elipse 4751" cx="16.996" cy="16.996" r="16.996" transform="translate(7.082 1.416)" fill="#ffc721"/>
      <path id="Trazado_114532" data-name="Trazado 114532" d="M46.738,58.069V76.481a7.082,7.082,0,0,1-7.082,7.082H8.5a7.082,7.082,0,0,1-7.082-7.082V58.069a22.661,22.661,0,0,1,45.322,0Z" fill="#ffc721"/>
      <path id="Trazado_114533" data-name="Trazado 114533" d="M36.158,38.892l-6.416,33.34H18.412L30.8,36.428a22.143,22.143,0,0,1,5.354,2.464Z" fill="#f2e8d9"/>
      <path id="Trazado_114534" data-name="Trazado 114534" d="M24.077,83.563H11.331V39.317a22.767,22.767,0,0,1,7.322-3.258Z" fill="#fff8eb"/>
      <g id="Grupo_81846" data-name="Grupo 81846">
        <path id="Trazado_114535" data-name="Trazado 114535" d="M80.73,26.91H66.567V24.077a4.249,4.249,0,0,0-4.249-4.249H50.987a4.249,4.249,0,0,0-4.249,4.249V26.91H40.395a18.412,18.412,0,1,0-23.824,8.3A24.108,24.108,0,0,0,0,58.069V76.481a8.506,8.506,0,0,0,8.5,8.5H39.657a8.506,8.506,0,0,0,8.5-8.5V58.069a23.936,23.936,0,0,0-2.844-11.331h5.677v4.249a4.249,4.249,0,0,0,4.249,4.249h2.833a4.249,4.249,0,0,0,4.249-4.249V46.738H76.481a8.454,8.454,0,0,0,5.665-2.181v22.01a1.416,1.416,0,0,1-1.416,1.416H52.4a1.416,1.416,0,0,0,0,2.833H80.73a4.249,4.249,0,0,0,4.249-4.249V31.159A4.249,4.249,0,0,0,80.73,26.91ZM49.571,24.077a1.416,1.416,0,0,1,1.416-1.416H62.318a1.416,1.416,0,0,1,1.416,1.416V26.91H49.571ZM8.5,18.412A15.579,15.579,0,1,1,24.077,33.992,15.579,15.579,0,0,1,8.5,18.412ZM31.159,82.146H25.341l-.97-8.5h6.788a4.249,4.249,0,0,1,0,8.5ZM12.747,40.128A21.225,21.225,0,0,1,17.438,37.9l5.053,44.246H12.747Zm11.331-3.3a21.208,21.208,0,0,1,4.886.589L22.4,56.392l-2.191-19.2a21.245,21.245,0,0,1,3.869-.37Zm4.5,33.992H24.041l-.9-7.916,8.53-24.644a21.069,21.069,0,0,1,2.9,1.371ZM2.833,76.481V58.069a21.171,21.171,0,0,1,7.082-15.79V70.816H8.5a1.416,1.416,0,1,0,0,2.833H9.914v8.5H8.5A5.665,5.665,0,0,1,2.833,76.481Zm42.489,0a5.665,5.665,0,0,1-5.665,5.665H36.787a7.026,7.026,0,0,0-5.335-11.3l5.678-29.5a21.2,21.2,0,0,1,8.192,16.727ZM59.485,50.987A1.416,1.416,0,0,1,58.069,52.4H55.236a1.416,1.416,0,0,1-1.416-1.416V46.738h5.665Zm17-7.082H43.5a24.176,24.176,0,0,0-2.845-3.249,1.416,1.416,0,0,0-1-2.416H37.705a23.957,23.957,0,0,0-6.118-3.034,18.489,18.489,0,0,0,6.973-5.464H80.73a1.416,1.416,0,0,1,1.416,1.416V38.24A5.665,5.665,0,0,1,76.481,43.906Z"/>
        <path id="Trazado_114536" data-name="Trazado 114536" d="M53.82,38.24H52.4a1.416,1.416,0,0,0,0,2.833H53.82a1.416,1.416,0,0,0,0-2.833Z"/>
        <path id="Trazado_114537" data-name="Trazado 114537" d="M46.738,38.24H45.322a1.416,1.416,0,0,0,0,2.833h1.416a1.416,1.416,0,0,0,0-2.833Z"/>
        <path id="Trazado_114538" data-name="Trazado 114538" d="M60.9,38.24H59.485a1.416,1.416,0,1,0,0,2.833H60.9a1.416,1.416,0,0,0,0-2.833Z"/>
        <path id="Trazado_114539" data-name="Trazado 114539" d="M67.983,38.24H66.567a1.416,1.416,0,0,0,0,2.833h1.416a1.416,1.416,0,0,0,0-2.833Z"/>
        <path id="Trazado_114540" data-name="Trazado 114540" d="M75.065,38.24H73.648a1.416,1.416,0,0,0,0,2.833h1.416a1.416,1.416,0,0,0,0-2.833Z"/>
        <path id="Trazado_114541" data-name="Trazado 114541" d="M77.9,32.575a1.416,1.416,0,0,0-1.416,1.416v1.416a1.416,1.416,0,0,0,2.833,0V33.992A1.416,1.416,0,0,0,77.9,32.575Z"/>
        <path id="Trazado_114542" data-name="Trazado 114542" d="M52.4,65.15H53.82a1.416,1.416,0,0,0,0-2.833H52.4a1.416,1.416,0,0,0,0,2.833Z"/>
        <path id="Trazado_114543" data-name="Trazado 114543" d="M60.9,65.15a1.416,1.416,0,0,0,0-2.833H59.485a1.416,1.416,0,1,0,0,2.833Z"/>
        <path id="Trazado_114544" data-name="Trazado 114544" d="M67.983,65.15a1.416,1.416,0,0,0,0-2.833H66.567a1.416,1.416,0,0,0,0,2.833Z"/>
        <path id="Trazado_114545" data-name="Trazado 114545" d="M75.065,65.15a1.416,1.416,0,0,0,0-2.833H73.648a1.416,1.416,0,0,0,0,2.833Z"/>
        <path id="Trazado_114546" data-name="Trazado 114546" d="M76.481,59.485a1.416,1.416,0,0,0,2.833,0V58.069a1.416,1.416,0,1,0-2.833,0Z"/>
        <path id="Trazado_114547" data-name="Trazado 114547" d="M77.9,53.82A1.416,1.416,0,0,0,79.314,52.4V50.987a1.416,1.416,0,1,0-2.833,0V52.4A1.416,1.416,0,0,0,77.9,53.82Z"/>
      </g>
    </g>
  </g>
</svg>
