<svg xmlns="http://www.w3.org/2000/svg" width="280.839" height="266.212" viewBox="0 0 280.839 266.212">
  <g id="Grupo_84218" data-name="Grupo 84218" transform="translate(-1020 -5136.394)">
    <g id="Grupo_81894" data-name="Grupo 81894" transform="translate(788.608 5109.234)">
      <g id="Grupo_81888" data-name="Grupo 81888" transform="translate(253.104 160.32)">
        <g id="Grupo_81847" data-name="Grupo 81847" transform="translate(229.313 17.71)">
          <path id="Trazado_114548" data-name="Trazado 114548" d="M389.777,149.19s5.166-8.619,6.964-12.678c4.122-9.313,5.609-21.381,2.337-24.093-1.328-1.1-3.4,4.318-3.4,4.318s.719-10.252-1.384-10.369-3.939,5.337-3.939,5.337.422-7.081-2.329-6.945-7.3,19.668-8.726,19.849-1.653-6.647-4.349-5.411-6.579,18.637-1.211,22.343S389.777,149.19,389.777,149.19Z" transform="translate(-371.049 -104.759)" fill="#f98875"/>
        </g>
        <g id="Grupo_81848" data-name="Grupo 81848" transform="translate(238.836 35.962)">
          <path id="Trazado_114549" data-name="Trazado 114549" d="M388.673,122.4a.39.39,0,0,1-.2-.056l-12.328-7.466a.4.4,0,1,1,.41-.679l12.328,7.464a.4.4,0,0,1-.206.737Z" transform="translate(-375.948 -114.147)"/>
        </g>
        <g id="Grupo_81849" data-name="Grupo 81849" transform="translate(237.164 37.164)">
          <path id="Trazado_114550" data-name="Trazado 114550" d="M377.155,132.118a.381.381,0,0,1-.144-.029.4.4,0,0,1-.226-.513A17.339,17.339,0,0,0,375.17,115.4a.4.4,0,1,1,.628-.484,18.137,18.137,0,0,1,1.728,16.946A.4.4,0,0,1,377.155,132.118Z" transform="translate(-375.087 -114.765)"/>
        </g>
        <g id="Grupo_81850" data-name="Grupo 81850" transform="translate(181.537 50.222)">
          <path id="Trazado_114551" data-name="Trazado 114551" d="M348.465,150.924s18.861-.729,26.65-7.157,17.107-22.287,17.107-22.287l24.53,10.7s-8.446,51.351-50.136,55.951C337.612,191.339,348.465,150.924,348.465,150.924Z" transform="translate(-346.476 -121.481)" fill="#ffc721"/>
        </g>
        <g id="Grupo_81851" data-name="Grupo 81851" transform="translate(0 4.816)">
          <path id="Trazado_114552" data-name="Trazado 114552" d="M284.488,134.194s-5.562-13.843-6.579-14.422-22.287-10.851-24.136-14.906a6.117,6.117,0,0,1,.727-6.739s51.965,4.936,53.614,6.07.542,23.494.542,23.494Z" transform="translate(-253.104 -98.127)" fill="#9aeccd"/>
        </g>
        <g id="Grupo_81852" data-name="Grupo 81852" transform="translate(0.487 0.201)">
          <path id="Trazado_114553" data-name="Trazado 114553" d="M254.223,102.153l53.4,7.2a1,1,0,0,0,1.132-.9l.467-5.1a1,1,0,0,0-.877-1.085l-53.505-6.515a1,1,0,0,0-1.118.912l-.362,4.408A1,1,0,0,0,254.223,102.153Z" transform="translate(-253.354 -95.753)" fill="#ffdd7a"/>
        </g>
        <g id="Grupo_81853" data-name="Grupo 81853" transform="translate(83.03 4.103)">
          <path id="Trazado_114554" data-name="Trazado 114554" d="M311.582,143.02s.686-14.9,0-15.853-15.772-19.121-15.772-23.578a6.117,6.117,0,0,1,3.459-5.829s45.229,26.058,46.259,27.773-9.258,21.6-9.258,21.6Z" transform="translate(-295.81 -97.76)" fill="#9aeccd"/>
        </g>
        <g id="Grupo_81854" data-name="Grupo 81854" transform="translate(17.891 28.612)">
          <path id="Trazado_114555" data-name="Trazado 114555" d="M397.3,168.073s-7-7.551-36.489-8.179-37.6,1.758-37.6,1.758l-16.637-47.774-44.272-3.511s3.251,42.9,8.2,68.711c3.97,20.694,17.613,29.035,23.22,29.875,52.786,7.913,106.005.56,106.005.56Z" transform="translate(-262.306 -110.366)" fill="#f9931f"/>
        </g>
        <g id="Grupo_81855" data-name="Grupo 81855" transform="translate(77.326 38.194)">
          <path id="Trazado_114556" data-name="Trazado 114556" d="M292.876,160.432l16.8-45.137,37.061,3-11.107,38.343Z" transform="translate(-292.876 -115.295)" fill="#f9931f"/>
        </g>
        <g id="Grupo_81856" data-name="Grupo 81856" transform="translate(126.49 78.987)">
          <path id="Trazado_114557" data-name="Trazado 114557" d="M326.105,142.96l-7.942,45.413s21.6,3.041,39.579,1.563c12.309-1.013,21.369-3.675,27.027-7.252,8.181-5.174,26.76-32.047,7.225-40.879S344.54,135.749,326.105,142.96Z" transform="translate(-318.163 -136.276)" fill="#ffc721"/>
        </g>
        <g id="Grupo_81860" data-name="Grupo 81860" transform="translate(169.986 71.513)">
          <g id="Grupo_81859" data-name="Grupo 81859">
            <g id="Grupo_81858" data-name="Grupo 81858">
              <g id="Grupo_81857" data-name="Grupo 81857">
                <path id="Trazado_114558" data-name="Trazado 114558" d="M342.952,132.432l-2.417,9.272s2.732,4.155,9.381,4.853c6.768.712,5.5-2.72,5.5-2.72l.531-4.779-11.131-5.671Z" transform="translate(-340.535 -132.432)" fill="#f98875"/>
              </g>
            </g>
          </g>
        </g>
        <g id="Grupo_81864" data-name="Grupo 81864" transform="translate(174.217 72.508)">
          <g id="Grupo_81863" data-name="Grupo 81863">
            <g id="Grupo_81862" data-name="Grupo 81862">
              <g id="Grupo_81861" data-name="Grupo 81861">
                <path id="Trazado_114559" data-name="Trazado 114559" d="M342.748,132.944a3.831,3.831,0,0,0,.019,1.167c.922,6.268,7.19,9.243,10.6,9.243l.42-4.5Z" transform="translate(-342.711 -132.944)"/>
              </g>
            </g>
          </g>
        </g>
        <g id="Grupo_81868" data-name="Grupo 81868" transform="translate(166.073 47.536)">
          <g id="Grupo_81867" data-name="Grupo 81867">
            <g id="Grupo_81866" data-name="Grupo 81866">
              <g id="Grupo_81865" data-name="Grupo 81865">
                <path id="Trazado_114560" data-name="Trazado 114560" d="M367.4,126.3s1.9,15.618-2.6,22.726-11.2,3.772-14.982,1.005a14.629,14.629,0,0,1-4.968-5.947,6.228,6.228,0,0,1-5.895-4.31c-1.544-4.464,1.347-8.2,3.892-8.488s4.742,2.141,4.742,2.141l-.9-4.643S361.64,111.029,367.4,126.3Z" transform="translate(-338.522 -120.1)" fill="#f98875"/>
              </g>
            </g>
          </g>
        </g>
        <g id="Grupo_81869" data-name="Grupo 81869" transform="translate(188.794 64.2)">
          <path id="Trazado_114561" data-name="Trazado 114561" d="M350.606,135.519a.392.392,0,0,1-.224-.068.4.4,0,0,1-.1-.552c1.581-2.323.513-5.673.5-5.706a.4.4,0,1,1,.752-.249c.051.154,1.2,3.758-.6,6.4A.4.4,0,0,1,350.606,135.519Z" transform="translate(-350.209 -128.671)"/>
        </g>
        <g id="Grupo_81870" data-name="Grupo 81870" transform="translate(169.781 61.194)">
          <path id="Trazado_114562" data-name="Trazado 114562" d="M343.354,133.032a.393.393,0,0,1-.356-.222l-2.527-5.115a.4.4,0,0,1,.179-.531.4.4,0,0,1,.533.179l2.527,5.117a.4.4,0,0,1-.356.572Z" transform="translate(-340.43 -127.125)"/>
        </g>
        <g id="Grupo_81871" data-name="Grupo 81871" transform="translate(168.671 64.029)">
          <path id="Trazado_114563" data-name="Trazado 114563" d="M342.966,129.779c-.058,0-2.769-.406-2.769-.406a.4.4,0,0,1-.334-.451.4.4,0,0,1,.451-.334l2.71.4a.4.4,0,0,1-.058.789Z" transform="translate(-339.859 -128.583)"/>
        </g>
        <g id="Grupo_81872" data-name="Grupo 81872" transform="translate(166.068 37.922)">
          <path id="Trazado_114564" data-name="Trazado 114564" d="M347.592,138.091a1.8,1.8,0,0,0,2.666.07c1.53-1.3.733-6.776.733-6.776s3.97,2.279,7.042,1.676,5.557-4.089,5.557-4.089.7,4.641,7.071,4.647,9.914-7.583,4.192-11.107-9.964-1.816-9.964-1.816.976-6-7.584-5.514c-7.8.441-11.675,8.854-11.675,8.854a5.8,5.8,0,0,0-6.48,3.233c-2.213,4.328,2.127,9.282,2.127,9.282A7.656,7.656,0,0,1,347.592,138.091Z" transform="translate(-338.52 -115.155)"/>
        </g>
        <g id="Grupo_81873" data-name="Grupo 81873" transform="translate(184.124 60.531)">
          <path id="Trazado_114565" data-name="Trazado 114565" d="M348.205,130.245a.411.411,0,0,1-.393-.465l.461-2.669a.4.4,0,0,1,.784.134l-.461,2.669A.4.4,0,0,1,348.205,130.245Z" transform="translate(-347.807 -126.784)"/>
        </g>
        <g id="Grupo_81874" data-name="Grupo 81874" transform="translate(191.937 62.244)">
          <path id="Trazado_114566" data-name="Trazado 114566" d="M352.223,131.138a.408.408,0,0,1-.393-.457l.408-2.677a.392.392,0,0,1,.453-.332.4.4,0,0,1,.332.453l-.41,2.677A.4.4,0,0,1,352.223,131.138Z" transform="translate(-351.826 -127.664)"/>
        </g>
        <g id="Grupo_81875" data-name="Grupo 81875" transform="translate(183.415 56.71)">
          <path id="Trazado_114567" data-name="Trazado 114567" d="M347.84,127.042a.39.39,0,0,1-.148-.027.4.4,0,0,1-.222-.517c.778-1.938,3.179-1.672,3.278-1.66a.4.4,0,0,1,.346.441.4.4,0,0,1-.439.346c-.078-.008-1.9-.2-2.448,1.168A.392.392,0,0,1,347.84,127.042Z" transform="translate(-347.442 -124.818)"/>
        </g>
        <g id="Grupo_81876" data-name="Grupo 81876" transform="translate(191.623 56.654)">
          <path id="Trazado_114568" data-name="Trazado 114568" d="M354.211,127.125a.4.4,0,0,1-.4-.385c-.006-.117-.1-1.122-1.76-1.155a.4.4,0,0,1-.389-.406.392.392,0,0,1,.4-.387c2.465.051,2.539,1.907,2.539,1.927a.4.4,0,0,1-.389.406Z" transform="translate(-351.664 -124.79)"/>
        </g>
        <g id="Grupo_81877" data-name="Grupo 81877" transform="translate(85.244)">
          <path id="Trazado_114569" data-name="Trazado 114569" d="M297.42,101.356,343.111,129.9a1,1,0,0,0,1.4-.352l2.44-4.268a1,1,0,0,0-.346-1.349L300.628,95.8a1,1,0,0,0-1.4.366l-2.156,3.857A1,1,0,0,0,297.42,101.356Z" transform="translate(-296.949 -95.65)" fill="#ffdd7a"/>
        </g>
        <g id="Grupo_81878" data-name="Grupo 81878" transform="translate(72.602 76.913)">
          <path id="Trazado_114570" data-name="Trazado 114570" d="M292.328,150.42a1.683,1.683,0,0,1-.912-.29,2.022,2.022,0,0,1-.947-1.515c-.412-3.154,5-9.066,5.257-9.348a.518.518,0,0,1,.2-.121c.575-.146,23.2-5.807,41.8-3.3a.394.394,0,0,1,.34.445.388.388,0,0,1-.447.34c-17.5-2.356-38.626,2.58-41.243,3.218-.187,1.765-1.118,9.3-3.41,10.413A1.464,1.464,0,0,1,292.328,150.42Zm3.152-9.669c-1.756,2.084-4.48,5.8-4.223,7.763a1.249,1.249,0,0,0,.585.947.743.743,0,0,0,.785.091C294.128,148.822,295.086,143.748,295.479,140.752Z" transform="translate(-290.446 -135.209)" fill="#af4d04"/>
        </g>
        <g id="Grupo_81879" data-name="Grupo 81879" transform="translate(100.646 13.814)">
          <path id="Trazado_114571" data-name="Trazado 114571" d="M315.959,147.186s-5.168-8.619-6.966-12.68c-4.122-9.311-5.609-21.379-2.337-24.091,1.328-1.1,3.4,4.318,3.4,4.318s-.717-10.252,1.384-10.369,3.939,5.337,3.939,5.337-.422-7.081,2.329-6.945,7.3,19.668,8.726,19.849,1.652-6.649,4.349-5.413,6.579,18.639,1.211,22.345S315.959,147.186,315.959,147.186Z" transform="translate(-304.871 -102.755)" fill="#f98875"/>
        </g>
        <g id="Grupo_81880" data-name="Grupo 81880" transform="translate(107.814 32.067)">
          <path id="Trazado_114572" data-name="Trazado 114572" d="M308.955,120.4a.4.4,0,0,1-.206-.737l12.328-7.464a.4.4,0,0,1,.546.134.4.4,0,0,1-.134.544l-12.328,7.464A.4.4,0,0,1,308.955,120.4Z" transform="translate(-308.558 -112.143)"/>
        </g>
        <g id="Grupo_81881" data-name="Grupo 81881" transform="translate(118.836 33.266)">
          <path id="Trazado_114573" data-name="Trazado 114573" d="M315.933,130.112a.392.392,0,0,1-.369-.251,18.133,18.133,0,0,1,1.726-16.946.394.394,0,0,1,.556-.072.4.4,0,0,1,.072.558,17.326,17.326,0,0,0-1.616,16.17.4.4,0,0,1-.224.513A.387.387,0,0,1,315.933,130.112Z" transform="translate(-314.226 -112.76)"/>
        </g>
        <g id="Grupo_81882" data-name="Grupo 81882" transform="translate(106.767 47.535)">
          <path id="Trazado_114574" data-name="Trazado 114574" d="M308.019,130.81s-.439,52.9,37.872,58.813c25.7,3.968,25.784-37.949,25.784-37.949s-15.321-3.447-24.371-12.4a64.791,64.791,0,0,1-13.232-19.17Z" transform="translate(-308.019 -120.099)" fill="#ffc721"/>
        </g>
        <g id="Grupo_81883" data-name="Grupo 81883" transform="translate(168.542 79.271)">
          <path id="Trazado_114575" data-name="Trazado 114575" d="M351.694,143.219c-.346,0-.712-.01-1.1-.033a13.944,13.944,0,0,1-10.744-6.163.4.4,0,0,1,.132-.544.4.4,0,0,1,.546.134,13.407,13.407,0,0,0,10.112,5.782c5.413.315,6.01-1.833,6.015-1.855a.4.4,0,0,1,.473-.3.4.4,0,0,1,.3.465C357.408,140.814,356.856,143.219,351.694,143.219Z" transform="translate(-339.793 -136.422)" fill="#f9bf30"/>
        </g>
        <g id="Grupo_81884" data-name="Grupo 81884" transform="translate(3.472 19.955)">
          <path id="Trazado_114576" data-name="Trazado 114576" d="M263.246,116.075a1.125,1.125,0,0,1-.523-.134c-1.555-.809-.848-3.815-.115-5.918-1.868,1.849-5.078,4.515-7.11,3.414a1.022,1.022,0,0,1-.609-.945c.056-2.073,7.759-5.811,9.3-6.54a.4.4,0,1,1,.34.717c-3.655,1.726-8.815,4.68-8.848,5.844,0,.035,0,.119.193.224,1.936,1.048,6.12-3.082,7.567-4.761a.4.4,0,0,1,.665.42c-1.114,2.483-2.164,6.247-1.019,6.842a.3.3,0,0,0,.307,0c1.034-.527,2-4.616,2.372-7.067a.4.4,0,0,1,.451-.334.4.4,0,0,1,.334.453c-.169,1.126-1.1,6.789-2.8,7.656A1.1,1.1,0,0,1,263.246,116.075Z" transform="translate(-254.89 -105.914)" fill="#f9bf30"/>
        </g>
        <g id="Grupo_81885" data-name="Grupo 81885" transform="translate(82.183 25.423)">
          <path id="Trazado_114577" data-name="Trazado 114577" d="M302.645,118.156a1.087,1.087,0,0,1-.782-.332c-1.242-1.238.336-3.894,1.664-5.683-2.337,1.205-6.194,2.788-7.8,1.128a1.019,1.019,0,0,1-.3-1.083c.673-1.96,9.142-3.222,10.833-3.453a.4.4,0,0,1,.109.785c-4,.552-9.812,1.824-10.194,2.926-.01.033-.037.111.119.272,1.534,1.583,6.762-1.108,8.644-2.279a.4.4,0,0,1,.507.6c-1.8,2.034-3.935,5.31-3.021,6.222a.312.312,0,0,0,.292.1c1.147-.194,3.3-3.8,4.382-6.031a.392.392,0,0,1,.531-.185.4.4,0,0,1,.183.531c-.5,1.025-3.082,6.15-4.964,6.467A1.2,1.2,0,0,1,302.645,118.156Z" transform="translate(-295.374 -108.726)" fill="#f9bf30"/>
        </g>
        <g id="Grupo_81886" data-name="Grupo 81886" transform="translate(183.129 71.116)">
          <path id="Trazado_114578" data-name="Trazado 114578" d="M349.692,136.083a2.611,2.611,0,0,1-2.283-1.629,1.557,1.557,0,0,1,.632-1.919,1.634,1.634,0,0,1,1.338-.261c1.194.286,2.059,1.831,2.094,1.9a.381.381,0,0,1,.049.159,1.651,1.651,0,0,1-1.623,1.74A1.836,1.836,0,0,1,349.692,136.083Zm-.7-3.06a.9.9,0,0,0-.507.169.766.766,0,0,0-.332.984,1.81,1.81,0,0,0,1.649,1.108c.8-.1.916-.595.927-.813a3.229,3.229,0,0,0-1.538-1.425A.863.863,0,0,0,348.994,133.023Z" transform="translate(-347.295 -132.228)"/>
        </g>
        <g id="Grupo_81887" data-name="Grupo 81887" transform="translate(200.908 91.329)">
          <path id="Trazado_114579" data-name="Trazado 114579" d="M357.634,167.426a.407.407,0,0,1-.15-.027.4.4,0,0,1-.22-.517c4.446-11.053-.741-23.58-.793-23.7a.4.4,0,0,1,.733-.311c.052.128,5.364,12.958.8,24.311A.394.394,0,0,1,357.634,167.426Z" transform="translate(-356.44 -142.624)" fill="#f9bf30"/>
        </g>
      </g>
      <g id="Grupo_81889" data-name="Grupo 81889" transform="translate(274.286 68.317)">
        <path id="Trazado_114580" data-name="Trazado 114580" d="M265.69,108.273a1.511,1.511,0,0,1-1.511-1.507L264,49.846a1.513,1.513,0,0,1,1.507-1.517,1.532,1.532,0,0,1,1.517,1.507l.181,56.921a1.513,1.513,0,0,1-1.507,1.517Z" transform="translate(-263.999 -48.329)" fill="#344db2"/>
      </g>
      <g id="Grupo_81890" data-name="Grupo 81890" transform="translate(416.295 93.254)">
        <path id="Trazado_114581" data-name="Trazado 114581" d="M338.733,121.1a1.511,1.511,0,0,1-1.511-1.507l-.183-56.919a1.512,1.512,0,1,1,3.023-.01l.183,56.921a1.511,1.511,0,0,1-1.507,1.515Z" transform="translate(-337.04 -61.155)" fill="#465fc4"/>
      </g>
      <g id="Grupo_81891" data-name="Grupo 81891" transform="translate(400.663 122.279)">
        <path id="Trazado_114582" data-name="Trazado 114582" d="M330.691,136.028a1.513,1.513,0,0,1-1.511-1.507L329,77.6a1.512,1.512,0,1,1,3.023-.01l.181,56.921a1.514,1.514,0,0,1-1.507,1.516Z" transform="translate(-329 -76.084)" fill="#465fc4"/>
      </g>
      <g id="Grupo_81892" data-name="Grupo 81892" transform="translate(288.8 27.16)">
        <path id="Trazado_114583" data-name="Trazado 114583" d="M273.157,87.1a1.514,1.514,0,0,1-1.513-1.507l-.181-56.921a1.511,1.511,0,1,1,3.021-.01l.183,56.921a1.513,1.513,0,0,1-1.507,1.516Z" transform="translate(-271.464 -27.16)" fill="#344db2"/>
      </g>
      <g id="Grupo_81893" data-name="Grupo 81893" transform="translate(481.778 112.776)">
        <path id="Trazado_114584" data-name="Trazado 114584" d="M372.414,131.138a1.511,1.511,0,0,1-1.513-1.507l-.181-56.919a1.511,1.511,0,1,1,3.021-.01l.183,56.921a1.51,1.51,0,0,1-1.5,1.515Z" transform="translate(-370.721 -71.196)" fill="#465fc4"/>
      </g>
    </g>
    <g id="Elipse_4749" data-name="Elipse 4749" transform="translate(1020 5242.333)" fill="none" stroke="#fff" stroke-width="10">
      <circle cx="36.5" cy="36.5" r="36.5" stroke="none"/>
      <circle cx="36.5" cy="36.5" r="31.5" fill="none"/>
    </g>
  </g>
</svg>
