<svg xmlns="http://www.w3.org/2000/svg" xmlns:xlink="http://www.w3.org/1999/xlink" width="210" height="179.307" viewBox="0 0 210 179.307">
  <defs>
    <clipPath id="clip-path">
      <rect id="Imagen_14" data-name="Imagen 14" width="210" height="157.307" rx="19" transform="translate(915 3288.309)" fill="#ffdd7a"/>
    </clipPath>
  </defs>
  <g id="Grupo_81661" data-name="Grupo 81661" transform="translate(-915 -3266.309)">
    <rect id="Imagen_6" data-name="Imagen 6" width="210" height="112.307" rx="19" transform="translate(915 3333.309)" fill="#ffdd7a"/>
    <g id="City" transform="translate(915 3266.309)">
      <path id="City-2" data-name="City" d="M227.462,157.178V44.725l-4.641-2.68L213.538,47.4V67.082L207.35,63.51V56.364l-4.641-2.68V42.966l-9.283-5.359-7.735,4.466v25.01L179.5,63.51V49.218l-4.641-2.68V32.247l-10.83-6.253-9.282,5.359V59.937L147.013,64.4V46.538l-7.736-4.466-6.188,3.573v8.932L126.9,58.15V36.713l-6.188-3.573-6.189,3.573V29.577L108.335,26,94.576,33.947V64.861L89.85,67.589V44.725l-4.641-2.68L75.926,47.4V67.083L69.738,63.51V56.364L65.1,53.684V42.965l-9.283-5.359-7.735,4.466v25.01L41.89,63.51v-5.4l-4.641-2.68V41.138l-10.83-6.253-8.956,5.171V157.178Z" transform="translate(-17.463 -25.994)" fill="#ffdd7a"/>
    </g>
    <g id="Enmascarar_grupo_63" data-name="Enmascarar grupo 63" clip-path="url(#clip-path)">
      <g id="Character" transform="translate(927.995 3230.906)">
        <g id="Bottom" transform="translate(47.09 172.537)">
          <g id="Grupo_81670" data-name="Grupo 81670" transform="translate(47.253 116.783)">
            <path id="Trazado_114237" data-name="Trazado 114237" d="M102.473,328.8l-1.706-15.19,17.3-1.557s-.732,11.708-.628,17.078c.049,2.531,1.838,7.292,1.838,7.292s-7.241,3.758-11,2.221-6.244-7.461-6.154-8.547S102.473,328.8,102.473,328.8Z" transform="translate(-99.903 -312.048)" fill="#c8856a"/>
            <path id="Trazado_114238" data-name="Trazado 114238" d="M139.242,355.658c.239,0,.418,2.206-.9,3.285A17.074,17.074,0,0,1,126.2,361.73c-5.793-.84-8.9-2.663-11.192-4.619s-5.494-4.711-8.109-5.327a18.845,18.845,0,0,1-6.468-3.332c-.768-.756-.6-4.056-.6-4.056Z" transform="translate(-99.816 -315.008)" fill="#263238"/>
            <path id="Trazado_114239" data-name="Trazado 114239" d="M102.386,330.453a.93.93,0,0,0-.893.758c-.2.907-.439,3.549-.85,5.036a26.323,26.323,0,0,0-.72,8.012c.289,1.7,4.886,3.81,7.41,4.808a32.366,32.366,0,0,1,8.139,5.264c2.686,2.262,8.384,4.666,12.168,4.7,4.479.045,9.546-1.3,10.74-3.32,1.476-2.506,2.572-5.426-4.01-8.571-1.246-.6-5.613-3.244-7.1-4.2-4.024-2.594-6.845-4.959-8.634-9.456a2.491,2.491,0,0,0-.929-1.382,2.149,2.149,0,0,0-1.288-.137,44.313,44.313,0,0,0-6.549,1.112c-.9.4-2.171.869-2.173,1.992a3.7,3.7,0,0,0,.229,1.147c.075.231.132.537-.075.669s-.448-.025-.618-.181a16.976,16.976,0,0,1-1.751-2.147,19.168,19.168,0,0,0-1.673-1.941,11.479,11.479,0,0,1-1.124-.745C102.288,331.47,102.395,330.981,102.386,330.453Z" transform="translate(-99.818 -313.732)" fill="#455a64"/>
            <path id="Trazado_114240" data-name="Trazado 114240" d="M116.686,355.941c-1.141-.961-2.353-1.891-3.572-2.725v-.005s7.721,4.808,10.915,2.741c2.059-1.332,1.123-3.009,1.084-3.54s7.206-4.155,9.185-4.352h0c.544.309.994.574,1.287.7,5.147,2.13,5.787,4.774,4.863,8.069-1.193,2.024-5.728,4.057-11.516,3.957C125.148,360.717,119.373,358.2,116.686,355.941Z" transform="translate(-101.033 -315.343)" fill="#37474f"/>
            <path id="Trazado_114241" data-name="Trazado 114241" d="M123.515,349.243c4.1,1.7,2.323,2.426,1.164,2.568s-8.034-3.973-12.211-7.349c-4.356-3.52-7.715-8.2-9.333-9.5-.6-.481-1.252-1.073-1.828-1.624.125-.893.228-1.706.32-2.132a.932.932,0,0,1,.894-.758c.009.528-.1,1.017.3,1.419a11.357,11.357,0,0,0,1.123.745,19.168,19.168,0,0,1,1.673,1.941,17.042,17.042,0,0,0,1.751,2.147C110.889,341.273,119.417,347.546,123.515,349.243Z" transform="translate(-99.953 -313.732)" fill="#37474f"/>
            <g id="Grupo_81669" data-name="Grupo 81669" transform="translate(10.399 23.304)">
              <g id="Grupo_81664" data-name="Grupo 81664" transform="translate(13.643 9.237)">
                <path id="Trazado_114242" data-name="Trazado 114242" d="M126.682,352.8a.413.413,0,0,1-.257-.1.4.4,0,0,1-.047-.568c1.192-1.385,6.776-4.623,9.807-4.242a.4.4,0,1,1-.1.8c-2.831-.349-8.138,2.867-9.082,3.965A.408.408,0,0,1,126.682,352.8Z" transform="translate(-126.28 -347.867)" fill="#263238"/>
              </g>
              <g id="Grupo_81665" data-name="Grupo 81665" transform="translate(10.083 6.994)">
                <path id="Trazado_114243" data-name="Trazado 114243" d="M122.763,350.332a.408.408,0,0,1-.257-.1.4.4,0,0,1-.047-.567c1.191-1.384,6.774-4.62,9.807-4.242a.4.4,0,1,1-.1.8c-2.833-.345-8.138,2.866-9.082,3.964A.407.407,0,0,1,122.763,350.332Z" transform="translate(-122.362 -345.397)" fill="#263238"/>
              </g>
              <g id="Grupo_81666" data-name="Grupo 81666" transform="translate(6.519 4.864)">
                <path id="Trazado_114244" data-name="Trazado 114244" d="M118.84,347.989a.413.413,0,0,1-.257-.1.4.4,0,0,1-.046-.567c1.192-1.385,6.776-4.626,9.807-4.242a.4.4,0,1,1-.1.8c-2.832-.35-8.138,2.865-9.082,3.963A.408.408,0,0,1,118.84,347.989Z" transform="translate(-118.439 -343.053)" fill="#263238"/>
              </g>
              <g id="Grupo_81667" data-name="Grupo 81667" transform="translate(3.226 2.446)">
                <path id="Trazado_114245" data-name="Trazado 114245" d="M115.215,345.327a.413.413,0,0,1-.257-.1.4.4,0,0,1-.047-.567c1.191-1.385,6.787-4.622,9.807-4.242a.4.4,0,1,1-.1.8c-2.828-.347-8.137,2.865-9.081,3.963A.408.408,0,0,1,115.215,345.327Z" transform="translate(-114.813 -340.392)" fill="#263238"/>
              </g>
              <g id="Grupo_81668" data-name="Grupo 81668">
                <path id="Trazado_114246" data-name="Trazado 114246" d="M111.664,342.663a.415.415,0,0,1-.253-.092.4.4,0,0,1-.055-.566c1.639-1.964,7.473-4.65,10.5-4.27a.4.4,0,0,1,.354.449.409.409,0,0,1-.457.349c-2.728-.34-8.316,2.242-9.771,3.983A.407.407,0,0,1,111.664,342.663Z" transform="translate(-111.263 -337.699)" fill="#263238"/>
              </g>
            </g>
          </g>
          <g id="Grupo_81677" data-name="Grupo 81677" transform="translate(0 119.613)">
            <path id="Trazado_114247" data-name="Trazado 114247" d="M69.588,336.211,73.7,317.97l-17.994-2.807-.289,18.007s-1.375,4.842-.361,6.507,11.825,3.417,12.816,2.308S69.588,336.211,69.588,336.211Z" transform="translate(-48.433 -315.163)" fill="#c8856a"/>
            <path id="Trazado_114248" data-name="Trazado 114248" d="M67.162,369.315c-.473,4.091-1.331,6.737-3.1,8.953s-4.925,2.595-8.046,1.5-7.072-3.483-7.8-7.152-.428-6.085.477-9.822Z" transform="translate(-47.803 -319.522)" fill="#263238"/>
            <path id="Trazado_114249" data-name="Trazado 114249" d="M54.835,334.984c-1.3-.069-.951,3.152-1.566,8.669-.666,5.968-3.357,10.646-4.314,15.431-1.094,5.467-.886,7.995,1.152,11.631s9.671,7.892,13.75,3.541c3.325-3.547,3.668-7.889,3.656-13.484a125.188,125.188,0,0,1,.4-14.186c.458-4.137,2.194-7.96,1.087-8.562-.117.6-1.226,4.792-1.956,4.725a7.718,7.718,0,0,1,.063-1.573,1.782,1.782,0,0,0-.29-1.388,6.039,6.039,0,0,0-2.1-1.067c-1.269-.382-3.536-.856-4.831-1.118-.645-.131-1.294-.238-1.944-.312a5.726,5.726,0,0,0-1.658.006,1.017,1.017,0,0,0-.732.48,1.591,1.591,0,0,0-.1.627,3.946,3.946,0,0,1-.219,1.123c-.055.159-.194.343-.378.282a.354.354,0,0,1-.2-.363C54.693,338.775,54.79,335.336,54.835,334.984Z" transform="translate(-47.849 -316.977)" fill="#455a64"/>
            <path id="Trazado_114250" data-name="Trazado 114250" d="M49.327,359.808c-.166.788-1.195,6.011.393,7.169,1.718,1.255,2.894-2.807,2.894-2.807s4.205-.617,10.131,2.464c-.352.825.44,3.784,2.127,3.386s2.625-6.415,2.636-6.493c-.01,5.361-.426,9.558-3.654,13-4.079,4.351-11.714.094-13.75-3.541s-2.246-6.164-1.151-11.631C49.064,360.808,49.19,360.3,49.327,359.808Z" transform="translate(-47.849 -319.249)" fill="#37474f"/>
            <path id="Trazado_114251" data-name="Trazado 114251" d="M53.321,362.313c-.125,2.01-2.335,1.056-2.293-1.8s1.539-9.784,2.106-14.45c.378-6.713.646-11.149,1.951-11.08-.008.068-.009.136-.016.2,0,0-.135,3.826-.154,4.259-.233,4.1-.287,12.069-.87,15.774A57.621,57.621,0,0,0,53.321,362.313Z" transform="translate(-48.098 -316.977)" fill="#37474f"/>
            <path id="Trazado_114252" data-name="Trazado 114252" d="M63.425,364.526a56.486,56.486,0,0,0,1.585-6.909c.632-3.666,2.826-11,3.913-14.951.352-.648,1.457-4.335,1.457-4.335.9.255,0,3.771-.422,5.417s-.939,3.409-1.467,5.77c-1.351,4.651-1.479,11.636-2.349,14.313S62.9,366.451,63.425,364.526Z" transform="translate(-49.226 -317.283)" fill="#37474f"/>
            <g id="Grupo_81676" data-name="Grupo 81676" transform="translate(4.284 27.438)">
              <g id="Grupo_81671" data-name="Grupo 81671" transform="translate(0 16.961)">
                <path id="Trazado_114253" data-name="Trazado 114253" d="M63.252,367.2a.625.625,0,0,1-.174-.067,17.846,17.846,0,0,0-9.973-2.148.533.533,0,0,1-.574-.375.392.392,0,0,1,.368-.48,18.676,18.676,0,0,1,10.665,2.3.423.423,0,0,1,.174.6A.467.467,0,0,1,63.252,367.2Z" transform="translate(-52.519 -364.035)" fill="#263238"/>
              </g>
              <g id="Grupo_81672" data-name="Grupo 81672" transform="translate(0.137 12.513)">
                <path id="Trazado_114254" data-name="Trazado 114254" d="M64.566,362.516a.6.6,0,0,1-.158-.059,22.105,22.105,0,0,0-11.167-2.4.534.534,0,0,1-.562-.392.4.4,0,0,1,.387-.468,22.886,22.886,0,0,1,11.8,2.538.431.431,0,0,1,.2.6A.467.467,0,0,1,64.566,362.516Z" transform="translate(-52.67 -359.139)" fill="#263238"/>
              </g>
              <g id="Grupo_81673" data-name="Grupo 81673" transform="translate(0.813 8.278)">
                <path id="Trazado_114255" data-name="Trazado 114255" d="M53.827,355.52a.525.525,0,0,1-.394-.337.391.391,0,0,1,.328-.506c5.917-1.036,11.549,2.3,11.787,2.439a.422.422,0,0,1,.174.6.5.5,0,0,1-.659.1c-.054-.031-5.525-3.262-11.031-2.291A.538.538,0,0,1,53.827,355.52Z" transform="translate(-53.414 -354.478)" fill="#263238"/>
              </g>
              <g id="Grupo_81674" data-name="Grupo 81674" transform="translate(1.34 4.341)">
                <path id="Trazado_114256" data-name="Trazado 114256" d="M54.407,351.251a.526.526,0,0,1-.392-.33.387.387,0,0,1,.317-.511,17.3,17.3,0,0,1,12.027,2.436.417.417,0,0,1,.133.606.507.507,0,0,1-.67.062,16.483,16.483,0,0,0-11.2-2.26A.523.523,0,0,1,54.407,351.251Z" transform="translate(-53.994 -350.144)" fill="#263238"/>
              </g>
              <g id="Grupo_81675" data-name="Grupo 81675" transform="translate(1.951)">
                <path id="Trazado_114257" data-name="Trazado 114257" d="M55.08,346.467a.527.527,0,0,1-.39-.324.386.386,0,0,1,.309-.515c6.107-1.257,11.865,2.407,12.106,2.565a.42.42,0,0,1,.149.605.5.5,0,0,1-.666.076c-.056-.036-5.618-3.574-11.289-2.4A.538.538,0,0,1,55.08,346.467Z" transform="translate(-54.667 -345.365)" fill="#263238"/>
              </g>
            </g>
          </g>
          <g id="Grupo_81678" data-name="Grupo 81678" transform="translate(6.41)">
            <path id="Trazado_114258" data-name="Trazado 114258" d="M62.344,183.5c-2.476,32.369-3.566,80.662-3.566,80.662-.221,2.457-1.621,5.9-2.761,18.023-1.2,12.792-1.158,31.053-1.158,31.053s10.813,4.616,17.533,2.231c0,0,7.222-27.393,10.717-42.457,3.307-14.257,5.742-36.551,5.742-36.551l3.926,21.478s-.493,9.227-.262,15.685c.269,7.511,4.323,36.27,4.323,36.27s10.046,6.017,17.036.282c0,0,3.4-42.209,3.629-51.243.445-17.721.953-52.573-1.141-75.433Z" transform="translate(-54.859 -183.502)" fill="#37474f"/>
            <path id="Trazado_114259" data-name="Trazado 114259" d="M92.274,238.948l3.533-23.025s8.14-1.24,12.323-5.266c0,0-2.708,5.335-10.387,7.394l-3.509,20.957L96.2,260.427Z" transform="translate(-58.283 -185.987)" fill="#263238"/>
          </g>
          <path id="Trazado_114260" data-name="Trazado 114260" d="M54.655,326.451c3.02,2.367,11.814,4.386,17.833,2.21l1.212-5.082c-4.543,1.531-13.9.56-18.941-2.549Z" transform="translate(-48.43 -196.087)" fill="#455a64"/>
          <path id="Trazado_114261" data-name="Trazado 114261" d="M101,322.769c2.038,2.066,11.481,3.777,17.06.508l.412-5.1c-4.229,2.356-13.946,1.953-18.09-.465Z" transform="translate(-52.615 -195.784)" fill="#455a64"/>
          <g id="Grupo_81679" data-name="Grupo 81679" transform="translate(10.156 50.56)">
            <path id="Trazado_114262" data-name="Trazado 114262" d="M59.859,239.155s-.938,22.779-.873,24.437,12.446,4.939,12.768,3.886c.534-1.756.4-5.672,1.47-24.541C62.958,241.611,59.859,239.155,59.859,239.155Z" transform="translate(-58.982 -239.155)" fill="#455a64"/>
            <path id="Trazado_114263" data-name="Trazado 114263" d="M71.423,250.2a4,4,0,0,0-1.168-.1c-.454-.011-.908-.031-1.361-.069a20.872,20.872,0,0,1-2.852-.438,22.581,22.581,0,0,1-3.127-.949c-.829-.318-1.615-.748-2.446-1.058-.078-.029-.091.122-.04.159a11.974,11.974,0,0,0,2.616,1.329,19.466,19.466,0,0,0,2.585.833,21.007,21.007,0,0,0,2.844.505q.718.078,1.44.1a3.135,3.135,0,0,0,1.514-.108C71.492,250.377,71.5,250.227,71.423,250.2Z" transform="translate(-59.112 -239.927)" fill="#37474f"/>
            <path id="Trazado_114264" data-name="Trazado 114264" d="M66.461,246.923c-.119-.234-.21-.38-.477-.411a.892.892,0,0,0-.623.159.75.75,0,0,0-.308.516.86.86,0,0,0,.443.856.847.847,0,0,0,.886-.015.616.616,0,0,0,.215-.521A1.281,1.281,0,0,0,66.461,246.923Zm-.234.695a.5.5,0,0,1-.624.117c-.316-.183-.251-.795.136-.836a.481.481,0,0,1,.346.091A.506.506,0,0,1,66.226,247.618Z" transform="translate(-59.537 -239.828)" fill="#37474f"/>
          </g>
        </g>
        <g id="Top" transform="translate(40.005 63.684)">
          <path id="Trazado_114265" data-name="Trazado 114265" d="M81.989,121.884V92.707c-1.585-1.673-6.2-1.385-8.235-1.054-3.565.579-5.459,3.887-6.621,7.026a31.914,31.914,0,0,0-1.469,9.12q-.45,7.043-.9,14.084Z" transform="translate(-42.271 -66.22)" fill="#263238"/>
          <g id="Grupo_81680" data-name="Grupo 81680" transform="translate(59.85 48.963)">
            <path id="Trazado_114266" data-name="Trazado 114266" d="M126.189,133.026c3.475,4.417,10.557,15.039,10.557,15.039s15.82-10.971,17.333-13.082c3.035-4.23,3.775-7.725,7.74-8.746s8.97-2.225,8.97-2.225l-3.733,18.57c-1.705,1.936-3.808,1.127-8.062,5.3-3.162,3.1-10.872,9.737-17.531,14.817-5.6,4.269-9.61,1.944-12.215-1.226-6.38-7.767-11.771-14.019-11.771-14.019l-9.491-29.022C113.651,119.826,117.881,122.463,126.189,133.026Z" transform="translate(-106.076 -117.657)" fill="#c8856a"/>
            <path id="Trazado_114267" data-name="Trazado 114267" d="M171.567,133.154c.5,1.627,1.264,3.323.436,4.861a10.83,10.83,0,0,0-1.109-3.645l-5.966,5.366Z" transform="translate(-111.287 -119.004)" fill="#af6152"/>
            <path id="Trazado_114268" data-name="Trazado 114268" d="M105.884,117.588c8.131-.226,13.349,3.688,18.47,11.408,3.1,4.672,12.278,18.292,12.278,18.292l11.274-7.829s1.568,5.152,5.009,7.734c2.989,2.243,5.5.989,5.5.989A101.718,101.718,0,0,1,146.237,159.6c-8.527,6.906-11.412,7.483-15.2,4.607-1.876-1.424-3.114-2.979-6.681-7.1-4.285-4.946-7.376-9.135-7.376-9.135Z" transform="translate(-105.884 -117.579)" fill="#465fc4"/>
          </g>
          <g id="Chest" transform="translate(19.776 48.764)">
            <path id="Trazado_114269" data-name="Trazado 114269" d="M93.412,117.36s-18.748,1.038-23.418,3.168c-2.138.975-6.818,6.537-5.85,19.907.39,5.379,2.56,16.363,2.606,20.39.065,5.7-4.977,24.22-4.977,24.22,17.591,10.813,48.691,7.493,55,1.7,0,0-2.139-23.929-2.808-36.229,0,0,3.37-5.677,3.1-9.5-.405-5.608-1.571-7.6-6.7-13.87a105.281,105.281,0,0,0-8.774-9.578Z" transform="translate(-61.773 -117.36)" fill="#465fc4"/>
          </g>
          <g id="Grupo_81688" data-name="Grupo 81688" transform="translate(27.98 1.172)">
            <path id="Trazado_114270" data-name="Trazado 114270" d="M77.388,73.945c-6.047.67-7.51,10.555-6.074,16.13,2.769,10.756,10.027,12.014,10.308,16.606l10.868-6.375,8.455-4.959c.778-.457,1.554-.916,2.312-1.406.7-.452,1.3-1.039,2.014-1.464.548-.326,1.112-.139,1.69-.3a3.3,3.3,0,0,0,1.431-1.284,7.367,7.367,0,0,0,1.346-6.132A7.238,7.238,0,0,1,111,86.8a3.492,3.492,0,0,1,.1,2.354c2.508-1.669,2.743-8.109-2.069-10.414-.852-.408-1.4-1.814-1.762-2.658A10.021,10.021,0,0,0,106.278,74q-.662-.893-1.412-1.716a24.231,24.231,0,0,0-3.273-2.988c-3.421-2.6-8.617-5.081-13.056-4.1C83.793,66.239,78.83,68.97,77.388,73.945Z" transform="translate(-70.804 -64.975)" fill="#263238"/>
            <g id="Grupo_81687" data-name="Grupo 81687" transform="translate(2.487 11.265)">
              <path id="Trazado_114271" data-name="Trazado 114271" d="M82.129,112.122l-.6-9.972a4.357,4.357,0,0,1-5.356-1.068c-2.981-3.089-3.274-6.459-1.648-8.621,1.8-2.389,5.768-1.484,7.489,1.427,2.593.62,3.645-3.086,1.676-6.885,0,0,12.56.857,18.384-8.694a3.147,3.147,0,0,1,5.07.792c.613,1.415,1.422,3.784.84,8.578-.216,1.781.642,3.9.576,6.309-.264,9.486-2.426,12.54-5.023,14.14a14.528,14.528,0,0,1-7.089,1.6l.209,2.554h0c.057,1.387.384,1.433,1.586,1.5.953.053,1.8.105,1.8.105s7.274,9.187-1.8,10.439c-9.959,1.374-19.94-5.563-22.1-8.759,0,0,.8-.134,3-.46S81.945,113.985,82.129,112.122Z" transform="translate(-73.541 -77.374)" fill="#c8856a"/>
              <g id="Grupo_81686" data-name="Grupo 81686" transform="translate(9.824 5.737)">
                <g id="Grupo_81681" data-name="Grupo 81681" transform="translate(10.081 15.584)">
                  <path id="Trazado_114272" data-name="Trazado 114272" d="M95.569,100.842l5.152,1.666a2.661,2.661,0,0,1-3.361,1.837A2.834,2.834,0,0,1,95.569,100.842Z" transform="translate(-95.451 -100.842)" fill="#af6152"/>
                  <path id="Trazado_114273" data-name="Trazado 114273" d="M95.9,102.156a2.981,2.981,0,0,1,2.97,2.334,2.575,2.575,0,0,1-1.5-.025A2.783,2.783,0,0,1,95.5,102.2,3.041,3.041,0,0,1,95.9,102.156Z" transform="translate(-95.455 -100.962)" fill="#ffa8a7"/>
                </g>
                <g id="Grupo_81682" data-name="Grupo 81682" transform="translate(19.11)">
                  <path id="Trazado_114274" data-name="Trazado 114274" d="M109.194,86.358l-3.413-1.524a1.794,1.794,0,0,1,2.41-.987A1.965,1.965,0,0,1,109.194,86.358Z" transform="translate(-105.426 -83.689)" fill="#263238"/>
                  <path id="Trazado_114275" data-name="Trazado 114275" d="M105.4,89.674a1.6,1.6,0,0,0,1.429,1.7,1.5,1.5,0,0,0,1.675-1.37,1.6,1.6,0,0,0-1.427-1.7A1.5,1.5,0,0,0,105.4,89.674Z" transform="translate(-105.39 -84.11)" fill="#263238"/>
                </g>
                <g id="Grupo_81683" data-name="Grupo 81683" transform="translate(6.342 1.208)">
                  <path id="Trazado_114276" data-name="Trazado 114276" d="M91.54,87.857l3.326-1.808a1.818,1.818,0,0,0-2.512-.806A1.989,1.989,0,0,0,91.54,87.857Z" transform="translate(-91.336 -85.019)" fill="#263238"/>
                  <path id="Trazado_114277" data-name="Trazado 114277" d="M92.413,90.04a1.6,1.6,0,0,0,1.429,1.7,1.5,1.5,0,0,0,1.676-1.37,1.6,1.6,0,0,0-1.428-1.7A1.5,1.5,0,0,0,92.413,90.04Z" transform="translate(-91.434 -85.352)" fill="#263238"/>
                </g>
                <g id="Grupo_81684" data-name="Grupo 81684" transform="translate(13.255 2.752)">
                  <path id="Trazado_114278" data-name="Trazado 114278" d="M98.945,86.717l1.109,10.657,5.2-2.749Z" transform="translate(-98.945 -86.717)" fill="#af6152"/>
                </g>
                <g id="Grupo_81685" data-name="Grupo 81685" transform="translate(0 20.068)">
                  <path id="Trazado_114279" data-name="Trazado 114279" d="M97.435,112.323c-6.871.112-11.223-2.4-13.08-6.545,0,0,.591,3.887,3.379,5.985,3.123,2.349,9.876,2.44,9.876,2.44Z" transform="translate(-84.355 -105.778)" fill="#af6152"/>
                </g>
              </g>
            </g>
          </g>
          <g id="Grupo_81692" data-name="Grupo 81692" transform="translate(16.466 48.748)">
            <g id="Grupo_81690" data-name="Grupo 81690" transform="translate(38.701 0.091)">
              <path id="Trazado_114280" data-name="Trazado 114280" d="M100.729,117.443a52.677,52.677,0,0,1,15,31.313c1,10.312,1.272,52.976,1.272,52.976s5.968.014,8.732-2c-1.616-23.656-3.269-46.824-4.427-58.673a24.234,24.234,0,0,0-4.065-10.691,48.711,48.711,0,0,0-11.832-12.8Z" transform="translate(-100.729 -117.443)" fill="#f9931f"/>
              <g id="Grupo_81689" data-name="Grupo 81689" transform="translate(15.867 52.093)">
                <path id="Trazado_114281" data-name="Trazado 114281" d="M125.48,178.472a69.948,69.948,0,0,1-7.214,1.537c-.023-1.219-.047-2.439-.072-3.652a66.462,66.462,0,0,0,7.018-1.574Q125.344,176.6,125.48,178.472Z" transform="translate(-118.194 -174.783)" fill="#fafafa"/>
                <path id="Trazado_114282" data-name="Trazado 114282" d="M118.434,190.381a66.475,66.475,0,0,0,7.7-1.8q.129,1.834.26,3.7a69.713,69.713,0,0,1-7.909,1.756C118.468,192.859,118.452,191.635,118.434,190.381Z" transform="translate(-118.216 -176.046)" fill="#fafafa"/>
              </g>
            </g>
            <g id="Grupo_81691" data-name="Grupo 81691">
              <path id="Trazado_114283" data-name="Trazado 114283" d="M80.329,117.343c.554,8.886,3.216,20.16,3.331,29.75.209,17.389-5.186,55.955-5.186,55.955s-12.513-.186-20.344-5.686c-.048-4.177,3.5-18.868,5.257-24.964s2.434-13.827.155-23.5S62.9,127.19,67.4,120.435Z" transform="translate(-58.129 -117.343)" fill="#f9931f"/>
              <path id="Trazado_114284" data-name="Trazado 114284" d="M80.388,196.372c-10.25-.8-16.738-3.484-19.9-5.186.253-1.123.5-2.224.784-3.366,4.115,2.119,12.6,4.4,19.535,5.018C80.668,194.056,80.526,195.24,80.388,196.372Z" transform="translate(-58.346 -123.792)" fill="#fafafa"/>
              <path id="Trazado_114285" data-name="Trazado 114285" d="M63.9,177.659c.26-.9.492-1.847.7-2.823a66.571,66.571,0,0,0,17.991,3.2q-.18,1.815-.369,3.613a70.148,70.148,0,0,1-18.52-3.291C63.767,178.115,63.833,177.879,63.9,177.659Z" transform="translate(-58.639 -122.604)" fill="#fafafa"/>
            </g>
          </g>
          <g id="Grupo_81693" data-name="Grupo 81693" transform="translate(27.175)">
            <path id="Trazado_114286" data-name="Trazado 114286" d="M70.226,87.381a19.958,19.958,0,0,0,1.8,5.458,20.346,20.346,0,0,1,1.254-1.649,33.587,33.587,0,0,1,9.164-7.451l.017,0c8.026-4.565,18.133-6.7,26.489-5.083a19.18,19.18,0,0,0-1.894-4.558A19.863,19.863,0,0,0,70.226,87.381Z" transform="translate(-69.918 -63.716)" fill="#f9931f"/>
            <path id="Trazado_114287" data-name="Trazado 114287" d="M77.708,66.965c.955-.561,5.824-2.452,6.214-2.606,2.523-.993,6.679-1.275,11.23,1.894a20.185,20.185,0,0,1,7.542,10.252l-5.169,2.088-1.681.3c-.936-3.845-6.753-11.837-14-11.573a6.887,6.887,0,0,0-1.019.1,9.415,9.415,0,0,0-2.748.793,27.046,27.046,0,0,0-2.621,2.469A4.442,4.442,0,0,1,77.708,66.965Z" transform="translate(-70.425 -63.684)" fill="#f9931f"/>
            <path id="Trazado_114288" data-name="Trazado 114288" d="M77.708,66.965c.955-.561,5.824-2.452,6.214-2.606,2.523-.993,6.679-1.275,11.23,1.894a20.185,20.185,0,0,1,7.542,10.252l-5.169,2.088-1.681.3c-.936-3.845-6.753-11.837-14-11.573a6.887,6.887,0,0,0-1.019.1,9.415,9.415,0,0,0-2.748.793,27.046,27.046,0,0,0-2.621,2.469A4.442,4.442,0,0,1,77.708,66.965Z" transform="translate(-70.425 -63.684)" fill="#fff" opacity="0.45"/>
            <path id="Trazado_114289" data-name="Trazado 114289" d="M95.847,79.106c-1.1-4.474-8.877-14.663-17.762-10.7a27.15,27.15,0,0,0-2.632,2.47,4.478,4.478,0,0,1,2.255-3.708C80,65.842,84.724,64.9,89.987,68.56a20.134,20.134,0,0,1,7.532,10.25Z" transform="translate(-70.424 -63.895)" fill="#f9931f"/>
            <path id="Trazado_114290" data-name="Trazado 114290" d="M95.847,79.106c-1.1-4.474-8.877-14.663-17.762-10.7a27.15,27.15,0,0,0-2.632,2.47,4.478,4.478,0,0,1,2.255-3.708C80,65.842,84.724,64.9,89.987,68.56a20.134,20.134,0,0,1,7.532,10.25Z" transform="translate(-70.424 -63.895)" opacity="0.3"/>
            <path id="Trazado_114291" data-name="Trazado 114291" d="M83.422,82.8a22.261,22.261,0,0,1,8.191-8.539c3.891-2.495,12.214-3.269,15.955-3.507,6.55-.417,8.225.85,8.383,1.806.038.227.214,1.279.263,1.516a.932.932,0,0,1-.087.631c-.861,1.563-5.942,4.554-5.942,4.554-8.356-1.613-18.462.518-26.489,5.083Z" transform="translate(-71.153 -64.323)" fill="#f9931f"/>
            <path id="Trazado_114292" data-name="Trazado 114292" d="M83.422,82.8a22.261,22.261,0,0,1,8.191-8.539c3.891-2.495,12.214-3.269,15.955-3.507,6.55-.417,8.225.85,8.383,1.806.038.227.214,1.279.263,1.516a.932.932,0,0,1-.087.631c-.861,1.563-5.942,4.554-5.942,4.554-8.356-1.613-18.462.518-26.489,5.083Z" transform="translate(-71.153 -64.323)" opacity="0.15"/>
            <path id="Trazado_114293" data-name="Trazado 114293" d="M83.724,84.5c8.026-4.565,18.133-6.7,26.489-5.083,0,0,5.08-2.992,5.942-4.554.459-.863-.182-2.924-8.285-2.408-3.741.237-12.063,1.013-15.955,3.508A22.24,22.24,0,0,0,83.724,84.5Z" transform="translate(-71.181 -64.479)" fill="#f9931f"/>
            <path id="Trazado_114294" data-name="Trazado 114294" d="M83.724,84.5c8.026-4.565,18.133-6.7,26.489-5.083,0,0,5.08-2.992,5.942-4.554.459-.863-.182-2.924-8.285-2.408-3.741.237-12.063,1.013-15.955,3.508A22.24,22.24,0,0,0,83.724,84.5Z" transform="translate(-71.184 -64.48)" opacity="0.3"/>
          </g>
          <g id="Grupo_81695" data-name="Grupo 81695" transform="translate(25.712 34.441)">
            <g id="Grupo_81694" data-name="Grupo 81694">
              <path id="Trazado_114295" data-name="Trazado 114295" d="M69.414,194.636c-1.047,1.038-1.409,2.769-.836,4.945a15.6,15.6,0,0,0,9.938,10.026c2.172.592,3.906.246,4.953-.792l92.784-91.961c1.047-1.038,1.408-2.769.836-4.945a15.6,15.6,0,0,0-9.939-10.026c-2.171-.592-3.9-.246-4.952.792Z" transform="translate(-68.307 -101.594)" fill="#9aeccd"/>
              <path id="Trazado_114296" data-name="Trazado 114296" d="M69.414,194.636c-1.047,1.038-1.409,2.769-.836,4.945a15.6,15.6,0,0,0,9.938,10.026c2.172.592,3.906.246,4.953-.792l92.784-91.961c1.047-1.038,1.408-2.769.836-4.945a15.6,15.6,0,0,0-9.939-10.026c-2.171-.592-3.9-.246-4.952.792Z" transform="translate(-68.307 -101.594)" fill="#fff" opacity="0.4"/>
              <path id="Trazado_114297" data-name="Trazado 114297" d="M78.518,218.87c2.171.592,3.9.246,4.952-.792s1.408-2.769.836-4.946a15.607,15.607,0,0,0-9.939-10.026c-2.171-.591-3.9-.245-4.952.793s-1.409,2.768-.836,4.945A15.6,15.6,0,0,0,78.518,218.87Z" transform="translate(-68.307 -110.857)" fill="#9aeccd"/>
            </g>
            <path id="Trazado_114298" data-name="Trazado 114298" d="M84.915,208.985,178.021,116.7c4.978-4.934-.817-13.246-.817-13.246L84.1,195.739S89.892,204.051,84.915,208.985Z" transform="translate(-69.752 -101.765)" fill="#9aeccd"/>
            <path id="Trazado_114299" data-name="Trazado 114299" d="M84.915,208.985,178.021,116.7c4.978-4.934-.817-13.246-.817-13.246L84.1,195.739S89.892,204.051,84.915,208.985Z" transform="translate(-69.752 -101.765)" fill="#fff" opacity="0.6"/>
            <path id="Trazado_114300" data-name="Trazado 114300" d="M78.518,218.87c2.171.592,3.9.246,4.952-.792s1.408-2.769.836-4.946a15.607,15.607,0,0,0-9.939-10.026c-2.171-.591-3.9-.245-4.952.793s-1.409,2.768-.836,4.945A15.6,15.6,0,0,0,78.518,218.87Z" transform="translate(-68.308 -110.858)" fill="#fff" opacity="0.2"/>
            <path id="Trazado_114301" data-name="Trazado 114301" d="M75.194,209.379c-4.745-.984-3.492,4.919,1.223,8.736h0a11.561,11.561,0,0,0,2.457,1.006c2.171.592,3.9.246,4.952-.792s1.408-2.769.836-4.946a15.4,15.4,0,0,0-5.625-7.814Z" transform="translate(-68.663 -111.109)" fill="#8ae3c2"/>
            <path id="Trazado_114302" data-name="Trazado 114302" d="M72.822,209.667l5.059-5.015a10.366,10.366,0,0,1,1.212.834L75.251,209.3A2.957,2.957,0,0,0,72.822,209.667Z" transform="translate(-68.721 -111.025)" fill="#9aeccd"/>
            <path id="Trazado_114303" data-name="Trazado 114303" d="M72.822,209.667l5.059-5.015a10.366,10.366,0,0,1,1.212.834L75.251,209.3A2.957,2.957,0,0,0,72.822,209.667Z" transform="translate(-68.721 -111.025)" opacity="0.1"/>
          </g>
          <g id="Grupo_81696" data-name="Grupo 81696" transform="translate(0 51.841)">
            <path id="Trazado_114304" data-name="Trazado 114304" d="M93.634,175.629c2.433-2.076,3.083-2.3,5.656-2.391s3.752-.16,4.757-.111a21.324,21.324,0,0,1,5.108,1.244c1.191.741-.655,2.532-2.592,2.48s-4.459-.315-4.459-.315Z" transform="translate(-44.913 -125.539)" fill="#af6152"/>
            <path id="Trazado_114305" data-name="Trazado 114305" d="M65.542,121.228c-7.808,2.073-12.342,4.828-13.958,8.879-2.858,7.166-9.259,29.481-10.261,35.31s-.483,7.351,4.3,10c3.986,2.209,20.548,7.2,28.192,9.235a6.817,6.817,0,0,0,5.971-1.238l7.024-5.533-29-13.7,6.567-19.667S70.682,130.43,65.542,121.228Z" transform="translate(-40.087 -120.791)" fill="#c8856a"/>
            <path id="Trazado_114306" data-name="Trazado 114306" d="M65.742,120.747c-5.129,1.46-9.4,3.04-11.845,5.522-3.455,3.51-2.99,3.441-7.577,17.935s-5.907,21.668-6.229,24.566.066,4.175,4.562,6.657,17.08,5.713,17.08,5.713a28.594,28.594,0,0,1,1.8-8.417c1.588-3.786,3.861-4.019,3.861-4.019l-8.841-4.888s5.436-15.316,7.38-20.385S70.33,129.48,65.742,120.747Z" transform="translate(-40.005 -120.747)" fill="#465fc4"/>
            <path id="Trazado_114307" data-name="Trazado 114307" d="M81.393,185.084c.852-.157,1.15-3.709,2.586-4.212s1.632-.305,2.341-1.678a2.86,2.86,0,0,1,2.63-1.836c.878.073.549-1.555,2.18-1.961a28.923,28.923,0,0,1,6.321-.106c1.48.145,4.839,2.3,6.287,3.326s.439,2.008-.474,2.482a5.1,5.1,0,0,1-2.708.052s1.478,1.315,1.134,1.923c-.454.8-1.981,1.5-4.105.586,1.391.969,1.232,1.9.078,2.363A5.4,5.4,0,0,1,94,185.655c-1.888-.694-4.4-1.538-5.9-.931l-1.47,1.158Z" transform="translate(-43.792 -125.727)" fill="#c8856a"/>
            <path id="Trazado_114308" data-name="Trazado 114308" d="M81.393,185.489c.375-.043.582-.426.777-.695a9.149,9.149,0,0,0,.471-.918,11.845,11.845,0,0,1,.876-1.724,1.418,1.418,0,0,1,.569-.538l.934-.369a1.829,1.829,0,0,0,.9-.669,3.526,3.526,0,0,0,.4-.977,5.929,5.929,0,0,1-.673.739,1.678,1.678,0,0,1-.809.358c-.322.069-.654.156-.993.259a2.009,2.009,0,0,0-.935.773,6.572,6.572,0,0,0-.809,1.949l-.262.97A1.366,1.366,0,0,1,81.393,185.489Z" transform="translate(-43.792 -126.133)" fill="#af6152"/>
            <path id="Trazado_114309" data-name="Trazado 114309" d="M101.411,181.375c-.758-.61-1.516-1.2-2.307-1.755a16.308,16.308,0,0,0-2.515-1.542,12.916,12.916,0,0,0-2.95-.413,22.342,22.342,0,0,0-2.907.026q1.423.324,2.844.549l1.414.237a8.863,8.863,0,0,1,1.325.289c.8.352,1.643.9,2.483,1.342A23.1,23.1,0,0,0,101.411,181.375Z" transform="translate(-44.647 -125.952)" fill="#af6152"/>
            <path id="Trazado_114310" data-name="Trazado 114310" d="M87.968,181.172c.9.14,1.841.152,2.713.212a7.4,7.4,0,0,1,2.479.721c1.643.715,3.285,1.49,5.027,2.07a24.968,24.968,0,0,0-4.732-2.749,6.2,6.2,0,0,0-2.758-.618A22.7,22.7,0,0,0,87.968,181.172Z" transform="translate(-44.394 -126.243)" fill="#af6152"/>
          </g>
          <g id="Grupo_81697" data-name="Grupo 81697" transform="translate(119.066 47.991)">
            <path id="Trazado_114311" data-name="Trazado 114311" d="M181.867,131.508c1.842-2.387,2.025-3.009,1.99-5.435s-.023-3.54-.116-4.483a20.083,20.083,0,0,0-1.406-4.753c-.753-1.087-2.354.734-2.215,2.556s.5,4.184.5,4.184Z" transform="translate(-171.892 -116.509)" fill="#af6152"/>
            <path id="Trazado_114312" data-name="Trazado 114312" d="M172.829,142.8c1.435-1.518,3.44-1.254,3.847-2.63s.212-1.55,1.471-2.281a2.7,2.7,0,0,0,1.608-2.562c-.11-.822,1.438-.588,1.745-2.143a27.331,27.331,0,0,0-.192-5.956c-.206-1.386-2.385-4.45-3.422-5.765s-1.911-.32-2.315.561a4.811,4.811,0,0,0,.076,2.552s-1.306-1.331-1.862-.978c-.732.464-1.325,1.934-.363,3.892-.977-1.264-1.843-1.071-2.228.036a5.093,5.093,0,0,0,.515,3.427c.74,1.746,1.525,4.253,1.024,5.691l-1.449,2.09Z" transform="translate(-171.064 -116.904)" fill="#c8856a"/>
            <path id="Trazado_114313" data-name="Trazado 114313" d="M176.109,124.955c.61.685,1.2,1.373,1.76,2.091a15.373,15.373,0,0,1,1.567,2.3,12.121,12.121,0,0,1,.525,2.758,21,21,0,0,1,.11,2.738q-.371-1.325-.648-2.653l-.289-1.32a8.319,8.319,0,0,0-.333-1.233c-.369-.74-.919-1.505-1.378-2.277A21.656,21.656,0,0,1,176.109,124.955Z" transform="translate(-171.526 -117.282)" fill="#af6152"/>
            <path id="Trazado_114314" data-name="Trazado 114314" d="M176.96,137.644c-.174-.845-.228-1.725-.325-2.544a6.981,6.981,0,0,0-.794-2.3c-.749-1.514-1.554-3.024-2.181-4.638a23.453,23.453,0,0,1,2.807,4.329,5.842,5.842,0,0,1,.71,2.568A21.307,21.307,0,0,1,176.96,137.644Z" transform="translate(-171.301 -117.576)" fill="#af6152"/>
          </g>
        </g>
      </g>
    </g>
    <g id="Grupo_81659" data-name="Grupo 81659" transform="translate(923 3391.333)">
      <g id="Grupo_80111" data-name="Grupo 80111" transform="translate(25.366)">
        <path id="Trazado_113526" data-name="Trazado 113526" d="M290.173,1037.985l-17.77-17.77a.888.888,0,0,1,0-1.255h0a.888.888,0,0,1,1.256,0l17.77,17.77a.888.888,0,0,1,0,1.256h0A.888.888,0,0,1,290.173,1037.985Z" transform="translate(-272.143 -1018.7)" fill="#465fc4"/>
      </g>
      <g id="Grupo_80112" data-name="Grupo 80112" transform="translate(34.086 2.379)">
        <path id="Trazado_113527" data-name="Trazado 113527" d="M343.924,1044.577l-6.671-6.671a.888.888,0,0,1,0-1.255h0a.887.887,0,0,1,1.256,0l6.671,6.671a.888.888,0,0,1,0,1.256h0A.887.887,0,0,1,343.924,1044.577Z" transform="translate(-336.993 -1036.39)" fill="#465fc4"/>
      </g>
      <g id="Grupo_80113" data-name="Grupo 80113" transform="translate(19.025)">
        <path id="Trazado_113528" data-name="Trazado 113528" d="M249.36,1044.326l-24.11-24.11a.887.887,0,0,1,0-1.255h0a.887.887,0,0,1,1.255,0l24.111,24.11a.887.887,0,0,1,0,1.255h0A.887.887,0,0,1,249.36,1044.326Z" transform="translate(-224.989 -1018.7)" fill="#465fc4"/>
      </g>
      <g id="Grupo_80114" data-name="Grupo 80114" transform="translate(14.008 1.323)">
        <path id="Trazado_113529" data-name="Trazado 113529" d="M215.74,1057.857l-27.8-27.8a.888.888,0,0,1,0-1.256h0a.887.887,0,0,1,1.255,0L217,1056.6a.888.888,0,0,1,0,1.255h0A.887.887,0,0,1,215.74,1057.857Z" transform="translate(-187.675 -1028.537)" fill="#465fc4"/>
      </g>
      <g id="Grupo_80115" data-name="Grupo 80115" transform="translate(9.838 3.493)">
        <path id="Trazado_113530" data-name="Trazado 113530" d="M186.728,1076l-29.8-29.8a.888.888,0,0,1,0-1.256h0a.888.888,0,0,1,1.255,0l29.805,29.805a.888.888,0,0,1,0,1.255h0A.888.888,0,0,1,186.728,1076Z" transform="translate(-156.663 -1044.677)" fill="#465fc4"/>
      </g>
      <g id="Grupo_80116" data-name="Grupo 80116" transform="translate(6.345 6.345)">
        <path id="Trazado_113531" data-name="Trazado 113531" d="M161.392,1097.847,130.946,1067.4a.888.888,0,0,1,0-1.256h0a.888.888,0,0,1,1.256,0l30.446,30.446a.889.889,0,0,1,0,1.256h0A.889.889,0,0,1,161.392,1097.847Z" transform="translate(-130.686 -1065.885)" fill="#465fc4"/>
      </g>
      <g id="Grupo_80117" data-name="Grupo 80117" transform="translate(3.493 9.838)">
        <path id="Trazado_113532" data-name="Trazado 113532" d="M139.543,1123.183l-29.805-29.8a.888.888,0,0,1,0-1.255h0a.888.888,0,0,1,1.256,0l29.8,29.8a.887.887,0,0,1,0,1.255h0A.888.888,0,0,1,139.543,1123.183Z" transform="translate(-109.478 -1091.863)" fill="#465fc4"/>
      </g>
      <g id="Grupo_80118" data-name="Grupo 80118" transform="translate(1.323 14.008)">
        <path id="Trazado_113533" data-name="Trazado 113533" d="M121.4,1152.2,93.6,1124.39a.887.887,0,0,1,0-1.255h0a.887.887,0,0,1,1.255,0l27.805,27.8a.888.888,0,0,1,0,1.256h0A.887.887,0,0,1,121.4,1152.2Z" transform="translate(-93.336 -1122.875)" fill="#465fc4"/>
      </g>
      <g id="Grupo_80119" data-name="Grupo 80119" transform="translate(0 19.025)">
        <path id="Trazado_113534" data-name="Trazado 113534" d="M107.87,1185.815,83.759,1161.7a.887.887,0,0,1,0-1.255h0a.887.887,0,0,1,1.255,0l24.111,24.11a.887.887,0,0,1,0,1.255h0A.887.887,0,0,1,107.87,1185.815Z" transform="translate(-83.499 -1160.189)" fill="#465fc4"/>
      </g>
      <g id="Grupo_80120" data-name="Grupo 80120" transform="translate(0 25.366)">
        <path id="Trazado_113535" data-name="Trazado 113535" d="M101.529,1226.628l-17.77-17.77a.888.888,0,0,1,0-1.256h0a.888.888,0,0,1,1.255,0l17.77,17.77a.888.888,0,0,1,0,1.255h0A.888.888,0,0,1,101.529,1226.628Z" transform="translate(-83.499 -1207.343)" fill="#465fc4"/>
      </g>
      <g id="Grupo_80121" data-name="Grupo 80121" transform="translate(2.379 34.086)">
        <path id="Trazado_113536" data-name="Trazado 113536" d="M108.122,1280.379l-6.671-6.671a.888.888,0,0,1,0-1.256h0a.888.888,0,0,1,1.255,0l6.671,6.671a.888.888,0,0,1,0,1.255h0A.888.888,0,0,1,108.122,1280.379Z" transform="translate(-101.191 -1272.193)" fill="#465fc4"/>
      </g>
    </g>
    <g id="Elipse_4746" data-name="Elipse 4746" transform="translate(952 3414)" fill="none" stroke="#f9931f" stroke-width="6">
      <ellipse cx="13" cy="13.5" rx="13" ry="13.5" stroke="none"/>
      <ellipse cx="13" cy="13.5" rx="10" ry="10.5" fill="none"/>
    </g>
    <g id="Elipse_4747" data-name="Elipse 4747" transform="translate(1076 3315)" fill="none" stroke="#465fc4" stroke-width="6">
      <ellipse cx="13" cy="13.5" rx="13" ry="13.5" stroke="none"/>
      <ellipse cx="13" cy="13.5" rx="10" ry="10.5" fill="none"/>
    </g>
  </g>
</svg>
