<svg xmlns="http://www.w3.org/2000/svg" xmlns:xlink="http://www.w3.org/1999/xlink" width="85" height="85" viewBox="0 0 85 85">
  <defs>
    <clipPath id="clip-path">
      <rect id="Rect치ngulo_34019" data-name="Rect치ngulo 34019" width="65" height="65" transform="translate(190 4713)" fill="#fff" stroke="#707070" stroke-width="1"/>
    </clipPath>
    <clipPath id="clip-path-2">
      <path id="path9372" d="M0-65H65V0H0Z"/>
    </clipPath>
  </defs>
  <g id="Grupo_83549" data-name="Grupo 83549" transform="translate(-180 -4703)">
    <rect id="Rect치ngulo_33792" data-name="Rect치ngulo 33792" width="85" height="85" rx="5" transform="translate(180 4703)" fill="#465fc4"/>
    <g id="Grupo_80313" data-name="Grupo 80313" transform="translate(187.443 4717.179)">
      <g id="Grupo_80111" data-name="Grupo 80111" transform="translate(31.991)">
        <path id="Trazado_113526" data-name="Trazado 113526" d="M294.882,1043.023l-22.411-22.412a1.119,1.119,0,0,1,0-1.583h0a1.12,1.12,0,0,1,1.584,0l22.411,22.411a1.119,1.119,0,0,1,0,1.584h0A1.12,1.12,0,0,1,294.882,1043.023Z" transform="translate(-272.143 -1018.7)" fill="#ffc721"/>
      </g>
      <g id="Grupo_80112" data-name="Grupo 80112" transform="translate(42.988 3)">
        <path id="Trazado_113527" data-name="Trazado 113527" d="M345.734,1046.715l-8.414-8.414a1.12,1.12,0,0,1,0-1.583h0a1.119,1.119,0,0,1,1.584,0l8.413,8.413a1.119,1.119,0,0,1,0,1.584h0A1.119,1.119,0,0,1,345.734,1046.715Z" transform="translate(-336.993 -1036.39)" fill="#ffc721"/>
      </g>
      <g id="Grupo_80113" data-name="Grupo 80113" transform="translate(23.994)">
        <path id="Trazado_113528" data-name="Trazado 113528" d="M255.724,1051.018l-30.407-30.407a1.118,1.118,0,0,1,0-1.583h0a1.119,1.119,0,0,1,1.583,0l30.407,30.407a1.119,1.119,0,0,1,0,1.583h0A1.119,1.119,0,0,1,255.724,1051.018Z" transform="translate(-224.989 -1018.7)" fill="#ffc721"/>
      </g>
      <g id="Grupo_80114" data-name="Grupo 80114" transform="translate(17.667 1.668)">
        <path id="Trazado_113529" data-name="Trazado 113529" d="M223.07,1065.515,188,1030.449a1.119,1.119,0,0,1,0-1.583h0a1.118,1.118,0,0,1,1.583,0l35.067,35.067a1.12,1.12,0,0,1,0,1.583h0A1.119,1.119,0,0,1,223.07,1065.515Z" transform="translate(-187.675 -1028.537)" fill="#ffc721"/>
      </g>
      <g id="Grupo_80115" data-name="Grupo 80115" transform="translate(12.407 4.405)">
        <path id="Trazado_113530" data-name="Trazado 113530" d="M194.58,1084.177l-37.589-37.589a1.12,1.12,0,0,1,0-1.584h0a1.12,1.12,0,0,1,1.583,0l37.589,37.59a1.12,1.12,0,0,1,0,1.583h0A1.119,1.119,0,0,1,194.58,1084.177Z" transform="translate(-156.663 -1044.677)" fill="#ffc721"/>
      </g>
      <g id="Grupo_80116" data-name="Grupo 80116" transform="translate(8.002 8.002)">
        <path id="Trazado_113531" data-name="Trazado 113531" d="M169.412,1106.195l-38.4-38.4a1.121,1.121,0,0,1,0-1.584h0a1.12,1.12,0,0,1,1.584,0l38.4,38.4a1.121,1.121,0,0,1,0,1.584h0A1.121,1.121,0,0,1,169.412,1106.195Z" transform="translate(-130.686 -1065.885)" fill="#ffc721"/>
      </g>
      <g id="Grupo_80117" data-name="Grupo 80117" transform="translate(4.406 12.407)">
        <path id="Trazado_113532" data-name="Trazado 113532" d="M147.4,1131.364l-37.589-37.589a1.12,1.12,0,0,1,0-1.583h0a1.119,1.119,0,0,1,1.584,0l37.589,37.589a1.119,1.119,0,0,1,0,1.584h0A1.12,1.12,0,0,1,147.4,1131.364Z" transform="translate(-109.478 -1091.863)" fill="#ffc721"/>
      </g>
      <g id="Grupo_80118" data-name="Grupo 80118" transform="translate(1.668 17.666)">
        <path id="Trazado_113533" data-name="Trazado 113533" d="M128.731,1159.854l-35.067-35.067a1.119,1.119,0,0,1,0-1.583h0a1.118,1.118,0,0,1,1.583,0l35.067,35.066a1.12,1.12,0,0,1,0,1.584h0A1.118,1.118,0,0,1,128.731,1159.854Z" transform="translate(-93.336 -1122.875)" fill="#ffc721"/>
      </g>
      <g id="Grupo_80119" data-name="Grupo 80119" transform="translate(0 23.994)">
        <path id="Trazado_113534" data-name="Trazado 113534" d="M114.235,1192.508,83.827,1162.1a1.119,1.119,0,0,1,0-1.583h0a1.118,1.118,0,0,1,1.583,0l30.408,30.408a1.119,1.119,0,0,1,0,1.583h0A1.119,1.119,0,0,1,114.235,1192.508Z" transform="translate(-83.499 -1160.189)" fill="#ffc721"/>
      </g>
      <g id="Grupo_80120" data-name="Grupo 80120" transform="translate(0 31.991)">
        <path id="Trazado_113535" data-name="Trazado 113535" d="M106.238,1231.665l-22.411-22.411a1.119,1.119,0,0,1,0-1.584h0a1.119,1.119,0,0,1,1.583,0l22.411,22.411a1.12,1.12,0,0,1,0,1.583h0A1.12,1.12,0,0,1,106.238,1231.665Z" transform="translate(-83.499 -1207.343)" fill="#ffc721"/>
      </g>
      <g id="Grupo_80121" data-name="Grupo 80121" transform="translate(3 42.988)">
        <path id="Trazado_113536" data-name="Trazado 113536" d="M109.932,1282.517l-8.413-8.413a1.12,1.12,0,0,1,0-1.584h0a1.12,1.12,0,0,1,1.583,0l8.414,8.414a1.12,1.12,0,0,1,0,1.583h0A1.119,1.119,0,0,1,109.932,1282.517Z" transform="translate(-101.191 -1272.193)" fill="#ffc721"/>
      </g>
    </g>
    <g id="Enmascarar_grupo_67" data-name="Enmascarar grupo 67" clip-path="url(#clip-path)">
      <g id="g9366" transform="translate(190 4778)">
        <g id="g9368">
          <g id="g9370" clip-path="url(#clip-path-2)">
            <g id="g9376" transform="translate(57.065 -62.144)">
              <path id="path9378" d="M0,0-3.809,3.809V61.191H0a3.82,3.82,0,0,0,3.809-3.809V3.809A3.82,3.82,0,0,0,0,0" fill="#4a527b"/>
            </g>
            <g id="g9380" transform="translate(14.282 -62.144)">
              <path id="path9382" d="M0,0A3.809,3.809,0,0,0-3.809,3.809V57.383A3.809,3.809,0,0,0,0,61.191H38.975a3.82,3.82,0,0,0,3.809-3.809V48.5Z" fill="#636da4"/>
            </g>
            <g id="g9384" transform="translate(4.126 -13.647)">
              <path id="path9386" d="M0,0A5.078,5.078,0,0,0,5.078,5.078H47.861v-12.7L10.156,0Z" fill="#acd5df"/>
            </g>
            <g id="g9388" transform="translate(53.257 -62.144)">
              <path id="path9390" d="M0,0-3.174,53.2a5.059,5.059,0,0,0,1.9.371A5.078,5.078,0,0,0,3.809,48.5V0Z" fill="#e6faff"/>
            </g>
            <g id="g9392" transform="translate(53.257 -62.144)">
              <path id="path9394" d="M0,0H-38.975V48.5H-6.348A5.079,5.079,0,0,0-3.174,53.2,5.079,5.079,0,0,0,0,48.5Z" fill="#fff"/>
            </g>
            <g id="g9396" transform="translate(38.53 -58.335)">
              <path id="path9398" d="M0,0A2.856,2.856,0,0,1-2.856,2.856,2.856,2.856,0,0,1-5.713,0,2.856,2.856,0,0,1-2.856-2.856,2.856,2.856,0,0,1,0,0" fill="#fff"/>
            </g>
            <g id="g9400" transform="translate(43.291 -56.431)">
              <path id="path9402" d="M0,0H-1.9L0,3.809H3.809A3.809,3.809,0,0,0,0,0" fill="#9abbd0"/>
            </g>
            <g id="g9404" transform="translate(35.674 -56.431)">
              <path id="path9406" d="M0,0A1.9,1.9,0,0,1-1.9-1.9,1.9,1.9,0,0,1,0-3.809,1.9,1.9,0,0,1,1.9-1.9,1.9,1.9,0,0,1,0,0M5.713,0s0-1.9,0-1.9A5.713,5.713,0,0,0,0-7.617,5.713,5.713,0,0,0-5.713-1.9V0h-1.9a3.809,3.809,0,0,0-3.809,3.809H7.617c0-2.1-.852-3.808-1.9-3.809" fill="#acd5df"/>
            </g>
            <g id="g9408" transform="translate(44.052 -33.957)">
              <path id="path9410" d="M0,0-6.729-11.68a1.9,1.9,0,0,0-1.649-.955,1.9,1.9,0,0,0-1.649.955L-16.756,0a1.893,1.893,0,0,0-.255.949,1.9,1.9,0,0,0,1.9,1.9H-1.649a1.9,1.9,0,0,0,1.9-1.9A1.893,1.893,0,0,0,0,0" fill="#ffb464"/>
            </g>
            <g id="g9412" transform="translate(36.625 -34.912)">
              <path id="path9414" d="M0,0A.951.951,0,0,1-.951.952.951.951,0,0,1-1.9,0,.952.952,0,0,1-.951-.952.952.952,0,0,1,0,0"/>
            </g>
            <g id="g9416" transform="translate(50.02 -19.678)">
              <path id="path9418" d="M0,0H-28.691" fill="none" stroke="#000" stroke-linecap="round" stroke-linejoin="round" stroke-miterlimit="10" stroke-width="1.904"/>
            </g>
            <g id="g9420" transform="translate(21.328 -27.295)">
              <path id="path9422" d="M0,0H28.691" fill="none" stroke="#000" stroke-linecap="round" stroke-linejoin="round" stroke-miterlimit="10" stroke-width="1.904"/>
            </g>
            <g id="g9424" transform="translate(50.02 -23.486)">
              <path id="path9426" d="M0,0H-28.691" fill="none" stroke="#000" stroke-linecap="round" stroke-linejoin="round" stroke-miterlimit="10" stroke-width="1.904"/>
            </g>
            <g id="g9428" transform="translate(14.282 -62.144)">
              <path id="path9430" d="M0,0V44.688" fill="none" stroke="#000" stroke-linecap="round" stroke-linejoin="round" stroke-miterlimit="10" stroke-width="1.904"/>
            </g>
            <g id="g9432" transform="translate(51.987 -8.569)">
              <path id="path9434" d="M0,0H-42.783a5.078,5.078,0,0,1-5.078-5.078H-5.078A5.078,5.078,0,0,0,0,0,5.078,5.078,0,0,0,5.078-5.078v-48.5" fill="none" stroke="#000" stroke-linecap="round" stroke-linejoin="round" stroke-miterlimit="10" stroke-width="1.904"/>
            </g>
            <g id="g9436" transform="translate(29.961 -58.335)">
              <path id="path9438" d="M0,0V1.9H-1.9A3.809,3.809,0,0,0-5.713,5.713H17.139A3.809,3.809,0,0,0,13.33,1.9h-1.9V0A5.713,5.713,0,0,0,5.713-5.713,5.713,5.713,0,0,0,0,0Z" fill="none" stroke="#000" stroke-linecap="round" stroke-linejoin="round" stroke-miterlimit="10" stroke-width="1.904"/>
            </g>
            <g id="g9440" transform="translate(37.578 -58.335)">
              <path id="path9442" d="M0,0A1.9,1.9,0,0,1-1.9,1.9,1.9,1.9,0,0,1-3.809,0,1.9,1.9,0,0,1-1.9-1.9,1.9,1.9,0,0,1,0,0Z" fill="none" stroke="#000" stroke-linecap="round" stroke-linejoin="round" stroke-miterlimit="10" stroke-width="1.904"/>
            </g>
            <g id="g9444" transform="translate(31.417 -62.144)">
              <path id="path9446" d="M0,0H-17.135a3.809,3.809,0,0,0-3.809,3.809V48.5" fill="none" stroke="#000" stroke-linecap="round" stroke-linejoin="round" stroke-miterlimit="10" stroke-width="1.904"/>
            </g>
            <g id="g9448" transform="translate(10.474 -8.569)">
              <path id="path9450" d="M0,0V3.809A3.809,3.809,0,0,0,3.809,7.617H46.592A3.809,3.809,0,0,0,50.4,3.809V-49.766a3.809,3.809,0,0,0-3.809-3.809H29.457" fill="none" stroke="#000" stroke-linecap="round" stroke-linejoin="round" stroke-miterlimit="10" stroke-width="1.904"/>
            </g>
            <g id="g9452" transform="translate(35.674 -40.625)">
              <path id="path9454" d="M0,0V2.856" fill="none" stroke="#000" stroke-linecap="round" stroke-linejoin="round" stroke-miterlimit="10" stroke-width="1.904"/>
            </g>
            <g id="g9456" transform="translate(44.052 -33.957)">
              <path id="path9458" d="M0,0-6.729-11.68a1.9,1.9,0,0,0-1.649-.955,1.9,1.9,0,0,0-1.649.955L-16.756,0a1.893,1.893,0,0,0-.255.949,1.9,1.9,0,0,0,1.9,1.9H-1.649a1.9,1.9,0,0,0,1.9-1.9A1.893,1.893,0,0,0,0,0Z" fill="none" stroke="#000" stroke-linecap="round" stroke-linejoin="round" stroke-miterlimit="10" stroke-width="1.904"/>
            </g>
          </g>
        </g>
      </g>
    </g>
    <g id="Elipse_4731" data-name="Elipse 4731" transform="translate(190 4765.238)" fill="none" stroke="#f9931f" stroke-width="4">
      <ellipse cx="8.583" cy="8.583" rx="8.583" ry="8.583" stroke="none"/>
      <ellipse cx="8.583" cy="8.583" rx="6.583" ry="6.583" fill="none"/>
    </g>
  </g>
</svg>
