<svg xmlns="http://www.w3.org/2000/svg" xmlns:xlink="http://www.w3.org/1999/xlink" width="85" height="85" viewBox="0 0 85 85">
  <defs>
    <clipPath id="clip-path">
      <rect id="Rect치ngulo_34019" data-name="Rect치ngulo 34019" width="65" height="65" transform="translate(190 4713)" fill="#fff" stroke="#707070" stroke-width="1"/>
    </clipPath>
  </defs>
  <g id="Grupo_83556" data-name="Grupo 83556" transform="translate(-180 -4703)">
    <rect id="Rect치ngulo_33792" data-name="Rect치ngulo 33792" width="85" height="85" rx="5" transform="translate(180 4703)" fill="#465fc4"/>
    <g id="Grupo_80313" data-name="Grupo 80313" transform="translate(187.443 4717.179)">
      <g id="Grupo_80111" data-name="Grupo 80111" transform="translate(31.991)">
        <path id="Trazado_113526" data-name="Trazado 113526" d="M294.882,1043.023l-22.411-22.412a1.119,1.119,0,0,1,0-1.583h0a1.12,1.12,0,0,1,1.584,0l22.411,22.411a1.119,1.119,0,0,1,0,1.584h0A1.12,1.12,0,0,1,294.882,1043.023Z" transform="translate(-272.143 -1018.7)" fill="#ffc721"/>
      </g>
      <g id="Grupo_80112" data-name="Grupo 80112" transform="translate(42.988 3)">
        <path id="Trazado_113527" data-name="Trazado 113527" d="M345.734,1046.715l-8.414-8.414a1.12,1.12,0,0,1,0-1.583h0a1.119,1.119,0,0,1,1.584,0l8.413,8.413a1.119,1.119,0,0,1,0,1.584h0A1.119,1.119,0,0,1,345.734,1046.715Z" transform="translate(-336.993 -1036.39)" fill="#ffc721"/>
      </g>
      <g id="Grupo_80113" data-name="Grupo 80113" transform="translate(23.994)">
        <path id="Trazado_113528" data-name="Trazado 113528" d="M255.724,1051.018l-30.407-30.407a1.118,1.118,0,0,1,0-1.583h0a1.119,1.119,0,0,1,1.583,0l30.407,30.407a1.119,1.119,0,0,1,0,1.583h0A1.119,1.119,0,0,1,255.724,1051.018Z" transform="translate(-224.989 -1018.7)" fill="#ffc721"/>
      </g>
      <g id="Grupo_80114" data-name="Grupo 80114" transform="translate(17.667 1.668)">
        <path id="Trazado_113529" data-name="Trazado 113529" d="M223.07,1065.515,188,1030.449a1.119,1.119,0,0,1,0-1.583h0a1.118,1.118,0,0,1,1.583,0l35.067,35.067a1.12,1.12,0,0,1,0,1.583h0A1.119,1.119,0,0,1,223.07,1065.515Z" transform="translate(-187.675 -1028.537)" fill="#ffc721"/>
      </g>
      <g id="Grupo_80115" data-name="Grupo 80115" transform="translate(12.407 4.405)">
        <path id="Trazado_113530" data-name="Trazado 113530" d="M194.58,1084.177l-37.589-37.589a1.12,1.12,0,0,1,0-1.584h0a1.12,1.12,0,0,1,1.583,0l37.589,37.59a1.12,1.12,0,0,1,0,1.583h0A1.119,1.119,0,0,1,194.58,1084.177Z" transform="translate(-156.663 -1044.677)" fill="#ffc721"/>
      </g>
      <g id="Grupo_80116" data-name="Grupo 80116" transform="translate(8.002 8.002)">
        <path id="Trazado_113531" data-name="Trazado 113531" d="M169.412,1106.195l-38.4-38.4a1.121,1.121,0,0,1,0-1.584h0a1.12,1.12,0,0,1,1.584,0l38.4,38.4a1.121,1.121,0,0,1,0,1.584h0A1.121,1.121,0,0,1,169.412,1106.195Z" transform="translate(-130.686 -1065.885)" fill="#ffc721"/>
      </g>
      <g id="Grupo_80117" data-name="Grupo 80117" transform="translate(4.406 12.407)">
        <path id="Trazado_113532" data-name="Trazado 113532" d="M147.4,1131.364l-37.589-37.589a1.12,1.12,0,0,1,0-1.583h0a1.119,1.119,0,0,1,1.584,0l37.589,37.589a1.119,1.119,0,0,1,0,1.584h0A1.12,1.12,0,0,1,147.4,1131.364Z" transform="translate(-109.478 -1091.863)" fill="#ffc721"/>
      </g>
      <g id="Grupo_80118" data-name="Grupo 80118" transform="translate(1.668 17.666)">
        <path id="Trazado_113533" data-name="Trazado 113533" d="M128.731,1159.854l-35.067-35.067a1.119,1.119,0,0,1,0-1.583h0a1.118,1.118,0,0,1,1.583,0l35.067,35.066a1.12,1.12,0,0,1,0,1.584h0A1.118,1.118,0,0,1,128.731,1159.854Z" transform="translate(-93.336 -1122.875)" fill="#ffc721"/>
      </g>
      <g id="Grupo_80119" data-name="Grupo 80119" transform="translate(0 23.994)">
        <path id="Trazado_113534" data-name="Trazado 113534" d="M114.235,1192.508,83.827,1162.1a1.119,1.119,0,0,1,0-1.583h0a1.118,1.118,0,0,1,1.583,0l30.408,30.408a1.119,1.119,0,0,1,0,1.583h0A1.119,1.119,0,0,1,114.235,1192.508Z" transform="translate(-83.499 -1160.189)" fill="#ffc721"/>
      </g>
      <g id="Grupo_80120" data-name="Grupo 80120" transform="translate(0 31.991)">
        <path id="Trazado_113535" data-name="Trazado 113535" d="M106.238,1231.665l-22.411-22.411a1.119,1.119,0,0,1,0-1.584h0a1.119,1.119,0,0,1,1.583,0l22.411,22.411a1.12,1.12,0,0,1,0,1.583h0A1.12,1.12,0,0,1,106.238,1231.665Z" transform="translate(-83.499 -1207.343)" fill="#ffc721"/>
      </g>
      <g id="Grupo_80121" data-name="Grupo 80121" transform="translate(3 42.988)">
        <path id="Trazado_113536" data-name="Trazado 113536" d="M109.932,1282.517l-8.413-8.413a1.12,1.12,0,0,1,0-1.584h0a1.12,1.12,0,0,1,1.583,0l8.414,8.414a1.12,1.12,0,0,1,0,1.583h0A1.119,1.119,0,0,1,109.932,1282.517Z" transform="translate(-101.191 -1272.193)" fill="#ffc721"/>
      </g>
    </g>
    <g id="Enmascarar_grupo_71" data-name="Enmascarar grupo 71" clip-path="url(#clip-path)">
      <g id="duracion" transform="translate(190 4713)">
        <g id="Grupo_83574" data-name="Grupo 83574">
          <g id="Grupo_83561" data-name="Grupo 83561">
            <circle id="Elipse_4755" data-name="Elipse 4755" cx="26.104" cy="26.104" r="26.104" transform="translate(0.966 11.84)" fill="#fee45a"/>
          </g>
          <g id="Grupo_83562" data-name="Grupo 83562">
            <path id="Trazado_114901" data-name="Trazado 114901" d="M53.174,37.944a26.122,26.122,0,0,1-33.668,24.99A26.11,26.11,0,0,0,31.829,12.273,26.112,26.112,0,0,1,53.174,37.944Z" fill="#fed402"/>
          </g>
          <g id="Grupo_83563" data-name="Grupo 83563">
            <circle id="Elipse_4756" data-name="Elipse 4756" cx="21.406" cy="21.406" r="21.406" transform="translate(5.664 16.538)" fill="#f9f3f1"/>
          </g>
          <g id="Grupo_83564" data-name="Grupo 83564">
            <path id="Trazado_114902" data-name="Trazado 114902" d="M48.477,37.944A21.416,21.416,0,0,1,17.7,57.2,21.412,21.412,0,0,0,33.9,17.653,21.414,21.414,0,0,1,48.477,37.944Z" fill="#efe2dd"/>
          </g>
          <g id="Grupo_83565" data-name="Grupo 83565">
            <path id="Trazado_114903" data-name="Trazado 114903" d="M28.911,7.285H25.229A1.326,1.326,0,0,1,23.9,5.959V2.277A1.326,1.326,0,0,1,25.229.951h3.681a1.326,1.326,0,0,1,1.326,1.326V5.959A1.326,1.326,0,0,1,28.911,7.285Z" fill="#7ca1b1"/>
          </g>
          <g id="Grupo_83566" data-name="Grupo 83566">
            <path id="Trazado_114904" data-name="Trazado 114904" d="M30.237,2.277V5.958a1.327,1.327,0,0,1-1.327,1.327H26.374A1.327,1.327,0,0,0,27.7,5.958V2.277A1.327,1.327,0,0,0,26.374.951h2.537a1.327,1.327,0,0,1,1.327,1.325Z" fill="#678d98"/>
          </g>
          <g id="Grupo_83567" data-name="Grupo 83567">
            <circle id="Elipse_4757" data-name="Elipse 4757" cx="3.182" cy="3.182" r="3.182" transform="translate(23.888 34.763)" fill="#7ca1b1"/>
          </g>
          <g id="Grupo_83568" data-name="Grupo 83568">
            <path id="Trazado_114905" data-name="Trazado 114905" d="M30.251,37.944a3.18,3.18,0,0,1-5.559,2.113,3.18,3.18,0,0,0,2.32-5.294h.058a3.181,3.181,0,0,1,3.181,3.182Z" fill="#678d98"/>
          </g>
          <g id="Grupo_83573" data-name="Grupo 83573">
            <g id="Grupo_83569" data-name="Grupo 83569">
              <path id="Trazado_114906" data-name="Trazado 114906" d="M64.034,52.207V48.459a.435.435,0,0,0-.436-.436H60.89a.619.619,0,0,1-.6-.456,10.286,10.286,0,0,0-.966-2.332.62.62,0,0,1,.1-.745L61.212,42.7a.619.619,0,0,0,0-.875l-2.39-2.39a.619.619,0,0,0-.875,0l-1.786,1.786a.619.619,0,0,1-.745.1,10.28,10.28,0,0,0-2.332-.966.619.619,0,0,1-.456-.6v-2.57a.574.574,0,0,0-.574-.574H48.583a.574.574,0,0,0-.574.574v2.57a.619.619,0,0,1-.456.6,10.286,10.286,0,0,0-2.332.966.62.62,0,0,1-.745-.1L42.69,39.439a.619.619,0,0,0-.875,0l-2.39,2.39a.619.619,0,0,0,0,.875L41.21,44.49a.619.619,0,0,1,.1.745,10.28,10.28,0,0,0-.966,2.332.619.619,0,0,1-.6.456H37.221a.619.619,0,0,0-.619.619v3.38a.619.619,0,0,0,.619.619h2.525a.619.619,0,0,1,.6.456,10.286,10.286,0,0,0,.966,2.332.62.62,0,0,1-.1.745l-1.786,1.786a.619.619,0,0,0,0,.875l2.39,2.39a.619.619,0,0,0,.875,0l1.786-1.786a.619.619,0,0,1,.745-.1,10.28,10.28,0,0,0,2.332.966.619.619,0,0,1,.456.6v2.233a.911.911,0,0,0,.911.911h2.8a.911.911,0,0,0,.911-.911V60.9a.619.619,0,0,1,.456-.6,10.286,10.286,0,0,0,2.332-.966.62.62,0,0,1,.745.1l1.786,1.786a.619.619,0,0,0,.875,0l2.39-2.39a.619.619,0,0,0,0-.875l-1.786-1.786a.619.619,0,0,1-.1-.745,10.28,10.28,0,0,0,.966-2.332.619.619,0,0,1,.6-.456H63.6a.435.435,0,0,0,.436-.435Z" fill="#7ca1b1"/>
            </g>
            <g id="Grupo_83570" data-name="Grupo 83570">
              <path id="Trazado_114907" data-name="Trazado 114907" d="M64.034,48.46v3.746a.436.436,0,0,1-.436.436H60.89a.62.62,0,0,0-.6.457,10.3,10.3,0,0,1-.966,2.332.621.621,0,0,0,.1.746l1.786,1.785a.619.619,0,0,1,0,.875l-2.39,2.39a.621.621,0,0,1-.876,0l-1.785-1.785a.62.62,0,0,0-.744-.1,10.232,10.232,0,0,1-2.333.967.618.618,0,0,0-.456.6v2.232a.911.911,0,0,1-.911.911H49.7a.619.619,0,0,0,.619-.619V60.321a1.693,1.693,0,0,1,1.241-1.638,11.1,11.1,0,0,0,3.878-1.81A8.522,8.522,0,0,0,54.5,42.7a13.424,13.424,0,0,0-2.941-1.238,1.7,1.7,0,0,1-1.237-1.637V37.237a.619.619,0,0,0-.619-.619h2.354a.574.574,0,0,1,.574.574v2.57a.619.619,0,0,0,.456.6,10.287,10.287,0,0,1,2.333.966.618.618,0,0,0,.744-.1l1.785-1.785a.621.621,0,0,1,.876,0l2.39,2.39a.619.619,0,0,1,0,.875l-1.786,1.785a.62.62,0,0,0-.1.744,10.341,10.341,0,0,1,.966,2.333.62.62,0,0,0,.6.457H63.6a.435.435,0,0,1,.435.435Z" fill="#678d98"/>
            </g>
            <g id="Grupo_83571" data-name="Grupo 83571">
              <circle id="Elipse_4758" data-name="Elipse 4758" cx="6.411" cy="6.411" r="6.411" transform="translate(43.907 43.922)" fill="#f9f3f1"/>
            </g>
            <g id="Grupo_83572" data-name="Grupo 83572">
              <path id="Trazado_114908" data-name="Trazado 114908" d="M56.729,50.333a6.413,6.413,0,0,1-9.572,5.579,6.678,6.678,0,0,0,.809.05,6.412,6.412,0,0,0,3.162-11.989,6.413,6.413,0,0,1,5.6,6.36Z" fill="#efe2dd"/>
            </g>
          </g>
        </g>
        <g id="Grupo_83575" data-name="Grupo 83575">
          <path id="Trazado_114909" data-name="Trazado 114909" d="M28.021,33.923V26.238a.951.951,0,1,0-1.9,0v7.686a4.133,4.133,0,1,0,1.9,0Zm-.951,6.252A2.231,2.231,0,1,1,29.3,37.944,2.233,2.233,0,0,1,27.07,40.175Z"/>
          <circle id="Elipse_4759" data-name="Elipse 4759" cx="0.951" cy="0.951" r="0.951" transform="matrix(0.383, -0.924, 0.924, 0.383, 25.838, 21.183)"/>
          <circle id="Elipse_4760" data-name="Elipse 4760" cx="0.951" cy="0.951" r="0.951" transform="translate(25.933 54.263) rotate(-13.3)"/>
          <path id="Trazado_114910" data-name="Trazado 114910" d="M18.014,22.141a.951.951,0,1,0,1.3.348A.951.951,0,0,0,18.014,22.141Z"/>
          <circle id="Elipse_4761" data-name="Elipse 4761" cx="0.951" cy="0.951" r="0.951" transform="translate(11.048 28.574) rotate(-15.009)"/>
          <circle id="Elipse_4762" data-name="Elipse 4762" cx="0.951" cy="0.951" r="0.951" transform="translate(8.771 37.109) rotate(-13.3)"/>
          <circle id="Elipse_4763" data-name="Elipse 4763" cx="0.951" cy="0.951" r="0.951" transform="translate(10.907 46.048) rotate(-30.207)"/>
          <circle id="Elipse_4764" data-name="Elipse 4764" cx="0.951" cy="0.951" r="0.951" transform="translate(40.778 29.921) rotate(-74.991)"/>
          <circle id="Elipse_4765" data-name="Elipse 4765" cx="0.951" cy="0.951" r="0.951" transform="translate(17.138 52.861) rotate(-52.683)"/>
          <path id="Trazado_114911" data-name="Trazado 114911" d="M36.475,23.44a.951.951,0,1,0-1.3.348A.951.951,0,0,0,36.475,23.44Z"/>
          <path id="Trazado_114912" data-name="Trazado 114912" d="M56.663,49.007a.951.951,0,0,0-.894,1c.006.106.009.214.009.321a5.46,5.46,0,1,1-5.46-5.46A5.408,5.408,0,0,1,54.3,46.6a.951.951,0,0,0,1.387-1.3,7.362,7.362,0,1,0,1.992,5.035c0-.144,0-.289-.013-.432A.951.951,0,0,0,56.663,49.007Z"/>
          <path id="Trazado_114913" data-name="Trazado 114913" d="M63.6,47.073H61.141a11.25,11.25,0,0,0-.865-2.087l1.608-1.608a1.57,1.57,0,0,0,0-2.221l-2.39-2.39a1.572,1.572,0,0,0-2.221,0l-1.608,1.608a11.244,11.244,0,0,0-1.6-.7c.037-.571.057-1.147.057-1.727a27.087,27.087,0,0,0-26.1-27.037V8.236h.89a2.28,2.28,0,0,0,2.277-2.277V2.277A2.28,2.28,0,0,0,28.911,0H25.23a2.28,2.28,0,0,0-2.277,2.277V5.959A2.28,2.28,0,0,0,25.23,8.236h.89v2.671a26.953,26.953,0,0,0-7.943,1.478.951.951,0,0,0,.625,1.8A25.172,25.172,0,0,1,52.119,35.669c-.022,0-.044,0-.066,0H49.312a22.379,22.379,0,1,0-9.742,20.8l-.818.818a1.572,1.572,0,0,0,0,2.221l.458.458A25.153,25.153,0,1,1,14.961,15.892a.951.951,0,1,0-.917-1.667A27.055,27.055,0,1,0,40.606,61.362l.537.537a1.572,1.572,0,0,0,2.221,0l1.608-1.608a11.254,11.254,0,0,0,2.087.865v1.982A1.864,1.864,0,0,0,48.92,65h2.8a1.864,1.864,0,0,0,1.862-1.862V61.156a11.25,11.25,0,0,0,2.087-.865L57.274,61.9a1.572,1.572,0,0,0,2.221,0l2.39-2.39a1.57,1.57,0,0,0,0-2.221L60.276,55.68a11.248,11.248,0,0,0,.865-2.087H63.6a1.388,1.388,0,0,0,1.387-1.387V48.46A1.388,1.388,0,0,0,63.6,47.073ZM25.23,6.333a.375.375,0,0,1-.375-.375V2.277A.375.375,0,0,1,25.23,1.9h3.681a.375.375,0,0,1,.375.375V5.959a.375.375,0,0,1-.375.375ZM27.07,58.4A20.455,20.455,0,1,1,47.448,36.176a1.517,1.517,0,0,0-.39,1.015v2.32a11.258,11.258,0,0,0-2.087.865l-1.608-1.608a1.572,1.572,0,0,0-2.221,0l-2.39,2.39a1.572,1.572,0,0,0,0,2.221l1.608,1.608a11.246,11.246,0,0,0-.865,2.087H37.222a1.572,1.572,0,0,0-1.57,1.57v3.38a1.572,1.572,0,0,0,1.57,1.57H39.5c.047.157.1.313.154.468A20.35,20.35,0,0,1,27.07,58.4Zm36.013-6.709H60.89a1.575,1.575,0,0,0-1.513,1.154,9.342,9.342,0,0,1-.877,2.117,1.576,1.576,0,0,0,.254,1.886L60.3,58.4l-1.92,1.92-1.551-1.551a1.576,1.576,0,0,0-1.886-.254,9.348,9.348,0,0,1-2.117.877A1.575,1.575,0,0,0,51.676,60.9V63.1H48.961V60.9a1.575,1.575,0,0,0-1.154-1.513,9.346,9.346,0,0,1-2.117-.877,1.576,1.576,0,0,0-1.886.254l-1.551,1.551-1.92-1.92,1.551-1.551a1.576,1.576,0,0,0,.254-1.886,9.346,9.346,0,0,1-.877-2.117,1.576,1.576,0,0,0-1.513-1.154H37.554V48.975h2.193a1.575,1.575,0,0,0,1.513-1.154,9.347,9.347,0,0,1,.877-2.117,1.576,1.576,0,0,0-.254-1.886l-1.551-1.551,1.92-1.92L43.8,41.9a1.575,1.575,0,0,0,1.886.254,9.348,9.348,0,0,1,2.117-.877,1.575,1.575,0,0,0,1.154-1.513V37.569h2.716v2.193a1.575,1.575,0,0,0,1.154,1.513,9.346,9.346,0,0,1,2.117.877,1.576,1.576,0,0,0,1.886-.254l1.551-1.551,1.92,1.92-1.551,1.551A1.576,1.576,0,0,0,58.5,45.7a9.344,9.344,0,0,1,.877,2.117,1.575,1.575,0,0,0,1.513,1.154h2.193v2.716Z"/>
        </g>
      </g>
    </g>
    <g id="Elipse_4731" data-name="Elipse 4731" transform="translate(190 4765.238)" fill="none" stroke="#f9931f" stroke-width="4">
      <ellipse cx="8.583" cy="8.583" rx="8.583" ry="8.583" stroke="none"/>
      <ellipse cx="8.583" cy="8.583" rx="6.583" ry="6.583" fill="none"/>
    </g>
  </g>
</svg>
