<svg xmlns="http://www.w3.org/2000/svg" xmlns:xlink="http://www.w3.org/1999/xlink" width="85" height="85" viewBox="0 0 85 85">
  <defs>
    <clipPath id="clip-path">
      <rect id="Rectángulo_34019" data-name="Rectángulo 34019" width="65" height="65" transform="translate(190 4713)" fill="#fff" stroke="#707070" stroke-width="1"/>
    </clipPath>
  </defs>
  <g id="Grupo_83557" data-name="Grupo 83557" transform="translate(-180 -4703)">
    <rect id="Rectángulo_33792" data-name="Rectángulo 33792" width="85" height="85" rx="5" transform="translate(180 4703)" fill="#465fc4"/>
    <g id="Grupo_80313" data-name="Grupo 80313" transform="translate(187.443 4717.179)">
      <g id="Grupo_80111" data-name="Grupo 80111" transform="translate(31.991)">
        <path id="Trazado_113526" data-name="Trazado 113526" d="M294.882,1043.023l-22.411-22.412a1.119,1.119,0,0,1,0-1.583h0a1.12,1.12,0,0,1,1.584,0l22.411,22.411a1.119,1.119,0,0,1,0,1.584h0A1.12,1.12,0,0,1,294.882,1043.023Z" transform="translate(-272.143 -1018.7)" fill="#ffc721"/>
      </g>
      <g id="Grupo_80112" data-name="Grupo 80112" transform="translate(42.988 3)">
        <path id="Trazado_113527" data-name="Trazado 113527" d="M345.734,1046.715l-8.414-8.414a1.12,1.12,0,0,1,0-1.583h0a1.119,1.119,0,0,1,1.584,0l8.413,8.413a1.119,1.119,0,0,1,0,1.584h0A1.119,1.119,0,0,1,345.734,1046.715Z" transform="translate(-336.993 -1036.39)" fill="#ffc721"/>
      </g>
      <g id="Grupo_80113" data-name="Grupo 80113" transform="translate(23.994)">
        <path id="Trazado_113528" data-name="Trazado 113528" d="M255.724,1051.018l-30.407-30.407a1.118,1.118,0,0,1,0-1.583h0a1.119,1.119,0,0,1,1.583,0l30.407,30.407a1.119,1.119,0,0,1,0,1.583h0A1.119,1.119,0,0,1,255.724,1051.018Z" transform="translate(-224.989 -1018.7)" fill="#ffc721"/>
      </g>
      <g id="Grupo_80114" data-name="Grupo 80114" transform="translate(17.667 1.668)">
        <path id="Trazado_113529" data-name="Trazado 113529" d="M223.07,1065.515,188,1030.449a1.119,1.119,0,0,1,0-1.583h0a1.118,1.118,0,0,1,1.583,0l35.067,35.067a1.12,1.12,0,0,1,0,1.583h0A1.119,1.119,0,0,1,223.07,1065.515Z" transform="translate(-187.675 -1028.537)" fill="#ffc721"/>
      </g>
      <g id="Grupo_80115" data-name="Grupo 80115" transform="translate(12.407 4.405)">
        <path id="Trazado_113530" data-name="Trazado 113530" d="M194.58,1084.177l-37.589-37.589a1.12,1.12,0,0,1,0-1.584h0a1.12,1.12,0,0,1,1.583,0l37.589,37.59a1.12,1.12,0,0,1,0,1.583h0A1.119,1.119,0,0,1,194.58,1084.177Z" transform="translate(-156.663 -1044.677)" fill="#ffc721"/>
      </g>
      <g id="Grupo_80116" data-name="Grupo 80116" transform="translate(8.002 8.002)">
        <path id="Trazado_113531" data-name="Trazado 113531" d="M169.412,1106.195l-38.4-38.4a1.121,1.121,0,0,1,0-1.584h0a1.12,1.12,0,0,1,1.584,0l38.4,38.4a1.121,1.121,0,0,1,0,1.584h0A1.121,1.121,0,0,1,169.412,1106.195Z" transform="translate(-130.686 -1065.885)" fill="#ffc721"/>
      </g>
      <g id="Grupo_80117" data-name="Grupo 80117" transform="translate(4.406 12.407)">
        <path id="Trazado_113532" data-name="Trazado 113532" d="M147.4,1131.364l-37.589-37.589a1.12,1.12,0,0,1,0-1.583h0a1.119,1.119,0,0,1,1.584,0l37.589,37.589a1.119,1.119,0,0,1,0,1.584h0A1.12,1.12,0,0,1,147.4,1131.364Z" transform="translate(-109.478 -1091.863)" fill="#ffc721"/>
      </g>
      <g id="Grupo_80118" data-name="Grupo 80118" transform="translate(1.668 17.666)">
        <path id="Trazado_113533" data-name="Trazado 113533" d="M128.731,1159.854l-35.067-35.067a1.119,1.119,0,0,1,0-1.583h0a1.118,1.118,0,0,1,1.583,0l35.067,35.066a1.12,1.12,0,0,1,0,1.584h0A1.118,1.118,0,0,1,128.731,1159.854Z" transform="translate(-93.336 -1122.875)" fill="#ffc721"/>
      </g>
      <g id="Grupo_80119" data-name="Grupo 80119" transform="translate(0 23.994)">
        <path id="Trazado_113534" data-name="Trazado 113534" d="M114.235,1192.508,83.827,1162.1a1.119,1.119,0,0,1,0-1.583h0a1.118,1.118,0,0,1,1.583,0l30.408,30.408a1.119,1.119,0,0,1,0,1.583h0A1.119,1.119,0,0,1,114.235,1192.508Z" transform="translate(-83.499 -1160.189)" fill="#ffc721"/>
      </g>
      <g id="Grupo_80120" data-name="Grupo 80120" transform="translate(0 31.991)">
        <path id="Trazado_113535" data-name="Trazado 113535" d="M106.238,1231.665l-22.411-22.411a1.119,1.119,0,0,1,0-1.584h0a1.119,1.119,0,0,1,1.583,0l22.411,22.411a1.12,1.12,0,0,1,0,1.583h0A1.12,1.12,0,0,1,106.238,1231.665Z" transform="translate(-83.499 -1207.343)" fill="#ffc721"/>
      </g>
      <g id="Grupo_80121" data-name="Grupo 80121" transform="translate(3 42.988)">
        <path id="Trazado_113536" data-name="Trazado 113536" d="M109.932,1282.517l-8.413-8.413a1.12,1.12,0,0,1,0-1.584h0a1.12,1.12,0,0,1,1.583,0l8.414,8.414a1.12,1.12,0,0,1,0,1.583h0A1.119,1.119,0,0,1,109.932,1282.517Z" transform="translate(-101.191 -1272.193)" fill="#ffc721"/>
      </g>
    </g>
    <g id="Enmascarar_grupo_72" data-name="Enmascarar grupo 72" clip-path="url(#clip-path)">
      <g id="FILLED_OUTLINE" transform="translate(187.838 4710.833)">
        <path id="Trazado_114914" data-name="Trazado 114914" d="M18.414,48.744V43.328A16.248,16.248,0,0,1,34.662,27.08h0A16.248,16.248,0,0,1,50.91,43.328v5.416H66.075V44.411A31.413,31.413,0,0,0,34.662,13h0A31.413,31.413,0,0,0,3.25,44.411v4.333Z" fill="#269dc2"/>
        <circle id="Elipse_4766" data-name="Elipse 4766" cx="9.749" cy="9.749" r="9.749" transform="translate(24.913 3.25)" fill="#8bb276"/>
        <path id="Trazado_114915" data-name="Trazado 114915" d="M26.18,38.449,24.3,37.374a11.855,11.855,0,0,1,10.268-5.962h.191a11.728,11.728,0,0,1,8.472,3.577L41.677,36.5a9.579,9.579,0,0,0-6.919-2.922h-.191a9.684,9.684,0,0,0-8.387,4.87Z" fill="#62b8d3"/>
        <path id="Trazado_114916" data-name="Trazado 114916" d="M24.913,43.232H22.747a11.818,11.818,0,0,1,.519-3.472l2.071.636a9.66,9.66,0,0,0-.423,2.836Z" fill="#62b8d3"/>
        <rect id="Rectángulo_34021" data-name="Rectángulo 34021" width="4.333" height="10.832" transform="translate(14.082 53.077)" fill="#008cb7"/>
        <path id="Trazado_114917" data-name="Trazado 114917" d="M11.915,55.243l-1.532-1.532a2.166,2.166,0,0,0-1.532-.634H6.245a2.166,2.166,0,0,0-2.15,1.9l-.542,4.333A2.166,2.166,0,0,0,5.7,61.742H7.582l-.6,1.2a2.166,2.166,0,0,0,1.938,3.135h.827l2.166-4.333h2.166v-6.5Z" fill="#ffcbb1"/>
        <path id="Trazado_114918" data-name="Trazado 114918" d="M58.493,53.077l-2.166,4.333H51.993l3.25,3.25L54.16,66.075l4.333-3.25,4.333,3.25-1.083-5.416,3.25-3.25H60.659Z" fill="#f4aa8e"/>
        <path id="Trazado_114919" data-name="Trazado 114919" d="M42.012,6.6l-8.347,9.043L31.2,12.348l-1.733,1.3,3.25,4.333a1.083,1.083,0,0,0,.811.432h.055a1.083,1.083,0,0,0,.8-.348l8.9-9.639A9.766,9.766,0,0,0,42.012,6.6Z" fill="#ccdcc2"/>
        <path id="Trazado_114920" data-name="Trazado 114920" d="M13.231,21.448q-.792.739-1.532,1.532L21.94,33.221a16.341,16.341,0,0,1,1.46-1.6Z" fill="#00779c"/>
        <path id="Trazado_114921" data-name="Trazado 114921" d="M42.94,49.707l23.135-30.86-3.467-2.6-3.249,4.334-4.334-3.249-2.6,3.467,4.334,3.249-2.6,3.467-2.6-1.949-2.6,3.467,2.6,1.949L39.474,47.108a4.37,4.37,0,0,1-4.015,1.7,8.665,8.665,0,1,0,6.948,5.163,4.288,4.288,0,0,1,.533-4.263ZM37.921,60.015a4.333,4.333,0,1,1-.868-6.066,4.333,4.333,0,0,1,.868,6.066Z" fill="#9cbd8a"/>
        <path id="Trazado_114922" data-name="Trazado 114922" d="M34.567,33.579h.191A9.579,9.579,0,0,1,41.677,36.5l1.553-1.511a11.728,11.728,0,0,0-8.472-3.577h-.191A11.855,11.855,0,0,0,24.3,37.374l1.881,1.075a9.684,9.684,0,0,1,8.387-4.87Z"/>
        <path id="Trazado_114923" data-name="Trazado 114923" d="M22.747,43.232h2.166a9.66,9.66,0,0,1,.423-2.836l-2.071-.636a11.818,11.818,0,0,0-.519,3.472Z"/>
        <path id="Trazado_114924" data-name="Trazado 114924" d="M18.414,51.993H14.082A1.083,1.083,0,0,0,13,53.077V54.16h-.635l-1.214-1.215a3.228,3.228,0,0,0-2.3-.952H6.245A3.255,3.255,0,0,0,3.021,54.84l-.542,4.333A3.25,3.25,0,0,0,5.7,62.825h.153a3.25,3.25,0,0,0,3.064,4.333h.827a1.083,1.083,0,0,0,.969-.6l1.867-3.734H13v1.083a1.083,1.083,0,0,0,1.083,1.083h4.333A1.083,1.083,0,0,0,19.5,63.909V53.077a1.083,1.083,0,0,0-1.083-1.083ZM13,60.659H11.915a1.083,1.083,0,0,0-.969.6L9.079,64.992H8.921a1.083,1.083,0,0,1-.969-1.568l.6-1.2a1.083,1.083,0,0,0-.969-1.568H5.7a1.083,1.083,0,0,1-1.075-1.218l.542-4.333a1.085,1.085,0,0,1,1.075-.949H8.851a1.076,1.076,0,0,1,.766.317l1.532,1.532a1.083,1.083,0,0,0,.766.317H13Zm4.333,2.166H15.165V54.16h2.166Z"/>
        <path id="Trazado_114925" data-name="Trazado 114925" d="M64.992,56.326H61.328l-1.867-3.734a1.083,1.083,0,0,0-1.938,0l-1.867,3.734H51.993a1.083,1.083,0,0,0-.766,1.849l2.84,2.84L53.1,65.862a1.083,1.083,0,0,0,1.712,1.079l3.683-2.762,3.683,2.762a1.083,1.083,0,0,0,1.712-1.079l-.969-4.848,2.84-2.84a1.083,1.083,0,0,0-.766-1.849Zm-4.016,3.567a1.083,1.083,0,0,0-.3.978l.527,2.636-2.065-1.548a1.083,1.083,0,0,0-1.3,0l-2.065,1.548.527-2.636a1.083,1.083,0,0,0-.3-.978l-1.4-1.4h1.718a1.083,1.083,0,0,0,.969-.6l1.2-2.4,1.2,2.4a1.083,1.083,0,0,0,.969.6h1.718Z"/>
        <path id="Trazado_114926" data-name="Trazado 114926" d="M61.739,26.437l5.2-6.94a1.083,1.083,0,0,0-.217-1.516l-3.467-2.6a1.083,1.083,0,0,0-1.516.217l-2.6,3.467-3.467-2.6a1.083,1.083,0,0,0-1.517.217L53.32,17.8a32.293,32.293,0,0,0-7.855-4.047c.017-.25.029-.5.029-.757a10.772,10.772,0,0,0-1.915-6.151,1.083,1.083,0,0,0-1.687-.119l-8.227,8.912L31.2,12.348l-1.733,1.3,3.25,4.333a1.083,1.083,0,0,0,1.662.085L42.49,9.275a8.669,8.669,0,1,1-3.014-3.483l1.205-1.8A10.833,10.833,0,0,0,23.83,13c0,.255.012.506.029.757A32.508,32.508,0,0,0,2.166,44.411v4.333A1.083,1.083,0,0,0,3.25,49.827H18.414A1.083,1.083,0,0,0,19.5,48.744V43.328A15.166,15.166,0,0,1,47.272,34.9L38.607,46.459a3.3,3.3,0,0,1-3.023,1.272,9.75,9.75,0,1,0-1.154,19.435,9.958,9.958,0,0,0,1.183-.071,9.664,9.664,0,0,0,6.643-3.832A9.778,9.778,0,0,0,43.4,53.54a3.206,3.206,0,0,1,.406-3.183h0L49.8,42.368c.02.319.031.639.031.959v5.416a1.083,1.083,0,0,0,1.083,1.083H66.075a1.083,1.083,0,0,0,1.083-1.083V44.411a32.248,32.248,0,0,0-5.419-17.974ZM17.331,43.328v4.333h-13v-3.25a30.088,30.088,0,0,1,5.9-17.984,30.929,30.929,0,0,1,2.224-2.685l8.714,8.714a17.248,17.248,0,0,0-3.845,10.871ZM34.662,26a17.271,17.271,0,0,0-12.022,4.86l-8.649-8.649a30.092,30.092,0,0,1,10.243-6.286,10.829,10.829,0,0,0,20.856,0,30.134,30.134,0,0,1,6.93,3.615l-.459.613a1.083,1.083,0,0,0,.217,1.516l3.467,2.6L53.945,26l-1.733-1.3a1.083,1.083,0,0,0-1.516.217l-2.6,3.467a1.083,1.083,0,0,0,.217,1.516l1.733,1.3-1.41,1.881A17.4,17.4,0,0,0,34.662,26Zm7.411,23.061h0a5.377,5.377,0,0,0-.661,5.342,7.582,7.582,0,1,1-6.078-4.517,5.478,5.478,0,0,0,5.006-2.125L52.43,31.632a1.083,1.083,0,0,0-.217-1.516l-1.733-1.3,1.3-1.733,1.733,1.3a1.083,1.083,0,0,0,1.517-.217l2.6-3.467a1.083,1.083,0,0,0-.217-1.516l-3.467-2.6,1.3-1.733,3.467,2.6a1.083,1.083,0,0,0,1.516-.217l2.6-3.467,1.733,1.3Zm22.918-1.4h-13V43.328a17.458,17.458,0,0,0-.342-3.438l8.7-11.605a30.1,30.1,0,0,1,4.638,16.126Z"/>
        <path id="Trazado_114927" data-name="Trazado 114927" d="M37.7,53.082a5.416,5.416,0,1,0-3.26,9.751,5.5,5.5,0,0,0,.779-.056A5.416,5.416,0,0,0,37.7,53.082Zm-.649,6.283a3.25,3.25,0,1,1-3.06-5.166,3.3,3.3,0,0,1,.467-.033,3.25,3.25,0,0,1,2.593,5.2Z"/>
      </g>
    </g>
    <g id="Elipse_4731" data-name="Elipse 4731" transform="translate(190 4765.238)" fill="none" stroke="#f9931f" stroke-width="4">
      <ellipse cx="8.583" cy="8.583" rx="8.583" ry="8.583" stroke="none"/>
      <ellipse cx="8.583" cy="8.583" rx="6.583" ry="6.583" fill="none"/>
    </g>
  </g>
</svg>
