<svg xmlns="http://www.w3.org/2000/svg" xmlns:xlink="http://www.w3.org/1999/xlink" width="85" height="85" viewBox="0 0 85 85">
  <defs>
    <clipPath id="clip-path">
      <rect id="Rect치ngulo_34019" data-name="Rect치ngulo 34019" width="65" height="65" transform="translate(190 4713)" fill="#fff" stroke="#707070" stroke-width="1"/>
    </clipPath>
    <clipPath id="clip-path-2">
      <path id="path2466" d="M0-65H65V0H0Z"/>
    </clipPath>
  </defs>
  <g id="Grupo_83558" data-name="Grupo 83558" transform="translate(-180 -4703)">
    <rect id="Rect치ngulo_33792" data-name="Rect치ngulo 33792" width="85" height="85" rx="5" transform="translate(180 4703)" fill="#465fc4"/>
    <g id="Grupo_80313" data-name="Grupo 80313" transform="translate(187.443 4717.179)">
      <g id="Grupo_80111" data-name="Grupo 80111" transform="translate(31.991)">
        <path id="Trazado_113526" data-name="Trazado 113526" d="M294.882,1043.023l-22.411-22.412a1.119,1.119,0,0,1,0-1.583h0a1.12,1.12,0,0,1,1.584,0l22.411,22.411a1.119,1.119,0,0,1,0,1.584h0A1.12,1.12,0,0,1,294.882,1043.023Z" transform="translate(-272.143 -1018.7)" fill="#ffc721"/>
      </g>
      <g id="Grupo_80112" data-name="Grupo 80112" transform="translate(42.988 3)">
        <path id="Trazado_113527" data-name="Trazado 113527" d="M345.734,1046.715l-8.414-8.414a1.12,1.12,0,0,1,0-1.583h0a1.119,1.119,0,0,1,1.584,0l8.413,8.413a1.119,1.119,0,0,1,0,1.584h0A1.119,1.119,0,0,1,345.734,1046.715Z" transform="translate(-336.993 -1036.39)" fill="#ffc721"/>
      </g>
      <g id="Grupo_80113" data-name="Grupo 80113" transform="translate(23.994)">
        <path id="Trazado_113528" data-name="Trazado 113528" d="M255.724,1051.018l-30.407-30.407a1.118,1.118,0,0,1,0-1.583h0a1.119,1.119,0,0,1,1.583,0l30.407,30.407a1.119,1.119,0,0,1,0,1.583h0A1.119,1.119,0,0,1,255.724,1051.018Z" transform="translate(-224.989 -1018.7)" fill="#ffc721"/>
      </g>
      <g id="Grupo_80114" data-name="Grupo 80114" transform="translate(17.667 1.668)">
        <path id="Trazado_113529" data-name="Trazado 113529" d="M223.07,1065.515,188,1030.449a1.119,1.119,0,0,1,0-1.583h0a1.118,1.118,0,0,1,1.583,0l35.067,35.067a1.12,1.12,0,0,1,0,1.583h0A1.119,1.119,0,0,1,223.07,1065.515Z" transform="translate(-187.675 -1028.537)" fill="#ffc721"/>
      </g>
      <g id="Grupo_80115" data-name="Grupo 80115" transform="translate(12.407 4.405)">
        <path id="Trazado_113530" data-name="Trazado 113530" d="M194.58,1084.177l-37.589-37.589a1.12,1.12,0,0,1,0-1.584h0a1.12,1.12,0,0,1,1.583,0l37.589,37.59a1.12,1.12,0,0,1,0,1.583h0A1.119,1.119,0,0,1,194.58,1084.177Z" transform="translate(-156.663 -1044.677)" fill="#ffc721"/>
      </g>
      <g id="Grupo_80116" data-name="Grupo 80116" transform="translate(8.002 8.002)">
        <path id="Trazado_113531" data-name="Trazado 113531" d="M169.412,1106.195l-38.4-38.4a1.121,1.121,0,0,1,0-1.584h0a1.12,1.12,0,0,1,1.584,0l38.4,38.4a1.121,1.121,0,0,1,0,1.584h0A1.121,1.121,0,0,1,169.412,1106.195Z" transform="translate(-130.686 -1065.885)" fill="#ffc721"/>
      </g>
      <g id="Grupo_80117" data-name="Grupo 80117" transform="translate(4.406 12.407)">
        <path id="Trazado_113532" data-name="Trazado 113532" d="M147.4,1131.364l-37.589-37.589a1.12,1.12,0,0,1,0-1.583h0a1.119,1.119,0,0,1,1.584,0l37.589,37.589a1.119,1.119,0,0,1,0,1.584h0A1.12,1.12,0,0,1,147.4,1131.364Z" transform="translate(-109.478 -1091.863)" fill="#ffc721"/>
      </g>
      <g id="Grupo_80118" data-name="Grupo 80118" transform="translate(1.668 17.666)">
        <path id="Trazado_113533" data-name="Trazado 113533" d="M128.731,1159.854l-35.067-35.067a1.119,1.119,0,0,1,0-1.583h0a1.118,1.118,0,0,1,1.583,0l35.067,35.066a1.12,1.12,0,0,1,0,1.584h0A1.118,1.118,0,0,1,128.731,1159.854Z" transform="translate(-93.336 -1122.875)" fill="#ffc721"/>
      </g>
      <g id="Grupo_80119" data-name="Grupo 80119" transform="translate(0 23.994)">
        <path id="Trazado_113534" data-name="Trazado 113534" d="M114.235,1192.508,83.827,1162.1a1.119,1.119,0,0,1,0-1.583h0a1.118,1.118,0,0,1,1.583,0l30.408,30.408a1.119,1.119,0,0,1,0,1.583h0A1.119,1.119,0,0,1,114.235,1192.508Z" transform="translate(-83.499 -1160.189)" fill="#ffc721"/>
      </g>
      <g id="Grupo_80120" data-name="Grupo 80120" transform="translate(0 31.991)">
        <path id="Trazado_113535" data-name="Trazado 113535" d="M106.238,1231.665l-22.411-22.411a1.119,1.119,0,0,1,0-1.584h0a1.119,1.119,0,0,1,1.583,0l22.411,22.411a1.12,1.12,0,0,1,0,1.583h0A1.12,1.12,0,0,1,106.238,1231.665Z" transform="translate(-83.499 -1207.343)" fill="#ffc721"/>
      </g>
      <g id="Grupo_80121" data-name="Grupo 80121" transform="translate(3 42.988)">
        <path id="Trazado_113536" data-name="Trazado 113536" d="M109.932,1282.517l-8.413-8.413a1.12,1.12,0,0,1,0-1.584h0a1.12,1.12,0,0,1,1.583,0l8.414,8.414a1.12,1.12,0,0,1,0,1.583h0A1.119,1.119,0,0,1,109.932,1282.517Z" transform="translate(-101.191 -1272.193)" fill="#ffc721"/>
      </g>
    </g>
    <g id="Enmascarar_grupo_73" data-name="Enmascarar grupo 73" clip-path="url(#clip-path)">
      <g id="g2448" transform="translate(190 4778)">
        <g id="g2450" transform="translate(50.369 -14.123)">
          <path id="path2452" d="M0,0-3.035,3.035-23.422-17.351l3.035-3.035Z" fill="#cbc4cb"/>
        </g>
        <g id="g2454" transform="translate(29.983 -34.509)">
          <path id="path2456" d="M0,0H0L-3.035,3.035,17.351,23.422l1.487-1.487L-1.549,1.549Z" fill="#b5adb6"/>
        </g>
        <g id="g2458" transform="translate(50.369 -14.123)">
          <path id="path2460" d="M0,0-3.035,3.035-23.422-17.351l3.035-3.035Z" fill="none" stroke="#000" stroke-linecap="round" stroke-linejoin="round" stroke-miterlimit="10" stroke-width="1.904"/>
        </g>
        <g id="g2462">
          <g id="g2464" clip-path="url(#clip-path-2)">
            <g id="g2470" transform="translate(52.023 -4.324)">
              <path id="path2472" d="M0,0-11.049-11.049a1.378,1.378,0,0,1,0-1.948l3.161-3.161a1.378,1.378,0,0,1,1.948,0l4.909,4.909" fill="#fff" stroke="#000" stroke-linecap="round" stroke-linejoin="round" stroke-miterlimit="10" stroke-width="1.904"/>
            </g>
            <g id="g2474" transform="translate(59.899 -3.744)">
              <path id="path2476" d="M0,0-2.187,2.187a2.067,2.067,0,0,1-2.923,0L-16.645-9.349l5.109-5.109L0-2.923A2.067,2.067,0,0,1,0,0" fill="#27a5fe"/>
            </g>
            <g id="g2478" transform="translate(48.647 -13.991)">
              <path id="path2480" d="M0,0,1.964-1.964-.284-4.212-5.393.9,6.143,12.434a2.067,2.067,0,0,0,2.923,0l.787-.786L0,1.8A1.27,1.27,0,0,1,0,0" fill="#0593fc"/>
            </g>
            <g id="g2482" transform="translate(52.247 -14.319)">
              <path id="path2484" d="M0,0-3.884-3.884-8.993,1.226,2.543,12.762a2.067,2.067,0,0,0,2.923,0l2.187-2.187a2.067,2.067,0,0,0,0-2.923l-4.51-4.51" fill="none" stroke="#000" stroke-linecap="round" stroke-linejoin="round" stroke-miterlimit="10" stroke-width="1.904"/>
            </g>
            <g id="g2486" transform="translate(23.168 -56.337)">
              <path id="path2488" d="M0,0A18.048,18.048,0,0,1,18.048,18.048,18.048,18.048,0,0,1,0,36.1,18.048,18.048,0,0,1-18.048,18.048,18.048,18.048,0,0,1,0,0" fill="#00f3a7"/>
            </g>
            <g id="g2490" transform="translate(23.168 -56.337)">
              <path id="path2492" d="M0,0A18.048,18.048,0,0,1,18.048,18.048,18.048,18.048,0,0,1,0,36.1,18.048,18.048,0,0,1-18.048,18.048,18.048,18.048,0,0,1,0,0Z" fill="none" stroke="#000" stroke-linecap="round" stroke-linejoin="round" stroke-miterlimit="10" stroke-width="1.904"/>
            </g>
            <g id="g2494" transform="translate(23.168 -52.203)">
              <path id="path2496" d="M0,0A13.915,13.915,0,0,1,13.915,13.915,13.915,13.915,0,0,1,0,27.83,13.915,13.915,0,0,1-13.915,13.915,13.915,13.915,0,0,1,0,0" fill="#d8ecfe"/>
            </g>
            <g id="g2498" transform="translate(14.6 -38.288)">
              <path id="path2500" d="M0,0A13.919,13.919,0,0,1,11.242-13.658a13.987,13.987,0,0,0-2.673-.258A13.915,13.915,0,0,0-5.347,0,13.915,13.915,0,0,0,8.569,13.915a13.987,13.987,0,0,0,2.673-.258A13.919,13.919,0,0,1,0,0" fill="#c4e2ff"/>
            </g>
            <g id="g2502" transform="translate(23.168 -52.203)">
              <path id="path2504" d="M0,0A13.915,13.915,0,0,1,13.915,13.915,13.915,13.915,0,0,1,0,27.83,13.915,13.915,0,0,1-13.915,13.915,13.915,13.915,0,0,1,0,0Z" fill="none" stroke="#000" stroke-linecap="round" stroke-linejoin="round" stroke-miterlimit="10" stroke-width="1.904"/>
            </g>
            <g id="g2506" transform="translate(44.18 -64.048)">
              <path id="path2508" d="M0,0H-22.979a.635.635,0,0,0-.635.635V23.613a.635.635,0,0,0,.635.635h4.871a.635.635,0,0,1,.635.635v3.659a.635.635,0,0,0,1.084.449l4.556-4.556a.635.635,0,0,1,.449-.186H0a.635.635,0,0,0,.635-.635V.635A.635.635,0,0,0,0,0" fill="#27a5fe"/>
            </g>
            <g id="g2510" transform="translate(24.883 -40.434)">
              <path id="path2512" d="M0,0V-22.979a.635.635,0,0,1,.635-.635H-3.682a.635.635,0,0,0-.635.635V0a.635.635,0,0,0,.635.635H.635A.635.635,0,0,1,0,0" fill="#0593fc"/>
            </g>
            <g id="g2514" transform="translate(44.814 -53.828)">
              <path id="path2516" d="M0,0V-9.585a.635.635,0,0,0-.635-.635H-23.613a.635.635,0,0,0-.635.635V13.394a.635.635,0,0,0,.635.635h4.871a.635.635,0,0,1,.635.635v3.659a.635.635,0,0,0,1.084.449l4.556-4.556a.635.635,0,0,1,.449-.186H-.635A.635.635,0,0,0,0,13.394V4.443" fill="none" stroke="#000" stroke-linecap="round" stroke-linejoin="round" stroke-miterlimit="10" stroke-width="1.904"/>
            </g>
            <g id="g2518" transform="translate(34.505 -44.307)">
              <path id="path2520" d="M0,0H-3.587V-9.384H-.279A.279.279,0,0,1,0-9.106Z" fill="#fff"/>
            </g>
            <g id="g2522" transform="translate(34.505 -44.307)">
              <path id="path2524" d="M0,0H-3.587V-9.384H-.279A.279.279,0,0,1,0-9.106Z" fill="none" stroke="#000" stroke-linecap="round" stroke-linejoin="round" stroke-miterlimit="10" stroke-width="1.904"/>
            </g>
            <g id="g2526" transform="translate(34.226 -56.462)">
              <path id="path2528" d="M0,0H-3.03a.279.279,0,0,1-.279-.279v-3.03a.279.279,0,0,1,.279-.279H0a.279.279,0,0,1,.279.279v3.03A.279.279,0,0,1,0,0" fill="#fff"/>
            </g>
            <g id="g2530" transform="translate(34.226 -56.462)">
              <path id="path2532" d="M0,0H-3.03a.279.279,0,0,1-.279-.279v-3.03a.279.279,0,0,1,.279-.279H0a.279.279,0,0,1,.279.279v3.03A.279.279,0,0,1,0,0Z" fill="none" stroke="#000" stroke-linecap="round" stroke-linejoin="round" stroke-miterlimit="10" stroke-width="1.904"/>
            </g>
            <g id="g2534" transform="translate(32.443 -53.691)">
              <path id="path2536" d="M0,0H-2.806" fill="#fff" stroke="#000" stroke-linecap="round" stroke-linejoin="round" stroke-miterlimit="10" stroke-width="1.904"/>
            </g>
            <g id="g2538" transform="translate(35.744 -44.307)">
              <path id="path2540" d="M0,0H-6.066" fill="#fff" stroke="#000" stroke-linecap="round" stroke-linejoin="round" stroke-miterlimit="10" stroke-width="1.904"/>
            </g>
            <g id="g2542" transform="translate(54.282 -26.701)">
              <path id="path2544" d="M0,0H-8.607a.381.381,0,0,1-.381-.381V-8.988a.381.381,0,0,1,.381-.381H0a.381.381,0,0,1,.381.381V-.381A.381.381,0,0,1,0,0" fill="#00f3a7"/>
            </g>
            <g id="g2546" transform="translate(48.496 -27.082)">
              <path id="path2548" d="M0,0V-8.607a.381.381,0,0,1,.381-.381h-3.2a.381.381,0,0,0-.381.381V0a.381.381,0,0,0,.381.381h3.2A.381.381,0,0,1,0,0" fill="#05e39c"/>
            </g>
            <g id="g2550" transform="translate(54.282 -26.701)">
              <path id="path2552" d="M0,0H-8.607a.381.381,0,0,1-.381-.381V-8.988a.381.381,0,0,1,.381-.381H0a.381.381,0,0,1,.381.381V-.381A.381.381,0,0,1,0,0Z" fill="none" stroke="#000" stroke-linecap="round" stroke-linejoin="round" stroke-miterlimit="10" stroke-width="1.904"/>
            </g>
            <g id="g2554" transform="translate(30.998 -9.342)">
              <path id="path2556" d="M0,0H-5.714a.381.381,0,0,1-.381-.381V-6.095a.381.381,0,0,1,.381-.381H0a.381.381,0,0,1,.381.381V-.381A.381.381,0,0,1,0,0" fill="#fd8087"/>
            </g>
            <g id="g2558" transform="translate(27.676 -9.723)">
              <path id="path2560" d="M0,0V-5.714a.381.381,0,0,1,.381-.381H-2.392a.381.381,0,0,0-.381.381V0a.381.381,0,0,0,.381.381H.381A.381.381,0,0,1,0,0" fill="#fe646f"/>
            </g>
            <g id="g2562" transform="translate(30.998 -9.342)">
              <path id="path2564" d="M0,0H-5.714a.381.381,0,0,1-.381-.381V-6.095a.381.381,0,0,1,.381-.381H0a.381.381,0,0,1,.381.381V-.381A.381.381,0,0,1,0,0Z" fill="none" stroke="#000" stroke-linecap="round" stroke-linejoin="round" stroke-miterlimit="10" stroke-width="1.904"/>
            </g>
            <g id="g2566" transform="translate(12.757 -56.432)">
              <path id="path2568" d="M0,0H-4.759A.381.381,0,0,1-5.14-.381V-5.14a.381.381,0,0,1,.381-.381H0a.381.381,0,0,1,.381.381V-.381A.381.381,0,0,1,0,0" fill="#fed402"/>
            </g>
            <g id="g2570" transform="translate(10.131 -56.813)">
              <path id="path2572" d="M0,0V-4.759A.381.381,0,0,1,.381-5.14H-2.133a.381.381,0,0,0-.381.381V0a.381.381,0,0,0,.381.381H.381A.381.381,0,0,1,0,0" fill="#fac600"/>
            </g>
            <g id="g2574" transform="translate(12.757 -56.432)">
              <path id="path2576" d="M0,0H-4.759A.381.381,0,0,1-5.14-.381V-5.14a.381.381,0,0,1,.381-.381H0a.381.381,0,0,1,.381.381V-.381A.381.381,0,0,1,0,0Z" fill="none" stroke="#000" stroke-linecap="round" stroke-linejoin="round" stroke-miterlimit="10" stroke-width="1.904"/>
            </g>
            <g id="g2578" transform="translate(16.02 -32.367)">
              <path id="path2580" d="M0,0H-11.143a.381.381,0,0,0-.381.381V18.735a.381.381,0,0,0,.381.381H3.388a.381.381,0,0,0,.381-.381V3.769A.381.381,0,0,0,3.657,3.5L.269.112A.381.381,0,0,0,0,0" fill="#fed402"/>
            </g>
            <g id="g2582" transform="translate(8.76 -13.632)">
              <path id="path2584" d="M0,0V-18.355a.381.381,0,0,1,.381-.381H-3.883a.381.381,0,0,0-.381.381V0a.381.381,0,0,0,.381.381H.381A.381.381,0,0,1,0,0" fill="#fac600"/>
            </g>
            <g id="g2586" transform="translate(15.996 -13.251)">
              <path id="path2588" d="M0,0H3.412a.381.381,0,0,0,.381-.381V-15.348a.381.381,0,0,0-.112-.269L.293-19a.381.381,0,0,0-.269-.112H-11.12a.381.381,0,0,0-.381.381V-.381A.381.381,0,0,0-11.12,0h6.676" fill="none" stroke="#000" stroke-linecap="round" stroke-linejoin="round" stroke-miterlimit="10" stroke-width="1.904"/>
            </g>
            <g id="g2590" transform="translate(9.084 -18.527)">
              <path id="path2592" d="M0,0H6.117" fill="none" stroke="#000" stroke-linecap="round" stroke-linejoin="round" stroke-miterlimit="10" stroke-width="1.904"/>
            </g>
            <g id="g2594" transform="translate(9.084 -22.809)">
              <path id="path2596" d="M0,0H6.117" fill="none" stroke="#000" stroke-linecap="round" stroke-linejoin="round" stroke-miterlimit="10" stroke-width="1.904"/>
            </g>
            <g id="g2598" transform="translate(9.084 -27.091)">
              <path id="path2600" d="M0,0H3.466" fill="none" stroke="#000" stroke-linecap="round" stroke-linejoin="round" stroke-miterlimit="10" stroke-width="1.904"/>
            </g>
            <g id="g2602" transform="translate(57.106 -55.909)">
              <path id="path2604" d="M0,0H-7.849A.381.381,0,0,0-8.23.381V13.345a.381.381,0,0,0,.381.381H2.37a.381.381,0,0,0,.381-.381V2.75a.381.381,0,0,0-.112-.269L.269.112A.381.381,0,0,0,0,0" fill="#d8ecfe"/>
            </g>
            <g id="g2606" transform="translate(52.496 -42.564)">
              <path id="path2608" d="M0,0V-12.964a.381.381,0,0,1,.381-.381h-3.62a.381.381,0,0,0-.381.381V0a.381.381,0,0,0,.381.381H.381A.381.381,0,0,1,0,0" fill="#c4e2ff"/>
            </g>
            <g id="g2610" transform="translate(57.106 -55.909)">
              <path id="path2612" d="M0,0H-7.849A.381.381,0,0,0-8.23.381V13.345a.381.381,0,0,0,.381.381H2.37a.381.381,0,0,0,.381-.381V2.75a.381.381,0,0,0-.112-.269L.269.112A.381.381,0,0,0,0,0Z" fill="none" stroke="#000" stroke-linecap="round" stroke-linejoin="round" stroke-miterlimit="10" stroke-width="1.904"/>
            </g>
            <g id="g2614" transform="translate(52.17 -45.972)">
              <path id="path2616" d="M0,0H4.392" fill="none" stroke="#000" stroke-linecap="round" stroke-linejoin="round" stroke-miterlimit="10" stroke-width="1.904"/>
            </g>
            <g id="g2618" transform="translate(52.17 -49.046)">
              <path id="path2620" d="M0,0H4.392" fill="none" stroke="#000" stroke-linecap="round" stroke-linejoin="round" stroke-miterlimit="10" stroke-width="1.904"/>
            </g>
            <g id="g2622" transform="translate(52.17 -52.121)">
              <path id="path2624" d="M0,0H2.489" fill="none" stroke="#000" stroke-linecap="round" stroke-linejoin="round" stroke-miterlimit="10" stroke-width="1.904"/>
            </g>
          </g>
        </g>
      </g>
    </g>
    <g id="Elipse_4731" data-name="Elipse 4731" transform="translate(190 4765.238)" fill="none" stroke="#f9931f" stroke-width="4">
      <ellipse cx="8.583" cy="8.583" rx="8.583" ry="8.583" stroke="none"/>
      <ellipse cx="8.583" cy="8.583" rx="6.583" ry="6.583" fill="none"/>
    </g>
  </g>
</svg>
