<svg xmlns="http://www.w3.org/2000/svg" xmlns:xlink="http://www.w3.org/1999/xlink" width="85" height="85" viewBox="0 0 85 85">
  <defs>
    <clipPath id="clip-path">
      <rect id="Rect치ngulo_33793" data-name="Rect치ngulo 33793" width="65" height="65" rx="5" transform="translate(0.333 0.25)" fill="#f9931f"/>
    </clipPath>
  </defs>
  <g id="Grupo_81607" data-name="Grupo 81607" transform="translate(-180 -6763)">
    <rect id="Rect치ngulo_33792" data-name="Rect치ngulo 33792" width="85" height="85" rx="5" transform="translate(180 6763)" fill="#9aeccd"/>
    <g id="Grupo_80313" data-name="Grupo 80313" transform="translate(187.443 6777.179)">
      <g id="Grupo_80111" data-name="Grupo 80111" transform="translate(31.991)">
        <path id="Trazado_113526" data-name="Trazado 113526" d="M294.882,1043.023l-22.411-22.412a1.119,1.119,0,0,1,0-1.583h0a1.12,1.12,0,0,1,1.584,0l22.411,22.411a1.119,1.119,0,0,1,0,1.584h0A1.12,1.12,0,0,1,294.882,1043.023Z" transform="translate(-272.143 -1018.7)" fill="#bfefdd"/>
      </g>
      <g id="Grupo_80112" data-name="Grupo 80112" transform="translate(42.988 3)">
        <path id="Trazado_113527" data-name="Trazado 113527" d="M345.734,1046.715l-8.414-8.414a1.12,1.12,0,0,1,0-1.583h0a1.119,1.119,0,0,1,1.584,0l8.413,8.413a1.119,1.119,0,0,1,0,1.584h0A1.119,1.119,0,0,1,345.734,1046.715Z" transform="translate(-336.993 -1036.39)" fill="#bfefdd"/>
      </g>
      <g id="Grupo_80113" data-name="Grupo 80113" transform="translate(23.994)">
        <path id="Trazado_113528" data-name="Trazado 113528" d="M255.724,1051.018l-30.407-30.407a1.118,1.118,0,0,1,0-1.583h0a1.119,1.119,0,0,1,1.583,0l30.407,30.407a1.119,1.119,0,0,1,0,1.583h0A1.119,1.119,0,0,1,255.724,1051.018Z" transform="translate(-224.989 -1018.7)" fill="#bfefdd"/>
      </g>
      <g id="Grupo_80114" data-name="Grupo 80114" transform="translate(17.667 1.668)">
        <path id="Trazado_113529" data-name="Trazado 113529" d="M223.07,1065.515,188,1030.449a1.119,1.119,0,0,1,0-1.583h0a1.118,1.118,0,0,1,1.583,0l35.067,35.067a1.12,1.12,0,0,1,0,1.583h0A1.119,1.119,0,0,1,223.07,1065.515Z" transform="translate(-187.675 -1028.537)" fill="#bfefdd"/>
      </g>
      <g id="Grupo_80115" data-name="Grupo 80115" transform="translate(12.407 4.405)">
        <path id="Trazado_113530" data-name="Trazado 113530" d="M194.58,1084.177l-37.589-37.589a1.12,1.12,0,0,1,0-1.584h0a1.12,1.12,0,0,1,1.583,0l37.589,37.59a1.12,1.12,0,0,1,0,1.583h0A1.119,1.119,0,0,1,194.58,1084.177Z" transform="translate(-156.663 -1044.677)" fill="#bfefdd"/>
      </g>
      <g id="Grupo_80116" data-name="Grupo 80116" transform="translate(8.002 8.002)">
        <path id="Trazado_113531" data-name="Trazado 113531" d="M169.412,1106.195l-38.4-38.4a1.121,1.121,0,0,1,0-1.584h0a1.12,1.12,0,0,1,1.584,0l38.4,38.4a1.121,1.121,0,0,1,0,1.584h0A1.121,1.121,0,0,1,169.412,1106.195Z" transform="translate(-130.686 -1065.885)" fill="#bfefdd"/>
      </g>
      <g id="Grupo_80117" data-name="Grupo 80117" transform="translate(4.406 12.407)">
        <path id="Trazado_113532" data-name="Trazado 113532" d="M147.4,1131.364l-37.589-37.589a1.12,1.12,0,0,1,0-1.583h0a1.119,1.119,0,0,1,1.584,0l37.589,37.589a1.119,1.119,0,0,1,0,1.584h0A1.12,1.12,0,0,1,147.4,1131.364Z" transform="translate(-109.478 -1091.863)" fill="#bfefdd"/>
      </g>
      <g id="Grupo_80118" data-name="Grupo 80118" transform="translate(1.668 17.666)">
        <path id="Trazado_113533" data-name="Trazado 113533" d="M128.731,1159.854l-35.067-35.067a1.119,1.119,0,0,1,0-1.583h0a1.118,1.118,0,0,1,1.583,0l35.067,35.066a1.12,1.12,0,0,1,0,1.584h0A1.118,1.118,0,0,1,128.731,1159.854Z" transform="translate(-93.336 -1122.875)" fill="#bfefdd"/>
      </g>
      <g id="Grupo_80119" data-name="Grupo 80119" transform="translate(0 23.994)">
        <path id="Trazado_113534" data-name="Trazado 113534" d="M114.235,1192.508,83.827,1162.1a1.119,1.119,0,0,1,0-1.583h0a1.118,1.118,0,0,1,1.583,0l30.408,30.408a1.119,1.119,0,0,1,0,1.583h0A1.119,1.119,0,0,1,114.235,1192.508Z" transform="translate(-83.499 -1160.189)" fill="#bfefdd"/>
      </g>
      <g id="Grupo_80120" data-name="Grupo 80120" transform="translate(0 31.991)">
        <path id="Trazado_113535" data-name="Trazado 113535" d="M106.238,1231.665l-22.411-22.411a1.119,1.119,0,0,1,0-1.584h0a1.119,1.119,0,0,1,1.583,0l22.411,22.411a1.12,1.12,0,0,1,0,1.583h0A1.12,1.12,0,0,1,106.238,1231.665Z" transform="translate(-83.499 -1207.343)" fill="#bfefdd"/>
      </g>
      <g id="Grupo_80121" data-name="Grupo 80121" transform="translate(3 42.988)">
        <path id="Trazado_113536" data-name="Trazado 113536" d="M109.932,1282.517l-8.413-8.413a1.12,1.12,0,0,1,0-1.584h0a1.12,1.12,0,0,1,1.583,0l8.414,8.414a1.12,1.12,0,0,1,0,1.583h0A1.119,1.119,0,0,1,109.932,1282.517Z" transform="translate(-101.191 -1272.193)" fill="#bfefdd"/>
      </g>
    </g>
    <g id="Enmascarar_grupo_55" data-name="Enmascarar grupo 55" transform="translate(189.667 6772.75)" clip-path="url(#clip-path)">
      <g id="Patient_Accident" data-name="Patient Accident" transform="translate(10.855 0)">
        <path id="Trazado_113670" data-name="Trazado 113670" d="M52.051,61.835C49.8,49.474,49.9,49.468,49.125,47.7l-.471-1.085a13.827,13.827,0,0,0-12.688-8.322H26.287A13.847,13.847,0,0,0,13.6,46.616c-1.61,3.7-1.235,2.729-2.844,15.239Z" transform="translate(-10.062 2.838)" fill="#58b3ff"/>
        <path id="Trazado_113671" data-name="Trazado 113671" d="M22.082,53.007v7.756l29.134-.014-1.405-7.742Z" transform="translate(-9.226 3.923)" fill="#447ce1"/>
        <path id="Trazado_113672" data-name="Trazado 113672" d="M45.145,58.778H16.83a2.729,2.729,0,0,1-2.688-3.056c.518-4.093.553-5.28,1.364-7.115a12.34,12.34,0,0,1,3.342-5A11.126,11.126,0,0,1,22.9,41.377a5.634,5.634,0,0,1,4.332.539,7.094,7.094,0,0,0,7.374,0,5.614,5.614,0,0,1,4.277-.512A11.023,11.023,0,0,1,45.909,47.8c1.057,2.4.921,2.326,1.917,7.8a2.729,2.729,0,0,1-2.681,3.179Z" transform="translate(-9.813 3.05)" fill="#94e0ff"/>
        <path id="Trazado_113673" data-name="Trazado 113673" d="M10.8,62.613a.682.682,0,0,1-.682-.8c1.63-12.647,1.269-11.685,2.9-15.43a14.536,14.536,0,0,1,13.315-8.745h9.679a14.536,14.536,0,0,1,13.343,8.745c1.583,3.643,1.241,2.729,2.9,14.652a.713.713,0,0,1-1.412.2c-1.658-11.9-1.3-10.853-2.79-14.284a13.124,13.124,0,0,0-12.04-7.885H26.335A13.117,13.117,0,0,0,14.3,46.945c-1.528,3.486-1.146,2.265-2.769,15.082a.682.682,0,0,1-.73.587Z" transform="translate(-10.109 2.789)"/>
        <path id="Trazado_113674" data-name="Trazado 113674" d="M18.6,50.542l-.853,10.409" transform="translate(-9.546 3.741)" fill="#fff"/>
        <path id="Trazado_113675" data-name="Trazado 113675" d="M17.835,61.712a.682.682,0,0,1-.682-.771L18,50.539a.682.682,0,0,1,.764-.682.723.723,0,0,1,.682.771l-.928,10.43a.716.716,0,0,1-.682.655Z" transform="translate(-9.59 3.69)"/>
        <path id="Trazado_113676" data-name="Trazado 113676" d="M40.218,61.063l-1-12.306" transform="translate(-7.962 3.609)" fill="#fff"/>
        <path id="Trazado_113677" data-name="Trazado 113677" d="M40.265,61.821a.682.682,0,0,1-.682-.682l-1-12.278a.728.728,0,1,1,1.453-.082l1,12.278a.682.682,0,0,1-.771.764Z" transform="translate(-8.01 3.56)"/>
        <path id="Trazado_113678" data-name="Trazado 113678" d="M16.4,16.492H45.018v7.756H16.4Z" transform="translate(-9.645 1.229)" fill="#52527b"/>
        <path id="Trazado_113679" data-name="Trazado 113679" d="M45.065,25H16.45a.682.682,0,0,1-.682-.682V16.564a.682.682,0,0,1,.682-.682H45.065a.682.682,0,0,1,.682.682v7.729a.682.682,0,0,1-.682.709Zm-27.9-1.419h27.19V17.246H17.166Z" transform="translate(-9.692 1.184)"/>
        <path id="Trazado_113680" data-name="Trazado 113680" d="M43.244,25.913H18.258a2.408,2.408,0,0,1,0-4.816H43.244a2.408,2.408,0,0,1,0,4.816Z" transform="translate(-9.686 1.569)" fill="#fb9c88"/>
        <path id="Trazado_113681" data-name="Trazado 113681" d="M43.293,26.671H18.307a3.117,3.117,0,0,1,0-6.235H43.293a3.117,3.117,0,0,1,0,6.235ZM18.307,21.862a1.705,1.705,0,0,0,0,3.411H43.293a1.705,1.705,0,0,0,0-3.411Z" transform="translate(-9.735 1.52)"/>
        <path id="Trazado_113682" data-name="Trazado 113682" d="M34.252,38.716l-1.364,1.03a4.775,4.775,0,0,1-5.75,0l-1.364-1.03V32.577h8.479Z" transform="translate(-8.954 2.416)" fill="#fb9c88"/>
        <path id="Trazado_113683" data-name="Trazado 113683" d="M30.071,41.457c-2.128,0-3.206-1.023-4.673-2.121a.682.682,0,0,1-.286-.573V32.624a.682.682,0,0,1,.682-.682H34.3a.682.682,0,0,1,.682.682v6.139a.73.73,0,0,1-.286.573c-1.467,1.132-2.5,2.121-4.625,2.121Zm-3.54-3.049,1.091.819a4.093,4.093,0,0,0,4.9,0l1.1-.819V33.347H26.531Z" transform="translate(-9.003 2.369)"/>
        <path id="Trazado_113684" data-name="Trazado 113684" d="M30.5,37.8a11.18,11.18,0,0,1-11.18-11.18v-7.6a9.216,9.216,0,0,1,9.209-9.209H32.47a9.209,9.209,0,0,1,9.2,9.209v7.6A11.173,11.173,0,0,1,30.5,37.8Z" transform="translate(-9.43 0.736)" fill="#fbc4ab"/>
        <path id="Trazado_113685" data-name="Trazado 113685" d="M41.672,20.252V19.017a9.209,9.209,0,0,0-9.2-9.209H28.527a9.209,9.209,0,0,0-9.209,9.209v1.235Z" transform="translate(-9.43 0.736)" fill="#fb9c88"/>
        <path id="Trazado_113686" data-name="Trazado 113686" d="M30.547,38.555a11.9,11.9,0,0,1-11.89-11.89v-7.6a9.925,9.925,0,0,1,9.918-9.918h3.943a9.932,9.932,0,0,1,9.918,9.918v7.6a11.9,11.9,0,0,1-11.89,11.89ZM28.576,10.587a8.5,8.5,0,0,0-8.493,8.479v7.6a10.464,10.464,0,1,0,20.928,0v-7.6a8.5,8.5,0,0,0-8.493-8.493Z" transform="translate(-9.479 0.688)"/>
        <path id="Trazado_113687" data-name="Trazado 113687" d="M35.633,22.929H33.375a.709.709,0,0,1,0-1.419h2.258a.709.709,0,0,1,0,1.419Z" transform="translate(-8.446 1.599)"/>
        <path id="Trazado_113688" data-name="Trazado 113688" d="M26.339,22.929H24.081a.709.709,0,0,1,0-1.419h2.258a.709.709,0,0,1,0,1.419Z" transform="translate(-9.131 1.599)"/>
        <path id="Trazado_113689" data-name="Trazado 113689" d="M29.013,14.719l-3.7,3.7a4.031,4.031,0,0,0,3.649,1.112v2.5a4.2,4.2,0,0,0,4.2-4.2V14.719Z" transform="translate(-8.988 1.099)" fill="#52527b"/>
        <path id="Trazado_113690" data-name="Trazado 113690" d="M29,22.788a.682.682,0,0,1-.682-.682V20.36A4.673,4.673,0,0,1,24.911,19a.682.682,0,0,1,0-1l3.7-3.7a.682.682,0,0,1,.5-.211h4.147a.682.682,0,0,1,.682.716V17.9A4.918,4.918,0,0,1,29,22.788Zm0-3.929a.682.682,0,0,1,.682.682v1.719a3.5,3.5,0,0,0,2.783-3.411V15.476H29.352l-2.94,2.933a3.493,3.493,0,0,0,2.592.45Z" transform="translate(-9.034 1.051)"/>
        <path id="Trazado_113691" data-name="Trazado 113691" d="M28.761,20.009a.706.706,0,0,1-.13-1.405A3.336,3.336,0,0,0,30,17.969a.712.712,0,1,1,.873,1.126,4.55,4.55,0,0,1-2.108.914Z" transform="translate(-8.79 1.327)"/>
        <path id="Trazado_113692" data-name="Trazado 113692" d="M45.018,17.449H16.409a14.325,14.325,0,0,1,28.609,0Z" transform="translate(-9.645 0.3)" fill="#fbecd8"/>
        <path id="Trazado_113693" data-name="Trazado 113693" d="M34.87,12.656l4.441-1.589c.75.846,1.235,1.589,2.408,1.589h1.3a13.158,13.158,0,0,1,.553,2.66Z" transform="translate(-8.283 0.829)" fill="#ddc4a6"/>
        <path id="Trazado_113694" data-name="Trazado 113694" d="M39.761,6.757l-11.146,3.99-3.547-.921L38.158,5.5A15.784,15.784,0,0,1,39.761,6.757Z" transform="translate(-9.006 0.419)" fill="#ddc4a6"/>
        <path id="Trazado_113695" data-name="Trazado 113695" d="M27.6,16.746H16.409a14.155,14.155,0,0,1,.389-3.329Z" transform="translate(-9.645 1.002)" fill="#ddc4a6"/>
        <path id="Trazado_113696" data-name="Trazado 113696" d="M45.065,18.23H16.456a.682.682,0,0,1-.682-.682,15.007,15.007,0,1,1,30.014,0,.682.682,0,0,1-.723.682ZM17.186,16.811H44.335a13.595,13.595,0,0,0-27.149,0Z" transform="translate(-9.692 0.2)"/>
        <path id="Trazado_113697" data-name="Trazado 113697" d="M31.172,30.89H28.566a.713.713,0,0,1,0-1.426h2.606a.713.713,0,0,1,0,1.426Z" transform="translate(-8.801 2.186)"/>
        <path id="Trazado_113698" data-name="Trazado 113698" d="M42.437,10.422,29.9,14.931l-1.528-4.27L39.517,6.67a14.55,14.55,0,0,1,2.92,3.752Z" transform="translate(-8.762 0.505)" fill="#fbecd8"/>
        <path id="Trazado_113699" data-name="Trazado 113699" d="M37.244,12.188,42.456,10.3a14.284,14.284,0,0,0-1.364-2.046L35.852,10.51a2.3,2.3,0,0,1-1.971-.075L31.753,9.329l-3.636,1.3,4.352,1.364,2.885.887,1.876-.682Z" transform="translate(-8.781 0.622)" fill="#ddc4a6"/>
        <path id="Trazado_113700" data-name="Trazado 113700" d="M29.95,15.689a.723.723,0,0,1-.682-.471L27.74,10.962a.682.682,0,0,1,.43-.921l11.139-3.99a.682.682,0,0,1,.716.143,14.8,14.8,0,0,1,3.09,3.963.682.682,0,0,1-.389,1c-13.39,4.775-12.592,4.536-12.776,4.536Zm-.614-4.536,1.05,2.926c24.632-8.813-1.508.553,11.064-3.956A13.37,13.37,0,0,0,39.4,7.552Z" transform="translate(-8.813 0.456)"/>
        <path id="Trazado_113701" data-name="Trazado 113701" d="M26.25,4,24.49.635A4.093,4.093,0,0,0,22.628,5.7,14.5,14.5,0,0,0,19.395,8.65l.246.88L36.857,4.858A14.243,14.243,0,0,0,26.25,4Z" transform="translate(-9.425 0.06)" fill="#52527b"/>
        <path id="Trazado_113702" data-name="Trazado 113702" d="M19.657,10.315a.682.682,0,0,1-.682-.525c-.334-1.235-.416-1.146.143-1.814a15.532,15.532,0,0,1,2.729-2.483A4.809,4.809,0,0,1,24.172.083a.682.682,0,0,1,.962.293L26.655,3.2A14.966,14.966,0,0,1,37.222,4.264a.682.682,0,0,1-.13,1.323C18.634,10.622,19.8,10.315,19.657,10.315Zm4.6-8.574a3.411,3.411,0,0,0-.941,3.786.682.682,0,0,1-.273.846,13.963,13.963,0,0,0-2.647,2.292L34.7,4.776a13.7,13.7,0,0,0-8.186-.034.682.682,0,0,1-.832-.348Z" transform="translate(-9.475 0.012)"/>
        <path id="Trazado_113703" data-name="Trazado 113703" d="M37.97,53.975,25.4,38.149a1.228,1.228,0,0,0-1.255-.443l-2.9.682a1.241,1.241,0,0,0-.682,1.958l12.2,16.139Z" transform="translate(-9.357 2.792)" fill="#fbecd8"/>
        <path id="Trazado_113704" data-name="Trazado 113704" d="M27.209,48.979l5.048,6.671,5.2-2.51-3.3-4.161Z" transform="translate(-8.848 3.626)" fill="#ddc4a6"/>
        <path id="Trazado_113705" data-name="Trazado 113705" d="M32.816,57.253a.682.682,0,0,1-.566-.286L20.013,40.793a1.958,1.958,0,0,1,1.119-3.083l2.9-.682a1.958,1.958,0,0,1,1.978.682L38.58,53.583a.716.716,0,0,1-.252,1.085C32.659,57.409,33.048,57.253,32.816,57.253ZM24.474,38.405c-.1,0,.089,0-3.022.682a.539.539,0,0,0-.3.846L33.028,55.622l3.881-1.876L24.9,38.6A.553.553,0,0,0,24.474,38.405Z" transform="translate(-9.408 2.74)"/>
        <path id="Trazado_113706" data-name="Trazado 113706" d="M44.948,17.156H34.512L17.349,11.849a13.759,13.759,0,0,1,2.408-3.99l25.1,7.694a14.9,14.9,0,0,1,.089,1.6Z" transform="translate(-9.575 0.592)" fill="#fbecd8"/>
        <path id="Trazado_113707" data-name="Trazado 113707" d="M44.948,17.037H34.512L17.349,11.73A14.038,14.038,0,0,1,18.5,9.466L34.785,14.6c1.93.607,2.981.457,8.868.457l1.228.375A14.905,14.905,0,0,1,44.948,17.037Z" transform="translate(-9.575 0.711)" fill="#ddc4a6"/>
        <path id="Trazado_113708" data-name="Trazado 113708" d="M45,17.888H34.35L17.187,12.581a.682.682,0,0,1-.45-.941,14.448,14.448,0,0,1,2.531-4.2.682.682,0,0,1,.744-.218l25.143,7.708a.723.723,0,0,1,.5.6,15.143,15.143,0,0,1,.055,1.678.682.682,0,0,1-.709.682ZM34.664,16.469h9.6v-.321L20.052,8.72a13.036,13.036,0,0,0-1.692,2.729Z" transform="translate(-9.625 0.543)"/>
        <path id="Trazado_113709" data-name="Trazado 113709" d="M26.7,6.144a.682.682,0,0,1-.628-.375L24.394,2.652a.714.714,0,1,1,1.255-.682l1.678,3.117A.682.682,0,0,1,26.7,6.144Z" transform="translate(-9.062 0.13)"/>
        <path id="Trazado_113710" data-name="Trazado 113710" d="M29.624,51.457H50.293a1.535,1.535,0,0,1,1.535,1.535v4.093a3.888,3.888,0,0,1-3.888,3.888H28.587V52.555a1.064,1.064,0,0,1,1.037-1.1Z" transform="translate(-8.746 3.809)" fill="#fbecd8"/>
        <path id="Trazado_113711" data-name="Trazado 113711" d="M45.1,51.489l1.767,7.681H45.243l-2.572-7.681Z" transform="translate(-7.708 3.811)" fill="#ddc4a6"/>
        <path id="Trazado_113712" data-name="Trazado 113712" d="M32.084,51.489l2.538,4.741-.655,2.087-4.413-6.828Z" transform="translate(-8.675 3.811)" fill="#ddc4a6"/>
        <path id="Trazado_113713" data-name="Trazado 113713" d="M51.821,53.017V57.11A3.875,3.875,0,0,1,47.939,61H28.587V59.17H47.905a2.115,2.115,0,0,0,2.121-2.115V51.489h.266a1.528,1.528,0,0,1,1.528,1.528Z" transform="translate(-8.746 3.811)" fill="#ddc4a6"/>
        <path id="Trazado_113714" data-name="Trazado 113714" d="M41.255,51.336,44.12,60.9l-1.685.089-3.042-5.88,1.037-3.772Z" transform="translate(-7.949 3.8)" fill="#ddc4a6"/>
        <path id="Trazado_113715" data-name="Trazado 113715" d="M35.651,60.861,38.8,51.489h1.9l-3.015,9.373Z" transform="translate(-8.225 3.811)" fill="#ddc4a6"/>
        <path id="Trazado_113716" data-name="Trazado 113716" d="M47.986,61.736H28.634a.682.682,0,0,1-.682-.682V52.6a1.78,1.78,0,0,1,1.719-1.78H50.34a2.251,2.251,0,0,1,2.244,2.244v4.093a4.611,4.611,0,0,1-4.6,4.577ZM29.316,60.31h18.67a3.186,3.186,0,0,0,3.158-3.179V53.039a.825.825,0,0,0-.825-.819H29.671a.355.355,0,0,0-.362.355Z" transform="translate(-8.793 3.762)"/>
        <path id="Trazado_113717" data-name="Trazado 113717" d="M26.54,54.259h2.394v5.382H25.449a1.569,1.569,0,0,1-1.569-1.569V56.926a2.667,2.667,0,0,1,2.66-2.667Z" transform="translate(-9.094 4.015)" fill="#fbc4ab"/>
        <g id="Grupo_80312" data-name="Grupo 80312" transform="translate(14.07 54.577)">
          <path id="Trazado_113718" data-name="Trazado 113718" d="M28.984,60.4H25.5a2.285,2.285,0,0,1-2.285-2.278V56.977a3.411,3.411,0,0,1,3.411-3.411h2.36a.682.682,0,0,1,.682.682v5.443a.682.682,0,0,1-.682.709Zm-2.36-5.382a1.965,1.965,0,0,0-1.958,1.958v1.146a.866.866,0,0,0,.866.859h2.729V55.019Z" transform="translate(-23.213 -50.612)"/>
          <path id="Trazado_113719" data-name="Trazado 113719" d="M32.97,61.62a.682.682,0,0,1-.682-.921l2.94-9.379a.682.682,0,0,1,.887-.464.716.716,0,0,1,.471.894l-2.933,9.373a.682.682,0,0,1-.682.5Z" transform="translate(-22.547 -50.815)"/>
          <path id="Trazado_113720" data-name="Trazado 113720" d="M37.6,61.62a.682.682,0,0,1-.682-.928l3.015-9.373a.715.715,0,0,1,1.364.43l-3.022,9.379a.682.682,0,0,1-.675.491Z" transform="translate(-22.205 -50.815)"/>
          <path id="Trazado_113721" data-name="Trazado 113721" d="M42.287,61.146a.682.682,0,0,1-.634-.382l-2.844-5.539a.712.712,0,1,1,1.269-.648l2.844,5.546a.682.682,0,0,1-.634,1.023Z" transform="translate(-22.068 -50.567)"/>
          <path id="Trazado_113722" data-name="Trazado 113722" d="M45.892,61.736a.723.723,0,0,1-.682-.484l-3.165-9.489a.719.719,0,1,1,1.364-.457l3.172,9.5a.682.682,0,0,1-.689.935Z" transform="translate(-21.826 -50.815)"/>
          <path id="Trazado_113723" data-name="Trazado 113723" d="M34,59.076a.723.723,0,0,1-.614-.341l-4.127-6.821a.716.716,0,0,1,.239-.982.682.682,0,0,1,.975.246L34.609,58A.682.682,0,0,1,34,59.076Z" transform="translate(-22.774 -50.815)"/>
        </g>
      </g>
    </g>
    <g id="Elipse_4731" data-name="Elipse 4731" transform="translate(190 6825.238)" fill="none" stroke="#ffc721" stroke-width="4">
      <ellipse cx="8.583" cy="8.583" rx="8.583" ry="8.583" stroke="none"/>
      <ellipse cx="8.583" cy="8.583" rx="6.583" ry="6.583" fill="none"/>
    </g>
  </g>
</svg>
