<svg xmlns="http://www.w3.org/2000/svg" xmlns:xlink="http://www.w3.org/1999/xlink" width="144" height="119" viewBox="0 0 144 119">
  <defs>
    <clipPath id="clip-path">
      <rect id="Rectángulo_33795" data-name="Rectángulo 33795" width="144" height="119" rx="20" transform="translate(1125 7113)" fill="#fff"/>
    </clipPath>
  </defs>
  <g id="Enmascarar_grupo_56" data-name="Enmascarar grupo 56" transform="translate(-1125 -7113)" clip-path="url(#clip-path)">
    <g id="lista-de-verificacion" transform="translate(1137.5 7113)">
      <path id="Trazado_113730" data-name="Trazado 113730" d="M95.968,90.21v15.355H71.016V96.6a5.039,5.039,0,0,0,1.535-2.476l2.054-7.5a25.7,25.7,0,0,1,4.914,1.133l3.244,1.074a26.656,26.656,0,0,0,8.5,1.382,24.776,24.776,0,0,0,4.626-.423Zm0,0" fill="#465fc4"/>
      <path id="Trazado_113731" data-name="Trazado 113731" d="M83.857,70.229a3.841,3.841,0,0,1-2.725,6.545H77.254L79.327,69.1h1.8a3.834,3.834,0,0,1,2.725,1.132Zm0,0" fill="#ccd1d9"/>
      <path id="Trazado_113732" data-name="Trazado 113732" d="M68.137,69.212,66.1,76.774H60.018a7.728,7.728,0,0,0-5.432,2.245l-.326-.326,7.351-7.351A7.685,7.685,0,0,1,67.043,69.1H67.7Zm0,0" fill="#e6e9ed"/>
      <path id="Trazado_113733" data-name="Trazado 113733" d="M70.69,59.788l-2.553,9.424L67.7,69.1h-.652a7.685,7.685,0,0,0-5.432,2.245L54.26,78.694l-2.63,2.648a4.068,4.068,0,0,1-2.879,1.19,4.14,4.14,0,0,1-2.9-1.19,4.055,4.055,0,0,1,.019-5.758l13.82-13.838A7.685,7.685,0,0,1,65.124,59.5h4.491Zm0,0" fill="#f0d0b4"/>
      <path id="Trazado_113734" data-name="Trazado 113734" d="M71.016,57.581V13.435H26.871V1.919h69.1V65.258l-.134.192-7.006-4.664a7.616,7.616,0,0,0-4.26-1.286H81.918l3.7-13.685,2.054-7.639,2.879-10.653a5.222,5.222,0,0,0,.172-1.324,5.079,5.079,0,0,0-5.067-5.086h-.634a5.069,5.069,0,0,0-4.894,3.762l-2.668,9.9L75.392,42.4,71.265,57.658Zm0,0" fill="#465fc4"/>
      <path id="Trazado_113735" data-name="Trazado 113735" d="M71.016,57.581l.249.077-.575,2.13L69.615,59.5H65.124a7.685,7.685,0,0,0-5.432,2.245L45.872,75.584a4.055,4.055,0,0,0-.019,5.758,4.14,4.14,0,0,0,2.9,1.19,4.068,4.068,0,0,0,2.879-1.19l2.63-2.648.326.326a7.728,7.728,0,0,0-2.245,5.432,1.925,1.925,0,0,0,1.919,1.919h9.251L62.13,91.477a5.253,5.253,0,0,0-.192,1.324,5.1,5.1,0,0,0,5.086,5.086h.634A5.048,5.048,0,0,0,71.016,96.6v20.479H1.919V13.435h69.1Zm0,0" fill="#465fc4"/>
      <path id="Trazado_113736" data-name="Trazado 113736" d="M9.6,21.113H55.661V36.468H9.6Zm0,0" fill="#9aeccd"/>
      <path id="Trazado_113737" data-name="Trazado 113737" d="M23.032,84.452H28.79v19.194H9.6V84.452Zm0,0" fill="#ffc721"/>
      <path id="Trazado_113738" data-name="Trazado 113738" d="M23.032,51.823H28.79V71.016H9.6V51.823Zm0,0" fill="#ffc721"/>
      <path id="Trazado_113739" data-name="Trazado 113739" d="M90.728,26.2a5.222,5.222,0,0,1-.172,1.324L87.676,38.176l-10.212-3.4,2.668-9.9a5.069,5.069,0,0,1,4.894-3.762h.634A5.079,5.079,0,0,1,90.728,26.2Zm0,0" fill="#9aeccd"/>
      <path id="Trazado_113740" data-name="Trazado 113740" d="M87.676,38.176l-2.054,7.639L75.392,42.4l2.073-7.619Zm0,0" fill="#e6e9ed"/>
      <path id="Trazado_113741" data-name="Trazado 113741" d="M71.016,96.6a5.048,5.048,0,0,1-3.359,1.286h-.634A5.1,5.1,0,0,1,61.938,92.8a5.253,5.253,0,0,1,.192-1.324l1.381-5.106h7.5a24.93,24.93,0,0,1,3.589.249l-2.054,7.5A5.039,5.039,0,0,1,71.016,96.6Zm0,0" fill="#f9931f"/>
      <path id="Trazado_113742" data-name="Trazado 113742" d="M81.918,59.5,77.254,76.774H66.1l2.035-7.562,2.553-9.424.575-2.13L75.392,42.4l10.23,3.417Zm0,0" fill="#f9931f"/>
      <path id="Trazado_113743" data-name="Trazado 113743" d="M74.606,86.62a24.93,24.93,0,0,0-3.589-.249H54.26a1.925,1.925,0,0,1-1.919-1.919,7.667,7.667,0,0,1,7.677-7.677H81.131a3.839,3.839,0,1,0,0-7.677h-1.8l2.591-9.6h2.648a7.616,7.616,0,0,1,4.26,1.286l7.006,4.664,6.41,4.28a7.619,7.619,0,0,0,4.261,1.286H119V86.371h-5.758a26.672,26.672,0,0,0-6.526.806L97.792,89.4c-.634.154-1.267.288-1.9.383a24.775,24.775,0,0,1-4.626.423,26.656,26.656,0,0,1-8.5-1.382l-3.244-1.074a25.7,25.7,0,0,0-4.914-1.133Zm0,0" fill="#f0d0b4"/>
      <path id="Trazado_113744" data-name="Trazado 113744" d="M84.573,61.419a5.736,5.736,0,0,1,3.194.967l13.4,8.937a9.586,9.586,0,0,0,5.324,1.612H119V69.1H106.5a5.744,5.744,0,0,1-3.2-.967l-5.414-3.61V0H24.952V11.516H0V119H72.935V107.484H97.887V91.336c.121-.029.246-.038.366-.069l8.927-2.231a25.1,25.1,0,0,1,6.062-.745H119V84.452h-5.758a28.868,28.868,0,0,0-6.99.86l-8.929,2.231a25.09,25.09,0,0,1-13.959-.535L80.129,85.93a28.758,28.758,0,0,0-9.113-1.478H54.268a5.766,5.766,0,0,1,5.758-5.758H81.139a5.743,5.743,0,0,0,.674-11.449l1.575-5.826Zm-2.425,29.23a28.732,28.732,0,0,0,9.115,1.48c.932,0,1.86-.081,2.785-.171v11.687H72.936V97.367a6.923,6.923,0,0,0,1.476-2.737l1.572-5.822a24.772,24.772,0,0,1,2.932.764ZM72.137,88.334l-1.43,5.293a3.17,3.17,0,0,1-3.055,2.34h-.622a3.163,3.163,0,0,1-3.053-3.989l1-3.689h6.044c.374,0,.747.029,1.121.044ZM60.995,88.29l-.725,2.685a6.957,6.957,0,0,0,3.3,7.877l-.6,2.407,3.723.932.6-2.384h.368a6.971,6.971,0,0,0,1.445-.169v15.524H3.839V15.355H28.79V3.839H94.048V61.961L89.9,59.193a9.581,9.581,0,0,0-5.324-1.612h-.148l7.989-29.556a7.006,7.006,0,0,0-6.76-8.831h-.622a7.015,7.015,0,0,0-6.76,5.176L72.935,44.112v-32.6H32.629v3.839H69.1V57.581H65.128a9.492,9.492,0,0,0-5.7,1.919H40.306v3.839H55.392l-3.839,3.839H40.306v3.839h7.41L44.51,74.223a5.956,5.956,0,0,0,5.95,9.95c0,.094-.029.183-.029.278a3.843,3.843,0,0,0,3.839,3.839ZM75.78,74.855H68.6l8.1-29.988,6.584,2.194ZM61.055,63.1a5.723,5.723,0,0,1,4.073-1.685h3.13l-1.566,5.793a9.506,9.506,0,0,0-6.432,2.775l-9.994,9.994a2.152,2.152,0,0,1-3.676-1.52,2.138,2.138,0,0,1,.632-1.522Zm1.919,9.6a5.7,5.7,0,0,1,2.635-1.484l-.983,3.637h-3.8ZM88.706,27.023l-2.35,8.7-6.584-2.194,2.2-8.153a3.172,3.172,0,0,1,3.055-2.34h.622a3.165,3.165,0,0,1,3.053,3.991ZM78.77,37.237l6.584,2.194-1.06,3.917L77.71,41.154Zm2.368,33.779a1.919,1.919,0,0,1,0,3.839H79.755l1.038-3.839Zm0,0"/>
      <path id="Trazado_113745" data-name="Trazado 113745" d="M57.581,19.194H7.677V38.387h49.9ZM53.742,34.548H11.516V23.032H53.742Zm0,0"/>
      <path id="Trazado_113746" data-name="Trazado 113746" d="M15.355,26.871h3.839V30.71H15.355Zm0,0"/>
      <path id="Trazado_113747" data-name="Trazado 113747" d="M23.032,26.871h3.839V30.71H23.032Zm0,0"/>
      <path id="Trazado_113748" data-name="Trazado 113748" d="M30.71,26.871h3.839V30.71H30.71Zm0,0"/>
      <path id="Trazado_113749" data-name="Trazado 113749" d="M38.387,26.871h3.839V30.71H38.387Zm0,0"/>
      <path id="Trazado_113750" data-name="Trazado 113750" d="M46.065,26.871H49.9V30.71H46.065Zm0,0"/>
      <path id="Trazado_113751" data-name="Trazado 113751" d="M30.71,61.419H26.871V69.1H11.516V53.742H23.032V49.9H7.677V72.935H30.71Zm0,0"/>
      <path id="Trazado_113752" data-name="Trazado 113752" d="M37.03,42.788,19.194,60.625l-2.482-2.482L14,60.857l5.2,5.2L39.744,45.5Zm0,0"/>
      <path id="Trazado_113753" data-name="Trazado 113753" d="M26.871,101.726H11.516V86.371H23.032V82.532H7.677v23.032H30.71V94.048H26.871Zm0,0"/>
      <path id="Trazado_113754" data-name="Trazado 113754" d="M16.712,90.772,14,93.486l5.2,5.2L39.744,78.131,37.03,75.417,19.194,93.254Zm0,0"/>
      <path id="Trazado_113755" data-name="Trazado 113755" d="M61.419,105.565h3.839V109.4H61.419Zm0,0"/>
      <path id="Trazado_113756" data-name="Trazado 113756" d="M36.468,105.565H57.581V109.4H36.468Zm0,0"/>
      <path id="Trazado_113757" data-name="Trazado 113757" d="M40.306,51.823H65.258v3.839H40.306Zm0,0"/>
    </g>
  </g>
</svg>
