<svg xmlns="http://www.w3.org/2000/svg" width="295" height="195.228" viewBox="0 0 295 195.228">
  <g id="Grupo_84216" data-name="Grupo 84216" transform="translate(-1020 -7378.714)">
    <g id="Grupo_80376" data-name="Grupo 80376" transform="translate(569.532 7337.43)">
      <g id="Grupo_80372" data-name="Grupo 80372" transform="translate(450.468 41.284)">
        <g id="Grupo_80327" data-name="Grupo 80327" transform="translate(42.495 66.761)">
          <path id="Trazado_113875" data-name="Trazado 113875" d="M499.968,90.168l-16.7-6.842-6.037,19.117,16.7,6.037Z" transform="translate(-477.229 -83.326)" fill="#f98875"/>
        </g>
        <g id="Grupo_80328" data-name="Grupo 80328" transform="translate(43.961 65.487)">
          <path id="Trazado_113876" data-name="Trazado 113876" d="M549.791,105.062,493.043,82.524,478.152,111.3l80.091,38.637Z" transform="translate(-478.152 -82.524)" fill="#f9931f"/>
        </g>
        <g id="Grupo_80329" data-name="Grupo 80329" transform="translate(22.688 28.268)">
          <path id="Trazado_113877" data-name="Trazado 113877" d="M464.847,115.891a18.508,18.508,0,0,0,4.3,1.135c5.88,1.17,15.816,2.62,16.831,1.944,1.183-.81,6.436-18.509,8-23.883a1.706,1.706,0,0,0-1.039-2.077c-1.678-.638-4.226-1.666-4.359-2.075-.192-.605-7.436-26.564-8.994-28.568-.834-1.075-3.236-2.028-5.458-2.633a11.792,11.792,0,0,0-4.262-.591C468.867,59.542,464.037,115.083,464.847,115.891Z" transform="translate(-464.756 -59.085)" fill="#9aeccd"/>
        </g>
        <g id="Grupo_80330" data-name="Grupo 80330" transform="translate(22.688 28.268)">
          <path id="Trazado_113878" data-name="Trazado 113878" d="M464.847,115.891a18.508,18.508,0,0,0,4.3,1.135l4.986-57.292a11.792,11.792,0,0,0-4.262-.591C468.867,59.542,464.037,115.083,464.847,115.891Z" transform="translate(-464.756 -59.085)" fill="#fff"/>
        </g>
        <g id="Grupo_80331" data-name="Grupo 80331" transform="translate(43.376 106.679)">
          <path id="Trazado_113879" data-name="Trazado 113879" d="M492.968,108.464l-15.184,9.759,12.2,15.909,14.524-10.221Z" transform="translate(-477.784 -108.464)" fill="#f98875"/>
        </g>
        <g id="Grupo_80332" data-name="Grupo 80332" transform="translate(0 105.263)">
          <path id="Trazado_113880" data-name="Trazado 113880" d="M494.077,150.345a18.358,18.358,0,0,0,3.4-2.869c4.332-4.146,11.217-11.456,11.244-12.674.016-1.434-11.471-15.888-14.973-20.255a1.708,1.708,0,0,0-2.3-.34c-1.486,1.007-3.787,2.506-4.2,2.379-.6-.187-26.025-9.14-28.561-9.013-1.358.065-3.517,1.488-5.286,2.962a11.78,11.78,0,0,0-2.928,3.152C450.22,114.737,492.951,150.544,494.077,150.345Z" transform="translate(-450.468 -107.572)" fill="#9aeccd"/>
        </g>
        <g id="Grupo_80333" data-name="Grupo 80333" transform="translate(0 108.226)">
          <path id="Trazado_113881" data-name="Trazado 113881" d="M494.077,149.248a18.358,18.358,0,0,0,3.4-2.869L453.4,109.438a11.78,11.78,0,0,0-2.928,3.152C450.22,113.64,492.951,149.447,494.077,149.248Z" transform="translate(-450.468 -109.438)" fill="#fff"/>
        </g>
        <g id="Grupo_80334" data-name="Grupo 80334" transform="translate(205.703)">
          <path id="Trazado_113882" data-name="Trazado 113882" d="M601.405,74.82s1.029-8.143,1.039-11.77c.022-8.318-2.833-17.83-6.171-18.782-1.355-.386-1.124,4.346-1.124,4.346s-2.833-7.9-4.443-7.3-1.191,5.285-1.191,5.285-2.012-5.432-4.026-4.427,1.007,17.106,0,17.709-3.42-4.427-5.031-2.615,1.208,16.1,6.441,17.1S601.405,74.82,601.405,74.82Z" transform="translate(-580.007 -41.284)" fill="#f98875"/>
        </g>
        <g id="Grupo_80335" data-name="Grupo 80335" transform="translate(107.453 30.432)">
          <path id="Trazado_113883" data-name="Trazado 113883" d="M538.558,81.619s1.61-14.289,0-15.9-5.613-2.939-5.613-2.939-2.214-2.7-4.74-2.293-1.922,3.063-1.922,3.063-7.244,2.169-8.049,4.986,3.622,14.673,3.622,14.673Z" transform="translate(-518.135 -60.448)" fill="#f98875"/>
        </g>
        <g id="Grupo_80336" data-name="Grupo 80336" transform="translate(142.029 31.21)">
          <path id="Trazado_113884" data-name="Trazado 113884" d="M583,91.808s15.319-1.455,19.343-7.492,3.975-23.378,3.975-23.378h20.928s8.7,20.928,1.207,42.126c-7.683,21.725-37.435,23.343-37.435,23.343l-6.836,23.075-44.271-12.61s15.964-40.784,17.842-41.589S583,91.808,583,91.808Z" transform="translate(-539.909 -60.938)" fill="#ffc721"/>
        </g>
        <g id="Grupo_80337" data-name="Grupo 80337" transform="translate(109.392 49.857)">
          <path id="Trazado_113885" data-name="Trazado 113885" d="M570.207,85.5s-12.713,4.376-18.214,1.158-12.88-13.979-12.88-13.979l-19.721,1.745s-1.682,30.335,17.961,39.32c12.61,5.769,28.456,5.756,28.456,5.756Z" transform="translate(-519.356 -72.681)" fill="#ffc721"/>
        </g>
        <g id="Grupo_80338" data-name="Grupo 80338" transform="translate(50.198 83.052)">
          <path id="Trazado_113886" data-name="Trazado 113886" d="M616.727,129.872s-7.467,34.489-31.615,33.484-42.25-32.936-43.864-33.069-46.891,16.769-46.891,16.769l-12.277-33.4S537.017,89.7,551.3,94.131s34.916,27.051,34.916,27.051Z" transform="translate(-482.08 -93.585)" fill="#f9931f"/>
        </g>
        <g id="Grupo_80339" data-name="Grupo 80339" transform="translate(156.076 55.644)">
          <path id="Trazado_113887" data-name="Trazado 113887" d="M561.079,92.708s-13.564-6.49-12.232-9.777,8.634-6.954,15.929-6.579,15.168,4.434,15.173,8.089S561.079,92.708,561.079,92.708Z" transform="translate(-548.755 -76.325)" fill="#465fc4"/>
        </g>
        <g id="Grupo_80341" data-name="Grupo 80341" transform="translate(163.875 56.928)">
          <g id="Grupo_80340" data-name="Grupo 80340">
            <path id="Trazado_113888" data-name="Trazado 113888" d="M566.664,77.134,565.4,85.547s-1.88,2.191-6.862,1.853c-3.711-.251-4.875-1.274-4.875-1.274l1.15-4.184,1.126-4.079,9.182-.622Z" transform="translate(-553.666 -77.134)" fill="#f98875"/>
          </g>
        </g>
        <g id="Grupo_80343" data-name="Grupo 80343" transform="translate(165.024 57.035)">
          <g id="Grupo_80342" data-name="Grupo 80342">
            <path id="Trazado_113889" data-name="Trazado 113889" d="M564.7,77.2a2.8,2.8,0,0,1-.367.775c-2.512,3.921-7.8,4.056-9.941,3.927l1.126-4.079Z" transform="translate(-554.39 -77.201)"/>
          </g>
        </g>
        <g id="Grupo_80345" data-name="Grupo 80345" transform="translate(161.93 35.763)">
          <g id="Grupo_80344" data-name="Grupo 80344">
            <path id="Trazado_113890" data-name="Trazado 113890" d="M557.66,66.241s-6,9.887-5.134,16.008,6.361,5.915,9.731,5.205a10.748,10.748,0,0,0,5.128-2.482,4.574,4.574,0,0,0,5.251-1.1c2.385-2.523,1.577-5.9-.04-6.863s-3.824,0-3.824,0l2.009-2.838S566.134,57.755,557.66,66.241Z" transform="translate(-552.442 -63.805)" fill="#f98875"/>
          </g>
        </g>
        <g id="Grupo_80347" data-name="Grupo 80347" transform="translate(162.346 29.4)">
          <g id="Grupo_80346" data-name="Grupo 80346">
            <path id="Trazado_113891" data-name="Trazado 113891" d="M568.619,79.362s-4.022-1.334-5.053-4.916.286-5.572.286-5.572a4.581,4.581,0,0,0-3.892-.789,6.482,6.482,0,0,0-3.819,3s-5.237-5.372-2.782-8.923,6.372.327,6.372.327-.1-3.827,5.856-2.345,5.561,9.107,5.561,9.107,2.46-2.079,3.956,3.144-2.015,7.543-2.015,7.543S571.634,78.879,568.619,79.362Z" transform="translate(-552.704 -59.798)"/>
          </g>
        </g>
        <g id="Grupo_80348" data-name="Grupo 80348" transform="translate(177.619 50.735)">
          <path id="Trazado_113892" data-name="Trazado 113892" d="M562.645,76.04a.325.325,0,0,1-.148-.613l4.2-2.158a.325.325,0,0,1,.3.578l-4.2,2.158A.332.332,0,0,1,562.645,76.04Z" transform="translate(-562.321 -73.234)"/>
        </g>
        <g id="Grupo_80349" data-name="Grupo 80349" transform="translate(178.681 52.347)">
          <path id="Trazado_113893" data-name="Trazado 113893" d="M565.714,75.913a.33.33,0,0,1-.127-.025l-2.4-1.016a.324.324,0,0,1,.254-.6l2.4,1.016a.324.324,0,0,1-.127.622Z" transform="translate(-562.99 -74.249)"/>
        </g>
        <g id="Grupo_80350" data-name="Grupo 80350" transform="translate(170.49 41.722)">
          <path id="Trazado_113894" data-name="Trazado 113894" d="M560.924,69.518a.328.328,0,0,1-.284-.168,1.956,1.956,0,0,0-2.374-1.053.327.327,0,0,1-.414-.194.323.323,0,0,1,.2-.414,2.612,2.612,0,0,1,3.162,1.347.326.326,0,0,1-.125.441A.334.334,0,0,1,560.924,69.518Z" transform="translate(-557.832 -67.558)"/>
        </g>
        <g id="Grupo_80351" data-name="Grupo 80351" transform="translate(165.155 41.111)">
          <path id="Trazado_113895" data-name="Trazado 113895" d="M557.068,68.242a.324.324,0,0,1-.2-.073,1.7,1.7,0,0,0-1.9-.091.324.324,0,0,1-.335-.556,2.344,2.344,0,0,1,2.644.143.323.323,0,0,1,.046.456A.319.319,0,0,1,557.068,68.242Z" transform="translate(-554.472 -67.173)"/>
        </g>
        <g id="Grupo_80352" data-name="Grupo 80352" transform="translate(165.724 45.618)">
          <path id="Trazado_113896" data-name="Trazado 113896" d="M555.228,76.142a.323.323,0,0,1-.321-.279,6.983,6.983,0,0,1,1.706-5.756.322.322,0,0,1,.457,0,.325.325,0,0,1,0,.459,6.457,6.457,0,0,0-1.52,5.205.323.323,0,0,1-.276.367C555.257,76.14,555.242,76.142,555.228,76.142Z" transform="translate(-554.831 -70.012)"/>
        </g>
        <g id="Grupo_80353" data-name="Grupo 80353" transform="translate(156.087 59.82)">
          <path id="Trazado_113897" data-name="Trazado 113897" d="M548.843,81.385s-.875,3.109,3.1,5.734a37.069,37.069,0,0,0,9.128,4.043s8.754-1.68,14.422-4.106c4.335-1.858,5.612-4.049,3.884-5.914s-8.069-2.187-8.069-2.187a37.942,37.942,0,0,0-6.355,2.29,30.3,30.3,0,0,1-3.459,1.666s-3.336-2.73-5.963-3.443-3.2.087-3.2.087Z" transform="translate(-548.762 -78.955)" fill="#465fc4"/>
        </g>
        <g id="Grupo_80354" data-name="Grupo 80354" transform="translate(170.49 45.617)">
          <path id="Trazado_113898" data-name="Trazado 113898" d="M558.156,72.48a.315.315,0,0,1-.135-.03.327.327,0,0,1-.16-.43l.838-1.82a.324.324,0,0,1,.589.272l-.837,1.82A.326.326,0,0,1,558.156,72.48Z" transform="translate(-557.832 -70.011)"/>
        </g>
        <g id="Grupo_80355" data-name="Grupo 80355" transform="translate(164.28 44.709)">
          <path id="Trazado_113899" data-name="Trazado 113899" d="M554.246,71.907a.325.325,0,0,1-.3-.461l.84-1.818a.324.324,0,0,1,.589.272l-.84,1.818A.322.322,0,0,1,554.246,71.907Z" transform="translate(-553.921 -69.439)"/>
        </g>
        <g id="Grupo_80356" data-name="Grupo 80356" transform="translate(166.485 53.209)">
          <path id="Trazado_113900" data-name="Trazado 113900" d="M555.717,77.55a.325.325,0,0,1-.3-.213,1.9,1.9,0,0,1,1.018-2.355c1.258-.646,2.412.5,2.847,1.2a.323.323,0,0,1-.191.486l-3.285.877A.381.381,0,0,1,555.717,77.55Zm1.474-2.107a1.019,1.019,0,0,0-.467.116,1.239,1.239,0,0,0-.759,1.267l2.485-.664A1.867,1.867,0,0,0,557.19,75.443Z" transform="translate(-555.31 -74.792)"/>
        </g>
        <g id="Grupo_80357" data-name="Grupo 80357" transform="translate(117.528 32.439)">
          <path id="Trazado_113901" data-name="Trazado 113901" d="M526.157,77.36a.322.322,0,0,1-.31-.23c-1.277-4.2,1.7-8.346,2.768-9.66a7.073,7.073,0,0,1-3.908-2.25,1.111,1.111,0,0,1-.154-1.066c.545-1.428,4.173-2.333,4.585-2.431a.319.319,0,0,1,.391.24.324.324,0,0,1-.238.391c-1.429.343-3.813,1.2-4.13,2.031a.46.46,0,0,0,.081.465c1.089,1.567,4,2.1,4.029,2.1a.321.321,0,0,1,.251.216.328.328,0,0,1-.068.324c-.045.046-4.386,4.827-2.985,9.45a.322.322,0,0,1-.214.4A.338.338,0,0,1,526.157,77.36Z" transform="translate(-524.48 -61.712)"/>
        </g>
        <g id="Grupo_80358" data-name="Grupo 80358" transform="translate(111.233 33.211)">
          <path id="Trazado_113902" data-name="Trazado 113902" d="M524.67,75.768a3.981,3.981,0,0,1-1.975-.556c-1.609-.91-2.1-8.862-2.179-10.447a.325.325,0,0,1,.649-.033c.181,3.533.843,9.347,1.848,9.915,2.555,1.445,4.47-.843,4.948-1.5-.483-.811-2.323-4.221-3.4-10.568a.324.324,0,0,1,.265-.373.317.317,0,0,1,.375.265c1.2,7.043,3.4,10.474,3.417,10.508a.329.329,0,0,1,0,.353C528.6,73.36,527.044,75.768,524.67,75.768Z" transform="translate(-520.516 -62.199)"/>
        </g>
        <g id="Grupo_80359" data-name="Grupo 80359" transform="translate(108.717 45.619)">
          <path id="Trazado_113903" data-name="Trazado 113903" d="M521.991,72.507a6.167,6.167,0,0,1-2.9-.98.325.325,0,0,1,.322-.564c1.491.853,2.634,1.1,3.319.721a1.737,1.737,0,0,0,.726-1.356.324.324,0,0,1,.648.014,2.364,2.364,0,0,1-1.051,1.9A2.113,2.113,0,0,1,521.991,72.507Z" transform="translate(-518.931 -70.012)"/>
        </g>
        <g id="Grupo_80360" data-name="Grupo 80360" transform="translate(211.717 16.828)">
          <path id="Trazado_113904" data-name="Trazado 113904" d="M595.791,54.058c-.043,0-11.714-1.531-11.714-1.531a.324.324,0,0,1-.279-.364.335.335,0,0,1,.362-.281l11.673,1.529a.325.325,0,0,1-.041.646Z" transform="translate(-583.794 -51.882)"/>
        </g>
        <g id="Grupo_80361" data-name="Grupo 80361" transform="translate(210.862 18.275)">
          <path id="Trazado_113905" data-name="Trazado 113905" d="M590.272,65.273a.323.323,0,0,1-.324-.311,14.161,14.161,0,0,0-6.523-11.56.324.324,0,0,1-.129-.44.32.32,0,0,1,.438-.129,14.808,14.808,0,0,1,6.862,12.1.323.323,0,0,1-.311.337Z" transform="translate(-583.256 -52.792)"/>
        </g>
        <g id="Grupo_80362" data-name="Grupo 80362" transform="translate(101.473 119.423)">
          <path id="Trazado_113906" data-name="Trazado 113906" d="M529.525,126.223a.326.326,0,0,1-.278-.157c-2.625-4.362-5.941-8.939-6.849-8.939-1.585.391-7.541,2.388-7.6,2.409a.324.324,0,0,1-.208-.615c.246-.083,6.041-2.026,7.594-2.419,1.663-.384,6.252,6.958,7.619,9.228a.326.326,0,0,1-.278.492Z" transform="translate(-514.369 -116.489)" fill="#fff"/>
        </g>
        <g id="Grupo_80363" data-name="Grupo 80363" transform="translate(108.497 109.302)">
          <path id="Trazado_113907" data-name="Trazado 113907" d="M519.662,120.891a.33.33,0,0,1-.319-.272c-.141-.869-1.323-8.534.291-10.158a1.114,1.114,0,0,1,1-.33,1.245,1.245,0,0,1,.9.624c1.234,2.085-1.272,9.126-1.563,9.923A.322.322,0,0,1,519.662,120.891Zm.776-10.126a.466.466,0,0,0-.345.152c-.986.994-.651,5.505-.3,8.262.827-2.568,1.94-6.8,1.177-8.094a.591.591,0,0,0-.437-.314A.647.647,0,0,0,520.438,110.764Z" transform="translate(-518.793 -110.116)" fill="#fff"/>
        </g>
        <g id="Grupo_80364" data-name="Grupo 80364" transform="translate(57.924 84.213)">
          <path id="Trazado_113908" data-name="Trazado 113908" d="M499.12,144.116a.323.323,0,0,1-.3-.218L486.964,110.07a.312.312,0,0,1,.014-.248.315.315,0,0,1,.187-.165L532.6,94.333a.324.324,0,1,1,.208.613l-45.122,15.219,11.743,33.519a.325.325,0,0,1-.2.414A.365.365,0,0,1,499.12,144.116Z" transform="translate(-486.945 -94.316)" fill="#fff"/>
        </g>
        <g id="Grupo_80365" data-name="Grupo 80365" transform="translate(52.086 68.497)">
          <path id="Trazado_113909" data-name="Trazado 113909" d="M483.595,114.587a.314.314,0,0,1-.146-.035.323.323,0,0,1-.144-.435L498.139,84.6a.325.325,0,1,1,.58.292l-14.835,29.519A.323.323,0,0,1,483.595,114.587Z" transform="translate(-483.269 -84.419)" fill="#fff"/>
        </g>
        <g id="Grupo_80366" data-name="Grupo 80366" transform="translate(154.014 110.325)">
          <path id="Trazado_113910" data-name="Trazado 113910" d="M555.372,117.439c-1.964,0-7.232-5.505-7.825-6.133a.324.324,0,0,1,.286-.543c3.33.532,8.342,4.789,8.235,6.131A.611.611,0,0,1,555.372,117.439Zm-6.563-5.76c2.271,2.3,5.425,5.112,6.563,5.112a.282.282,0,0,0,.1-.011C555.494,116.207,552.01,112.774,548.809,111.679Z" transform="translate(-547.457 -110.76)" fill="#fff"/>
        </g>
        <g id="Grupo_80367" data-name="Grupo 80367" transform="translate(175.008 72.945)">
          <path id="Trazado_113911" data-name="Trazado 113911" d="M561,96.667a.323.323,0,0,1-.324-.324v-8.8a.324.324,0,0,1,.648,0v8.8A.324.324,0,0,1,561,96.667Z" transform="translate(-560.677 -87.22)" fill="#af4d04"/>
        </g>
        <g id="Grupo_80368" data-name="Grupo 80368" transform="translate(159.918 72.946)">
          <path id="Trazado_113912" data-name="Trazado 113912" d="M551.5,95.46a.339.339,0,0,1-.087-.011.326.326,0,0,1-.225-.4l2.1-7.592a.325.325,0,0,1,.626.175l-2.1,7.592A.324.324,0,0,1,551.5,95.46Z" transform="translate(-551.175 -87.221)" fill="#af4d04"/>
        </g>
        <g id="Grupo_80369" data-name="Grupo 80369" transform="translate(203.277 55.319)">
          <path id="Trazado_113913" data-name="Trazado 113913" d="M582.234,85.163a1.359,1.359,0,0,1-.6-.14c-2.142-1.024-3.058-7.772-3.155-8.537a.325.325,0,0,1,.543-.278c.21.2,5.11,4.818,4.848,7.409a1.648,1.648,0,0,1-.819,1.3A1.559,1.559,0,0,1,582.234,85.163Zm-2.969-7.813c.387,2.368,1.313,6.447,2.652,7.089a.77.77,0,0,0,.8-.078,1.02,1.02,0,0,0,.514-.808C583.392,81.93,580.846,78.962,579.265,77.35Z" transform="translate(-578.479 -76.121)" fill="#af4d04"/>
        </g>
        <g id="Grupo_80370" data-name="Grupo 80370" transform="translate(136.809 63.511)">
          <path id="Trazado_113914" data-name="Trazado 113914" d="M538.032,87.035a1.724,1.724,0,0,1-.7-.149,1.019,1.019,0,0,1-.713-.884c-.1-1.6,4.2-4.178,5.056-4.678a.324.324,0,0,1,.47.381c-.057.175-1.412,4.278-3.354,5.156A1.842,1.842,0,0,1,538.032,87.035Zm3.182-4.672c-1.869,1.178-3.991,2.827-3.944,3.6,0,.052.013.194.324.327a1.1,1.1,0,0,0,.934-.021C539.72,85.731,540.725,83.585,541.214,82.363Z" transform="translate(-536.622 -81.279)" fill="#af4d04"/>
        </g>
        <g id="Grupo_80371" data-name="Grupo 80371" transform="translate(146.139 86.775)">
          <path id="Trazado_113915" data-name="Trazado 113915" d="M542.821,105.456a.3.3,0,0,1-.1-.017.325.325,0,0,1-.2-.411l3.062-8.88a.327.327,0,0,1,.413-.2.324.324,0,0,1,.2.411l-3.063,8.88A.322.322,0,0,1,542.821,105.456Z" transform="translate(-542.497 -95.93)" fill="#af4d04"/>
        </g>
      </g>
      <g id="Grupo_80373" data-name="Grupo 80373" transform="translate(602.894 205.494)">
        <rect id="Rectángulo_33805" data-name="Rectángulo 33805" width="71.287" height="31.018" fill="#465fc4"/>
      </g>
      <g id="Grupo_80374" data-name="Grupo 80374" transform="translate(638.538 174.812)">
        <rect id="Rectángulo_33806" data-name="Rectángulo 33806" width="71.287" height="31.018" fill="#465fc4"/>
      </g>
      <g id="Grupo_80375" data-name="Grupo 80375" transform="translate(674.181 143.795)">
        <rect id="Rectángulo_33807" data-name="Rectángulo 33807" width="71.287" height="31.018" fill="#465fc4"/>
      </g>
    </g>
    <g id="Elipse_4734" data-name="Elipse 4734" transform="translate(1032 7497)" fill="none" stroke="#fff" stroke-width="10">
      <circle cx="36.5" cy="36.5" r="36.5" stroke="none"/>
      <circle cx="36.5" cy="36.5" r="31.5" fill="none"/>
    </g>
  </g>
</svg>
