<svg xmlns="http://www.w3.org/2000/svg" xmlns:xlink="http://www.w3.org/1999/xlink" width="85" height="85" viewBox="0 0 85 85">
  <defs>
    <clipPath id="clip-path">
      <rect id="Rect치ngulo_33810" data-name="Rect치ngulo 33810" width="85" height="85" transform="translate(1335 10401)" fill="#f9931f" stroke="#707070" stroke-width="1"/>
    </clipPath>
  </defs>
  <g id="Enmascarar_grupo_61" data-name="Enmascarar grupo 61" transform="translate(-1335 -10401)" clip-path="url(#clip-path)">
    <g id="obrero" transform="translate(1333.445 10399.445)">
      <path id="Trazado_113916" data-name="Trazado 113916" d="M5.708,69.693A75.094,75.094,0,0,0,3.447,85.518h5.9l1.023-14.651Z" fill="#ffd6bb"/>
      <path id="Trazado_113917" data-name="Trazado 113917" d="M32.963,69.693a75.094,75.094,0,0,1,2.26,15.826h-5.9L28.3,70.867Z" fill="#ffd6bb"/>
      <path id="Trazado_113918" data-name="Trazado 113918" d="M32.963,69.693c-3.4-11.412-11.079-14.657-11.079-14.657h-5.1S9.111,58.282,5.708,69.693l3.638,2.2L8.481,85.518H30.191L29.325,71.89Z" fill="#e9f4ff"/>
      <path id="Trazado_113919" data-name="Trazado 113919" d="M21.883,55.036h-5.1a14.621,14.621,0,0,0-3.257,2.151c2.395,2.66,7.584,6.712,16.391,5.61-3.618-5.889-8.039-7.761-8.039-7.761Z" fill="#cad8e5"/>
      <path id="Trazado_113920" data-name="Trazado 113920" d="M16.787,49.147h5.1v5.89a2.548,2.548,0,1,1-5.1,0Z" fill="#ffd6bb"/>
      <path id="Trazado_113921" data-name="Trazado 113921" d="M30.191,85.518,29.325,71.89s-3.755-4.221-2.063-12.656a19.506,19.506,0,0,0-4.4-3.678c-.361,5.244-1.954,8.265-2.871,9.6a.8.8,0,0,1-1.314,0c-.917-1.335-2.51-4.357-2.871-9.6a19.519,19.519,0,0,0-4.4,3.678C13.1,67.669,9.346,71.89,9.346,71.89L8.481,85.518Z" fill="#ffc721"/>
      <path id="Trazado_113922" data-name="Trazado 113922" d="M9.346,71.89,9.1,75.751H29.569l-.245-3.861a5.273,5.273,0,0,1-.363-.485H9.706a5.273,5.273,0,0,1-.36.485Z" fill="#f9931f"/>
      <path id="Trazado_113923" data-name="Trazado 113923" d="M8.757,81.171l-.276,4.347H30.189l-.276-4.347Z" fill="#f9931f"/>
      <path id="Trazado_113924" data-name="Trazado 113924" d="M16.787,53.106a20.391,20.391,0,0,0,5.1,1.618V49.147h-5.1Z" fill="#f4a28c"/>
      <path id="Trazado_113925" data-name="Trazado 113925" d="M18.3,64.561V85.518h2.073V64.561c-.137.229-.266.429-.384.6a.792.792,0,0,1-1.3,0c-.118-.172-.248-.372-.384-.6Z" fill="#f48337"/>
      <path id="Trazado_113926" data-name="Trazado 113926" d="M26.963,40.485v3.432a7.627,7.627,0,1,1-15.255,0V36.154H26.963Z" fill="#ffd6bb"/>
      <path id="Trazado_113927" data-name="Trazado 113927" d="M11.708,36.154H26.962v4.021H11.708Z" fill="#f4a28c"/>
      <path id="Trazado_113928" data-name="Trazado 113928" d="M28.817,34.475v-.8a9.482,9.482,0,1,0-18.964,0v.8Z" fill="#f9931f"/>
      <rect id="Rect치ngulo_33811" data-name="Rect치ngulo 33811" width="22.323" height="3.359" rx="1.679" transform="translate(8.174 34.475)" fill="#f9931f"/>
      <path id="Trazado_113929" data-name="Trazado 113929" d="M19.335,24.191a9.439,9.439,0,0,0-4.544,1.158v9.126h9.087V25.349a9.439,9.439,0,0,0-4.544-1.158Z" fill="#ef913c"/>
      <path id="Trazado_113930" data-name="Trazado 113930" d="M18.507,22.722h1.656a1.451,1.451,0,0,1,1.451,1.451v10.3H17.054v-10.3a1.451,1.451,0,0,1,1.454-1.452Z" fill="#f9931f"/>
      <path id="Trazado_113931" data-name="Trazado 113931" d="M9.853,33.348v1.127H28.817V33.348c0-.427-.016-.849-.044-1.265H9.9c-.028.417-.044.839-.044,1.265Z" fill="#ef913c"/>
      <path id="Trazado_113932" data-name="Trazado 113932" d="M15.341,44.631a3.632,3.632,0,0,0,1.666,3.2,4.233,4.233,0,0,0,4.658,0,3.632,3.632,0,0,0,1.666-3.2Z" fill="#ff7676"/>
      <path id="Trazado_113934" data-name="Trazado 113934" d="M15.808,55.556a17.56,17.56,0,0,0-2.276,1.633,17.375,17.375,0,0,0,2.9,2.567,25.785,25.785,0,0,1-.622-4.2Z" fill="#f4a34a"/>
      <g id="Grupo_80388" data-name="Grupo 80388">
        <path id="Trazado_113935" data-name="Trazado 113935" d="M34.188,85.555a1.037,1.037,0,0,0,1.035,1h.037a1.037,1.037,0,0,0,1-1.073,75.416,75.416,0,0,0-2.3-16.067s0,0,0-.007,0-.007,0-.01c-2.969-9.958-9.051-13.937-11.036-15V51.8A8.674,8.674,0,0,0,28,43.918V38.87h.818a2.716,2.716,0,0,0,1.037-5.226A10.535,10.535,0,0,0,22.6,23.676a2.493,2.493,0,0,0-2.439-1.991H18.507a2.492,2.492,0,0,0-2.438,1.991,10.535,10.535,0,0,0-7.251,9.968A2.716,2.716,0,0,0,9.854,38.87h.818v5.046A8.674,8.674,0,0,0,15.751,51.8v2.591c-1.985,1.066-8.067,5.046-11.036,15a.047.047,0,0,1,0,.01.065.065,0,0,1,0,.007,75.406,75.406,0,0,0-2.3,16.067,1.037,1.037,0,0,0,1,1.073h.037a1.037,1.037,0,0,0,1.035-1A77.141,77.141,0,0,1,6.374,71.306l1.9,1.146-.825,13a1.03,1.03,0,0,0,.008.212.011.011,0,0,0,0,.007,1.01,1.01,0,0,0,.048.194c.005.015.014.029.02.044a1.063,1.063,0,0,0,.067.141c.012.02.028.038.042.058a1.044,1.044,0,0,0,.081.106l.009.012a.661.661,0,0,0,.052.044,1.034,1.034,0,0,0,.094.081c.023.017.048.031.073.046a.946.946,0,0,0,.1.058c.027.013.056.022.085.032a1.055,1.055,0,0,0,.109.035c.032.008.066.012.1.016s.05.011.076.012l.065,0H30.191c.022,0,.043,0,.065,0s.051-.009.076-.012.066-.009.1-.016a1.053,1.053,0,0,0,.109-.035c.029-.01.057-.02.085-.032a.945.945,0,0,0,.1-.058.8.8,0,0,0,.073-.046,1.033,1.033,0,0,0,.094-.081c.016-.015.035-.027.052-.044l.009-.012a1.04,1.04,0,0,0,.081-.106c.014-.02.03-.038.042-.058a1.047,1.047,0,0,0,.067-.141c.006-.015.015-.029.02-.044a1.025,1.025,0,0,0,.048-.192.068.068,0,0,1,0-.01,1.027,1.027,0,0,0,.008-.212l-.62-9.766L30.4,72.452l1.9-1.146a77.158,77.158,0,0,1,1.891,14.249ZM14.948,57.4c.687,5.277,2.595,8.058,3.351,8.979v3.991H11.471a17.9,17.9,0,0,0,1.056-10.8,19.858,19.858,0,0,1,2.42-2.173Zm6.613.444a17.132,17.132,0,0,1-2.227,6.421,17.129,17.129,0,0,1-2.227-6.421,3.567,3.567,0,0,0,4.454,0ZM10.221,74.474l.13-2.033H18.3v2.274H10.206Zm-.492,7.733H15.66a1.037,1.037,0,1,0,0-2.073h-5.8l.212-3.346H18.3v7.693H9.586Zm19.079-2.073H20.372V76.788H28.6ZM20.37,82.208h8.569l.144,2.274H20.372Zm3.052-9.766h4.9l.046.731.1,1.543H20.372V66.377c.756-.921,2.664-3.7,3.351-8.979a19.877,19.877,0,0,1,2.42,2.174,17.925,17.925,0,0,0,1.063,10.8H23.424a1.037,1.037,0,1,0,0,2.073Zm-2.844-39H18.091v-8.12a8.476,8.476,0,0,1,2.488,0Zm-4.561-7.53v7.53H10.893a8.459,8.459,0,0,1,5.125-7.53ZM9.21,36.154a.644.644,0,0,1,.643-.643H21.615a1.037,1.037,0,0,0,1.037-1.037V25.908a8.459,8.459,0,0,1,5.125,7.53H25.4a1.037,1.037,0,1,0,0,2.073h3.421a.643.643,0,1,1,0,1.286H9.853a.644.644,0,0,1-.643-.643Zm3.534,7.762V38.87H25.926v5.046a6.591,6.591,0,1,1-13.182,0Zm6.591,8.664a8.673,8.673,0,0,0,1.511-.135v2.591a1.511,1.511,0,1,1-3.023,0V52.448a8.675,8.675,0,0,0,1.511.133Zm-8.607,9.145a14.113,14.113,0,0,1-1.668,8.78L6.94,69.226a26.371,26.371,0,0,1,3.789-7.5ZM29.613,70.5a14.222,14.222,0,0,1-1.67-8.777,26.369,26.369,0,0,1,3.788,7.5Z"/>
        <path id="Trazado_113936" data-name="Trazado 113936" d="M22.237,48.7a4.663,4.663,0,0,0,2.129-4.065,1.037,1.037,0,0,0-1.037-1.037H15.341A1.037,1.037,0,0,0,14.3,44.631,4.663,4.663,0,0,0,16.434,48.7a5.3,5.3,0,0,0,5.8,0ZM17.58,46.97a2.54,2.54,0,0,1-1.042-1.3h5.593a2.54,2.54,0,0,1-1.042,1.3A3.206,3.206,0,0,1,17.58,46.97Z"/>
        <circle id="Elipse_4741" data-name="Elipse 4741" cx="1.037" cy="1.037" r="1.037" transform="translate(15.904 40.427)"/>
        <circle id="Elipse_4742" data-name="Elipse 4742" cx="1.037" cy="1.037" r="1.037" transform="translate(20.689 40.427)"/>
      </g>
      <path id="Trazado_113937" data-name="Trazado 113937" d="M65.616,44.955H51.542v9.386h6.586a4.735,4.735,0,0,0,3.16-1.208,4.736,4.736,0,0,1,3.16-1.208h1.168Z" fill="#ffd6bb"/>
      <path id="Trazado_113938" data-name="Trazado 113938" d="M63.941,48.83c-.093.708-.373,1.237-1.087,1.237a3.179,3.179,0,0,0-2.223.965,3.389,3.389,0,0,1-2.4,1.343H51.542v1.965h6.586a4.735,4.735,0,0,0,3.16-1.208,4.736,4.736,0,0,1,3.16-1.208h1.168V44.955H63.887Z" fill="#f4a28c"/>
      <path id="Trazado_113939" data-name="Trazado 113939" d="M54.736,54.341c2.861-.56,3.058-1.412,3.058-1.412V50.147a4.152,4.152,0,0,1,1.4-2.343,1.424,1.424,0,0,0,.333-1.536c-.037-.09-.074-.15-.11-.155a3.125,3.125,0,0,1-1.472-.639c-1.77-1.348-4.078-.95-6.4-.512v9.386H54.7c.013,0,.023,0,.035-.007Z" fill="#f4a28c"/>
      <path id="Trazado_113940" data-name="Trazado 113940" d="M58.152,68.267a6.3,6.3,0,0,1-6.29-6.289V18.024a1.944,1.944,0,0,1,3.887,0V61.978a2.4,2.4,0,1,0,4.8,0V60.706a1.944,1.944,0,0,1,3.887,0v1.272a6.3,6.3,0,0,1-6.289,6.289Z" fill="#9696aa"/>
      <g id="Grupo_80389" data-name="Grupo 80389">
        <path id="Trazado_113941" data-name="Trazado 113941" d="M52.792,52.376a1.874,1.874,0,0,0-1.768-1.965H47.268a1.976,1.976,0,0,0,0,3.93h3.756a1.874,1.874,0,0,0,1.768-1.965Z" fill="#ffd6bb"/>
        <path id="Trazado_113942" data-name="Trazado 113942" d="M53.31,48.446a1.874,1.874,0,0,0-1.768-1.965H47.527a1.976,1.976,0,0,0,0,3.93h4.015A1.874,1.874,0,0,0,53.31,48.446Z" fill="#ffd6bb"/>
        <path id="Trazado_113943" data-name="Trazado 113943" d="M54.087,44.516a1.874,1.874,0,0,0-1.768-1.965H47.527a1.976,1.976,0,0,0,0,3.93H52.32a1.874,1.874,0,0,0,1.768-1.965Z" fill="#ffd6bb"/>
      </g>
      <path id="Trazado_113944" data-name="Trazado 113944" d="M53.805,2.591S35.14,3.417,23.721,18.305a.576.576,0,0,0,.425.927c2.429.128,8.425.817,13.085,4.447,0,0,5.483-3.808,16.574-3.808s16.574,3.808,16.574,3.808c4.66-3.63,10.656-4.321,13.085-4.447a.576.576,0,0,0,.425-.927C72.47,3.417,53.805,2.591,53.805,2.591Z" fill="#9aeccd"/>
      <path id="Trazado_113946" data-name="Trazado 113946" d="M53.805,2.591C42.147,8.854,37.231,23.679,37.231,23.679S42.714,20.4,53.805,20.4s16.574,3.277,16.574,3.277S65.463,8.854,53.805,2.591Z" fill="#fff"/>
      <path id="Trazado_113948" data-name="Trazado 113948" d="M65.616,42.651H84.663V54.678H65.616Z" fill="#465fc4"/>
      <path id="Trazado_113949" data-name="Trazado 113949" d="M61.074,45.887a8.607,8.607,0,0,0-.663-2.849,3.628,3.628,0,0,0-3.326-2.1H54.658a2.589,2.589,0,0,0-2.589,2.589v2.442a1.453,1.453,0,0,0,1.453,1.453A2.521,2.521,0,0,0,56.043,44.9s1.384,1.756,5.03.99Z" fill="#ffd6bb"/>
      <path id="Trazado_113950" data-name="Trazado 113950" d="M23.075,20.241c.078,0,7.907-.116,13.519,4.256l.021.014.01.006a1.018,1.018,0,0,0,.151.09l.03.014a1.03,1.03,0,0,0,.151.054l.028.008a1.056,1.056,0,0,0,.186.029h0a1.051,1.051,0,0,0,.174-.007l.058-.009a1.07,1.07,0,0,0,.126-.03l.057-.018a1.032,1.032,0,0,0,.17-.078c.046-.027,4.167-2.4,12.309-3,.247-.018.5-.033.755-.048V41.515h-3.3a2.912,2.912,0,0,0-2.8,3,3.11,3.11,0,0,0,.69,1.965,3.146,3.146,0,0,0-.122,3.769,3.1,3.1,0,0,0-.827,2.126,2.911,2.911,0,0,0,2.8,3h3.557v6.6a7.326,7.326,0,1,0,14.653,0V60.707a2.98,2.98,0,0,0-5.96,0v1.272a1.366,1.366,0,1,1-2.732,0v-6.6h1.343a5.765,5.765,0,0,0,3.851-1.473,3.693,3.693,0,0,1,2.468-.944h.131v1.717a1.037,1.037,0,0,0,1.037,1.037H84.663a1.037,1.037,0,0,0,0-2.073H66.652V43.689H84.663a1.037,1.037,0,0,0,0-2.073H65.616a1.037,1.037,0,0,0-1.037,1.037V43.92H61.758a8.163,8.163,0,0,0-.4-1.135,4.659,4.659,0,0,0-4.272-2.717h-.3V23.679a1.037,1.037,0,0,0-2.073,0V40.067h-.054a3.6,3.6,0,0,0-1.76.458V21.447c.3-.005.6-.008.907-.008,1.659,0,3.19.076,4.592.2,7.574.69,11.407,2.9,11.45,2.927a1.035,1.035,0,0,0,.532.147,1.019,1.019,0,0,0,.171-.014c.02,0,.04-.01.06-.015a1.069,1.069,0,0,0,.107-.026c.023-.008.044-.019.066-.029s.062-.026.092-.041.042-.028.063-.041a.811.811,0,0,0,.078-.052c5.615-4.373,13.441-4.258,13.519-4.256A1.037,1.037,0,0,0,85.4,18.6,41.433,41.433,0,0,0,65.268,4.011,44.037,44.037,0,0,0,53.851,1.555h-.091A43.964,43.964,0,0,0,42.341,4.01,41.433,41.433,0,0,0,22.211,18.6a1.037,1.037,0,0,0,.864,1.642ZM47.527,43.588h3.51c0,.035-.005.069-.005.1v2.442a2.483,2.483,0,0,0,.87,1.887,1.4,1.4,0,0,1-.1.994,1,1,0,0,1-.6.36H47.527a.955.955,0,0,1,0-1.857H48.6a1.037,1.037,0,1,0,0-2.073H47.527a.955.955,0,0,1,0-1.856Zm-.99,8.788a.859.859,0,0,1,.731-.928h3.756a.955.955,0,0,1,0,1.857H47.268a.861.861,0,0,1-.731-.93Zm11.615,13.04a3.443,3.443,0,0,0,3.439-3.439V60.706a.907.907,0,0,1,1.814,0v1.272a5.253,5.253,0,1,1-10.506,0V54.6a3.088,3.088,0,0,0,.93-2.227,3.12,3.12,0,0,0-.6-1.843,2.7,2.7,0,0,0,.259-.311,2.944,2.944,0,0,0,.526-1.633,3.546,3.546,0,0,0,.695-.171v13.56a3.443,3.443,0,0,0,3.439,3.439ZM53.106,43.692a1.555,1.555,0,0,1,1.552-1.552h2.427a2.584,2.584,0,0,1,2.379,1.49,6.753,6.753,0,0,1,.455,1.515.047.047,0,0,0,0,.008,1.026,1.026,0,0,0,.039.132c.008.022.012.046.021.067a.98.98,0,0,0,.057.108c.013.023.023.048.038.071a1.06,1.06,0,0,0,.073.09c.018.021.033.044.052.064a1.054,1.054,0,0,0,.106.089c.016.012.029.026.046.038a1.02,1.02,0,0,0,.126.069c.017.008.032.019.049.026a1.041,1.041,0,0,0,.111.036c.028.009.054.02.083.026s.06.007.09.011a1.037,1.037,0,0,0,.117.012h3.651v4.9h-.131A5.764,5.764,0,0,0,60.6,52.36a3.694,3.694,0,0,1-2.468.944H56.785V46.8a5.942,5.942,0,0,0,1.6.429,1.037,1.037,0,1,0,.264-2.056,2.962,2.962,0,0,1-1.791-.747,1,1,0,0,0-1.145-.366,1.049,1.049,0,0,0-.706,1.008,1.486,1.486,0,0,1-1.485,1.485.416.416,0,0,1-.416-.416ZM49.377,4.261A41.516,41.516,0,0,0,38.4,18.345a1.037,1.037,0,0,0,1.855.926c2.53-5.064,6.967-11.854,13.788-15.627,2.306.181,18.209,1.875,28.488,14.607a25.525,25.525,0,0,0-11.649,3.8A45.937,45.937,0,0,0,60.2,5.948a1.037,1.037,0,0,0-1.41,1.52,43.745,43.745,0,0,1,9.683,14.219c-6.5-3.087-22.718-3.3-31.149.769a25.094,25.094,0,0,0-12.247-4.2c7.609-9.42,18.321-12.8,24.3-13.991Z"/>
      <circle id="Elipse_4743" data-name="Elipse 4743" cx="1.037" cy="1.037" r="1.037" transform="translate(69.228 45.444)"/>
      <circle id="Elipse_4744" data-name="Elipse 4744" cx="1.037" cy="1.037" r="1.037" transform="translate(72.978 45.444)"/>
    </g>
  </g>
</svg>
