<svg xmlns="http://www.w3.org/2000/svg" width="138.667" height="131" viewBox="0 0 138.667 131">
  <g id="Grupo_83633" data-name="Grupo 83633" transform="translate(-185.333 -3321)">
    <g id="Grupo_80237" data-name="Grupo 80237" transform="translate(185.333 3330.667)">
      <g id="Grupo_80226" data-name="Grupo 80226" transform="translate(78.317 0)">
        <path id="Trazado_113619" data-name="Trazado 113619" d="M2632.409,1437.295l-54.867-54.866a2.742,2.742,0,0,1,0-3.876h0a2.74,2.74,0,0,1,3.877,0l54.867,54.865a2.74,2.74,0,0,1,0,3.877h0A2.743,2.743,0,0,1,2632.409,1437.295Z" transform="translate(-2576.74 -1377.749)" fill="#ffc721"/>
      </g>
      <g id="Grupo_80227" data-name="Grupo 80227" transform="translate(105.241 7.345)">
        <path id="Trazado_113620" data-name="Trazado 113620" d="M2662.99,1420.718l-20.6-20.6a2.74,2.74,0,0,1,0-3.876h0a2.739,2.739,0,0,1,3.876,0l20.6,20.6a2.741,2.741,0,0,1,0,3.877h0A2.744,2.744,0,0,1,2662.99,1420.718Z" transform="translate(-2641.59 -1395.441)" fill="#ffc721"/>
      </g>
      <g id="Grupo_80228" data-name="Grupo 80228" transform="translate(58.74 0)">
        <path id="Trazado_113621" data-name="Trazado 113621" d="M2604.831,1456.871l-74.443-74.442a2.74,2.74,0,0,1,0-3.876h0a2.739,2.739,0,0,1,3.876,0l74.444,74.442a2.738,2.738,0,0,1,0,3.876h0A2.742,2.742,0,0,1,2604.831,1456.871Z" transform="translate(-2529.585 -1377.749)" fill="#ffc721"/>
      </g>
      <g id="Grupo_80229" data-name="Grupo 80229" transform="translate(43.248 4.084)">
        <path id="Trazado_113622" data-name="Trazado 113622" d="M2578.925,1478.116l-85.852-85.849a2.743,2.743,0,0,1,0-3.876h0a2.739,2.739,0,0,1,3.876,0l85.853,85.85a2.741,2.741,0,0,1,0,3.876h0A2.741,2.741,0,0,1,2578.925,1478.116Z" transform="translate(-2492.271 -1387.586)" fill="#ffc721"/>
      </g>
      <g id="Grupo_80230" data-name="Grupo 80230" transform="translate(30.372 10.786)">
        <path id="Trazado_113623" data-name="Trazado 113623" d="M2554.087,1500.431l-92.028-92.023a2.741,2.741,0,0,1,0-3.877h0a2.743,2.743,0,0,1,3.876,0l92.026,92.025a2.739,2.739,0,0,1,0,3.876h0A2.737,2.737,0,0,1,2554.087,1500.431Z" transform="translate(-2461.256 -1403.728)" fill="#ffc721"/>
      </g>
      <g id="Grupo_80231" data-name="Grupo 80231" transform="translate(19.587 19.59)">
        <path id="Trazado_113624" data-name="Trazado 113624" d="M2530.09,1523.62l-94.008-94a2.743,2.743,0,0,1,0-3.877h0a2.742,2.742,0,0,1,3.877,0l94.006,94a2.74,2.74,0,0,1,0,3.877h0A2.741,2.741,0,0,1,2530.09,1523.62Z" transform="translate(-2435.279 -1424.935)" fill="#ffc721"/>
      </g>
      <g id="Grupo_80232" data-name="Grupo 80232" transform="translate(10.778 30.369)">
        <path id="Trazado_113625" data-name="Trazado 113625" d="M2508.906,1541.862h-7.753l-86.28-86.278a2.746,2.746,0,0,1,1.941-4.686,2.762,2.762,0,0,1,1.927.8Z" transform="translate(-2414.062 -1450.897)" fill="#ffc721"/>
      </g>
      <g id="Grupo_80233" data-name="Grupo 80233" transform="translate(4.077 43.25)">
        <path id="Trazado_113626" data-name="Trazado 113626" d="M2479.885,1560.007h-7.751l-73.412-73.41a2.739,2.739,0,0,1,1.941-4.673,2.7,2.7,0,0,1,1.941.8Z" transform="translate(-2397.921 -1481.923)" fill="#ffc721"/>
      </g>
      <g id="Grupo_80234" data-name="Grupo 80234" transform="translate(0 58.74)">
        <path id="Trazado_113627" data-name="Trazado 113627" d="M2454.561,1581.827h-7.751L2388.9,1523.92a2.741,2.741,0,1,1,3.868-3.884Z" transform="translate(-2388.1 -1519.233)" fill="#ffc721"/>
      </g>
      <g id="Grupo_80235" data-name="Grupo 80235" transform="translate(0 78.32)">
        <path id="Trazado_113628" data-name="Trazado 113628" d="M2434.981,1609.409h-7.738l-38.342-38.342a2.737,2.737,0,0,1,1.94-4.671,2.769,2.769,0,0,1,1.928.8Z" transform="translate(-2388.1 -1566.395)" fill="#ffc721"/>
      </g>
      <g id="Grupo_80236" data-name="Grupo 80236" transform="translate(7.339 105.249)">
        <path id="Trazado_113629" data-name="Trazado 113629" d="M2425.738,1647.342H2418l-11.414-11.413a2.736,2.736,0,1,1,3.871-3.868Z" transform="translate(-2405.776 -1631.257)" fill="#ffc721"/>
      </g>
    </g>
    <g id="Elipse_4727" data-name="Elipse 4727" transform="translate(195 3321)" fill="none" stroke="#fff" stroke-width="10">
      <circle cx="22" cy="22" r="22" stroke="none"/>
      <circle cx="22" cy="22" r="17" fill="none"/>
    </g>
  </g>
</svg>
