<svg xmlns="http://www.w3.org/2000/svg" xmlns:xlink="http://www.w3.org/1999/xlink" width="210" height="179.307" viewBox="0 0 210 179.307">
  <defs>
    <clipPath id="clip-path">
      <rect id="Imagen_14" data-name="Imagen 14" width="210" height="157.307" rx="19" transform="translate(915 3288.309)" fill="#ffdd7a"/>
    </clipPath>
  </defs>
  <g id="Grupo_81660" data-name="Grupo 81660" transform="translate(-915 -3266.309)">
    <rect id="Imagen_6" data-name="Imagen 6" width="210" height="112.307" rx="19" transform="translate(915 3333.309)" fill="#ffdd7a"/>
    <g id="City" transform="translate(915 3266.309)">
      <path id="City-2" data-name="City" d="M227.462,157.178V44.725l-4.641-2.68L213.538,47.4V67.082L207.35,63.51V56.364l-4.641-2.68V42.966l-9.283-5.359-7.735,4.466v25.01L179.5,63.51V49.218l-4.641-2.68V32.247l-10.83-6.253-9.282,5.359V59.937L147.013,64.4V46.538l-7.736-4.466-6.188,3.573v8.932L126.9,58.15V36.713l-6.188-3.573-6.189,3.573V29.577L108.335,26,94.576,33.947V64.861L89.85,67.589V44.725l-4.641-2.68L75.926,47.4V67.083L69.738,63.51V56.364L65.1,53.684V42.965l-9.283-5.359-7.735,4.466v25.01L41.89,63.51v-5.4l-4.641-2.68V41.138l-10.83-6.253-8.956,5.171V157.178Z" transform="translate(-17.463 -25.994)" fill="#ffdd7a"/>
    </g>
    <g id="Enmascarar_grupo_63" data-name="Enmascarar grupo 63" clip-path="url(#clip-path)">
      <g id="Character_2" data-name="Character 2" transform="translate(973.968 3300.063)">
        <g id="Chartacter">
          <g id="Bottom" transform="translate(9.399 121.928)">
            <g id="Grupo_81623" data-name="Grupo 81623" transform="translate(53.061 127.382)">
              <path id="Trazado_114149" data-name="Trazado 114149" d="M260.067,369.394l-1.578-14.7,16.823,1.107s-.255,7.978-.491,12.493c-.139,2.669,3.458,7.625,3.458,7.625s-7.9,4.235-12.136,2.753-6.474-6.749-6.415-7.9S260.067,369.394,260.067,369.394Z" transform="translate(-257.682 -354.697)" fill="#ffa8a7"/>
              <path id="Trazado_114150" data-name="Trazado 114150" d="M300.568,392.874c.265,0,.711,2.726-.713,3.914-1.641,1.372-6.491,3.661-12.959,2.989s-9.993-2.48-12.609-4.459-6.281-4.769-9.211-5.322c-2.721-.513-5.686-1.613-6.567-2.383s-.816-4.259-.816-4.259Z" transform="translate(-257.667 -355.22)" fill="#263238"/>
              <path id="Trazado_114151" data-name="Trazado 114151" d="M260.049,369.639a1.028,1.028,0,0,0-.964.832c-.183.965-.352,3.763-.754,5.348a26.458,26.458,0,0,0-.5,8.483c.385,1.781,4.826,2.947,7.667,3.906a36.329,36.329,0,0,1,9.242,5.252c3.071,2.288,9.491,4.614,13.7,4.514,4.977-.12,10.557-1.723,11.806-3.9,1.545-2.7,2.653-5.824-4.779-8.9-1.407-.581-6.359-3.215-8.047-4.172-4.568-2.588-7.792-4.978-9.95-9.659a2.636,2.636,0,0,0-1.085-1.424,2.507,2.507,0,0,0-1.436-.1c-1.227.183-6.122.9-7.234,1.418-.983.458-2.38,1-2.34,2.183a3.737,3.737,0,0,0,.3,1.2c.092.241.167.563-.057.709s-.5-.01-.693-.168a18.231,18.231,0,0,1-2.026-2.2,6.937,6.937,0,0,0-1.186-1.094,12.669,12.669,0,0,1-1.276-.744C259.98,370.716,260.079,370.2,260.049,369.639Z" transform="translate(-257.667 -354.97)" fill="#455a64"/>
              <path id="Trazado_114152" data-name="Trazado 114152" d="M274.985,393.737c-1.3-.971-2.685-1.908-4.071-2.742v-.007s8.76,4.789,12.23,2.488c2.236-1.482,1.133-3.218,1.069-3.778s7.85-4.652,10.04-4.934h0c.617.305,1.133.552,1.457.685,7.433,3.074,6.324,6.2,4.779,8.9-1.25,2.181-5.282,3.935-11.716,4.045C284.567,398.464,278.056,396.025,274.985,393.737Z" transform="translate(-257.909 -355.246)" fill="#37474f"/>
              <path id="Trazado_114153" data-name="Trazado 114153" d="M283.36,387.8c4.618,1.638,2.673,2.474,1.39,2.668s-9.075-3.9-13.843-7.3c-4.974-3.554-8.137-7.478-9.983-8.782-.688-.487-1.431-1.087-2.092-1.647.105-.947.19-1.809.275-2.263a1.028,1.028,0,0,1,.964-.832c.03.557-.069,1.077.387,1.487a12.669,12.669,0,0,0,1.276.744,6.935,6.935,0,0,1,1.186,1.094,18.29,18.29,0,0,0,2.026,2.2C269.03,379.855,278.743,386.16,283.36,387.8Z" transform="translate(-257.688 -354.97)" fill="#37474f"/>
              <g id="Grupo_81622" data-name="Grupo 81622" transform="translate(10.759 20.058)">
                <g id="Grupo_81617" data-name="Grupo 81617" transform="translate(15.506 9.265)">
                  <path id="Trazado_114154" data-name="Trazado 114154" d="M284.881,390.113a.466.466,0,0,1-.29-.091.406.406,0,0,1-.074-.6c1.272-1.506,7.353-5.133,10.735-4.843a.43.43,0,0,1,.41.46.438.438,0,0,1-.494.386c-3.158-.263-8.933,3.329-9.94,4.523A.463.463,0,0,1,284.881,390.113Z" transform="translate(-284.419 -384.565)" fill="#263238"/>
                </g>
                <g id="Grupo_81618" data-name="Grupo 81618" transform="translate(11.466 7.03)">
                  <path id="Trazado_114155" data-name="Trazado 114155" d="M280.765,387.835a.481.481,0,0,1-.29-.091.407.407,0,0,1-.074-.6c1.271-1.5,7.35-5.129,10.736-4.842a.431.431,0,0,1,.409.46.444.444,0,0,1-.493.386c-3.16-.259-8.934,3.328-9.941,4.522A.464.464,0,0,1,280.765,387.835Z" transform="translate(-280.304 -382.289)" fill="#263238"/>
                </g>
                <g id="Grupo_81619" data-name="Grupo 81619" transform="translate(7.426 4.915)">
                  <path id="Trazado_114156" data-name="Trazado 114156" d="M276.65,385.681a.468.468,0,0,1-.29-.091.407.407,0,0,1-.074-.6c1.272-1.506,7.353-5.135,10.736-4.842a.43.43,0,0,1,.409.461.442.442,0,0,1-.494.386c-3.159-.263-8.933,3.328-9.94,4.522A.467.467,0,0,1,276.65,385.681Z" transform="translate(-276.189 -380.134)" fill="#263238"/>
                </g>
                <g id="Grupo_81620" data-name="Grupo 81620" transform="translate(3.675 2.484)">
                  <path id="Trazado_114157" data-name="Trazado 114157" d="M272.829,383.2a.465.465,0,0,1-.289-.091.405.405,0,0,1-.074-.6c1.27-1.507,7.366-5.132,10.735-4.843a.431.431,0,0,1,.41.461.446.446,0,0,1-.494.386c-3.155-.261-8.933,3.327-9.94,4.521A.464.464,0,0,1,272.829,383.2Z" transform="translate(-272.369 -377.658)" fill="#263238"/>
                </g>
                <g id="Grupo_81621" data-name="Grupo 81621">
                  <path id="Trazado_114158" data-name="Trazado 114158" d="M269.085,380.727a.467.467,0,0,1-.283-.087.406.406,0,0,1-.083-.595c1.746-2.134,8.127-5.186,11.508-4.9a.43.43,0,0,1,.41.461.449.449,0,0,1-.494.386c-3.044-.257-9.155,2.675-10.7,4.567A.462.462,0,0,1,269.085,380.727Z" transform="translate(-268.625 -375.128)" fill="#263238"/>
                </g>
              </g>
            </g>
            <g id="Grupo_81630" data-name="Grupo 81630" transform="translate(0 133.518)">
              <path id="Trazado_114159" data-name="Trazado 114159" d="M225.93,377.521l3.841-13.922-17.124-2.652-.769,13.475s-1.821,4.809-.776,6.583,12.428,3.78,13.489,2.623S225.93,377.521,225.93,377.521Z" transform="translate(-203.75 -360.947)" fill="#ffa8a7"/>
              <path id="Trazado_114160" data-name="Trazado 114160" d="M224.04,408.625c-.559,4.314-1.5,7.1-3.4,9.411s-5.235,2.668-8.513,1.467-7.411-3.781-8.129-7.665-.362-6.432.646-10.366Z" transform="translate(-203.619 -361.687)" fill="#263238"/>
              <path id="Trazado_114161" data-name="Trazado 114161" d="M211.757,374.673c-1.375-.091-1.105,5.834-2.263,11.579-1.24,6.156-3.514,8.463-4.594,13.5-1.233,5.758-1.05,8.43,1.047,12.3s10.09,8.475,14.457,3.94c3.56-3.7,3.985-8.279,4.054-14.187a132.247,132.247,0,0,1,.633-14.975c.544-4.363,1.869-8.234.71-8.885-.132.633-.273,1.44-.409,2.062-.105.477-.392,2.84-1.161,2.759a8.1,8.1,0,0,1,.089-1.66,1.888,1.888,0,0,0-.286-1.471,6.392,6.392,0,0,0-2.2-1.156c-1.333-.421-3.719-.954-5.082-1.252-.678-.147-1.362-.27-2.047-.356a6.017,6.017,0,0,0-1.75-.017,1.068,1.068,0,0,0-.779.495,1.658,1.658,0,0,0-.114.662,4.2,4.2,0,0,1-.247,1.182c-.061.167-.209.36-.4.292a.372.372,0,0,1-.2-.386c.039-.71.174-1.211.262-2.031.041-.379.143-.888.174-1.27S211.705,375.045,211.757,374.673Z" transform="translate(-203.628 -361.198)" fill="#455a64"/>
              <path id="Trazado_114162" data-name="Trazado 114162" d="M205.317,398.561c-.187.83-1.348,6.33.31,7.577,1.8,1.35,3.1-2.923,3.1-2.923s4.447-.591,10.655,2.749c-.384.866.409,4,2.2,3.606s2.863-6.736,2.876-6.818c-.088,5.662-.589,10.088-4.045,13.677-4.367,4.536-12.361-.071-14.457-3.94s-2.28-6.542-1.047-12.3C205.024,399.613,205.166,399.076,205.317,398.561Z" transform="translate(-203.628 -361.634)" fill="#37474f"/>
              <path id="Trazado_114163" data-name="Trazado 114163" d="M209.247,403.224c-.161,2.121-2.479,1.081-2.393-1.933s2.384-9.877,2.69-15.039c.5-7.084.887-11.67,2.263-11.579-.01.072-.012.143-.021.215l-.367,2.948a12.052,12.052,0,0,0-.157,1.263c-.306,4.328-.478,12.742-1.148,16.645A60.978,60.978,0,0,0,209.247,403.224Z" transform="translate(-203.678 -361.198)" fill="#37474f"/>
              <path id="Trazado_114164" data-name="Trazado 114164" d="M218.911,405.429a59.614,59.614,0,0,0,1.773-7.274c.72-3.862,3.143-11.581,4.346-15.732a9.432,9.432,0,0,0,.629-2.354c.128-.58.258-1.316.383-1.929.012-.042.025-.084.034-.128.834.485.5,3.837.029,5.568s-1.041,3.586-1.632,6.072c-1.493,4.893-1.73,12.267-2.687,15.082S218.331,407.454,218.911,405.429Z" transform="translate(-203.897 -361.259)" fill="#37474f"/>
              <g id="Grupo_81629" data-name="Grupo 81629" transform="translate(4.586 23.181)">
                <g id="Grupo_81624" data-name="Grupo 81624" transform="translate(0 17.871)">
                  <path id="Trazado_114165" data-name="Trazado 114165" d="M219.577,406.231a.64.64,0,0,1-.182-.074,18.825,18.825,0,0,0-10.493-2.412.566.566,0,0,1-.6-.405.416.416,0,0,1,.4-.5,19.713,19.713,0,0,1,11.22,2.584.449.449,0,0,1,.176.637A.493.493,0,0,1,219.577,406.231Z" transform="translate(-208.29 -402.762)" fill="#263238"/>
                </g>
                <g id="Grupo_81625" data-name="Grupo 81625" transform="translate(0.21 13.172)">
                  <path id="Trazado_114166" data-name="Trazado 114166" d="M221.014,401.69a.619.619,0,0,1-.166-.065,23.319,23.319,0,0,0-11.748-2.7.567.567,0,0,1-.589-.421.42.42,0,0,1,.416-.489,24.131,24.131,0,0,1,12.411,2.852.457.457,0,0,1,.2.634A.492.492,0,0,1,221.014,401.69Z" transform="translate(-208.504 -397.976)" fill="#263238"/>
                </g>
                <g id="Grupo_81626" data-name="Grupo 81626" transform="translate(0.983 8.723)">
                  <path id="Trazado_114167" data-name="Trazado 114167" d="M209.721,394.513a.554.554,0,0,1-.411-.362.413.413,0,0,1,.353-.529c6.259-1.007,12.153,2.592,12.4,2.747a.447.447,0,0,1,.176.637.532.532,0,0,1-.7.1c-.056-.034-5.783-3.525-11.606-2.581A.577.577,0,0,1,209.721,394.513Z" transform="translate(-209.292 -393.444)" fill="#263238"/>
                </g>
                <g id="Grupo_81627" data-name="Grupo 81627" transform="translate(1.595 4.579)">
                  <path id="Trazado_114168" data-name="Trazado 114168" d="M210.345,390.355a.559.559,0,0,1-.409-.354.41.41,0,0,1,.343-.535,18.244,18.244,0,0,1,12.655,2.747.44.44,0,0,1,.132.642.534.534,0,0,1-.708.056,17.374,17.374,0,0,0-11.788-2.55A.571.571,0,0,1,210.345,390.355Z" transform="translate(-209.915 -389.223)" fill="#263238"/>
                </g>
                <g id="Grupo_81628" data-name="Grupo 81628" transform="translate(2.303)">
                  <path id="Trazado_114169" data-name="Trazado 114169" d="M211.066,385.687a.558.558,0,0,1-.406-.348.409.409,0,0,1,.333-.54c6.464-1.24,12.485,2.714,12.737,2.884a.443.443,0,0,1,.148.641.524.524,0,0,1-.7.071c-.059-.038-5.876-3.855-11.877-2.7A.553.553,0,0,1,211.066,385.687Z" transform="translate(-210.636 -384.559)" fill="#263238"/>
                </g>
              </g>
            </g>
            <g id="Grupo_81631" data-name="Grupo 81631" transform="translate(7.459)">
              <path id="Trazado_114170" data-name="Trazado 114170" d="M220.388,228.191c-3.223,34.146-4.55,79.693-4.55,79.693-.281,2.593-2.255,10.321-3.952,23.078-1.512,11.369.008,34.981,0,36.41,0,0,8.067,5.641,15.571,3.225,0,0,9.289-35.127,13.393-50.983,3.883-15.006,9.056-39.127,9.056-39.127l2.941,24.535s-.706,9.908-.543,16.732c.19,7.936,5.762,39.5,5.762,39.5s9,5.087,16.856-.862c0,0,3.366-46.027,3.75-55.564.752-18.707-.008-55.7-.253-79.879Z" transform="translate(-211.216 -224.945)" fill="#465fc4"/>
              <path id="Trazado_114171" data-name="Trazado 114171" d="M250.626,280.969l4.262-24.262s9.066-1.185,13.775-5.373c0,0-3.089,5.593-11.654,7.65l-4.2,22.079.764,24.44Z" transform="translate(-211.936 -225.427)" fill="#263238"/>
            </g>
            <path id="Trazado_114172" data-name="Trazado 114172" d="M211.434,370.233c1.829,2.577,9.569,4.931,16.291,2.724l1.526-5.582c-5.073,1.547-13.755.487-17.817-2.9Z" transform="translate(-203.762 -227.493)" fill="#ba68c8"/>
            <path id="Trazado_114173" data-name="Trazado 114173" d="M258.814,364.016c2.235,2.214,10.839,3.432,17.088.065l.347-5.382c-4.736,2.424-13.776,2.642-18.348.025Z" transform="translate(-204.61 -227.388)" fill="#ba68c8"/>
          </g>
          <g id="Top">
            <g id="Grupo_81642" data-name="Grupo 81642" transform="translate(65.118 15.905)">
              <g id="Grupo_81632" data-name="Grupo 81632" transform="translate(0 40.717)">
                <path id="Trazado_114174" data-name="Trazado 114174" d="M267.86,158.424c8.518,1.987,10.025,3.577,12.873,8.433s9.963,20.092,9.963,20.092.928-.631,3,4.276c2.1,4.99,1.424,5.578,1.424,5.578a11.188,11.188,0,0,0-8.105,2.856c-3.767,3.364-7.068,9.9-7.068,9.9s-.886-.494-3.062-3.6-16.507-25.909-16.507-25.909Z" transform="translate(-260.374 -158.424)" fill="#f0f0f0"/>
                <path id="Trazado_114175" data-name="Trazado 114175" d="M281.335,192.267a23.24,23.24,0,0,1,3.872-2.369c.663-.327,1.342-.622,2.032-.885a17.833,17.833,0,0,0,2.318-.8c.2-.111.022-.458-.172-.453a9.023,9.023,0,0,0-2.5.632,22.728,22.728,0,0,0-2.4.964,19.608,19.608,0,0,0-4.256,2.693c-2.351,1.973-4.5,4.908-4.188,8.141.014.138.188.3.24.087a14.737,14.737,0,0,1,1.863-4.648A13.691,13.691,0,0,1,281.335,192.267Zm9.267-.173a7.124,7.124,0,0,0-2.174.381,19.185,19.185,0,0,0-2.074.666,18.4,18.4,0,0,0-3.973,2.111,13.02,13.02,0,0,0-3.062,2.931,7.643,7.643,0,0,0-1.032,2.03,9.831,9.831,0,0,0-.55,2.3c-.006.07.081.178.135.085a21.3,21.3,0,0,0,.87-2.1,9.823,9.823,0,0,1,1.166-2.014,13.755,13.755,0,0,1,3.148-2.88,18.415,18.415,0,0,1,3.656-1.912c.645-.254,1.3-.488,1.962-.691a10.893,10.893,0,0,0,1.988-.615A.168.168,0,0,0,290.6,192.094Z" transform="translate(-260.66 -158.96)" opacity="0.1"/>
              </g>
              <g id="Grupo_81641" data-name="Grupo 81641" transform="translate(15.379)">
                <g id="Grupo_81640" data-name="Grupo 81640">
                  <path id="Trazado_114176" data-name="Trazado 114176" d="M305.869,163.979c-.149,4.71-1.526,6.3-4.383,9.9l14.315,3.239c4.5-4.816,6.22-9.484,2.523-15.953l-7.545-9.283S305.962,161.072,305.869,163.979Z" transform="translate(-276.504 -117.587)" fill="#ffa8a7"/>
                  <g id="Grupo_81639" data-name="Grupo 81639">
                    <g id="Hammer">
                      <path id="Trazado_114177" data-name="Trazado 114177" d="M322.59,171.346a6.282,6.282,0,0,0,4.353-3.657,1.981,1.981,0,0,0-.169-2.026L312.695,148.9l-6.148,5.168,14.07,16.754A1.975,1.975,0,0,0,322.59,171.346Z" transform="translate(-276.596 -117.533)" fill="#9aeccd"/>
                      <g id="Grupo_81633" data-name="Grupo 81633" transform="translate(28.927 30.151)">
                        <path id="Trazado_114178" data-name="Trazado 114178" d="M309.064,155.91a7.23,7.23,0,0,0,5.009-4.206,2.281,2.281,0,0,0-.194-2.332l-.888-1.057-7.072,5.945.879,1.046A2.27,2.27,0,0,0,309.064,155.91Z" transform="translate(-305.512 -147.673)" fill="#9aeccd"/>
                        <path id="Trazado_114179" data-name="Trazado 114179" d="M309.064,155.91a7.23,7.23,0,0,0,5.009-4.206,2.281,2.281,0,0,0-.194-2.332l-.888-1.057-7.072,5.945.879,1.046A2.27,2.27,0,0,0,309.064,155.91Z" transform="translate(-305.512 -147.673)" fill="#fff" opacity="0.2"/>
                        <path id="Trazado_114180" data-name="Trazado 114180" d="M313.16,150.613c.713-1.96-.374-3.254-2.428-2.891a7.229,7.229,0,0,0-5.009,4.207c-.712,1.96.375,3.254,2.429,2.891A7.225,7.225,0,0,0,313.16,150.613Z" transform="translate(-305.505 -147.661)" fill="#9aeccd"/>
                      </g>
                      <g id="Grupo_81634" data-name="Grupo 81634" transform="translate(12.393 9.899)">
                        <path id="Trazado_114181" data-name="Trazado 114181" d="M308.563,152.437a3.165,3.165,0,0,0,2.189-1.839,1,1,0,0,0-.085-1.02l-18.911-22.547-3.092,2.6,18.907,22.543A1,1,0,0,0,308.563,152.437Z" transform="translate(-288.663 -127.032)" fill="#455a64"/>
                        <path id="Trazado_114182" data-name="Trazado 114182" d="M290.788,127.878l1.006-.846,18.911,22.547a1,1,0,0,1,.085,1.02,2.5,2.5,0,0,1-.384.669Z" transform="translate(-288.702 -127.032)" fill="#37474f"/>
                      </g>
                      <path id="Trazado_114183" data-name="Trazado 114183" d="M278.035,123.431a4.406,4.406,0,0,1,1.2-1.857,8.3,8.3,0,0,1,4.587-2.325c.305-.061.8-.147,1.109-.2l4.1-.725a2.491,2.491,0,0,1,1.085.094l.663.242a2.5,2.5,0,0,0,1.086.094l2.16-.184a.794.794,0,0,1,.8.408l1.039,2.24a.442.442,0,0,1,.031.342c-.046.132-1.779,4.815-1.79,4.9a.406.406,0,0,1-.356.338l-.974.172a1.079,1.079,0,0,0-.748.628l-.338.929a1.078,1.078,0,0,1-.747.628l-5.141.909a1.244,1.244,0,0,1-.956-.3,8.233,8.233,0,0,0-3.23-2.081,5.019,5.019,0,0,0-5.387,3.142,3.88,3.88,0,0,1,.03-2.531C276.464,127.727,277.608,124.762,278.035,123.431Z" transform="translate(-276.039 -116.974)" fill="#455a64"/>
                      <path id="Trazado_114184" data-name="Trazado 114184" d="M293.755,126.886l-.974.172a1.08,1.08,0,0,0-.748.628l-.338.929a1.078,1.078,0,0,1-.747.628l-5.141.909a1.243,1.243,0,0,1-.956-.3,8.234,8.234,0,0,0-3.23-2.081,5.019,5.019,0,0,0-5.387,3.142,4.02,4.02,0,0,1,1.2-4.275,8.3,8.3,0,0,1,4.587-2.324c.305-.062.8-.148,1.109-.2l4.1-.726a2.477,2.477,0,0,1,1.085.1l.663.241a2.5,2.5,0,0,0,1.086.094l2.16-.184a.794.794,0,0,1,.8.408l1.038,2.24A.4.4,0,0,1,293.755,126.886Z" transform="translate(-276.039 -117.066)" fill="#37474f"/>
                      <g id="Grupo_81635" data-name="Grupo 81635" transform="translate(15.188)">
                        <path id="Trazado_114185" data-name="Trazado 114185" d="M293.056,126.256a7.66,7.66,0,0,1-1.206-6.824,2.414,2.414,0,0,1,1.744-1.761l3.911-.691,1.7,9.641-3.9.689A2.409,2.409,0,0,1,293.056,126.256Z" transform="translate(-291.509 -116.95)" fill="#263238"/>
                        <path id="Trazado_114186" data-name="Trazado 114186" d="M295.864,118.736c.755-2.076,2.518-2.389,3.94-.7a7.658,7.658,0,0,1,1.206,6.823c-.755,2.076-2.518,2.389-3.94.7A7.66,7.66,0,0,1,295.864,118.736Z" transform="translate(-291.583 -116.949)" fill="#455a64"/>
                      </g>
                      <g id="Grupo_81636" data-name="Grupo 81636" transform="translate(6.74 2.562)">
                        <path id="Trazado_114187" data-name="Trazado 114187" d="M284.316,122.354a2.01,2.01,0,0,0,1.392-1.168.633.633,0,0,0-.054-.648l-.671-.8-1.964,1.651.668.794A.63.63,0,0,0,284.316,122.354Z" transform="translate(-282.906 -119.562)" fill="#263238"/>
                        <path id="Trazado_114188" data-name="Trazado 114188" d="M285.03,120.38c.2-.545-.1-.9-.674-.8a2.01,2.01,0,0,0-1.391,1.168c-.2.545.1.9.674.8A2.009,2.009,0,0,0,285.03,120.38Z" transform="translate(-282.904 -119.559)" fill="#37474f"/>
                      </g>
                      <path id="Trazado_114189" data-name="Trazado 114189" d="M277.135,126.1a9.624,9.624,0,0,1,3.213-2.966,5.283,5.283,0,0,0-2.706,1.581Z" transform="translate(-276.059 -117.062)" fill="#37474f"/>
                      <g id="Grupo_81637" data-name="Grupo 81637" transform="translate(33.42 35.25)">
                        <path id="Trazado_114190" data-name="Trazado 114190" d="M324.32,168.969h0a.75.75,0,0,0,.092-1.056l-10.627-12.654a.75.75,0,0,0-1.056-.092h0a.75.75,0,0,0-.092,1.056l10.628,12.654A.749.749,0,0,0,324.32,168.969Z" transform="translate(-310.124 -152.894)" opacity="0.2"/>
                        <path id="Trazado_114191" data-name="Trazado 114191" d="M322.026,170.3h0a.439.439,0,0,0,.232-.733L311.5,156.755a1.026,1.026,0,0,0-1.066-.261h0a.44.44,0,0,0-.232.734l10.756,12.808A1.028,1.028,0,0,0,322.026,170.3Z" transform="translate(-310.081 -152.921)" opacity="0.2"/>
                        <path id="Trazado_114192" data-name="Trazado 114192" d="M326.025,166.938h0a.44.44,0,0,1-.763.1l-10.757-12.808a1.027,1.027,0,0,1-.073-1.1h0a.44.44,0,0,1,.763-.1l10.757,12.808A1.029,1.029,0,0,1,326.025,166.938Z" transform="translate(-310.158 -152.855)" opacity="0.2"/>
                      </g>
                    </g>
                    <path id="Trazado_114193" data-name="Trazado 114193" d="M305.951,163.937a22.928,22.928,0,0,1,1.025-7.338,3.731,3.731,0,0,1,.641-1.422,3.918,3.918,0,0,1,.812-.674q3.187-2.193,6.371-4.387a1.878,1.878,0,0,1,1.424-.478c.668.162.935.985.892,1.671-.15,2.424-2.548,4.16-3.059,6.534a17.957,17.957,0,0,0-.1,3.188,3.547,3.547,0,0,1-1.2,2.837,3.74,3.74,0,0,1-1.934.555,8.33,8.33,0,0,1-2.939-.189A6.253,6.253,0,0,0,305.951,163.937Z" transform="translate(-276.586 -117.546)" fill="#ffa8a7"/>
                    <g id="Grupo_81638" data-name="Grupo 81638" transform="translate(37.769 32.898)">
                      <path id="Trazado_114194" data-name="Trazado 114194" d="M314.511,150.936c1.832-.5,5.655-1.123,6.565,1.131l.039.1a5.351,5.351,0,0,0,.442,1.082c.341.53.941.838,1.336,1.329a8.573,8.573,0,0,1,.925,2.165c.368.868,1,1.6,1.421,2.445a5.4,5.4,0,0,1,.55,2.356,10.272,10.272,0,0,1-.725,3.318,1.741,1.741,0,0,1-1.875,1.159,2.516,2.516,0,0,1-1.1-.551,5.532,5.532,0,0,1-.607-.938,2.8,2.8,0,0,1-1.243-.09,1.792,1.792,0,0,1-.951-1,3.813,3.813,0,0,1-.24-1.389c-1.248.122-1.735-1.178-1.671-2.2.1-1.638,1.206-4.1-.023-5.555Z" transform="translate(-314.511 -150.459)" fill="#ffa8a7"/>
                    </g>
                  </g>
                </g>
                <path id="Trazado_114195" data-name="Trazado 114195" d="M301.088,174.285c-9.6,10.939-14.405,15.194-18.784,22.261-3.841,6.2-2.878,13.387-.914,14.771,2.86,2.016,10.833,1.222,17.25-4.262,5.959-5.092,8.91-16.835,16.762-29.532Z" transform="translate(-276.106 -117.996)" fill="#ffa8a7"/>
              </g>
            </g>
            <path id="Chest" d="M238.017,156.109c-3.442.711-13.9,4.9-17.862,7.1,0,0-4.585,9.586-2.261,31.78.372,3.551,1.316,13.126,1.756,20.52a116.07,116.07,0,0,1-.121,18.079s9.335,8.163,33.661,6.33c19.1-1.439,24.842-9.286,24.842-9.286s-.087-25.764-.583-39.849c-.652-18.5-6.254-29.175-10.378-32.406l-12.535-2.088Z" transform="translate(-194.469 -101.759)" fill="#f0f0f0"/>
            <g id="Grupo_81646" data-name="Grupo 81646" transform="translate(32.027 55.182)">
              <path id="Trazado_114196" data-name="Trazado 114196" d="M232.408,158.029l-5.74,2.219c4.156,3.678,8.412,16.578,9.7,24.854l5.921-1.994C241,174.831,236.564,161.707,232.408,158.029Z" transform="translate(-226.668 -156.977)" fill="#465fc4"/>
              <path id="Trazado_114197" data-name="Trazado 114197" d="M265.833,158.049l-6.638-1.092c4.156,3.678,8.492,16.545,9.776,24.821l6.093.314C273.779,173.816,269.988,161.726,265.833,158.049Z" transform="translate(-227.262 -156.957)" fill="#465fc4"/>
              <g id="Grupo_81645" data-name="Grupo 81645" transform="translate(3.195 22.755)">
                <path id="Trazado_114198" data-name="Trazado 114198" d="M229.922,238.351c2.56.593,6.932-1.254,6.472-14.224s-3.029-37.737-3.029-37.737,12.736-4.834,25.206-5.845,18.122.169,18.122.169c1.737,8.765,1.867,39.376,1.572,54.843C261.717,245.819,235.2,242.23,229.922,238.351Z" transform="translate(-229.922 -180.135)" fill="#465fc4"/>
                <g id="Grupo_81644" data-name="Grupo 81644" transform="translate(8.468 2.381)">
                  <g id="Grupo_81643" data-name="Grupo 81643" transform="translate(7.225 5.441)">
                    <path id="Trazado_114199" data-name="Trazado 114199" d="M245.907,191.144a41.306,41.306,0,0,1,5.831-1.736,51.99,51.99,0,0,1,6.009-1.007,46.038,46.038,0,0,1,6.089-.289,37.732,37.732,0,0,1,6.06.558c-1.018.017-2.022-.079-3.033-.031l-1.511,0-1.51.059c-2.01.091-4.016.222-6.013.458-2,.21-3.991.5-5.979.824q-1.49.246-2.974.547C247.882,190.7,246.9,190.927,245.907,191.144Z" transform="translate(-245.907 -188.103)" fill="#263238"/>
                    <path id="Trazado_114200" data-name="Trazado 114200" d="M269.9,188.681a20.991,20.991,0,0,1,.1,4.815,9.178,9.178,0,0,1-1.713,4.56,8.423,8.423,0,0,1-4.077,2.736,20.307,20.307,0,0,1-4.789.926,18.7,18.7,0,0,1-4.872-.266,11.59,11.59,0,0,1-4.531-1.854,9.424,9.424,0,0,1-3.121-3.736,11.856,11.856,0,0,1-.99-4.708,12.522,12.522,0,0,0,1.324,4.543,8.974,8.974,0,0,0,3.114,3.416,14.429,14.429,0,0,0,9.019,1.85,19.644,19.644,0,0,0,4.626-.824,8.3,8.3,0,0,0,3.844-2.447,8.766,8.766,0,0,0,1.8-4.249A23.782,23.782,0,0,0,269.9,188.681Z" transform="translate(-245.907 -188.113)" fill="#263238"/>
                  </g>
                  <path id="Trazado_114201" data-name="Trazado 114201" d="M242,188.594a1.726,1.726,0,1,1-1.726-1.726A1.726,1.726,0,0,1,242,188.594Z" transform="translate(-238.548 -182.639)" fill="#263238"/>
                  <path id="Trazado_114202" data-name="Trazado 114202" d="M274.544,184.286a1.726,1.726,0,1,1-1.726-1.726A1.726,1.726,0,0,1,274.544,184.286Z" transform="translate(-239.142 -182.56)" fill="#263238"/>
                </g>
              </g>
            </g>
            <g id="Grupo_81648" data-name="Grupo 81648" transform="translate(21.806 54.443)">
              <path id="Trazado_114203" data-name="Trazado 114203" d="M235.759,156.2l.046,1.224s4.588,11,4.968,32.7,0,65.923,0,65.923S230.339,258,217.559,252.56c0,0,1.721-21.174,1.51-29.8s-1.934-23.9-2.715-36.377a62.889,62.889,0,0,1,3.384-23.454Z" transform="translate(-216.257 -156.204)" fill="#f9931f"/>
              <g id="Grupo_81647" data-name="Grupo 81647" transform="translate(1.696 80.038)">
                <path id="Trazado_114204" data-name="Trazado 114204" d="M228.775,242.925a65.277,65.277,0,0,0,12.134.722c0-.937.01-1.909.015-2.908a63.94,63.94,0,0,1-12.09-.755,66.361,66.361,0,0,1-10.123-2.253c-.056,1.014-.115,2.024-.175,3.019A73.489,73.489,0,0,0,228.775,242.925Z" transform="translate(-217.994 -237.731)" fill="#fff"/>
                <path id="Trazado_114205" data-name="Trazado 114205" d="M240.848,252.033c.006-.884.013-1.859.02-2.908a63.713,63.713,0,0,1-12.208-.752,65.7,65.7,0,0,1-10.464-2.36c-.074,1.077-.145,2.089-.211,3.01a72.332,72.332,0,0,0,10.617,2.291A65.14,65.14,0,0,0,240.848,252.033Z" transform="translate(-217.984 -237.882)" fill="#fff"/>
              </g>
            </g>
            <g id="Grupo_81650" data-name="Grupo 81650" transform="translate(60.318 53.734)">
              <path id="Trazado_114206" data-name="Trazado 114206" d="M255.485,155.482l12.285,2.888s7.338,4.586,9.937,21.606,2.4,69.607,2.4,69.607a14.328,14.328,0,0,1-5.7,1.884s-.207-30.584-1.285-49.295c-1.3-22.575-4.368-36.657-17.453-45.856Z" transform="translate(-255.485 -155.482)" fill="#f9931f"/>
              <g id="Grupo_81649" data-name="Grupo 81649" transform="translate(18.705 78.048)">
                <path id="Trazado_114207" data-name="Trazado 114207" d="M280.46,246.726q0-1.355-.008-3.046c-1.9.573-3.829,1.078-5.782,1.491.014,1.081.026,2.075.036,2.967Q277.613,247.559,280.46,246.726Z" transform="translate(-274.54 -235.141)" fill="#fff"/>
                <path id="Trazado_114208" data-name="Trazado 114208" d="M274.538,236.621q.027,1.533.05,2.971c1.966-.437,3.912-.965,5.832-1.565q-.01-1.467-.024-3.045C278.478,235.6,276.52,236.155,274.538,236.621Z" transform="translate(-274.538 -234.982)" fill="#fff"/>
              </g>
            </g>
            <g id="Grupo_81652" data-name="Grupo 81652" transform="translate(0 61.168)">
              <path id="Trazado_114209" data-name="Trazado 114209" d="M252.491,199.018c3.723-2.3,5.57-3.151,7.239-3.47s7.592-2.2,9.83-2.549c1.421-.225,1.79,2.035-.113,3.4-1.466,1.051-5.142,2.276-6.771,2.991s-5,4.155-5,4.155Z" transform="translate(-195.112 -163.601)" fill="#f28f8f"/>
              <path id="Trazado_114210" data-name="Trazado 114210" d="M210.375,169.993c3.171-3.679,4.662-4.444,8.7-5.767,11.627,6.05,4.254,28.643,4.254,28.643l-6.415,18.655s17.145-.5,19.641-1.807,9.434-7.566,11.74-9.422c3.139-2.524,4.542-2.026,5.993-1.677,4.755,1.146,5.776,1.643,6.739,2.381a2.189,2.189,0,0,1,.773,1.958c1.265.272,3.184.4,3.246,2.523a5.923,5.923,0,0,1-.071,1.69,1.391,1.391,0,0,1,.789.55c.957,1.326-1.242,5.435-2.494,6.374-.879.66-2.048.65-3.554.309-1.28-.29-.563-1.555-.563-1.555l-1.822-.052c-4.163,2.44-4.844,7.938-10.129,8.7a35.33,35.33,0,0,0-6.434.673c-11.481,2.768-29.454,9.19-39.466,9.174-9.772-.015-7.279-11.06-5.993-18.151C196.257,207.956,205.045,176.175,210.375,169.993Z" transform="translate(-194.045 -163.075)" fill="#ffa8a7"/>
              <g id="Grupo_81651" data-name="Grupo 81651" transform="translate(62.131 38.224)">
                <path id="Trazado_114211" data-name="Trazado 114211" d="M262.952,203.645l-5.62-1.656,5.569.854A2.262,2.262,0,0,1,262.952,203.645Z" transform="translate(-257.332 -201.989)" fill="#f28f8f"/>
                <path id="Trazado_114212" data-name="Trazado 114212" d="M266.17,207.941l-6.51-1.431,6.584.669A3.491,3.491,0,0,1,266.17,207.941Z" transform="translate(-257.375 -202.072)" fill="#f28f8f"/>
                <path id="Trazado_114213" data-name="Trazado 114213" d="M264.015,211.368a6.736,6.736,0,0,1-.9.178,22.185,22.185,0,0,1-2.308-.048,2.608,2.608,0,0,1-.93,1.195,13.658,13.658,0,0,1-1.37.954l1.822.052a2.851,2.851,0,0,1,1.961-.907,1.33,1.33,0,0,1,.87.241,2.073,2.073,0,0,1,.607.777,1.742,1.742,0,0,0-.5-.911,1.363,1.363,0,0,0-.66-.325l.447-.775a4.119,4.119,0,0,0,1.018-.261,2.1,2.1,0,0,0,.954-.691A2.49,2.49,0,0,1,264.015,211.368Z" transform="translate(-257.353 -202.151)" fill="#f28f8f"/>
              </g>
              <path id="Trazado_114214" data-name="Trazado 114214" d="M219.355,163.054c-7.417,2.575-10.077,4.666-12.772,11.135-3.36,8.06-7.928,25.743-9.07,29.073-2.855,4.074-2.183,9.909-2.183,9.909s11.117-7.654,21.605-1.668c0,0,5.725-14.958,6.962-17.812S230.577,169.325,219.355,163.054Z" transform="translate(-194.067 -163.054)" fill="#f0f0f0"/>
              <path id="Trazado_114215" data-name="Trazado 114215" d="M216.659,207.069a13.876,13.876,0,0,0-7.669-3.783,18.356,18.356,0,0,0-9.434.926c-.026.01-.039.09,0,.082a31.164,31.164,0,0,1,4.764-.759,20.187,20.187,0,0,1,4.936.294,17.18,17.18,0,0,1,3.976,1.3,18.474,18.474,0,0,1,3.351,2.139C216.684,207.343,216.719,207.132,216.659,207.069Zm-6.233-.374a12.335,12.335,0,0,0-6.2-.134c-.021,0-.039.06-.01.058a18.939,18.939,0,0,1,6.264.558,15.128,15.128,0,0,1,2.913,1.146c.9.462,1.708,1.057,2.576,1.575.075.044.1-.12.062-.16A11.955,11.955,0,0,0,210.426,206.7Z" transform="translate(-194.145 -163.784)" opacity="0.1"/>
            </g>
            <g id="Grupo_81658" data-name="Grupo 81658" transform="translate(29.997)">
              <g id="Head" transform="translate(1.22 5.557)">
                <g id="Grupo_81656" data-name="Grupo 81656">
                  <g id="Grupo_81655" data-name="Grupo 81655">
                    <g id="Grupo_81653" data-name="Grupo 81653">
                      <path id="Trazado_114216" data-name="Trazado 114216" d="M233.268,116.164s-3.528.028-5.3,2.634-2.983,7.447-1.121,13c2.05,6.112,6.3,12.1,7.2,13.834a4.785,4.785,0,0,0,2.774,2.215l-.192-7.428-.277-5.175s4.173-3.788,4.533-7.506a11.891,11.891,0,0,0-1.406-7.5Z" transform="translate(-225.844 -106.587)" fill="#37474f"/>
                      <path id="Trazado_114217" data-name="Trazado 114217" d="M265.908,116.757c-3.341-10.432-8.931-10.671-17.3-10.225-10.215.546-15.51,5.528-16.234,9.7l7.111,7.091,26.3,1.717A18.46,18.46,0,0,0,265.908,116.757Z" transform="translate(-225.962 -106.409)" fill="#37474f"/>
                      <path id="Trazado_114218" data-name="Trazado 114218" d="M229.848,142.6c3.849,1.871,5.6-1.174,5.6-1.174l.578,15.316c7.388,9.888,27.1,6.315,19.017-1.091l-.015-3.494a23,23,0,0,0,3.332-.327c3.407-.537,5.545-3.244,6.56-6.934,1.5-5.458,2.088-14.2.03-23.489-.4-1.795-1.171-3.753-2.82-4.567-4.089-2.021-7.871.893-13.568,3.114-2.359.92-8.081,1.324-9.591.617,1.989,2.194,1.971,9.126-.957,11.94a6.438,6.438,0,0,1-1.467,1.911c-1.246,1.084-2.267-1.713-3.314-2.81a4.292,4.292,0,0,0-6.676,1.537A6.991,6.991,0,0,0,229.848,142.6Z" transform="translate(-225.843 -106.587)" fill="#ffa8a7"/>
                      <path id="Trazado_114219" data-name="Trazado 114219" d="M255.263,152.638c-4.471-.027-8.438-.578-11.077-1.691s-4.976-4.681-5.743-8.221c0,2.849,1.25,7.9,5.249,10s8.656,2.211,11.581,2.274Z" transform="translate(-226.073 -107.072)" fill="#f28f8f"/>
                    </g>
                    <g id="Grupo_81654" data-name="Grupo 81654" transform="translate(18.823 16.094)">
                      <path id="Trazado_114220" data-name="Trazado 114220" d="M248.941,125.8l-3.779,1.591a2.151,2.151,0,0,1,1.133-2.754A2,2,0,0,1,248.941,125.8Z" transform="translate(-245.016 -122.833)" fill="#37474f"/>
                      <path id="Trazado_114221" data-name="Trazado 114221" d="M263.342,125.672l-3.84-1.525a1.982,1.982,0,0,1,2.615-1.2A2.17,2.17,0,0,1,263.342,125.672Z" transform="translate(-245.28 -122.802)" fill="#37474f"/>
                      <path id="Trazado_114222" data-name="Trazado 114222" d="M246.664,130.627a1.67,1.67,0,1,0,1.61-1.729A1.67,1.67,0,0,0,246.664,130.627Z" transform="translate(-245.046 -122.913)" fill="#263238"/>
                      <path id="Trazado_114223" data-name="Trazado 114223" d="M260.136,129.93a1.671,1.671,0,1,0,1.609-1.73A1.521,1.521,0,0,0,260.136,129.93Z" transform="translate(-245.292 -122.9)" fill="#263238"/>
                      <path id="Trazado_114224" data-name="Trazado 114224" d="M253.746,126.885l1.379,10.633,5.616-2.074A24.887,24.887,0,0,0,253.746,126.885Z" transform="translate(-245.175 -122.876)" fill="#f28f8f"/>
                    </g>
                  </g>
                </g>
                <path id="Trazado_114225" data-name="Trazado 114225" d="M250.2,139.6l6.733,2.226a3.484,3.484,0,0,1-4.419,2.378A3.714,3.714,0,0,1,250.2,139.6Z" transform="translate(-226.285 -107.015)" fill="#b16668"/>
                <path id="Trazado_114226" data-name="Trazado 114226" d="M250.913,140.833a3.879,3.879,0,0,0-.855-.081,3.664,3.664,0,0,0,2.458,3.469,3.362,3.362,0,0,0,1.125.157A3.246,3.246,0,0,0,250.913,140.833Z" transform="translate(-226.285 -107.036)" fill="#f28f8f"/>
              </g>
              <path id="Trazado_114227" data-name="Trazado 114227" d="M247.808,117.2c3.8-1.314,10.255-1.561,13.77-1.057-.7-2.469-.841-5.627-7.064-5.188S247.255,114.088,247.808,117.2Z" transform="translate(-225.021 -100.934)" fill="#37474f"/>
              <g id="Grupo_81657" data-name="Grupo 81657">
                <path id="Trazado_114228" data-name="Trazado 114228" d="M224.926,125.757a21.107,21.107,0,0,0,1.9,5.767,21.646,21.646,0,0,1,1.324-1.743,35.5,35.5,0,0,1,9.683-7.873l.017,0c8.481-4.823,19.159-7.074,27.986-5.37a20.263,20.263,0,0,0-2-4.816,20.986,20.986,0,0,0-38.91,14.038Z" transform="translate(-224.6 -100.755)" fill="#f9931f"/>
                <path id="Trazado_114229" data-name="Trazado 114229" d="M232.394,104.215c1.007-.592,6.153-2.591,6.564-2.753,2.666-1.049,7.057-1.347,11.864,2a21.322,21.322,0,0,1,7.969,10.831l-5.461,2.206-1.776.315c-.989-4.061-7.133-12.505-14.785-12.228a7.377,7.377,0,0,0-1.078.1,9.981,9.981,0,0,0-2.9.837,28.738,28.738,0,0,0-2.769,2.609A4.7,4.7,0,0,1,232.394,104.215Z" transform="translate(-224.699 -100.748)" fill="#f9931f"/>
                <path id="Trazado_114230" data-name="Trazado 114230" d="M232.394,104.215c1.007-.592,6.153-2.591,6.564-2.753,2.666-1.049,7.057-1.347,11.864,2a21.322,21.322,0,0,1,7.969,10.831l-5.461,2.206-1.776.315c-.989-4.061-7.133-12.505-14.785-12.228a7.377,7.377,0,0,0-1.078.1,9.981,9.981,0,0,0-2.9.837,28.738,28.738,0,0,0-2.769,2.609A4.7,4.7,0,0,1,232.394,104.215Z" transform="translate(-224.699 -100.748)" fill="#fff" opacity="0.45"/>
                <path id="Trazado_114231" data-name="Trazado 114231" d="M251.557,116.86c-1.162-4.727-9.378-15.492-18.765-11.3a28.663,28.663,0,0,0-2.781,2.609,4.736,4.736,0,0,1,2.383-3.918c2.421-1.4,7.412-2.405,12.973,1.467a21.272,21.272,0,0,1,7.958,10.828Z" transform="translate(-224.699 -100.79)" fill="#f9931f"/>
                <path id="Trazado_114232" data-name="Trazado 114232" d="M251.557,116.86c-1.162-4.727-9.378-15.492-18.765-11.3a28.663,28.663,0,0,0-2.781,2.609,4.736,4.736,0,0,1,2.383-3.918c2.421-1.4,7.412-2.405,12.973,1.467a21.272,21.272,0,0,1,7.958,10.828Z" transform="translate(-224.699 -100.79)" opacity="0.3"/>
                <path id="Trazado_114233" data-name="Trazado 114233" d="M237.8,120.392a23.491,23.491,0,0,1,8.653-9.021c4.112-2.636,12.9-3.455,16.856-3.706,6.921-.44,8.689.9,8.857,1.909.039.24.226,1.351.278,1.6a.981.981,0,0,1-.092.667c-.91,1.651-6.277,4.813-6.277,4.813-8.828-1.7-19.505.547-27.986,5.37Z" transform="translate(-224.841 -100.873)" fill="#f9931f"/>
                <path id="Trazado_114234" data-name="Trazado 114234" d="M237.8,120.392a23.491,23.491,0,0,1,8.653-9.021c4.112-2.636,12.9-3.455,16.856-3.706,6.921-.44,8.689.9,8.857,1.909.039.24.226,1.351.278,1.6a.981.981,0,0,1-.092.667c-.91,1.651-6.277,4.813-6.277,4.813-8.828-1.7-19.505.547-27.986,5.37Z" transform="translate(-224.841 -100.873)" opacity="0.15"/>
                <path id="Trazado_114235" data-name="Trazado 114235" d="M238.1,122.055c8.481-4.823,19.159-7.074,27.986-5.37,0,0,5.367-3.161,6.277-4.812.485-.911-.192-3.089-8.753-2.545-3.952.251-12.745,1.07-16.856,3.706A23.508,23.508,0,0,0,238.1,122.055Z" transform="translate(-224.846 -100.903)" fill="#f9931f"/>
                <path id="Trazado_114236" data-name="Trazado 114236" d="M238.1,122.055c8.481-4.823,19.159-7.074,27.986-5.37,0,0,5.367-3.161,6.277-4.812.485-.911-.192-3.089-8.753-2.545-3.952.251-12.745,1.07-16.856,3.706A23.508,23.508,0,0,0,238.1,122.055Z" transform="translate(-224.846 -100.903)" opacity="0.3"/>
              </g>
            </g>
          </g>
        </g>
      </g>
    </g>
    <g id="Grupo_81659" data-name="Grupo 81659" transform="translate(923 3391.333)">
      <g id="Grupo_80111" data-name="Grupo 80111" transform="translate(25.366)">
        <path id="Trazado_113526" data-name="Trazado 113526" d="M290.173,1037.985l-17.77-17.77a.888.888,0,0,1,0-1.255h0a.888.888,0,0,1,1.256,0l17.77,17.77a.888.888,0,0,1,0,1.256h0A.888.888,0,0,1,290.173,1037.985Z" transform="translate(-272.143 -1018.7)" fill="#465fc4"/>
      </g>
      <g id="Grupo_80112" data-name="Grupo 80112" transform="translate(34.086 2.379)">
        <path id="Trazado_113527" data-name="Trazado 113527" d="M343.924,1044.577l-6.671-6.671a.888.888,0,0,1,0-1.255h0a.887.887,0,0,1,1.256,0l6.671,6.671a.888.888,0,0,1,0,1.256h0A.887.887,0,0,1,343.924,1044.577Z" transform="translate(-336.993 -1036.39)" fill="#465fc4"/>
      </g>
      <g id="Grupo_80113" data-name="Grupo 80113" transform="translate(19.025)">
        <path id="Trazado_113528" data-name="Trazado 113528" d="M249.36,1044.326l-24.11-24.11a.887.887,0,0,1,0-1.255h0a.887.887,0,0,1,1.255,0l24.111,24.11a.887.887,0,0,1,0,1.255h0A.887.887,0,0,1,249.36,1044.326Z" transform="translate(-224.989 -1018.7)" fill="#465fc4"/>
      </g>
      <g id="Grupo_80114" data-name="Grupo 80114" transform="translate(14.008 1.323)">
        <path id="Trazado_113529" data-name="Trazado 113529" d="M215.74,1057.857l-27.8-27.8a.888.888,0,0,1,0-1.256h0a.887.887,0,0,1,1.255,0L217,1056.6a.888.888,0,0,1,0,1.255h0A.887.887,0,0,1,215.74,1057.857Z" transform="translate(-187.675 -1028.537)" fill="#465fc4"/>
      </g>
      <g id="Grupo_80115" data-name="Grupo 80115" transform="translate(9.838 3.493)">
        <path id="Trazado_113530" data-name="Trazado 113530" d="M186.728,1076l-29.8-29.8a.888.888,0,0,1,0-1.256h0a.888.888,0,0,1,1.255,0l29.805,29.805a.888.888,0,0,1,0,1.255h0A.888.888,0,0,1,186.728,1076Z" transform="translate(-156.663 -1044.677)" fill="#465fc4"/>
      </g>
      <g id="Grupo_80116" data-name="Grupo 80116" transform="translate(6.345 6.345)">
        <path id="Trazado_113531" data-name="Trazado 113531" d="M161.392,1097.847,130.946,1067.4a.888.888,0,0,1,0-1.256h0a.888.888,0,0,1,1.256,0l30.446,30.446a.889.889,0,0,1,0,1.256h0A.889.889,0,0,1,161.392,1097.847Z" transform="translate(-130.686 -1065.885)" fill="#465fc4"/>
      </g>
      <g id="Grupo_80117" data-name="Grupo 80117" transform="translate(3.493 9.838)">
        <path id="Trazado_113532" data-name="Trazado 113532" d="M139.543,1123.183l-29.805-29.8a.888.888,0,0,1,0-1.255h0a.888.888,0,0,1,1.256,0l29.8,29.8a.887.887,0,0,1,0,1.255h0A.888.888,0,0,1,139.543,1123.183Z" transform="translate(-109.478 -1091.863)" fill="#465fc4"/>
      </g>
      <g id="Grupo_80118" data-name="Grupo 80118" transform="translate(1.323 14.008)">
        <path id="Trazado_113533" data-name="Trazado 113533" d="M121.4,1152.2,93.6,1124.39a.887.887,0,0,1,0-1.255h0a.887.887,0,0,1,1.255,0l27.805,27.8a.888.888,0,0,1,0,1.256h0A.887.887,0,0,1,121.4,1152.2Z" transform="translate(-93.336 -1122.875)" fill="#465fc4"/>
      </g>
      <g id="Grupo_80119" data-name="Grupo 80119" transform="translate(0 19.025)">
        <path id="Trazado_113534" data-name="Trazado 113534" d="M107.87,1185.815,83.759,1161.7a.887.887,0,0,1,0-1.255h0a.887.887,0,0,1,1.255,0l24.111,24.11a.887.887,0,0,1,0,1.255h0A.887.887,0,0,1,107.87,1185.815Z" transform="translate(-83.499 -1160.189)" fill="#465fc4"/>
      </g>
      <g id="Grupo_80120" data-name="Grupo 80120" transform="translate(0 25.366)">
        <path id="Trazado_113535" data-name="Trazado 113535" d="M101.529,1226.628l-17.77-17.77a.888.888,0,0,1,0-1.256h0a.888.888,0,0,1,1.255,0l17.77,17.77a.888.888,0,0,1,0,1.255h0A.888.888,0,0,1,101.529,1226.628Z" transform="translate(-83.499 -1207.343)" fill="#465fc4"/>
      </g>
      <g id="Grupo_80121" data-name="Grupo 80121" transform="translate(2.379 34.086)">
        <path id="Trazado_113536" data-name="Trazado 113536" d="M108.122,1280.379l-6.671-6.671a.888.888,0,0,1,0-1.256h0a.888.888,0,0,1,1.255,0l6.671,6.671a.888.888,0,0,1,0,1.255h0A.888.888,0,0,1,108.122,1280.379Z" transform="translate(-101.191 -1272.193)" fill="#465fc4"/>
      </g>
    </g>
    <g id="Elipse_4746" data-name="Elipse 4746" transform="translate(952 3414)" fill="none" stroke="#f9931f" stroke-width="6">
      <ellipse cx="13" cy="13.5" rx="13" ry="13.5" stroke="none"/>
      <ellipse cx="13" cy="13.5" rx="10" ry="10.5" fill="none"/>
    </g>
    <g id="Elipse_4747" data-name="Elipse 4747" transform="translate(1087 3311)" fill="none" stroke="#465fc4" stroke-width="6">
      <ellipse cx="13" cy="13.5" rx="13" ry="13.5" stroke="none"/>
      <ellipse cx="13" cy="13.5" rx="10" ry="10.5" fill="none"/>
    </g>
  </g>
</svg>
