<svg xmlns="http://www.w3.org/2000/svg" xmlns:xlink="http://www.w3.org/1999/xlink" width="210" height="179.307" viewBox="0 0 210 179.307">
  <defs>
    <clipPath id="clip-path">
      <rect id="Imagen_14" data-name="Imagen 14" width="210" height="157.307" rx="19" transform="translate(915 3288.309)" fill="#ffdd7a"/>
    </clipPath>
  </defs>
  <g id="Grupo_81662" data-name="Grupo 81662" transform="translate(-915 -3266.309)">
    <rect id="Imagen_6" data-name="Imagen 6" width="210" height="112.307" rx="19" transform="translate(915 3333.309)" fill="#ffdd7a"/>
    <g id="City" transform="translate(915 3266.309)">
      <path id="City-2" data-name="City" d="M227.462,157.178V44.725l-4.641-2.68L213.538,47.4V67.082L207.35,63.51V56.364l-4.641-2.68V42.966l-9.283-5.359-7.735,4.466v25.01L179.5,63.51V49.218l-4.641-2.68V32.247l-10.83-6.253-9.282,5.359V59.937L147.013,64.4V46.538l-7.736-4.466-6.188,3.573v8.932L126.9,58.15V36.713l-6.188-3.573-6.189,3.573V29.577L108.335,26,94.576,33.947V64.861L89.85,67.589V44.725l-4.641-2.68L75.926,47.4V67.083L69.738,63.51V56.364L65.1,53.684V42.965l-9.283-5.359-7.735,4.466v25.01L41.89,63.51v-5.4l-4.641-2.68V41.138l-10.83-6.253-8.956,5.171V157.178Z" transform="translate(-17.463 -25.994)" fill="#ffdd7a"/>
    </g>
    <g id="Grupo_63" data-name="Grupo 63" clip-path="url(#clip-path)">
      <g id="Chartacter" transform="translate(622.281 3233.078)">
        <g id="Bottom" transform="translate(355.14 177.887)">
          <g id="Grupo_81704" data-name="Grupo 81704" transform="translate(0 121.246)">
            <path id="Trazado_114315" data-name="Trazado 114315" d="M397.671,331.129l1.519-13.989-16.195,1.054s.246,7.594.473,11.891c.135,2.541-3.329,7.258-3.329,7.258s7.607,4.032,11.684,2.621,6.232-6.425,6.175-7.518S397.671,331.129,397.671,331.129Z" transform="translate(-357.889 -317.14)" fill="#ffbda7"/>
            <path id="Trazado_114316" data-name="Trazado 114316" d="M357,355.035c-.255,0-.684,2.595.685,3.726,1.581,1.3,6.25,3.484,12.476,2.845s9.62-2.361,12.139-4.243,6.047-4.54,8.868-5.066c2.619-.489,5.473-1.535,6.321-2.268s.786-4.054.786-4.054Z" transform="translate(-356.221 -319.195)" fill="#263238"/>
            <path id="Trazado_114317" data-name="Trazado 114317" d="M395.968,332.174a.987.987,0,0,1,.927.793c.176.918.34,3.581.726,5.09a24.9,24.9,0,0,1,.478,8.075c-.37,1.695-4.647,2.806-7.382,3.718a35.159,35.159,0,0,0-8.9,5c-2.956,2.179-9.137,4.392-13.187,4.3-4.791-.113-10.162-1.64-11.365-3.716-1.489-2.569-2.554-5.543,4.6-8.468,1.355-.554,6.121-3.061,7.747-3.971,4.4-2.463,7.5-4.739,9.579-9.195a2.517,2.517,0,0,1,1.044-1.356,2.449,2.449,0,0,1,1.384-.092,50.072,50.072,0,0,1,6.964,1.35c.946.437,2.291.948,2.252,2.078a3.545,3.545,0,0,1-.287,1.144c-.088.228-.161.535.056.674s.479-.009.667-.16a17.4,17.4,0,0,0,1.95-2.094,6.7,6.7,0,0,1,1.142-1.041,12.348,12.348,0,0,0,1.229-.709C396.034,333.2,395.938,332.7,395.968,332.174Z" transform="translate(-356.182 -318.211)" fill="#455a64"/>
            <path id="Trazado_114318" data-name="Trazado 114318" d="M381.821,355.933c1.255-.924,2.586-1.816,3.919-2.61v-.007s-8.433,4.558-11.774,2.368c-2.153-1.411-1.091-3.063-1.03-3.6s-7.556-4.428-9.665-4.7h0c-.593.291-1.09.525-1.4.653-7.155,2.926-6.089,5.9-4.6,8.468,1.2,2.076,5.085,3.746,11.278,3.851C372.6,360.433,378.865,358.112,381.821,355.933Z" transform="translate(-356.182 -319.296)" fill="#37474f"/>
            <path id="Trazado_114319" data-name="Trazado 114319" d="M374.663,349.459c-4.445,1.559-2.573,2.354-1.337,2.539s8.737-3.708,13.327-6.951c4.788-3.382,7.833-7.117,9.612-8.36.662-.462,1.377-1.034,2.014-1.567-.1-.9-.182-1.723-.265-2.155a.988.988,0,0,0-.928-.792c-.03.529.066,1.025-.372,1.415a12.348,12.348,0,0,1-1.229.709,6.7,6.7,0,0,0-1.142,1.041,17.4,17.4,0,0,1-1.95,2.094C388.459,341.9,379.108,347.9,374.663,349.459Z" transform="translate(-357.299 -318.211)" fill="#37474f"/>
            <g id="Grupo_81703" data-name="Grupo 81703" transform="translate(5.967 19.092)">
              <g id="Grupo_81698" data-name="Grupo 81698" transform="translate(0 8.819)">
                <path id="Trazado_114320" data-name="Trazado 114320" d="M372.989,352.473a.457.457,0,0,0,.279-.087.383.383,0,0,0,.071-.568c-1.224-1.433-7.079-4.884-10.335-4.609a.412.412,0,0,0-.395.438.421.421,0,0,0,.476.367c3.041-.25,8.6,3.169,9.57,4.306A.448.448,0,0,0,372.989,352.473Z" transform="translate(-362.607 -347.192)" fill="#263238"/>
              </g>
              <g id="Grupo_81699" data-name="Grupo 81699" transform="translate(3.89 6.692)">
                <path id="Trazado_114321" data-name="Trazado 114321" d="M377.178,350.18a.454.454,0,0,0,.278-.086.385.385,0,0,0,.072-.568c-1.224-1.432-7.077-4.882-10.335-4.608a.412.412,0,0,0-.4.438.428.428,0,0,0,.476.367c3.042-.246,8.6,3.168,9.57,4.3A.447.447,0,0,0,377.178,350.18Z" transform="translate(-366.795 -344.901)" fill="#263238"/>
              </g>
              <g id="Grupo_81700" data-name="Grupo 81700" transform="translate(7.779 4.678)">
                <path id="Trazado_114322" data-name="Trazado 114322" d="M381.365,348.013a.456.456,0,0,0,.279-.086.385.385,0,0,0,.071-.568c-1.224-1.434-7.079-4.888-10.335-4.608a.411.411,0,0,0-.395.438.425.425,0,0,0,.476.367c3.042-.25,8.6,3.168,9.569,4.3A.448.448,0,0,0,381.365,348.013Z" transform="translate(-370.983 -342.734)" fill="#263238"/>
              </g>
              <g id="Grupo_81701" data-name="Grupo 81701" transform="translate(11.389 2.365)">
                <path id="Trazado_114323" data-name="Trazado 114323" d="M385.253,345.522a.452.452,0,0,0,.278-.086.384.384,0,0,0,.072-.568c-1.223-1.433-7.091-4.884-10.335-4.608a.413.413,0,0,0-.4.438.428.428,0,0,0,.476.368c3.037-.249,8.6,3.167,9.569,4.3A.448.448,0,0,0,385.253,345.522Z" transform="translate(-374.87 -340.243)" fill="#263238"/>
              </g>
              <g id="Grupo_81702" data-name="Grupo 81702" transform="translate(14.188)">
                <path id="Trazado_114324" data-name="Trazado 114324" d="M389.007,343.026a.454.454,0,0,0,.272-.083.384.384,0,0,0,.081-.567c-1.681-2.032-7.825-4.936-11.079-4.662a.413.413,0,0,0-.4.438.432.432,0,0,0,.476.367c2.931-.244,8.814,2.547,10.306,4.347A.444.444,0,0,0,389.007,343.026Z" transform="translate(-377.883 -337.697)" fill="#263238"/>
              </g>
            </g>
          </g>
          <g id="Grupo_81711" data-name="Grupo 81711" transform="translate(68.108 127.087)">
            <path id="Trazado_114325" data-name="Trazado 114325" d="M433.214,339.2l-3.7-13.251L446,323.429l.739,12.826s1.753,4.578.748,6.265-11.964,3.6-12.987,2.5S433.214,339.2,433.214,339.2Z" transform="translate(-429.515 -323.429)" fill="#ffbda7"/>
            <path id="Trazado_114326" data-name="Trazado 114326" d="M435.32,371.012c.539,4.106,1.447,6.754,3.277,8.958s5.039,2.539,8.2,1.4,7.135-3.6,7.825-7.3.349-6.122-.621-9.866Z" transform="translate(-429.929 -326.334)" fill="#263238"/>
            <path id="Trazado_114327" data-name="Trazado 114327" d="M446.991,337.24c1.324-.087,1.064,5.552,2.179,11.02,1.194,5.86,3.383,8.056,4.422,12.852,1.188,5.481,1.011,8.024-1.007,11.708s-9.714,8.067-13.918,3.75c-3.427-3.52-3.837-7.88-3.9-13.5a124.669,124.669,0,0,0-.61-14.254c-.523-4.152-1.8-7.837-.684-8.457.127.6.263,1.372.395,1.963.1.453.377,2.7,1.117,2.625a7.617,7.617,0,0,0-.085-1.579,1.778,1.778,0,0,1,.275-1.4,6.173,6.173,0,0,1,2.118-1.1c1.284-.4,3.579-.908,4.892-1.191.653-.141,1.31-.257,1.971-.34a5.859,5.859,0,0,1,1.685-.017,1.032,1.032,0,0,1,.749.472,1.571,1.571,0,0,1,.11.63,3.972,3.972,0,0,0,.239,1.126c.059.158.2.343.387.277a.35.35,0,0,0,.193-.367c-.038-.675-.166-1.154-.253-1.934-.039-.36-.137-.846-.167-1.209S447.041,337.594,446.991,337.24Z" transform="translate(-429.765 -324.413)" fill="#455a64"/>
            <path id="Trazado_114328" data-name="Trazado 114328" d="M453.325,361.274c.179.789,1.3,6.026-.3,7.212-1.728,1.284-2.979-2.782-2.979-2.782s-4.281-.563-10.257,2.616c.369.824-.395,3.81-2.114,3.433s-2.756-6.411-2.77-6.49c.085,5.389.567,9.6,3.894,13.019,4.2,4.317,11.9-.067,13.918-3.75s2.195-6.227,1.007-11.708C453.606,362.275,453.471,361.763,453.325,361.274Z" transform="translate(-429.899 -326.126)" fill="#37474f"/>
            <path id="Trazado_114329" data-name="Trazado 114329" d="M450.526,364.415c.155,2.018,2.387,1.028,2.3-1.84s-2.295-9.4-2.59-14.316c-.477-6.743-.853-11.107-2.178-11.021.009.069.012.137.02.205l.353,2.806a11.266,11.266,0,0,1,.151,1.2c.3,4.119.461,12.128,1.105,15.844A57.43,57.43,0,0,1,450.526,364.415Z" transform="translate(-430.837 -324.413)" fill="#37474f"/>
            <path id="Trazado_114330" data-name="Trazado 114330" d="M440.358,366.7a56.378,56.378,0,0,1-1.707-6.924c-.693-3.676-3.025-11.023-4.184-14.975a8.868,8.868,0,0,1-.606-2.24c-.124-.553-.249-1.254-.369-1.836-.012-.04-.023-.081-.033-.122-.8.461-.481,3.652-.029,5.3s1,3.413,1.57,5.78c1.438,4.657,1.665,11.675,2.587,14.356S440.916,368.623,440.358,366.7Z" transform="translate(-429.761 -324.652)" fill="#37474f"/>
            <g id="Grupo_81710" data-name="Grupo 81710" transform="translate(5.592 22.064)">
              <g id="Grupo_81705" data-name="Grupo 81705" transform="translate(3.613 17.01)">
                <path id="Trazado_114331" data-name="Trazado 114331" d="M439.992,368.8a.594.594,0,0,0,.176-.07,18.267,18.267,0,0,1,10.1-2.3.543.543,0,0,0,.579-.385.4.4,0,0,0-.38-.478,19.13,19.13,0,0,0-10.8,2.46.425.425,0,0,0-.169.606A.479.479,0,0,0,439.992,368.8Z" transform="translate(-439.426 -365.501)" fill="#263238"/>
              </g>
              <g id="Grupo_81706" data-name="Grupo 81706" transform="translate(2.232 12.537)">
                <path id="Trazado_114332" data-name="Trazado 114332" d="M438.507,364.22a.572.572,0,0,0,.16-.061,22.633,22.633,0,0,1,11.31-2.565.545.545,0,0,0,.567-.4.4.4,0,0,0-.4-.465,23.45,23.45,0,0,0-11.949,2.715.432.432,0,0,0-.193.6A.475.475,0,0,0,438.507,364.22Z" transform="translate(-437.94 -360.685)" fill="#263238"/>
              </g>
              <g id="Grupo_81707" data-name="Grupo 81707" transform="translate(1.562 8.302)">
                <path id="Trazado_114333" data-name="Trazado 114333" d="M449.34,357.143a.531.531,0,0,0,.4-.345.394.394,0,0,0-.341-.5c-6.025-.958-11.7,2.468-11.939,2.615a.423.423,0,0,0-.169.606.516.516,0,0,0,.671.092c.054-.032,5.567-3.356,11.173-2.457A.559.559,0,0,0,449.34,357.143Z" transform="translate(-437.218 -356.125)" fill="#263238"/>
              </g>
              <g id="Grupo_81708" data-name="Grupo 81708" transform="translate(0.764 4.358)">
                <path id="Trazado_114334" data-name="Trazado 114334" d="M448.69,352.955a.533.533,0,0,0,.393-.336.389.389,0,0,0-.329-.51,17.712,17.712,0,0,0-12.182,2.614.418.418,0,0,0-.127.612.52.52,0,0,0,.682.053,16.867,16.867,0,0,1,11.347-2.427A.564.564,0,0,0,448.69,352.955Z" transform="translate(-436.359 -351.879)" fill="#263238"/>
              </g>
              <g id="Grupo_81709" data-name="Grupo 81709">
                <path id="Trazado_114335" data-name="Trazado 114335" d="M447.95,348.26a.538.538,0,0,0,.392-.332.39.39,0,0,0-.321-.514C441.8,346.235,436,350,435.758,350.161a.419.419,0,0,0-.142.609.508.508,0,0,0,.677.068c.057-.037,5.658-3.67,11.435-2.574A.541.541,0,0,0,447.95,348.26Z" transform="translate(-435.536 -347.186)" fill="#263238"/>
              </g>
            </g>
          </g>
          <g id="Grupo_81712" data-name="Grupo 81712" transform="translate(19.645)">
            <path id="Trazado_114336" data-name="Trazado 114336" d="M432.939,189.49c3.752,31.375,6.891,76.4,6.891,76.4.27,2.468,2.066,6.672,3.457,18.843,1.467,12.84,2.12,46.317,2.12,46.317-1.534,4.926-13.543,7.318-17.242,2.575,0,0-11.049-40.129-14.469-55.351-3.513-15.634-7.274-38.812-7.274-38.812l-2.029,23.235s.7,7.965.548,14.46c-.183,7.554-5.813,50.53-5.813,50.53s-11.628,2.863-19.189-2.8c0,0-2.106-51.8-2.475-60.873-.724-17.806,1.812-54.409,2.048-77.419Z" transform="translate(-377.334 -186.592)" fill="#37474f"/>
            <path id="Trazado_114337" data-name="Trazado 114337" d="M407.322,241.35l-4.1-23.092s-8.727-1.128-13.261-5.114c0,0,2.973,5.323,11.219,7.28l4.047,21.016.068,23.145Z" transform="translate(-378.234 -188.484)" opacity="0.2"/>
          </g>
        </g>
        <g id="Top" transform="translate(341.552 64.427)">
          <path id="Trazado_114338" data-name="Trazado 114338" d="M388.713,119.5c-7.354.361-10.918,2.8-21.093,9.462-8.836,5.788-25.871,16.321-25.871,16.321s-1.987,14.587,6.675,14.587c3.473,0,8.242-.874,14.043-3.835,8.116-4.141,15.48-8.342,15.48-8.342Z" transform="translate(-341.552 -68.351)" fill="#465fc4"/>
          <g id="Grupo_81723" data-name="Grupo 81723" transform="translate(0.174 12.88)">
            <path id="Trazado_114339" data-name="Trazado 114339" d="M353.885,112.009c-.8-1.883-1.406-3.3-2.03-4.816a8.491,8.491,0,0,1-.415-3.636c.02-1.5-.248-3.417.416-3.734s2.066.251,2.8,1.9.472,3.085,1.28,4.222,1.224,1.688,1.224,1.688Z" transform="translate(-342.429 -79.823)" fill="#f0997a"/>
            <g id="Grupo_81722" data-name="Grupo 81722" transform="translate(5.385)">
              <g id="Grupo_81716" data-name="Grupo 81716" transform="translate(0.317 13.647)">
                <g id="Grupo_81713" data-name="Grupo 81713" transform="translate(2.026)">
                  <path id="Trazado_114340" data-name="Trazado 114340" d="M350.158,97.313a1.4,1.4,0,0,1,.108-1.23c.124-.227.626-1.132.759-1.372.479-.866,1.819-1.675,4.236-1.72,3.608-.067,6.9,1.622,7.772,2.731s4.242,6.814,4.772,7.922c1.252,2.619,2.291,4.952,3.76,7.93,1.381,2.8,1.929,4.634,1.656,5.131-.018.032-.661,1.2-.756,1.368a.283.283,0,0,1-.061.076,7.107,7.107,0,0,1-3.2.6,12.279,12.279,0,0,1-3.852-.474c-.8-.323-2.536-2.187-4.647-5.154s-3.874-5.285-5.769-7.892C354.128,104.133,350.628,98.431,350.158,97.313Z" transform="translate(-350.061 -92.99)" fill="#9aeccd"/>
                  <path id="Trazado_114341" data-name="Trazado 114341" d="M373.417,118.252c.137-.246.723-1.306.739-1.337.273-.5-.276-2.331-1.656-5.13-1.468-2.978-2.507-5.311-3.76-7.93-.529-1.108-3.9-6.812-4.771-7.922l-.756,1.366c.871,1.11,4.242,6.814,4.771,7.922,1.253,2.62,2.292,4.952,3.76,7.93C373.1,115.894,373.651,117.712,373.417,118.252Z" transform="translate(-350.998 -93.2)" opacity="0.3"/>
                  <path id="Trazado_114342" data-name="Trazado 114342" d="M354.505,94.463c-3.608.067-4.816,1.839-4.347,2.955s3.97,6.82,4.772,7.922c1.9,2.607,3.658,4.926,5.769,7.892s3.843,4.83,4.647,5.154a12.279,12.279,0,0,0,3.852.474,7.107,7.107,0,0,0,3.2-.6c.4-.345-.125-2.232-1.594-5.209s-2.508-5.311-3.76-7.929c-.529-1.109-3.9-6.813-4.771-7.922S358.112,94.4,354.505,94.463Z" transform="translate(-350.061 -93.095)" fill="#ba68c8"/>
                  <path id="Trazado_114343" data-name="Trazado 114343" d="M354.505,94.463c-3.608.067-4.816,1.839-4.347,2.955s3.97,6.82,4.772,7.922c1.9,2.607,3.658,4.926,5.769,7.892s3.843,4.83,4.647,5.154a12.279,12.279,0,0,0,3.852.474,7.107,7.107,0,0,0,3.2-.6c.4-.345-.125-2.232-1.594-5.209s-2.508-5.311-3.76-7.929c-.529-1.109-3.9-6.813-4.771-7.922S358.112,94.4,354.505,94.463Z" transform="translate(-350.061 -93.095)" fill="#fff" opacity="0.2"/>
                </g>
                <g id="Grupo_81714" data-name="Grupo 81714" transform="translate(0 0.708)">
                  <path id="Trazado_114344" data-name="Trazado 114344" d="M348.018,99.542a1.836,1.836,0,0,1,.115-1.628c.209-.375,1.031-1.863,1.255-2.271.542-.984,1.991-1.842,4.565-1.889,3.982-.073,7.643,1.847,8.753,3.262.908,1.156,4.335,6.947,4.9,8.117.48,1.006.94,1.989,1.383,2.94.723,1.549,1.469,3.149,2.372,4.979,1.044,2.117,2.141,4.73,1.679,5.572-.032.059-1.078,1.954-1.262,2.283a.526.526,0,0,1-.115.142,7.342,7.342,0,0,1-3.477.7,12.931,12.931,0,0,1-4.23-.553c-1.464-.589-3.683-3.4-5.287-5.651-1.3-1.821-2.473-3.413-3.61-4.953-.7-.947-1.424-1.927-2.152-2.929C352.056,106.494,348.508,100.706,348.018,99.542Z" transform="translate(-347.879 -93.752)" fill="#37474f"/>
                  <path id="Trazado_114345" data-name="Trazado 114345" d="M372.814,121.158c.185-.329,1.232-2.224,1.263-2.283.462-.842-.635-3.455-1.679-5.572-.9-1.83-1.649-3.43-2.372-4.979-.443-.95-.9-1.935-1.384-2.939-.558-1.171-3.986-6.963-4.895-8.118l-1.259,2.277c.908,1.156,4.335,6.948,4.894,8.117.482,1.007.941,1.989,1.384,2.94.723,1.548,1.47,3.15,2.372,4.98C372.184,117.7,373.283,120.319,372.814,121.158Z" transform="translate(-348.92 -94.002)" fill="#263238"/>
                  <path id="Trazado_114346" data-name="Trazado 114346" d="M368.181,121.92a7.342,7.342,0,0,0,3.477-.7c.731-.629-.446-3.458-1.561-5.72-.9-1.83-1.649-3.431-2.371-4.979-.444-.951-.9-1.935-1.384-2.94-.56-1.17-3.987-6.961-4.895-8.117-1.112-1.415-4.772-3.336-8.754-3.262s-5.273,2.086-4.675,3.511c.489,1.164,4.037,6.953,4.884,8.117.728,1,1.452,1.982,2.152,2.929,1.137,1.54,2.314,3.132,3.61,4.953,1.6,2.253,3.824,5.063,5.287,5.651A12.931,12.931,0,0,0,368.181,121.92Z" transform="translate(-347.879 -93.927)" fill="#455a64"/>
                </g>
                <g id="Grupo_81715" data-name="Grupo 81715" transform="translate(0.012 3.643)">
                  <path id="Trazado_114347" data-name="Trazado 114347" d="M347.989,101.236a1.4,1.4,0,0,1,.108-1.23l.759-1.372c.479-.866,1.818-1.675,4.236-1.72,3.608-.067,6.9,1.622,7.772,2.731s4.242,6.814,4.772,7.922c1.252,2.619,2.291,4.951,3.76,7.929,1.381,2.8,1.929,4.634,1.656,5.131-.018.032-.661,1.2-.756,1.368a.3.3,0,0,1-.061.077,7.132,7.132,0,0,1-3.2.6,12.28,12.28,0,0,1-3.852-.475c-.8-.323-2.536-2.187-4.647-5.153s-3.874-5.286-5.769-7.892C351.959,108.056,348.459,102.354,347.989,101.236Z" transform="translate(-347.892 -96.913)" fill="#9aeccd"/>
                  <path id="Trazado_114348" data-name="Trazado 114348" d="M371.248,122.175c.137-.246.722-1.306.739-1.336.273-.5-.276-2.331-1.656-5.131-1.468-2.978-2.507-5.311-3.76-7.929-.529-1.108-3.9-6.813-4.771-7.922l-.756,1.366c.871,1.109,4.241,6.813,4.771,7.921,1.253,2.62,2.292,4.952,3.76,7.93C370.931,119.818,371.482,121.635,371.248,122.175Z" transform="translate(-348.829 -97.123)" opacity="0.2"/>
                  <path id="Trazado_114349" data-name="Trazado 114349" d="M352.335,98.386c-3.607.067-4.816,1.839-4.347,2.955s3.97,6.82,4.772,7.922c1.9,2.607,3.658,4.927,5.769,7.892s3.843,4.829,4.647,5.153a12.281,12.281,0,0,0,3.852.475,7.133,7.133,0,0,0,3.2-.6c.4-.346-.125-2.233-1.594-5.21s-2.508-5.31-3.76-7.929c-.529-1.108-3.9-6.813-4.771-7.922S355.943,98.319,352.335,98.386Z" transform="translate(-347.892 -97.018)" fill="#9aeccd"/>
                  <path id="Trazado_114350" data-name="Trazado 114350" d="M352.335,98.386c-3.607.067-4.816,1.839-4.347,2.955s3.97,6.82,4.772,7.922c1.9,2.607,3.658,4.927,5.769,7.892s3.843,4.829,4.647,5.153a12.281,12.281,0,0,0,3.852.475,7.133,7.133,0,0,0,3.2-.6c.4-.346-.125-2.233-1.594-5.21s-2.508-5.31-3.76-7.929c-.529-1.108-3.9-6.813-4.771-7.922S355.943,98.319,352.335,98.386Z" transform="translate(-347.892 -97.017)" fill="#fff" opacity="0.39"/>
                </g>
              </g>
              <g id="Grupo_81717" data-name="Grupo 81717" transform="translate(14.407 18.359)">
                <path id="Trazado_114351" data-name="Trazado 114351" d="M363.091,99.515l.752-1.36a.141.141,0,0,1,.111-.083l.522-.009a.139.139,0,0,1,.115.075l1.41,2.191a.409.409,0,0,1,.012.381l-.751,1.359a.136.136,0,0,1-.113.083l-.519.01a.138.138,0,0,1-.115-.075L363.1,99.9A.409.409,0,0,1,363.091,99.515Z" transform="translate(-363.05 -98.063)" fill="#9aeccd"/>
                <path id="Trazado_114352" data-name="Trazado 114352" d="M364.631,98.138l1.41,2.191a.409.409,0,0,1,.012.381l-.751,1.359a.121.121,0,0,1-.228.008l-1.41-2.192a.409.409,0,0,1-.012-.381l.751-1.359A.122.122,0,0,1,364.631,98.138Z" transform="translate(-363.09 -98.053)" opacity="0.2"/>
                <path id="Trazado_114353" data-name="Trazado 114353" d="M363.1,100.021l1.41,2.192a.14.14,0,0,0,.114.074l.509-.01a.148.148,0,0,1-.1-.075l-1.41-2.191a.37.37,0,0,1-.052-.188l-.521.01A.366.366,0,0,0,363.1,100.021Z" transform="translate(-363.05 -98.188)" fill="#fff" opacity="0.2"/>
              </g>
              <g id="Grupo_81718" data-name="Grupo 81718" transform="translate(16.653 21.757)">
                <path id="Trazado_114354" data-name="Trazado 114354" d="M365.511,103.162l.752-1.359a.131.131,0,0,1,.11-.081l.51.012a.139.139,0,0,1,.111.081l1.228,2.091a.435.435,0,0,1,.007.389l-.751,1.36a.132.132,0,0,1-.111.08l-.509-.011a.141.141,0,0,1-.111-.082l-1.227-2.09A.434.434,0,0,1,365.511,103.162Z" transform="translate(-365.469 -101.722)" fill="#9aeccd"/>
                <path id="Trazado_114355" data-name="Trazado 114355" d="M367.033,101.816l1.228,2.091a.435.435,0,0,1,.007.389l-.751,1.36c-.059.107-.159.106-.223,0l-1.227-2.09a.434.434,0,0,1-.008-.39l.752-1.359C366.87,101.707,366.97,101.708,367.033,101.816Z" transform="translate(-365.508 -101.723)" opacity="0.2"/>
                <path id="Trazado_114356" data-name="Trazado 114356" d="M365.519,103.677l1.227,2.091a.143.143,0,0,0,.111.081l.5.01a.152.152,0,0,1-.1-.081l-1.228-2.09a.422.422,0,0,1-.048-.194l-.51-.011A.4.4,0,0,0,365.519,103.677Z" transform="translate(-365.469 -101.847)" fill="#fff" opacity="0.2"/>
              </g>
              <g id="Grupo_81719" data-name="Grupo 81719" transform="translate(0 13.506)">
                <path id="Trazado_114357" data-name="Trazado 114357" d="M348.185,95.83a.764.764,0,0,1,.061-.769,2.4,2.4,0,0,1,1.861-1.121.763.763,0,0,1,.709.3c.118.194.162.267.279.462a.763.763,0,0,1-.061.77,2.225,2.225,0,0,1-.8.784,9.189,9.189,0,0,0-1.36.72Z" transform="translate(-347.579 -92.916)" fill="#263238"/>
                <path id="Trazado_114358" data-name="Trazado 114358" d="M350.755,95.015a2.4,2.4,0,0,1-1.861,1.121.662.662,0,0,1-.647-1.075,2.4,2.4,0,0,1,1.861-1.121.662.662,0,0,1,.647,1.075Z" transform="translate(-347.579 -92.916)" fill="#455a64"/>
                <path id="Trazado_114359" data-name="Trazado 114359" d="M347.607,94.5a.671.671,0,0,1,.054-.677,2.116,2.116,0,0,1,1.638-.986.671.671,0,0,1,.623.268c.1.171.552.916.655,1.087a.671.671,0,0,1-.054.677,2.112,2.112,0,0,1-1.638.986.671.671,0,0,1-.624-.268Z" transform="translate(-347.538 -92.838)" fill="#37474f"/>
                <path id="Trazado_114360" data-name="Trazado 114360" d="M349.868,93.783a2.112,2.112,0,0,1-1.638.986.583.583,0,0,1-.569-.945,2.116,2.116,0,0,1,1.638-.986.583.583,0,0,1,.569.945Z" transform="translate(-347.538 -92.838)" fill="#455a64"/>
              </g>
              <g id="Grupo_81720" data-name="Grupo 81720" transform="translate(9.47 14.668)">
                <path id="Trazado_114361" data-name="Trazado 114361" d="M360.445,94.395a.763.763,0,0,0-.71-.306,2.4,2.4,0,0,0-1.861,1.121.766.766,0,0,0-.062.769l.279.463c.117.194.315.264.756.43a18.505,18.505,0,0,1,1.848.917c.977.525,1.851.095,1-1.31Z" transform="translate(-357.735 -94.089)" fill="#263238"/>
                <path id="Trazado_114362" data-name="Trazado 114362" d="M358.522,96.285a2.4,2.4,0,0,0,1.861-1.121.662.662,0,0,0-.647-1.075,2.4,2.4,0,0,0-1.86,1.121.662.662,0,0,0,.646,1.075Z" transform="translate(-357.735 -94.089)" fill="#455a64"/>
              </g>
              <g id="Grupo_81721" data-name="Grupo 81721" transform="translate(1.039)">
                <path id="Trazado_114363" data-name="Trazado 114363" d="M349.142,80.167h0a.409.409,0,0,1,.033-.414,1.292,1.292,0,0,1,1-.6.413.413,0,0,1,.383.164l0,0c.707,1.071,7.954,12.194,9.064,14.034l0,.006a.671.671,0,0,1-.055.677,2.113,2.113,0,0,1-1.638.987.673.673,0,0,1-.624-.269h0C356.213,92.924,349.745,81.271,349.142,80.167Z" transform="translate(-348.689 -78.356)" fill="#37474f"/>
                <path id="Trazado_114364" data-name="Trazado 114364" d="M348.776,79.552A.828.828,0,0,1,350.2,78.7v0l.334.554a.415.415,0,0,1-.033.415,1.294,1.294,0,0,1-1,.6.409.409,0,0,1-.382-.164Z" transform="translate(-348.657 -78.296)" fill="#9aeccd"/>
              </g>
            </g>
            <path id="Trazado_114365" data-name="Trazado 114365" d="M352.38,121.176c.544-1.465.663-2.77.554-6.652-.107-3.866-.851-6.394-.241-7.488s2.56-4.321,3.35-5.461a10.571,10.571,0,0,1,2.785-2.152,9.764,9.764,0,0,1,2.8-1.44,16.456,16.456,0,0,1,3.63.178c1.023.107.967,1.742-.514,2.436s-2.321.763-3.345,1.649a32.776,32.776,0,0,0-3.194,4.127s3.1-2.494,4.2-3.167a14.478,14.478,0,0,1,3.6-1.255,2.5,2.5,0,0,1,2.253.27c.8.456,1.5,1.343,1.119,1.995a3.792,3.792,0,0,1-1.032,1.089,2.809,2.809,0,0,1,1.371-.058,2.1,2.1,0,0,1,1.128,1.685c.111.718.007,1.044-.241,1.2a3.34,3.34,0,0,1,1.245.543,1.776,1.776,0,0,1,.352,2.269c-.639.873-2.215,1.7-3.514,2.559a4.965,4.965,0,0,0-.925.75,6.434,6.434,0,0,0-.766.835,2.31,2.31,0,0,0-.246,1.128c-.024.534-.055,1.067-.073,1.6a5.493,5.493,0,0,1-.067,1.273,7.41,7.41,0,0,1-2.237,3.47c-1.2,1.232-1.637,2.661-2.326,6.067-.642,3.175-2.249,12.469-2.822,16.276s-1.124,7.493-5.625,9.933-9.605,3.738-10.953-1.961-1.126-12.509.3-15.286,4.173-6.748,5.974-9.622A39.194,39.194,0,0,0,352.38,121.176Z" transform="translate(-341.74 -79.694)" fill="#ffbda7"/>
            <path id="Trazado_114366" data-name="Trazado 114366" d="M359.248,106.925a4.556,4.556,0,0,1-2.844,1.165,9.131,9.131,0,0,0,3.742-2.459Z" transform="translate(-342.785 -80.243)" fill="#f0997a"/>
            <path id="Trazado_114367" data-name="Trazado 114367" d="M360.433,110.574a6.106,6.106,0,0,0,2.363-1c.661-.533,1.351-1.11,2.072-1.6a9.3,9.3,0,0,1,2.328-1.222c.821-.306,1.644-.606,2.474-.874-.788.384-1.583.735-2.379,1.08a10.049,10.049,0,0,0-2.258,1.26c-.736.471-1.383,1.02-2.11,1.542A5.223,5.223,0,0,1,360.433,110.574Z" transform="translate(-343.072 -80.261)" fill="#f0997a"/>
            <path id="Trazado_114368" data-name="Trazado 114368" d="M372.148,108.917c-1.348.912-2.757,1.722-4.156,2.547a16.854,16.854,0,0,1-2.122,1.231,7.415,7.415,0,0,1-2.353.683,10.121,10.121,0,0,0,2.251-.886,20.994,20.994,0,0,0,2.062-1.275C369.251,110.419,370.672,109.621,372.148,108.917Z" transform="translate(-343.292 -80.477)" fill="#f0997a"/>
          </g>
          <path id="Chest" d="M417.431,118.009c3.244.671,7.358,1.508,11.493,2.652,4.162,1.151,6.88,1.883,10.616,3.956a167.971,167.971,0,0,1-3.143,30.041c-.709,3.29-3.1,12.372-3.513,19.341a111.065,111.065,0,0,0,.583,21.727s-10.731,7.962-33.659,6.235c-18-1.356-20.34-7.984-20.34-7.984s.328-30.008.8-43.283c.615-17.436,5.895-27.5,9.781-30.545l11.816-1.968Z" transform="translate(-344.254 -68.245)" fill="#465fc4"/>
          <g id="Grupo_81726" data-name="Grupo 81726" transform="translate(34.9 122.626)">
            <path id="Trazado_114369" data-name="Trazado 114369" d="M433.438,197.272c-6.591,4.054-17.419,6.581-26.676,6.965s-17.6-1.245-21.679-3.412a16.914,16.914,0,0,1-5.639-4.363l-.314,7.616s6.573,6.235,24.369,6.814c16.645.542,30.567-6.843,30.567-6.843Z" transform="translate(-379.13 -196.461)" fill="#263238"/>
            <g id="Grupo_81725" data-name="Grupo 81725" transform="translate(33.443 6.371)">
              <path id="Trazado_114370" data-name="Trazado 114370" d="M432.83,203.321c2.888,1.356,5.5,3.2,6.074,4.94.846,2.542,2.285,15.028.945,17.2s-12.624,7.989-15.547,8.252-6.745-3.194-7.509-4.236-1.8-17-1.636-18.242S432.83,203.321,432.83,203.321Z" transform="translate(-415.139 -203.321)" fill="#455a64"/>
              <g id="Grupo_81724" data-name="Grupo 81724" transform="translate(0.978 6.774)" opacity="0.2">
                <path id="Trazado_114371" data-name="Trazado 114371" d="M439.4,210.615a16.425,16.425,0,0,1-.047,4.639,6.588,6.588,0,0,1-2.226,3.811,14.8,14.8,0,0,1-3.907,2.316,18.555,18.555,0,0,1-4.354,1.342,5.81,5.81,0,0,1-4.175-.712,6.5,6.5,0,0,1-2.388-3.586,21.913,21.913,0,0,1-.545-2.267,4.548,4.548,0,0,0-1.319-2.093,9.634,9.634,0,0,0-4.251-2.074,10.184,10.184,0,0,1,3.9,2.424,3.993,3.993,0,0,1,1.052,1.9,21.709,21.709,0,0,0,.417,2.328,7.058,7.058,0,0,0,2.595,4.157,6.686,6.686,0,0,0,4.856.907,18.238,18.238,0,0,0,4.584-1.475,13.959,13.959,0,0,0,4.04-2.618,7.112,7.112,0,0,0,2.184-4.282A14.713,14.713,0,0,0,439.4,210.615Z" transform="translate(-416.192 -210.615)"/>
              </g>
            </g>
          </g>
          <g id="Grupo_81727" data-name="Grupo 81727" transform="translate(80.706 24.512)">
            <path id="Trazado_114372" data-name="Trazado 114372" d="M430.82,92.832c0,.625-2.37,1.647-2.37,1.647l1.06-3.658Z" transform="translate(-428.45 -90.82)" fill="#ba68c8"/>
            <path id="Trazado_114373" data-name="Trazado 114373" d="M430.82,92.832c0,.625-2.37,1.647-2.37,1.647l1.06-3.658Z" transform="translate(-428.45 -90.82)" opacity="0.3"/>
          </g>
          <g id="Head" transform="translate(46.622 3.509)">
            <g id="Grupo_81731" data-name="Grupo 81731">
              <g id="Grupo_81730" data-name="Grupo 81730">
                <g id="Grupo_81728" data-name="Grupo 81728">
                  <path id="Trazado_114374" data-name="Trazado 114374" d="M424.833,77.9s2.776.211,4.6,3.71c.914,1.758,1.57,4.965-.933,14.134a36.94,36.94,0,0,1-4.41,10.116,4.536,4.536,0,0,1-2.632,2.1l.183-7.047L421.9,96s-3.959-3.593-4.3-7.122a11.287,11.287,0,0,1,1.334-7.112Z" transform="translate(-393.588 -68.896)" fill="#37474f"/>
                  <path id="Trazado_114375" data-name="Trazado 114375" d="M423.975,77.441c-.686-3.961-5.71-8.688-15.4-9.206-7.941-.424-12.419,3.745-15.184,8.375a9.265,9.265,0,0,0-.463,8.816l24.3-1.256Z" transform="translate(-391.771 -68.206)" fill="#37474f"/>
                  <path id="Trazado_114376" data-name="Trazado 114376" d="M426.24,102.973c-3.652,1.775-5.318-1.114-5.318-1.114l.031,14.866c-7.009,9.381-26.3,5.657-18.623-1.37l.015-3.315a21.889,21.889,0,0,1-3.162-.309,6.842,6.842,0,0,1-6.2-5.522,45.38,45.38,0,0,1-1.1-7.342c-.22-3.673-.252-7.058.664-9.605.646-1.8-.11-4.168.384-6.4.376-1.7,1.111-3.561,2.675-4.333,3.88-1.918,7.468.847,12.873,2.954,2.238.873,7.667,1.257,9.1.585-1.886,2.081-1.87,8.659.908,11.329a6.084,6.084,0,0,0,1.392,1.813c1.182,1.029,2.151-1.625,3.145-2.665a4.071,4.071,0,0,1,6.334,1.457A6.633,6.633,0,0,1,426.24,102.973Z" transform="translate(-391.752 -68.896)" fill="#ffbda7"/>
                  <path id="Trazado_114377" data-name="Trazado 114377" d="M403.156,113.941c4.242-.025,8.006-.549,10.509-1.6s4.723-4.441,5.45-7.8c0,2.7-1.186,7.5-4.98,9.487s-8.214,2.1-10.989,2.157Z" transform="translate(-392.564 -70.795)" fill="#f0997a"/>
                  <path id="Trazado_114378" data-name="Trazado 114378" d="M416.879,91.673c.99,1.973-.139,8.19-2,8.97s-3.973-.463-8.036-1.635a14.941,14.941,0,0,0-8.727-.408c-1.907.522-5.53,2.224-6.224,1.25.238,4.621.229,11.281,5.352,12.937,3.639,1.176,11.394,1.377,15.956-1s5.4-5.1,6.241-8.813a68.159,68.159,0,0,1,2.335-7.675Z" transform="translate(-391.762 -69.878)" fill="#37474f"/>
                  <path id="Trazado_114379" data-name="Trazado 114379" d="M398.913,103.679a4.267,4.267,0,0,1,1.236-2.042,5.082,5.082,0,0,1,6.75-.016,4.7,4.7,0,0,1,1.4,2.848c.228,2.021-2.572,2.92-3.86,1.549a1.714,1.714,0,0,0-1.735-.315,3.678,3.678,0,0,0-.552.353,2.232,2.232,0,0,1-2.619-.193A2.11,2.11,0,0,1,398.913,103.679Z" transform="translate(-392.256 -70.496)" fill="#ffbda7"/>
                </g>
                <g id="Grupo_81729" data-name="Grupo 81729" transform="translate(2.78 15.363)">
                  <path id="Trazado_114380" data-name="Trazado 114380" d="M409.5,86.221l3.585,1.51a2.041,2.041,0,0,0-1.076-2.613A1.9,1.9,0,0,0,409.5,86.221Z" transform="translate(-395.797 -84.763)" fill="#37474f"/>
                  <path id="Trazado_114381" data-name="Trazado 114381" d="M394.861,87.47l3.643-1.447a1.881,1.881,0,0,0-2.482-1.14A2.06,2.06,0,0,0,394.861,87.47Z" transform="translate(-394.745 -84.747)" fill="#37474f"/>
                  <path id="Trazado_114382" data-name="Trazado 114382" d="M411.62,90.755a1.585,1.585,0,1,1-1.527-1.64A1.586,1.586,0,0,1,411.62,90.755Z" transform="translate(-395.721 -85.058)" fill="#263238"/>
                  <path id="Trazado_114383" data-name="Trazado 114383" d="M398.549,90.407a1.585,1.585,0,1,1-1.527-1.64A1.586,1.586,0,0,1,398.549,90.407Z" transform="translate(-394.79 -85.033)" fill="#263238"/>
                  <path id="Trazado_114384" data-name="Trazado 114384" d="M405.041,86.747l-1.308,10.09-5.33-1.969A23.645,23.645,0,0,1,405.041,86.747Z" transform="translate(-395.006 -84.89)" fill="#f0997a"/>
                </g>
              </g>
            </g>
            <path id="Trazado_114385" data-name="Trazado 114385" d="M405.831,101.82l-4.123,1.362a2.133,2.133,0,0,0,2.705,1.456A2.273,2.273,0,0,0,405.831,101.82Z" transform="translate(-392.461 -70.601)" fill="#b16668"/>
            <path id="Trazado_114386" data-name="Trazado 114386" d="M405.549,102.616a2.4,2.4,0,0,1,.524-.049,2.245,2.245,0,0,1-1.506,2.125,2.064,2.064,0,0,1-.689.1A1.988,1.988,0,0,1,405.549,102.616Z" transform="translate(-392.614 -70.654)" fill="#f28f8f"/>
          </g>
          <g id="Grupo_81732" data-name="Grupo 81732" transform="translate(40.874)">
            <path id="Trazado_114387" data-name="Trazado 114387" d="M429.637,85.775a18.377,18.377,0,0,1-1.406,5.208,19.449,19.449,0,0,0-1.294-1.48A32.385,32.385,0,0,0,417.744,83l-.016,0c-7.938-3.862-17.725-5.333-25.623-3.388a17.719,17.719,0,0,1,1.549-4.37,19.093,19.093,0,0,1,35.982,10.538Z" transform="translate(-386.029 -64.46)" fill="#f9931f"/>
            <path id="Trazado_114388" data-name="Trazado 114388" d="M422.278,67c-.945-.476-5.71-2-6.091-2.118-2.47-.8-6.461-.848-10.629,2.357a18.753,18.753,0,0,0-6.62,10L404,78.928l1.623.192c.673-3.651,5.774-11.443,12.715-11.572a6.847,6.847,0,0,1,.981.037,9.214,9.214,0,0,1,2.673.6,25.986,25.986,0,0,1,2.649,2.178A4.182,4.182,0,0,0,422.278,67Z" transform="translate(-386.516 -64.427)" fill="#f9931f"/>
            <path id="Trazado_114389" data-name="Trazado 114389" d="M422.278,67c-.945-.476-5.71-2-6.091-2.118-2.47-.8-6.461-.848-10.629,2.357a18.753,18.753,0,0,0-6.62,10L404,78.928l1.623.192c.673-3.651,5.774-11.443,12.715-11.572a6.847,6.847,0,0,1,.981.037,9.214,9.214,0,0,1,2.673.6,25.986,25.986,0,0,1,2.649,2.178A4.182,4.182,0,0,0,422.278,67Z" transform="translate(-386.516 -64.427)" fill="#fff" opacity="0.45"/>
            <path id="Trazado_114390" data-name="Trazado 114390" d="M406.011,79.254c.794-4.25,7.642-14.2,16.366-10.945a26.248,26.248,0,0,1,2.66,2.178,4.218,4.218,0,0,0-2.371-3.357c-2.267-1.128-6.839-1.769-11.66,1.938a18.711,18.711,0,0,0-6.612,10Z" transform="translate(-386.904 -64.557)" fill="#f9931f"/>
            <path id="Trazado_114391" data-name="Trazado 114391" d="M406.011,79.254c.794-4.25,7.642-14.2,16.366-10.945a26.248,26.248,0,0,1,2.66,2.178,4.218,4.218,0,0,0-2.371-3.357c-2.267-1.128-6.839-1.769-11.66,1.938a18.711,18.711,0,0,0-6.612,10Z" transform="translate(-386.904 -64.557)" opacity="0.3"/>
            <path id="Trazado_114392" data-name="Trazado 114392" d="M417.435,82.039a21.26,21.26,0,0,0-8.324-7.576c-3.865-2.136-11.868-2.431-15.458-2.458-6.288-.051-7.815,1.223-7.912,2.128-.023.215-.131,1.209-.164,1.435a.864.864,0,0,0,.12.586c.914,1.42,5.943,3.96,5.943,3.96,7.9-1.945,17.685-.474,25.623,3.388Z" transform="translate(-385.563 -64.967)" fill="#f9931f"/>
            <path id="Trazado_114393" data-name="Trazado 114393" d="M417.435,82.039a21.26,21.26,0,0,0-8.324-7.576c-3.865-2.136-11.868-2.431-15.458-2.458-6.288-.051-7.815,1.223-7.912,2.128-.023.215-.131,1.209-.164,1.435a.864.864,0,0,0,.12.586c.914,1.42,5.943,3.96,5.943,3.96,7.9-1.945,17.685-.474,25.623,3.388Z" transform="translate(-385.563 -64.967)" opacity="0.15"/>
            <path id="Trazado_114394" data-name="Trazado 114394" d="M417.262,83.614c-7.938-3.862-17.725-5.333-25.623-3.388,0,0-5.029-2.54-5.943-3.96-.489-.785.006-2.749,7.784-2.687,3.591.029,11.594.323,15.458,2.458A21.258,21.258,0,0,1,417.262,83.614Z" transform="translate(-385.563 -65.079)" fill="#f9931f"/>
            <path id="Trazado_114395" data-name="Trazado 114395" d="M417.262,83.614c-7.938-3.862-17.725-5.333-25.623-3.388,0,0-5.029-2.54-5.943-3.96-.489-.785.006-2.749,7.784-2.687,3.591.029,11.594.323,15.458,2.458A21.258,21.258,0,0,1,417.262,83.614Z" transform="translate(-385.563 -65.079)" opacity="0.3"/>
          </g>
          <g id="Grupo_81737" data-name="Grupo 81737" transform="translate(34.305 49.97)">
            <g id="Grupo_81734" data-name="Grupo 81734" transform="translate(33.573 0.328)">
              <path id="Trazado_114396" data-name="Trazado 114396" d="M422.582,118.6l.059.01C422.619,118.559,422.582,118.6,422.582,118.6Zm-7.944,50.135c0,13.3,1.067,37.542,1.067,37.542s7.787,1.162,14.785-1.45c7.072-2.639,7.831-6.034,7.831-6.034s-1.423-12.8-1.423-20.148a112.773,112.773,0,0,1,3.1-25.168c2.133-9.126,2.488-28.817,2.488-28.817a45.823,45.823,0,0,0-7.94-3.356c-4.088-1.249-11.31-2.583-11.908-2.692.079.189-.064,1.647-3.143,11.164C415.586,141.861,414.638,155.431,414.638,168.734Z" transform="translate(-414.638 -118.584)" fill="#f9931f"/>
              <g id="Grupo_81733" data-name="Grupo 81733" transform="translate(0.166 57.112)">
                <path id="Trazado_114397" data-name="Trazado 114397" d="M437.009,180.078c-.061,1-.1,1.984-.1,2.948,0,.149,0,.3,0,.458-6.49,3.1-14.853,4.211-22.02,4.08-.027-1-.053-2-.077-2.991C422.114,184.7,430.557,183.486,437.009,180.078Z" transform="translate(-414.817 -180.078)" fill="#fff"/>
                <path id="Trazado_114398" data-name="Trazado 114398" d="M415.138,195.616c7.274.087,15.674-1.162,22.079-4.593.071,1.1.15,2.195.235,3.265-6.512,3.225-14.957,4.405-22.212,4.32C415.206,197.637,415.172,196.637,415.138,195.616Z" transform="translate(-414.84 -180.858)" fill="#fff"/>
              </g>
            </g>
            <g id="Grupo_81736" data-name="Grupo 81736">
              <path id="Trazado_114399" data-name="Trazado 114399" d="M401.384,118.231s-7.757,6.241-10.942,19.449c-2.53,10.487-2.63,23.538-3.156,39.581s-.054,25.326-.054,25.326-6.712-1.157-8.743-4.418c.644-19.725,1.028-38.792,1.034-46.156a79.441,79.441,0,0,1,3.818-22.778,22.662,22.662,0,0,1,6.312-9.7Z" transform="translate(-378.489 -118.231)" fill="#f9931f"/>
              <g id="Grupo_81735" data-name="Grupo 81735" transform="translate(0.273 57.874)">
                <path id="Trazado_114400" data-name="Trazado 114400" d="M387.274,183.439q-.045,1.538-.076,3a30.966,30.966,0,0,1-4.753-1.144,27.486,27.486,0,0,1-3.371-1.384q.045-1.709.084-3.365a20.138,20.138,0,0,0,2.22,1.167A26.277,26.277,0,0,0,387.274,183.439Z" transform="translate(-378.804 -180.545)" fill="#fff"/>
                <path id="Trazado_114401" data-name="Trazado 114401" d="M382.424,196.04a27.718,27.718,0,0,1-3.641-1.507q.049-1.714.1-3.4a20.675,20.675,0,0,0,2.476,1.323,26.1,26.1,0,0,0,5.725,1.694q-.01,1.58-.007,3.016A30.987,30.987,0,0,1,382.424,196.04Z" transform="translate(-378.783 -181.299)" fill="#fff"/>
              </g>
            </g>
          </g>
          <g id="Grupo_81746" data-name="Grupo 81746" transform="translate(13.587 54.344)">
            <g id="Grupo_81742" data-name="Grupo 81742" transform="translate(0 35.084)">
              <path id="Trazado_114402" data-name="Trazado 114402" d="M356.893,160.716,393.136,170l13.381,40.963-.71.9-34.519-9.517-15.105-40.729Z" transform="translate(-356.182 -160.716)" fill="#9aeccd"/>
              <path id="Trazado_114403" data-name="Trazado 114403" d="M395.207,171.617l13.381,40.963.71-.9-13.381-40.963Z" transform="translate(-358.963 -161.428)" opacity="0.35"/>
              <path id="Trazado_114404" data-name="Trazado 114404" d="M356.182,161.69l36.244,9.284,13.381,40.963-34.519-9.517Z" transform="translate(-356.182 -160.785)" opacity="0.25"/>
              <g id="Grupo_81738" data-name="Grupo 81738" transform="translate(10.915 6.705)" opacity="0.1">
                <path id="Trazado_114405" data-name="Trazado 114405" d="M368.366,169.763s-.186-.616-.414-1.376,1.87-.536,4.687.5l6.513,1.359c2.817,1.036,5.457,1.761,5.686,2.521l.414,1.376Z" transform="translate(-367.935 -167.936)"/>
              </g>
              <g id="Grupo_81739" data-name="Grupo 81739" transform="translate(8.679 1.326)">
                <path id="Trazado_114406" data-name="Trazado 114406" d="M365.544,163.193c-.145-.476.666-.447,1.815-.249l2.085.51s-1-1.96,3.9-1.087c5.4.96,5.743,3.581,5.743,3.581a23.069,23.069,0,0,0,2.614.7c1.8.413,2.024.739,2.21,1.218l.337.866-18.473-4.721S365.689,163.669,365.544,163.193Z" transform="translate(-365.527 -162.144)" fill="#37474f"/>
              </g>
              <g id="Grupo_81740" data-name="Grupo 81740" transform="translate(10.134 3.198)">
                <path id="Trazado_114407" data-name="Trazado 114407" d="M367.776,165.86c1.727.606,2.448.911,2.8,2.083.4,1.339.514,1.9.514,1.9l9.655,2.853s-.683-1.962-.866-2.621,1.049-.774,2.732-.169l-.533-1.64-14.985-4.109Z" transform="translate(-367.094 -164.159)" fill="#37474f"/>
              </g>
              <g id="Grupo_81741" data-name="Grupo 81741" transform="translate(10.435 6.772)">
                <path id="Trazado_114408" data-name="Trazado 114408" d="M367.849,169.835s-.185-.617-.414-1.376,1.871-.537,4.687.5l6.514,1.359c2.817,1.036,5.456,1.76,5.686,2.521l.414,1.376Z" transform="translate(-367.418 -168.007)" fill="#37474f"/>
              </g>
            </g>
            <g id="Grupo_81745" data-name="Grupo 81745" transform="translate(27.181)">
              <path id="Trazado_114409" data-name="Trazado 114409" d="M450.065,141.521c-3.3-13.218-7.017-16.228-14.538-17.615-6.69,10.684-2.863,27.327-2.863,27.327L437.2,171.5c-1.235,1.081-19.782,12.986-23.066,14.136-1.191.417-3.451,0-4.654-.384-3.227-1.017-5.465-.647-8.563-.433l1.435,4.392a21.31,21.31,0,0,1-4,1,23.881,23.881,0,0,1-6.5.074c-1.959-.19-4.107-.557-5.754.519-.39.255-.765.7-.621,1.14.1.308.412.486.68.67a3.965,3.965,0,0,1,1.466,1.885,6.719,6.719,0,0,0,2.625,3.552,17.3,17.3,0,0,0,9.9,4.046,11.6,11.6,0,0,0,2.457.254c3.215-.125,6.234-1.162,9.274-2.085,3.738-1.136,5.876-2.119,8.907-3.115,2.024-.664,5.912-2.1,7.907-2.846,11.615-4.36,27.4-10.046,28.218-15.619S453.471,155.17,450.065,141.521Z" transform="translate(-385.448 -123.009)" fill="#ffbda7"/>
              <g id="Grupo_81744" data-name="Grupo 81744" transform="translate(44.971)">
                <g id="Grupo_81743" data-name="Grupo 81743">
                  <path id="Trazado_114410" data-name="Trazado 114410" d="M439.105,122.94c8.54,2.617,10.234,3.823,12.688,10.614,2.377,6.576,7.217,27.093,7.921,32.039-3.921,3.865-15.913,6.321-20.178,3.525L435.5,151.526C434.114,145.608,431.354,132.244,439.105,122.94Z" transform="translate(-433.869 -122.94)" fill="#465fc4"/>
                </g>
              </g>
            </g>
          </g>
        </g>
      </g>
    </g>
    <g id="Grupo_81659" data-name="Grupo 81659" transform="translate(923 3391.333)">
      <g id="Grupo_80111" data-name="Grupo 80111" transform="translate(25.366)">
        <path id="Trazado_113526" data-name="Trazado 113526" d="M290.173,1037.985l-17.77-17.77a.888.888,0,0,1,0-1.255h0a.888.888,0,0,1,1.256,0l17.77,17.77a.888.888,0,0,1,0,1.256h0A.888.888,0,0,1,290.173,1037.985Z" transform="translate(-272.143 -1018.7)" fill="#465fc4"/>
      </g>
      <g id="Grupo_80112" data-name="Grupo 80112" transform="translate(34.086 2.379)">
        <path id="Trazado_113527" data-name="Trazado 113527" d="M343.924,1044.577l-6.671-6.671a.888.888,0,0,1,0-1.255h0a.887.887,0,0,1,1.256,0l6.671,6.671a.888.888,0,0,1,0,1.256h0A.887.887,0,0,1,343.924,1044.577Z" transform="translate(-336.993 -1036.39)" fill="#465fc4"/>
      </g>
      <g id="Grupo_80113" data-name="Grupo 80113" transform="translate(19.025)">
        <path id="Trazado_113528" data-name="Trazado 113528" d="M249.36,1044.326l-24.11-24.11a.887.887,0,0,1,0-1.255h0a.887.887,0,0,1,1.255,0l24.111,24.11a.887.887,0,0,1,0,1.255h0A.887.887,0,0,1,249.36,1044.326Z" transform="translate(-224.989 -1018.7)" fill="#465fc4"/>
      </g>
      <g id="Grupo_80114" data-name="Grupo 80114" transform="translate(14.008 1.323)">
        <path id="Trazado_113529" data-name="Trazado 113529" d="M215.74,1057.857l-27.8-27.8a.888.888,0,0,1,0-1.256h0a.887.887,0,0,1,1.255,0L217,1056.6a.888.888,0,0,1,0,1.255h0A.887.887,0,0,1,215.74,1057.857Z" transform="translate(-187.675 -1028.537)" fill="#465fc4"/>
      </g>
      <g id="Grupo_80115" data-name="Grupo 80115" transform="translate(9.838 3.493)">
        <path id="Trazado_113530" data-name="Trazado 113530" d="M186.728,1076l-29.8-29.8a.888.888,0,0,1,0-1.256h0a.888.888,0,0,1,1.255,0l29.805,29.805a.888.888,0,0,1,0,1.255h0A.888.888,0,0,1,186.728,1076Z" transform="translate(-156.663 -1044.677)" fill="#465fc4"/>
      </g>
      <g id="Grupo_80116" data-name="Grupo 80116" transform="translate(6.345 6.345)">
        <path id="Trazado_113531" data-name="Trazado 113531" d="M161.392,1097.847,130.946,1067.4a.888.888,0,0,1,0-1.256h0a.888.888,0,0,1,1.256,0l30.446,30.446a.889.889,0,0,1,0,1.256h0A.889.889,0,0,1,161.392,1097.847Z" transform="translate(-130.686 -1065.885)" fill="#465fc4"/>
      </g>
      <g id="Grupo_80117" data-name="Grupo 80117" transform="translate(3.493 9.838)">
        <path id="Trazado_113532" data-name="Trazado 113532" d="M139.543,1123.183l-29.805-29.8a.888.888,0,0,1,0-1.255h0a.888.888,0,0,1,1.256,0l29.8,29.8a.887.887,0,0,1,0,1.255h0A.888.888,0,0,1,139.543,1123.183Z" transform="translate(-109.478 -1091.863)" fill="#465fc4"/>
      </g>
      <g id="Grupo_80118" data-name="Grupo 80118" transform="translate(1.323 14.008)">
        <path id="Trazado_113533" data-name="Trazado 113533" d="M121.4,1152.2,93.6,1124.39a.887.887,0,0,1,0-1.255h0a.887.887,0,0,1,1.255,0l27.805,27.8a.888.888,0,0,1,0,1.256h0A.887.887,0,0,1,121.4,1152.2Z" transform="translate(-93.336 -1122.875)" fill="#465fc4"/>
      </g>
      <g id="Grupo_80119" data-name="Grupo 80119" transform="translate(0 19.025)">
        <path id="Trazado_113534" data-name="Trazado 113534" d="M107.87,1185.815,83.759,1161.7a.887.887,0,0,1,0-1.255h0a.887.887,0,0,1,1.255,0l24.111,24.11a.887.887,0,0,1,0,1.255h0A.887.887,0,0,1,107.87,1185.815Z" transform="translate(-83.499 -1160.189)" fill="#465fc4"/>
      </g>
      <g id="Grupo_80120" data-name="Grupo 80120" transform="translate(0 25.366)">
        <path id="Trazado_113535" data-name="Trazado 113535" d="M101.529,1226.628l-17.77-17.77a.888.888,0,0,1,0-1.256h0a.888.888,0,0,1,1.255,0l17.77,17.77a.888.888,0,0,1,0,1.255h0A.888.888,0,0,1,101.529,1226.628Z" transform="translate(-83.499 -1207.343)" fill="#465fc4"/>
      </g>
      <g id="Grupo_80121" data-name="Grupo 80121" transform="translate(2.379 34.086)">
        <path id="Trazado_113536" data-name="Trazado 113536" d="M108.122,1280.379l-6.671-6.671a.888.888,0,0,1,0-1.256h0a.888.888,0,0,1,1.255,0l6.671,6.671a.888.888,0,0,1,0,1.255h0A.888.888,0,0,1,108.122,1280.379Z" transform="translate(-101.191 -1272.193)" fill="#465fc4"/>
      </g>
    </g>
    <g id="Elipse_4746" data-name="Elipse 4746" transform="translate(952 3414)" fill="none" stroke="#f9931f" stroke-width="6">
      <ellipse cx="13" cy="13.5" rx="13" ry="13.5" stroke="none"/>
      <ellipse cx="13" cy="13.5" rx="10" ry="10.5" fill="none"/>
    </g>
    <g id="Elipse_4747" data-name="Elipse 4747" transform="translate(1087 3311)" fill="none" stroke="#465fc4" stroke-width="6">
      <ellipse cx="13" cy="13.5" rx="13" ry="13.5" stroke="none"/>
      <ellipse cx="13" cy="13.5" rx="10" ry="10.5" fill="none"/>
    </g>
  </g>
</svg>
